<svg width="80" height="80" viewBox="0 0 80 80" fill="none" xmlns="http://www.w3.org/2000/svg">
<rect width="80" height="80" rx="8" fill="url(#paint0_linear_1_1853)"/>
<g clip-path="url(#clip0_1_1853)">
<path d="M16 33.621C16.3457 32.8143 16.9606 32.5399 17.8248 32.56C19.6196 32.6013 21.4156 32.5712 23.2116 32.5738C24.2975 32.575 24.8272 33.0974 24.8285 34.1746C24.831 39.0637 24.831 43.9515 24.8285 48.8406C24.8285 49.894 24.2962 50.4327 23.2504 50.4352C21.4394 50.4414 19.6271 50.4089 17.816 50.449C16.9506 50.4678 16.3357 50.1897 16 49.3742V33.6222V33.621Z" fill="#B4DBFF"/>
<path d="M28.6303 48V45.2L34.1503 40.2C34.497 39.8667 34.777 39.5267 34.9903 39.18C35.2036 38.8333 35.3103 38.4467 35.3103 38.02C35.3103 37.5133 35.1503 37.1067 34.8303 36.8C34.5103 36.48 34.0836 36.32 33.5503 36.32C32.9903 36.32 32.5303 36.52 32.1703 36.92C31.8236 37.3067 31.617 37.82 31.5503 38.46L28.3303 38.02C28.4103 37.3 28.6036 36.66 28.9103 36.1C29.2303 35.54 29.6303 35.0667 30.1103 34.68C30.5903 34.28 31.137 33.98 31.7503 33.78C32.377 33.5667 33.037 33.46 33.7303 33.46C34.3836 33.46 35.017 33.5467 35.6303 33.72C36.2436 33.8933 36.7903 34.16 37.2703 34.52C37.7503 34.88 38.1303 35.3333 38.4103 35.88C38.7036 36.4267 38.8503 37.0667 38.8503 37.8C38.8503 38.3067 38.7836 38.7667 38.6503 39.18C38.517 39.58 38.3303 39.9533 38.0903 40.3C37.8636 40.6467 37.597 40.9733 37.2903 41.28C36.997 41.5733 36.6903 41.8667 36.3703 42.16L33.0903 45.08H38.8703V48H28.6303ZM51.8 40.88C51.8 41.88 51.7 42.8333 51.5 43.74C51.3 44.6467 50.98 45.4467 50.54 46.14C50.1 46.82 49.5267 47.3667 48.82 47.78C48.1267 48.18 47.28 48.38 46.28 48.38C45.28 48.38 44.4267 48.18 43.72 47.78C43.0133 47.3667 42.4333 46.82 41.98 46.14C41.54 45.4467 41.22 44.6467 41.02 43.74C40.82 42.8333 40.72 41.88 40.72 40.88C40.72 39.88 40.82 38.9333 41.02 38.04C41.22 37.1333 41.54 36.3467 41.98 35.68C42.4333 35 43.0133 34.46 43.72 34.06C44.4267 33.66 45.28 33.46 46.28 33.46C47.28 33.46 48.1267 33.66 48.82 34.06C49.5267 34.46 50.1 35 50.54 35.68C50.98 36.3467 51.3 37.1333 51.5 38.04C51.7 38.9333 51.8 39.88 51.8 40.88ZM48.36 40.88C48.36 40.44 48.3333 39.9533 48.28 39.42C48.2267 38.8867 48.1267 38.3933 47.98 37.94C47.8333 37.4733 47.62 37.0867 47.34 36.78C47.0733 36.46 46.72 36.3 46.28 36.3C45.84 36.3 45.48 36.46 45.2 36.78C44.92 37.0867 44.7 37.4733 44.54 37.94C44.3933 38.3933 44.2933 38.8867 44.24 39.42C44.1867 39.9533 44.16 40.44 44.16 40.88C44.16 41.3333 44.1867 41.8333 44.24 42.38C44.2933 42.9133 44.3933 43.4133 44.54 43.88C44.7 44.3333 44.92 44.72 45.2 45.04C45.48 45.3467 45.84 45.5 46.28 45.5C46.72 45.5 47.0733 45.3467 47.34 45.04C47.62 44.72 47.8333 44.3333 47.98 43.88C48.1267 43.4133 48.2267 42.9133 48.28 42.38C48.3333 41.8333 48.36 41.3333 48.36 40.88Z" fill="#B4DBFF"/>
<path d="M39.437 64C39.0651 63.8872 38.6818 63.8046 38.3249 63.658C36.4913 62.9102 35.3816 61.0275 35.6071 59.0796C35.8337 57.1142 37.3517 55.5359 39.3281 55.2114C41.228 54.8995 43.1681 55.9192 43.9834 57.7054C44.1537 58.0775 44.3391 58.1877 44.7411 58.1915C46.3756 58.204 47.9862 58.1326 49.5192 57.4737C51.6434 56.5605 53.2202 55.0736 54.2485 53.0043C54.2961 52.9078 54.3462 52.8126 54.3499 52.8076C55.2993 53.0018 56.201 53.1859 57.1366 53.3763C57.1103 53.449 57.0715 53.5943 57.0089 53.7283C54.8509 58.3017 51.2501 60.7306 46.1965 60.9836C45.6354 61.0112 45.0705 60.9761 44.5094 60.9999C44.3729 61.0062 44.1675 61.1001 44.1199 61.2091C43.4549 62.7047 42.3352 63.6204 40.7283 63.9411C40.702 63.9461 40.6807 63.9787 40.6569 63.9975H39.4383L39.437 64Z" fill="#B4DBFF"/>
<path d="M55.1705 41.5138C55.1705 39.0774 55.1692 36.6398 55.1705 34.2034C55.1705 33.0923 55.6915 32.5737 56.8049 32.5724C58.6635 32.5699 60.5222 32.5699 62.3808 32.5724C63.4592 32.5737 63.999 33.1098 63.999 34.1783C64.0002 39.0674 64.0002 43.9577 63.999 48.8468C63.999 49.884 63.4529 50.4301 62.4059 50.4326C60.5159 50.4376 58.626 50.4389 56.736 50.4326C55.7153 50.4289 55.173 49.8865 55.1717 48.8706C55.168 46.4179 55.1717 43.9652 55.1705 41.5125V41.5138Z" fill="#B4DBFF"/>
<path d="M25.2787 30.0409C24.397 29.9169 23.499 29.7891 22.6035 29.6638C23.881 23.3793 30.0944 16.3132 39.3838 16.01C49.213 15.6894 55.9799 22.9234 57.4077 29.6651C56.5147 29.7891 55.618 29.9144 54.7388 30.0359C52.2076 22.8745 47.2567 18.6343 39.4276 18.8861C32.1484 19.1204 27.572 23.323 25.28 30.0409H25.2787Z" fill="#B4DBFF"/>
</g>
<defs>
<linearGradient id="paint0_linear_1_1853" x1="80" y1="-9.43963e-05" x2="-3.12323" y2="3.3886" gradientUnits="userSpaceOnUse">
<stop stop-color="#2A6BA6"/>
<stop offset="1" stop-color="#5598D5"/>
</linearGradient>
<clipPath id="clip0_1_1853">
<rect width="48" height="48" fill="white" transform="translate(16 16)"/>
</clipPath>
</defs>
</svg>
