<svg width="16" height="16" viewBox="0 0 16 16" fill="none" xmlns="http://www.w3.org/2000/svg">
<g clip-path="url(#clip0_320_1861)">
<path d="M8.26594 0C8.47376 0.0414863 8.68315 0.0774932 8.8898 0.125633C10.307 0.457914 11.5179 1.81013 11.7085 3.25667C11.8342 4.2089 11.6956 5.10907 11.1578 5.91414C10.4436 6.98378 9.45495 7.60647 8.14735 7.69492C6.43076 7.81116 5.01866 6.80101 4.37758 5.4304C3.77564 4.14315 4.01908 2.42812 4.96269 1.36122C5.54194 0.706441 6.23977 0.254788 7.10393 0.0790587C7.25109 0.0497052 7.39943 0.0262225 7.54737 0C7.78689 0 8.02642 0 8.26594 0Z" fill="#57A6EE"/>
<path d="M8.00098 15.9996C6.73056 15.9996 5.46014 15.9996 4.18933 15.9996C3.5459 15.9996 2.93848 15.8705 2.40424 15.4896C1.79252 15.0536 1.43088 14.4544 1.36709 13.7136C1.2532 12.3903 1.40701 11.0921 1.90328 9.85377C2.20112 9.11054 2.64807 8.47142 3.38269 8.08161C3.83865 7.83973 4.32788 7.72428 4.83902 7.73563C4.99557 7.73915 5.16073 7.81742 5.30319 7.8957C5.54428 8.02838 5.76855 8.19158 6.00337 8.336C7.3372 9.15673 8.67219 9.15633 10.0052 8.33365C10.1645 8.23542 10.3309 8.14383 10.4757 8.02681C10.8843 7.6961 11.341 7.69336 11.8216 7.79472C12.7558 7.99159 13.4141 8.54422 13.8678 9.36651C14.3159 10.179 14.5171 11.0631 14.6063 11.9743C14.6529 12.4498 14.6736 12.9304 14.6673 13.4083C14.6493 14.784 13.6642 15.8395 12.2952 15.9699C12.0987 15.9887 11.9007 15.9988 11.7034 15.9992C10.4694 16.002 9.23539 16.0004 8.00137 16.0004L8.00098 15.9996Z" fill="#57A6EE"/>
</g>
<defs>
<clipPath id="clip0_320_1861">
<rect width="16" height="16" fill="white"/>
</clipPath>
</defs>
</svg>
