<svg fill="none" height="40" viewBox="0 0 40 40" width="40" xmlns="http://www.w3.org/2000/svg"><path d="m38.5955 35.4265h-.0711v-.9215c0-.7744-.63-1.4044-1.4045-1.4044h-1.6728v-1.2706c0-.6036-.4745-1.0971-1.0699-1.1305v-11.9438c.5954-.0334 1.0699-.5269 1.0699-1.1305v-1.2706h1.623c.6183 0 1.1215-.503 1.1215-1.1215v-1.1975h.853c.502 0 .9104-.4084.9104-.9103v-1.035c0-.3347-.1828-.6415-.4773-.8008l-13.4375-7.26669c-.2853-.15454-.6412-.04813-.7953.23703-.1541.28508-.048.64117.2371.79523l13.2993 7.19213v.6147h-37.56263v-.6096l19.06973-10.00582 2.7754 1.50094c.2852.15437.6411.04804.7953-.23704.1541-.28507.048-.64117-.2371-.79523l-2.7754-1.50102c-.3428-.18539-.7536-.18796-1.0988-.00687l-19.215222 10.07964c-.300781.1577-.487578.4666-.487578.8061v1.0322c0 .502.408438.9103.910391.9103h.853049v1.1976c0 .6184.50304 1.1215 1.12148 1.1215h1.62297v1.2706c0 .6036.47453 1.0971 1.06992 1.1305v7.7754c0 .3241.26274.5868.5868.5868s.5868-.2627.5868-.5868v-7.7721h1.87781v11.9373h-1.87774v-1.4072c0-.3241-.26273-.5868-.58679-.5868-.32407 0-.5868.2627-.5868.5868v1.4104c-.59539.0334-1.06992.5269-1.06992 1.1305v1.2706h-1.67289c-.77438 0-1.40445.63-1.40445 1.4044v.9215h-.07118c-.77445 0-1.40445.63-1.40445 1.4044v1.2275c0 .4784.389297.8678.867734.8678h38.264566c.4784 0 .8677-.3893.8677-.8678v-1.2275c0-.7744-.63-1.4044-1.4045-1.4044zm-35.61339-20.2455v-1.1454h34.03579v1.1454zm31.29129 16.6889v1.2306h-4.0176v-1.2306zm-2.9477-1.1737v-11.9373h1.8778v11.9373zm-1.0699-13.1109v-1.2306h4.0176v1.2306zm-4.055 13.1142v-11.9438c.5954-.0334 1.0699-.5269 1.0699-1.1305v-1.2706h1.8114v1.2706c0 .6036.4745 1.0971 1.0699 1.1305v11.9438c-.5954.0334-1.0699.5269-1.0699 1.1305v1.2706h-1.8114v-1.2706c0-.6036-.4745-1.0971-1.0699-1.1305zm-.1038 1.1704v1.2306h-4.0176v-1.2306zm-2.9477-1.1737v-11.9373h1.8778v11.9373zm-1.0699-13.1109v-1.2306h4.0176v1.2306zm-4.055 13.1142v-11.9438c.5954-.0334 1.0699-.5269 1.0699-1.1305v-1.2706h1.8114v1.2706c0 .6036.4745 1.0971 1.0699 1.1305v11.9438c-.5954.0334-1.0699.5269-1.0699 1.1305v1.2706h-1.8114v-1.2706c0-.6036-.4745-1.0971-1.0699-1.1305zm-.5869 1.1704h.4831v1.2306h-4.0176v-1.2306h.4831zm-2.4646-1.1737v-11.9373h1.8778v11.9373zm-1.0699-13.1109v-1.2306h4.0176v1.2306zm-4.05503 13.1142v-11.9438c.59543-.0334 1.06993-.5269 1.06993-1.1305v-1.2706h1.8114v1.2706c0 .6036.4745 1.0971 1.0699 1.1305v11.9438c-.5954.0334-1.0699.5269-1.0699 1.1305v1.2706h-1.8114v-1.2706c0-.6036-.4745-1.0971-1.06993-1.1305zm-4.12141-13.1142v-1.2306h4.01766v1.2306zm0 14.2846h.48313 3.05148.48313v1.2306h-4.01774zm-3.07726 2.6351c0-.1272.10351-.2308.23078-.2308h34.23982c.1273 0 .2308.1035.2308.2308v.9215h-34.7014zm36.177 3.2475h-37.65263v-.9216c0-.1272.10352-.2307.23078-.2307h37.19105c.1273 0 .2308.1035.2308.2307z" fill="#fff"/></svg>