<svg fill="none" height="40" viewBox="0 0 40 40" width="40" xmlns="http://www.w3.org/2000/svg" xmlns:xlink="http://www.w3.org/1999/xlink"><clipPath id="a"><path d="m0 0h40v40h-40z"/></clipPath><g clip-path="url(#a)" fill="#fff"><path d="m34.1667 8.33333c-2.2984 0-4.1667-1.86833-4.1667-4.16666 0-2.29834 1.8683-4.16667 4.1667-4.16667 2.2983 0 4.1666 1.86833 4.1666 4.16667 0 2.29833-1.8683 4.16666-4.1666 4.16666zm0-6.66666c-1.3784 0-2.5 1.12166-2.5 2.5 0 1.37833 1.1216 2.5 2.5 2.5 1.3783 0 2.5-1.12167 2.5-2.5 0-1.37834-1.1217-2.5-2.5-2.5z"/><path d="m39.1658 9.99989c-.2134 0-.4267-.08167-.59-.24334l-2.5-2.5c-.325-.32499-.325-.85333 0-1.17833s.8533-.325 1.1783 0l2.5 2.5c.325.325.325.85333 0 1.17833-.1617.16167-.375.24334-.5883.24334z"/><path d="m24.1667 10h-21.6667c-1.37833 0-2.5-1.12167-2.5-2.5v-5c0-1.37833 1.12167-2.5 2.5-2.5h21.6667c1.3783 0 2.5 1.12167 2.5 2.5v5c0 1.37833-1.1217 2.5-2.5 2.5zm-21.6667-8.33333c-.45833 0-.83333.375-.83333.83333v5c0 .45833.375.83333.83333.83333h21.6667c.4583 0 .8333-.375.8333-.83333v-5c0-.45833-.375-.83333-.8333-.83333z"/><path d="m5 40c-2.75667 0-5-2.2433-5-5s2.24333-5 5-5 5 2.2433 5 5-2.24333 5-5 5zm0-8.3333c-1.83833 0-3.33333 1.495-3.33333 3.3333s1.495 3.3333 3.33333 3.3333 3.33333-1.495 3.33333-3.3333-1.495-3.3333-3.33333-3.3333z"/><path d="m9.16667 21.6667h-8.333337c-.46 0-.833333-.3734-.833333-.8334s.373333-.8333.833333-.8333h8.333337c.46 0 .83333.3733.83333.8333s-.37333.8334-.83333.8334z"/><path d="m9.16667 26.6667h-8.333337c-.46 0-.833333-.3734-.833333-.8334s.373333-.8333.833333-.8333h8.333337c.46 0 .83333.3733.83333.8333s-.37333.8334-.83333.8334z"/><path d="m9.16667 16.6667h-8.333337c-.46 0-.833333-.3734-.833333-.8334s.373333-.8333.833333-.8333h8.333337c.46 0 .83333.3733.83333.8333s-.37333.8334-.83333.8334z"/><path d="m37.5007 39.9997h-21.6667c-1.3783 0-2.5-1.1217-2.5-2.5v-21.6667c0-1.3783 1.1217-2.5 2.5-2.5h21.6667c1.3783 0 2.5 1.1217 2.5 2.5v21.6667c0 1.3783-1.1217 2.5-2.5 2.5zm-21.6667-25c-.4583 0-.8333.375-.8333.8333v21.6667c0 .4583.375.8333.8333.8333h21.6667c.4583 0 .8333-.375.8333-.8333v-21.6667c0-.4583-.375-.8333-.8333-.8333z"/><path d="m26.666 25c-1.3783 0-2.5-1.1217-2.5-2.5s1.1217-2.5 2.5-2.5 2.5 1.1217 2.5 2.5-1.1217 2.5-2.5 2.5zm0-3.3333c-.4583 0-.8333.375-.8333.8333s.375.8333.8333.8333.8333-.375.8333-.8333-.375-.8333-.8333-.8333z"/><path d="m30.8327 31.667c-.46 0-.8334-.3733-.8334-.8333v-.8334c0-.92-.7466-1.6666-1.6666-1.6666h-3.3334c-.92 0-1.6666.7466-1.6666 1.6666v.8334c0 .46-.3734.8333-.8334.8333s-.8333-.3733-.8333-.8333v-.8334c0-1.8383 1.495-3.3333 3.3333-3.3333h3.3334c1.8383 0 3.3333 1.495 3.3333 3.3333v.8334c0 .46-.3733.8333-.8333.8333z"/></g></svg>