<svg fill="none" height="40" viewBox="0 0 40 40" width="40" xmlns="http://www.w3.org/2000/svg" xmlns:xlink="http://www.w3.org/1999/xlink"><clipPath id="a"><path d="m0 0h40v40h-40z"/></clipPath><g clip-path="url(#a)" fill="#fff"><path d="m24.27 25.2102c-.46-.46-1.06-.71-1.71-.71h-7.57l.51-4.02s0-.06 0-.08c0-3.32-2.36-4.2-3.6-4.2h-.02c-.14 0-.27.04-.38.12-.12.08-.2.21-.24.35l-2.37 8.22c-.38.75-.96 1.38-1.68 1.81v-.38c0-.17-.07-.33-.19-.45s-.28-.19-.45-.19h-5.93c-.17 0-.33.07-.45.19s-.19.28-.19.45v13.03c0 .17.07.34.19.45.12.12.28.19.45.19h5.93c.17 0 .33-.07.45-.19s.19-.28.19-.45v-.33l3.34.97h.09.08 10.07c.46 0 .91-.14 1.29-.39.39-.25.69-.6.88-1.02s.26-.88.2-1.33c-.06-.43-.24-.84-.51-1.19.28-.18.52-.41.7-.68.2-.29.33-.62.39-.96.06-.35.04-.7-.05-1.04-.09-.32-.24-.62-.44-.87.28-.18.52-.41.7-.68.2-.29.33-.62.38-.96.06-.34.04-.7-.05-1.04-.08-.32-.24-.62-.44-.87.34-.21.63-.5.83-.84.21-.36.33-.78.33-1.2 0-.65-.25-1.25-.71-1.71zm-1.71 2.85h-2.96c-.17 0-.33.07-.45.19s-.19.28-.19.45.07.34.19.45c.12.12.28.19.45.19h2.37c.3 0 .59.12.8.33s.33.5.33.8-.12.59-.33.8-.5.33-.8.33h-2.96c-.17 0-.33.07-.45.19s-.19.28-.19.45.07.33.19.45.28.19.45.19h2.37c.3 0 .59.12.8.33s.33.5.33.8-.12.59-.33.8-.5.33-.8.33h-2.96c-.17 0-.33.07-.45.19s-.19.28-.19.45.07.33.19.45.28.19.45.19h2.37c.3 0 .59.12.8.33s.33.5.33.8-.12.59-.33.8-.5.33-.8.33h-9.99l-3.59-1.03v-9.62c1.82-.45 2.88-2.62 2.89-2.64.02-.04.03-.07.04-.11l2.22-7.76c.71.17 1.84.76 1.85 2.81l-.59 4.7c-.01.09 0 .18.02.27.03.09.07.17.13.23.06.07.13.12.22.16.08.04.17.06.26.06h8.3c.3 0 .59.12.8.33s.33.5.33.8-.12.59-.33.8-.5.33-.8.33zm-16.64-1.09v11.75h-4.63v-11.75z"/><path d="m10.4691 8.21977c-.12-.13-.3-.2-.48004-.2h-.58v-.58c0-.18-.07-.35-.2-.48-.12-.13-.3-.2-.48-.2s-.35.07-.48.2-.2.3-.2.48v.58h-.58c-.18 0-.35.07-.48.2s-.2.3-.2.48.07.35.2.48.3.2.48.2h.58v.58c0 .18003.07.35003.2.48003s.3.2.48.2.35-.07.48-.2.2-.3.2-.48003v-.58h.58c.18004 0 .35004-.07.48004-.2s.2-.3.2-.48-.07-.35-.2-.48z"/><path d="m33.5902 31.3501c-.13-.13-.3-.2-.48-.2h-.58v-.58c0-.18-.07-.35-.2-.48s-.3-.2-.48-.2-.35.07-.48.2-.2.3-.2.48v.58h-.58c-.18 0-.35.07-.48.2s-.2.3-.2.48.07.35.2.48.3.2.48.2h.58v.58c0 .18.07.35.2.48s.3.2.48.2.35-.07.48-.2c.13-.12.2-.3.2-.48v-.58h.58c.18 0 .35-.07.48-.2.13-.12.2-.3.2-.48s-.07-.35-.2-.48z"/><path d="m39.9398 12.48c-.33-3.45-1.93-6.63-4.51-8.94-2.55-2.29-5.82-3.54-9.23-3.54-.05 0-.1 0-.15 0-3.68 0-7.15 1.44-9.75 4.04-2.61 2.61-4.04 6.07-4.04 9.76 0 .18.07.35.2.48s.3.2.48.2.35-.07.48-.2c.13-.12.2-.3.2-.48 0-2.36.67-4.67 1.94-6.67s3.07-3.58 5.21-4.59 4.51-1.39 6.86-1.09c2.35.29 4.55 1.24 6.37 2.75 1.82 1.5 3.18 3.49 3.91 5.74.74 2.25.82 4.64.23 6.94-.58 2.29-1.8 4.36-3.52 5.98s-3.85 2.72-6.17 3.17c-.18.02-.35.11-.46.24-.12.14-.17.32-.15.5s.1.34.24.46c.12.1.27.15.43.15h.06.13c3.41-.62 6.44-2.49 8.53-5.26s3.06-6.19 2.73-9.64z"/><path d="m26.6296 11.76h-1.14c-.29 0-.57-.11-.77-.32-.2-.2-.32-.49-.32-.77s.11-.57.32-.77c.21-.21.48-.32.77-.32h4.01c.47 0 .92-.18 1.25-.52.33-.33.52-.78.52-1.25s-.18-.92-.52-1.25c-.33-.33-.78-.52-1.25-.52h-1.67v-1.67c0-.16-.07-.32-.18-.44-.12-.12-.27-.18-.44-.18h-2.29c-.16 0-.33.07-.44.18-.12.12-.18.28-.18.44v1.83c-1.07.29-2 .96-2.63 1.88-.63.93-.9 2.06-.76 3.18s.68 2.14 1.53 2.89c.84.75 1.93 1.16 3.05 1.16h1.14c.29 0 .57.11.77.32.21.21.32.48.32.77s-.12.57-.32.77c-.21.21-.48.32-.77.32h-4.01c-.47 0-.92.18-1.25.52-.33.33-.52.78-.52 1.25s.19.92.52 1.25.78.52 1.25.52h1.67v1.67c0 .17.06.32.18.44s.27.18.44.18h2.29c.17 0 .32-.06.44-.18s.18-.27.18-.44v-1.83c.97-.26 1.85-.84 2.46-1.64.62-.81.97-1.81.97-2.83 0-1.22-.49-2.41-1.36-3.27-.88-.87-2.04-1.36-3.27-1.36zm.1 8.18c-.1.11-.15.26-.15.41v1.71h-1.04v-1.67c0-.17-.06-.32-.18-.44s-.27-.18-.44-.18h-2.29c-.14 0-.27-.05-.37-.15s-.15-.23-.15-.37.05-.27.15-.37.23-.15.37-.15h4.01c.62 0 1.21-.24 1.65-.69.44-.44.69-1.04.69-1.65s-.24-1.21-.69-1.65-1.03-.69-1.65-.69h-1.14c-.85 0-1.66-.33-2.29-.92-.62-.58-1-1.37-1.06-2.22s.2-1.69.73-2.35c.53-.67 1.29-1.11 2.13-1.24.15-.02.29-.1.38-.21.1-.11.15-.26.15-.41v-1.71h1.04v1.67c0 .17.06.32.18.44s.27.18.44.18h2.29c.14 0 .27.06.37.15.1.1.15.23.15.37s-.05.27-.15.37-.23.15-.37.15h-4.01c-.62 0-1.21.24-1.65.69-.44.44-.68 1.03-.68 1.65s.25 1.22.68 1.65c.44.44 1.03.69 1.65.69h1.14c.85 0 1.67.33 2.29.92.62.58 1 1.37 1.06 2.22s-.2 1.69-.73 2.35c-.53.67-1.29 1.11-2.13 1.24-.15.02-.29.1-.38.21z"/></g></svg>