<svg fill="none" height="40" viewBox="0 0 40 40" width="40" xmlns="http://www.w3.org/2000/svg"><g fill="#fff"><path d="m37.5 15h-9.1667v-6.66667h5.8334c.221 0 .4329-.08779.5892-.24407.1563-.15629.2441-.36825.2441-.58926v-3.33333c0-1.10507-.439-2.16488-1.2204-2.94628-.7814-.781403-1.8412-1.22039-2.9463-1.22039h-26.66663c-1.10507 0-2.16488.438987-2.94628 1.22039-.781403.7814-1.22039 1.84121-1.22039 2.94628v31.66663c0 .221.0877974.433.244078.5893.15628.1563.368242.2441.589255.2441h19.166667v.8333c0 .663.2634 1.2989.7322 1.7678.4689.4688 1.1048.7322 1.7678.7322h15c.663 0 1.2989-.2634 1.7678-.7322.4688-.4689.7322-1.1048.7322-1.7678v-20c0-.663-.2634-1.2989-.7322-1.7678-.4689-.4688-1.1048-.7322-1.7678-.7322zm-4.1667-10.83333v2.5h-5v-2.5c0-.66304.2634-1.29893.7323-1.76777.4688-.46884 1.1047-.73223 1.7677-.73223.6631 0 1.299.26339 1.7678.73223s.7322 1.10473.7322 1.76777zm-31.66663 30.83333v-30.83333c0-.66304.26339-1.29893.73223-1.76777s1.10473-.73223 1.76777-.73223h23.33333c-1.1083 1.46666-.8333 1.45833-.8333 13.33333h-4.1667c-.663 0-1.2989.2634-1.7678.7322-.4688.4689-.7322 1.1048-.7322 1.7678v17.5zm36.66663 2.5c0 .221-.0878.433-.244.5893-.1563.1562-.3683.244-.5893.244h-15c-.221 0-.433-.0878-.5893-.244-.1562-.1563-.244-.3683-.244-.5893v-20c0-.221.0878-.433.244-.5893.1563-.1562.3683-.244.5893-.244h15c.221 0 .433.0878.5893.244.1562.1563.244.3683.244.5893z"/><path d="m35.834 18.3335h-11.6667c-.221 0-.433.0878-.5892.2441-.1563.1563-.2441.3682-.2441.5892v6.6667c0 .221.0878.433.2441.5893.1562.1562.3682.244.5892.244h11.6667c.221 0 .433-.0878.5892-.244.1563-.1563.2441-.3683.2441-.5893v-6.6667c0-.221-.0878-.4329-.2441-.5892-.1562-.1563-.3682-.2441-.5892-.2441zm-.8333 6.6667h-10v-5h10z"/><path d="m30.834 28.3335h-1.6667c-.221 0-.433.0878-.5892.2441-.1563.1563-.2441.3682-.2441.5892s.0878.433.2441.5893c.1562.1563.3682.2441.5892.2441h1.6667c.221 0 .433-.0878.5892-.2441.1563-.1563.2441-.3683.2441-.5893s-.0878-.4329-.2441-.5892c-.1562-.1563-.3682-.2441-.5892-.2441z"/><path d="m25.834 28.3335h-1.6667c-.221 0-.433.0878-.5892.2441-.1563.1563-.2441.3682-.2441.5892s.0878.433.2441.5893c.1562.1563.3682.2441.5892.2441h1.6667c.221 0 .433-.0878.5892-.2441.1563-.1563.2441-.3683.2441-.5893s-.0878-.4329-.2441-.5892c-.1562-.1563-.3682-.2441-.5892-.2441z"/><path d="m35.834 28.3335h-1.6667c-.221 0-.433.0878-.5892.2441-.1563.1563-.2441.3682-.2441.5892s.0878.433.2441.5893c.1562.1563.3682.2441.5892.2441h1.6667c.221 0 .433-.0878.5892-.2441.1563-.1563.2441-.3683.2441-.5893s-.0878-.4329-.2441-.5892c-.1562-.1563-.3682-.2441-.5892-.2441z"/><path d="m30.834 31.6665h-1.6667c-.221 0-.433.0878-.5892.2441-.1563.1563-.2441.3682-.2441.5892s.0878.433.2441.5893c.1562.1563.3682.2441.5892.2441h1.6667c.221 0 .433-.0878.5892-.2441.1563-.1563.2441-.3683.2441-.5893s-.0878-.4329-.2441-.5892c-.1562-.1563-.3682-.2441-.5892-.2441z"/><path d="m25.834 31.6665h-1.6667c-.221 0-.433.0878-.5892.2441-.1563.1563-.2441.3682-.2441.5892s.0878.433.2441.5893c.1562.1563.3682.2441.5892.2441h1.6667c.221 0 .433-.0878.5892-.2441.1563-.1563.2441-.3683.2441-.5893s-.0878-.4329-.2441-.5892c-.1562-.1563-.3682-.2441-.5892-.2441z"/><path d="m35.834 31.6665h-1.6667c-.221 0-.433.0878-.5892.2441-.1563.1563-.2441.3682-.2441.5892s.0878.433.2441.5893c.1562.1563.3682.2441.5892.2441h1.6667c.221 0 .433-.0878.5892-.2441.1563-.1563.2441-.3683.2441-.5893s-.0878-.4329-.2441-.5892c-.1562-.1563-.3682-.2441-.5892-.2441z"/><path d="m30.834 35h-1.6667c-.221 0-.433.0878-.5892.2441-.1563.1563-.2441.3682-.2441.5892s.0878.433.2441.5893c.1562.1563.3682.2441.5892.2441h1.6667c.221 0 .433-.0878.5892-.2441.1563-.1563.2441-.3683.2441-.5893s-.0878-.4329-.2441-.5892c-.1562-.1563-.3682-.2441-.5892-.2441z"/><path d="m25.834 35h-1.6667c-.221 0-.433.0878-.5892.2441-.1563.1563-.2441.3682-.2441.5892s.0878.433.2441.5893c.1562.1563.3682.2441.5892.2441h1.6667c.221 0 .433-.0878.5892-.2441.1563-.1563.2441-.3683.2441-.5893s-.0878-.4329-.2441-.5892c-.1562-.1563-.3682-.2441-.5892-.2441z"/><path d="m35.834 35h-1.6667c-.221 0-.433.0878-.5892.2441-.1563.1563-.2441.3682-.2441.5892s.0878.433.2441.5893c.1562.1563.3682.2441.5892.2441h1.6667c.221 0 .433-.0878.5892-.2441.1563-.1563.2441-.3683.2441-.5893s-.0878-.4329-.2441-.5892c-.1562-.1563-.3682-.2441-.5892-.2441z"/><path d="m17.5 15.8335h-11.66667c-.22101 0-.43297.0878-.58925.2441s-.24408.3682-.24408.5892.0878.433.24408.5893.36824.2441.58925.2441h11.66667c.221 0 .433-.0878.5893-.2441.1562-.1563.244-.3683.244-.5893s-.0878-.4329-.244-.5892c-.1563-.1563-.3683-.2441-.5893-.2441z"/><path d="m17.5 24.1665h-11.66667c-.22101 0-.43297.0878-.58925.2441s-.24408.3682-.24408.5892.0878.433.24408.5893.36824.2441.58925.2441h11.66667c.221 0 .433-.0878.5893-.2441.1562-.1563.244-.3683.244-.5893s-.0878-.4329-.244-.5892c-.1563-.1563-.3683-.2441-.5893-.2441z"/><path d="m5.83333 9.16666h16.66667c.221 0 .433-.08779.5893-.24407.1562-.15628.244-.36824.244-.58926 0-.22101-.0878-.43297-.244-.58925-.1563-.15628-.3683-.24408-.5893-.24408h-16.66667c-.22101 0-.43297.0878-.58925.24408s-.24408.36824-.24408.58925c0 .22102.0878.43298.24408.58926s.36824.24407.58925.24407z"/><path d="m5.83333 13.3332h16.66667c.221 0 .433-.0878.5893-.2441.1562-.1563.244-.3682.244-.5893 0-.221-.0878-.4329-.244-.5892-.1563-.1563-.3683-.2441-.5893-.2441h-16.66667c-.22101 0-.43297.0878-.58925.2441s-.24408.3682-.24408.5892c0 .2211.0878.433.24408.5893s.36824.2441.58925.2441z"/><path d="m17.5 20h-11.66667c-.22101 0-.43297.0878-.58925.2441s-.24408.3682-.24408.5892.0878.433.24408.5893.36824.2441.58925.2441h11.66667c.221 0 .433-.0878.5893-.2441.1562-.1563.244-.3683.244-.5893s-.0878-.4329-.244-.5892c-.1563-.1563-.3683-.2441-.5893-.2441z"/><path d="m17.5 28.3335h-11.66667c-.22101 0-.43297.0878-.58925.2441s-.24408.3682-.24408.5892.0878.433.24408.5893.36824.2441.58925.2441h11.66667c.221 0 .433-.0878.5893-.2441.1562-.1563.244-.3683.244-.5893s-.0878-.4329-.244-.5892c-.1563-.1563-.3683-.2441-.5893-.2441z"/></g></svg>