<svg fill="none" height="33" viewBox="0 0 32 33" width="32" xmlns="http://www.w3.org/2000/svg"><g fill="#57a6ee"><path d="m16.8024 1.00006c.478.23077.6486.60825.6348 1.13244-.0262 1.0606-.0016 2.1212-.0108 3.18181-.0046.67548-.6071 1.10339-1.1927.85123-.3796-.16352-.5318-.47528-.5318-.87568 0-.73815 0-1.47629 0-2.21444 0-.32246.0154-.64492-.0031-.96738-.0322-.52724.1553-.9093.664-1.109505h.4396z"/><path d="m16.554 27.6235c-.7961 0-1.5923.0077-2.3869-.0015-1.2357-.0138-2.0058-.7061-1.9243-1.9195.0845-1.2883-.4396-2.2633-1.225-3.194-.6379-.7565-1.31413-1.5008-1.8198-2.3428-3.04786-5.0815-.00922-11.62848 5.8513-12.67992 4.7878-.85887 9.3788 2.4559 9.9966 7.22102.3335 2.5735-.3842 4.8323-2.0642 6.8068-.5271.6189-1.0328 1.2562-1.5231 1.9057-.4411.5838-.6655 1.244-.5841 1.9883.0139.1237.0092.2491.0108.3744.0138 1.1339-.6087 1.8018-1.7537 1.8339-.8577.0244-1.7168.0046-2.576.0046v.003zm-.0153-1.7055c.7439 0 1.4862-.0107 2.2301.0061.2921.0061.4104-.0596.3797-.379-.1076-1.1126.1798-2.1334.8453-3.0275.5718-.7687 1.1758-1.5145 1.7876-2.2526.9391-1.134 1.4954-2.4223 1.6076-3.8879.3305-4.3387-3.4997-7.90254-7.8309-7.23011-2.5653.39887-4.4004 1.84311-5.3472 4.25311-.9422 2.3963-.56103 4.6581 1.0175 6.7029.3565.4615.75.8956 1.1297 1.3403 1.0282 1.1997 1.7567 2.5124 1.5907 4.1614-.0261.2522.0953.3209.329.3194.7531-.0076 1.5077-.0031 2.2609-.0031z"/><path d="m16.5751 28.4058c.6594 0 1.3172-.0045 1.9766 0 1.1358.0092 1.8152.6847 1.8152 1.811 0 .4677.0169.9399-.0431 1.3999-.1014.7718-.7731 1.3601-1.5554 1.3693-1.4648.0168-2.928.0168-4.3927 0-.8807-.0107-1.5785-.7259-1.6001-1.6031-.0107-.457-.0107-.9154 0-1.3724.0216-.8573.6748-1.5512 1.5417-1.5878.7515-.0321 1.5062-.0062 2.2578-.0062zm2.0442 1.7316h-4.1084v1.1247h4.1084z"/><path d="m8.93779 7.78981c-.07071.6816-.78387 1.08353-1.34948.75648-.07993-.04738-.1537-.10698-.22133-.17116-.84074-.79622-1.67993-1.59244-2.51913-2.39171-.28127-.26898-.3904-.58838-.24899-.96127.12603-.33163.37963-.54712.73314-.53642.22287.00764.49338.08406.65169.22771.88838.80539 1.75678 1.6337 2.61288 2.47271.15831.15588.22901.4004.33968.60366z"/><path d="m24.6781 8.93909c-.3765-.06266-.6885-.26745-.8023-.59144-.126-.35455-.0599-.67854.2167-.94445.5349-.51197 1.0729-1.02087 1.6093-1.53131.3181-.30106.6332-.60519.9544-.90167.4012-.36983.913-.37136 1.2588-.01069.3336.34691.3259.86346-.0522 1.22871-.8546.82678-1.7153 1.64592-2.5914 2.45131-.1568.14366-.3935.20173-.5933.29954z"/><path d="m3.5453 13.5502c.5441 0 1.08819-.0046 1.63075 0 .54102.0061.92066.3698.91297.8589-.00768.4814-.37656.839-.90068.842-1.09741.0062-2.19636.0046-3.29377-.0045-.52565-.0031-.88992-.3592-.89453-.8436-.004609-.4952.36734-.8497.91451-.8558.5441-.0062 1.08819 0 1.63075 0v.0045z"/><path d="m28.8016 13.5455c.5441 0 1.0882-.0046 1.6308 0 .5472.0061.9176.3576.913.8543s-.372.8436-.9238.8466c-1.0774.0077-2.1548.0092-3.2307.0046-.5472-.0015-.9253-.353-.933-.842-.0077-.4998.3797-.8559.9437-.8604.5334-.0046 1.0667 0 1.6 0v-.0046z"/></g></svg>