<svg width="40" height="40" viewBox="0 0 40 40" fill="none" xmlns="http://www.w3.org/2000/svg">
<mask id="mask0_1_1715" style="mask-type:alpha" maskUnits="userSpaceOnUse" x="0" y="0" width="40" height="40">
<rect width="40" height="40" rx="8" fill="#D9D9D9"/>
<rect width="40" height="40" rx="8" fill="url(#paint0_linear_1_1715)"/>
</mask>
<g mask="url(#mask0_1_1715)">
<rect width="40" height="40" rx="8" fill="url(#paint1_linear_1_1715)"/>
<path d="M30.5 15.4951C30.5 21.2762 25.796 26 20.0049 26C14.2139 26 9.5 21.2861 9.5 15.4951C9.5 9.704 14.2139 5 20.0049 5C25.796 5 30.5 9.71388 30.5 15.4951Z" fill="#FFE5BC"/>
<path d="M23.5 17.7995C23.5 19.1041 22.4986 20.2236 20.666 20.5197V21.6854C20.666 21.8612 20.5157 22 20.3155 22H19.4742C19.274 22 19.1137 21.8705 19.1137 21.6854V20.6214C18.3426 20.5937 17.5515 20.4364 16.9607 20.2236C16.6402 20.1126 16.4599 19.7887 16.5501 19.4834L16.6903 18.9931C16.7403 18.8173 16.8605 18.6692 17.0408 18.5952C17.211 18.512 17.4113 18.5027 17.5916 18.5675C18.1624 18.771 18.8233 18.919 19.5343 18.919C20.4356 18.919 21.0665 18.5952 21.0665 18.0123C21.0665 17.448 20.5558 17.0964 19.3741 16.7263C17.6717 16.1989 16.5 15.468 16.5 14.0339C16.5 12.7386 17.4914 11.7209 19.1938 11.4156V10.3423C19.1938 10.1665 19.3641 10 19.5644 10H20.4056C20.6059 10 20.7461 10.1665 20.7461 10.3423V11.3045C21.4871 11.3323 22.0179 11.4341 22.4685 11.5729C22.809 11.6746 23.0093 12.0077 22.9192 12.3223L22.799 12.7664C22.7489 12.9329 22.6288 13.081 22.4685 13.1642C22.2983 13.2475 22.108 13.2567 21.9278 13.2012C21.5172 13.0717 20.9864 12.9514 20.3155 12.9514C19.274 12.9514 18.9435 13.3678 18.9435 13.7749C18.9435 14.256 19.5043 14.5705 20.8562 15.0332C22.7389 15.6623 23.5 16.4765 23.5 17.7995Z" fill="#FE7758"/>
<path d="M16.0566 30.5C6.45664 29.3 -0.333333 23.3333 -1 20.5L-2.31445 56.5L39.3066 55.5C39.39 51.1667 38.7566 41.6 35.5566 38C31.5566 33.5 28.0566 32 16.0566 30.5Z" fill="#FFE5BC"/>
</g>
<defs>
<linearGradient id="paint0_linear_1_1715" x1="40" y1="-4.71982e-05" x2="-1.56161" y2="1.6943" gradientUnits="userSpaceOnUse">
<stop stop-color="#4CA3F2"/>
<stop offset="1" stop-color="#80C2FF"/>
</linearGradient>
<linearGradient id="paint1_linear_1_1715" x1="40" y1="-4.71982e-05" x2="-1.56161" y2="1.6943" gradientUnits="userSpaceOnUse">
<stop stop-color="#FD6853"/>
<stop offset="1" stop-color="#FFA564"/>
</linearGradient>
</defs>
</svg>
