<svg width="32" height="32" viewBox="0 0 32 32" fill="none" xmlns="http://www.w3.org/2000/svg">
<path d="M25 31H7C6.20435 31 5.44129 30.6839 4.87868 30.1213C4.31607 29.5587 4 28.7956 4 28V17C4 16.2044 4.31607 15.4413 4.87868 14.8787C5.44129 14.3161 6.20435 14 7 14H25C25.7956 14 26.5587 14.3161 27.1213 14.8787C27.6839 15.4413 28 16.2044 28 17V28C28 28.7956 27.6839 29.5587 27.1213 30.1213C26.5587 30.6839 25.7956 31 25 31ZM7 16C6.73478 16 6.48043 16.1054 6.29289 16.2929C6.10536 16.4804 6 16.7348 6 17V28C6 28.2652 6.10536 28.5196 6.29289 28.7071C6.48043 28.8946 6.73478 29 7 29H25C25.2652 29 25.5196 28.8946 25.7071 28.7071C25.8946 28.5196 26 28.2652 26 28V17C26 16.7348 25.8946 16.4804 25.7071 16.2929C25.5196 16.1054 25.2652 16 25 16H7Z" fill="#57A6EE"/>
<path d="M24 16H8C7.73478 16 7.48043 15.8946 7.29289 15.7071C7.10536 15.5196 7 15.2652 7 15V9C7 6.87827 7.84285 4.84344 9.34315 3.34315C10.8434 1.84285 12.8783 1 15 1H17C19.1217 1 21.1566 1.84285 22.6569 3.34315C24.1571 4.84344 25 6.87827 25 9V15C25 15.2652 24.8946 15.5196 24.7071 15.7071C24.5196 15.8946 24.2652 16 24 16ZM9 14H23V9C23 7.4087 22.3679 5.88258 21.2426 4.75736C20.1174 3.63214 18.5913 3 17 3H15C13.4087 3 11.8826 3.63214 10.7574 4.75736C9.63214 5.88258 9 7.4087 9 9V14Z" fill="#57A6EE"/>
<path d="M16 23C15.6044 23 15.2178 22.8827 14.8889 22.6629C14.56 22.4432 14.3036 22.1308 14.1522 21.7654C14.0009 21.3999 13.9613 20.9978 14.0384 20.6098C14.1156 20.2219 14.3061 19.8655 14.5858 19.5858C14.8655 19.3061 15.2219 19.1156 15.6098 19.0384C15.9978 18.9613 16.3999 19.0009 16.7654 19.1522C17.1308 19.3036 17.4432 19.56 17.6629 19.8889C17.8827 20.2178 18 20.6044 18 21C18 21.5304 17.7893 22.0391 17.4142 22.4142C17.0391 22.7893 16.5304 23 16 23Z" fill="#57A6EE"/>
<path d="M17 22H15V26H17V22Z" fill="#57A6EE"/>
</svg>
