<svg width="14" height="16" viewBox="0 0 14 16" fill="none" xmlns="http://www.w3.org/2000/svg">
<path d="M3.23844 0.5C3.75982 0.6685 4.09028 1.05678 4.37667 1.48169C4.69978 1.97987 5.01555 2.48537 5.30194 3.00552C5.5149 3.38647 5.62505 3.81139 5.53693 4.25828C5.47818 4.54399 5.346 4.78576 5.13304 4.97623C4.84665 5.23997 4.55291 5.50371 4.23714 5.72349C3.61295 6.15573 3.52483 6.68321 3.75982 7.36453C3.97278 7.99458 4.35464 8.52938 4.75853 9.0422C5.28725 9.7162 5.86004 10.3536 6.52094 10.8957C6.88811 11.1961 7.27731 11.4671 7.75464 11.577C8.17321 11.6723 8.52569 11.5624 8.83412 11.2767C9.14254 10.9909 9.44362 10.6979 9.75938 10.4268C10.2808 9.98727 10.8609 9.97262 11.4557 10.273C11.654 10.3756 11.8449 10.4781 12.0138 10.6173C12.6233 11.1008 13.2548 11.5697 13.7322 12.2071C14.1214 12.7345 14.092 13.24 13.6073 13.6796C13.152 14.0899 12.7188 14.5368 12.1827 14.8518C11.2428 15.4012 10.2294 15.5917 9.14988 15.4598C7.99697 15.3133 6.97623 14.8371 6.02893 14.1998C4.77321 13.3499 3.72311 12.2877 2.76112 11.1301C1.90194 10.1045 1.14557 9.00558 0.616846 7.77479C0.249676 6.92497 0 6.03119 0 5.10078C0 3.5623 0.558099 2.28024 1.7771 1.30587C1.95335 1.15935 2.1149 0.990847 2.29849 0.858978C2.48941 0.727108 2.70972 0.624543 2.91533 0.507326C3.02548 0.507326 3.12829 0.507326 3.23844 0.507326V0.5Z" fill="white"/>
</svg>
