<svg width="49" height="65" viewBox="0 0 49 65" fill="none" xmlns="http://www.w3.org/2000/svg">
<path d="M24.5 0C10.9903 0 0 10.9987 0 24.517C0 43.9811 21.8712 63.5341 22.8027 64.3586C23.2899 64.7862 23.8949 65 24.5 65C25.129 65 25.758 64.7691 26.2485 64.3089C27.1766 63.44 49 42.8111 49 24.5187C49 11.0004 38.0063 0 24.5 0ZM24.5 36.2084C18.0477 36.2084 12.8192 30.9725 12.8192 24.5204C12.8192 18.0683 18.0477 12.8324 24.5 12.8324C30.9489 12.8324 36.1774 18.0666 36.1774 24.5204C36.1774 30.9742 30.9489 36.2084 24.5 36.2084Z" fill="#57A6EE"/>
<path d="M37 23.9939C37 31.1515 31.176 37 24.0061 37C16.8362 37 11 31.1638 11 23.9939C11 16.824 16.8362 11 24.0061 11C31.176 11 37 16.8362 37 23.9939Z" fill="#F8AE34"/>
<path d="M32.5322 32.743L32.7163 32.7084C32.7393 32.6278 32.7738 32.5587 32.7968 32.478C32.7163 32.5702 32.6242 32.6623 32.5322 32.743ZM32.5322 32.743L32.7163 32.7084C32.7393 32.6278 32.7738 32.5587 32.7968 32.478C32.7163 32.5702 32.6242 32.6623 32.5322 32.743ZM39.9885 23.7005C39.9885 23.6544 39.9885 23.6199 39.9885 23.5738C39.9885 23.4816 39.9885 23.401 39.977 23.3204C39.977 23.2052 39.9655 23.1015 39.9655 22.9863C39.954 22.8711 39.954 22.7675 39.9425 22.6523C39.931 22.5486 39.9195 22.4449 39.9195 22.3528C39.9079 22.2721 39.8964 22.1915 39.8964 22.1109C39.8964 22.0533 39.8849 22.0072 39.8734 21.9496C39.8619 21.8459 39.8504 21.7423 39.8274 21.6386C39.7929 21.4312 39.7699 21.2354 39.7238 21.0281C39.7238 21.005 39.7123 20.982 39.7123 20.959C39.7008 20.8783 39.6778 20.7977 39.6663 20.7286C39.6203 20.5097 39.5743 20.3024 39.5167 20.0835C39.4937 19.9914 39.4707 19.8877 39.4477 19.7955C39.4477 19.784 39.4477 19.784 39.4362 19.7725C39.4132 19.6688 39.3786 19.5767 39.3556 19.473C39.3211 19.3578 39.2866 19.2426 39.2521 19.1274C39.2291 19.0353 39.1945 18.9431 39.16 18.851C39.114 18.7243 39.0795 18.6091 39.0334 18.4824C38.9874 18.3557 38.9414 18.2405 38.8954 18.1138C38.8493 17.9986 38.8033 17.8719 38.7458 17.7567C38.6997 17.6415 38.6422 17.5148 38.5962 17.3996C38.5502 17.2959 38.5041 17.1922 38.4581 17.0886C38.4121 16.9849 38.3546 16.8812 38.3085 16.7775C38.205 16.5702 38.1014 16.3744 37.9863 16.1785C37.9288 16.0634 37.8598 15.9597 37.7907 15.8445C37.7217 15.7293 37.6642 15.6256 37.5951 15.5104C37.457 15.2916 37.3189 15.0727 37.1694 14.8654C37.1348 14.8078 37.1003 14.7617 37.0543 14.7041C36.9968 14.6235 36.9392 14.5428 36.8817 14.4737C36.7091 14.2433 36.5365 14.013 36.3524 13.7941C36.3064 13.748 36.2718 13.6904 36.2258 13.6443C36.1568 13.5637 36.0762 13.4716 36.0072 13.3909C35.9382 13.3103 35.8576 13.2181 35.7886 13.1375C35.708 13.0569 35.639 12.9762 35.5584 12.8956C35.4779 12.815 35.3973 12.7343 35.3283 12.6537C35.2593 12.5731 35.1672 12.4924 35.0867 12.4233C34.9256 12.2736 34.7645 12.1123 34.5919 11.9741C34.5113 11.8934 34.4193 11.8243 34.3387 11.7552C34.2927 11.7091 34.2352 11.6746 34.1891 11.6285C33.9705 11.4442 33.7404 11.2714 33.5102 11.0986C33.4297 11.041 33.3492 10.9834 33.2801 10.9258C33.2226 10.8913 33.1766 10.8567 33.119 10.8107C32.9119 10.6609 32.6933 10.5227 32.4746 10.3844C32.3711 10.3153 32.256 10.2462 32.141 10.1886C32.0259 10.1195 31.9223 10.0619 31.8073 9.9928C31.7037 9.93521 31.6117 9.88913 31.5081 9.83153C31.4045 9.77394 31.3125 9.72786 31.2089 9.68179C31.1169 9.63571 31.0363 9.58963 30.9443 9.55508C30.9328 9.54356 30.9213 9.54356 30.8982 9.53204C30.7947 9.48596 30.6911 9.43988 30.5876 9.39381C30.4725 9.33621 30.3574 9.29014 30.2309 9.24406C30.1158 9.19798 29.9892 9.14039 29.8741 9.09431C29.7591 9.04824 29.6325 9.00216 29.5059 8.95608C29.3794 8.91001 29.2643 8.86393 29.1377 8.82937C29.0457 8.79482 28.9536 8.77178 28.8501 8.73722C28.7465 8.70266 28.6314 8.66811 28.5279 8.63355C28.4243 8.59899 28.3207 8.57595 28.2172 8.5414C28.1251 8.51836 28.0331 8.49532 27.941 8.47228C27.8145 8.43772 27.6879 8.41469 27.5613 8.38013C27.4693 8.35709 27.3772 8.33405 27.2851 8.32253C27.1816 8.2995 27.078 8.27646 26.963 8.26494C26.7558 8.23038 26.5602 8.19582 26.3531 8.16127C26.2495 8.14975 26.146 8.13823 26.0539 8.11519C25.9964 8.10367 25.9504 8.10367 25.8928 8.09215C25.7318 8.06911 25.5822 8.0576 25.4211 8.04608C25.3635 8.04608 25.306 8.03456 25.2485 8.03456C25.1679 8.03456 25.0989 8.02304 25.0183 8.02304C24.9033 8.01152 24.7997 8.01152 24.6846 8.01152C24.6041 8.01152 24.512 8 24.4315 8C24.3855 8 24.351 8 24.3049 8C24.2129 8 24.1093 8 24.0173 8C23.9252 8 23.8216 8 23.7296 8C23.6836 8 23.649 8 23.603 8C23.5225 8 23.4304 8 23.3499 8.01152C23.2348 8.01152 23.1312 8.02304 23.0162 8.02304C22.9356 8.02304 22.8666 8.03456 22.786 8.03456C22.7285 8.03456 22.671 8.04608 22.6134 8.04608C22.4524 8.0576 22.2913 8.08063 22.1417 8.09215C22.0841 8.09215 22.0381 8.10367 21.9921 8.11519C21.8885 8.12671 21.785 8.13823 21.6929 8.16127C21.4858 8.19582 21.2787 8.23038 21.0831 8.26494C20.9795 8.28798 20.8759 8.2995 20.7609 8.32253C20.6688 8.34557 20.5768 8.36861 20.4847 8.38013C20.3581 8.40317 20.2316 8.43772 20.105 8.47228C20.0129 8.49532 19.9209 8.51836 19.8288 8.5414C19.7253 8.56443 19.6217 8.59899 19.5182 8.63355C19.4031 8.66811 19.2995 8.70266 19.196 8.73722C19.0694 8.77178 18.9773 8.79482 18.8738 8.82937C18.7472 8.87545 18.6321 8.91001 18.5056 8.95608C18.3905 9.00216 18.2639 9.04824 18.1489 9.09431C18.0338 9.14039 17.9072 9.18647 17.7922 9.24406C17.6771 9.29014 17.5505 9.34773 17.4355 9.39381C17.3319 9.43988 17.2283 9.48596 17.1248 9.53204C17.1133 9.54356 17.1018 9.54356 17.0787 9.55508C16.9867 9.60115 16.9061 9.63571 16.8141 9.68179C16.7105 9.72786 16.607 9.78546 16.5149 9.83153C16.4114 9.88913 16.3193 9.93521 16.2157 9.9928C16.1007 10.0619 15.9971 10.1195 15.8821 10.1886C15.767 10.2577 15.6634 10.3153 15.5484 10.3844C15.3297 10.5227 15.1111 10.6609 14.904 10.8107C14.8465 10.8452 14.8004 10.8798 14.7429 10.9258C14.6624 10.9834 14.5818 11.041 14.5128 11.0986C14.2826 11.2714 14.0525 11.4442 13.8339 11.6285C13.7878 11.6746 13.7418 11.7091 13.6843 11.7552C13.6037 11.8243 13.5117 11.905 13.4311 11.9741C13.2585 12.1238 13.0974 12.2736 12.9364 12.4233C12.8558 12.504 12.7753 12.5846 12.6947 12.6537C12.6142 12.7228 12.5336 12.815 12.4646 12.8956C12.384 12.9762 12.315 13.0569 12.2344 13.1375C12.1539 13.2181 12.0849 13.2988 12.0043 13.3909C11.9353 13.4716 11.8547 13.5637 11.7857 13.6443C11.7512 13.6904 11.7051 13.748 11.6591 13.7941C11.475 14.013 11.3024 14.2433 11.1298 14.4737C11.0723 14.5544 11.0147 14.635 10.9572 14.7041C10.9227 14.7617 10.8882 14.8078 10.8421 14.8654C10.6926 15.0727 10.5545 15.2916 10.4164 15.5104C10.3474 15.6141 10.2783 15.7293 10.2208 15.8445C10.1517 15.9597 10.0942 16.0634 10.0252 16.1785C9.9101 16.3744 9.80654 16.5702 9.70298 16.7775C9.65696 16.8812 9.59942 16.9849 9.5534 17.0886C9.50737 17.1922 9.46134 17.2959 9.41532 17.3996C9.35778 17.5148 9.31176 17.63 9.25423 17.7567C9.2082 17.8719 9.15067 17.9986 9.10464 18.1138C9.05861 18.2289 9.01259 18.3557 8.96656 18.4824C8.92053 18.6091 8.87451 18.7243 8.83999 18.851C8.80547 18.9431 8.78245 19.0353 8.74793 19.1274C8.71341 19.2426 8.67889 19.3578 8.64437 19.473C8.62136 19.5652 8.58684 19.6688 8.56383 19.7725C8.56383 19.784 8.56383 19.784 8.55232 19.7955C8.52931 19.8877 8.50629 19.9914 8.48328 20.0835C8.42575 20.2909 8.37972 20.5097 8.33369 20.7286C8.32219 20.8092 8.29917 20.8898 8.28767 20.959C8.28767 20.982 8.27616 21.005 8.27616 21.0281C8.24164 21.2239 8.20712 21.4312 8.1726 21.6386C8.16109 21.7423 8.13808 21.8459 8.12657 21.9496C8.11507 22.0072 8.11507 22.0533 8.10356 22.1109C8.09205 22.1915 8.08055 22.2721 8.08055 22.3528C8.06904 22.4564 8.05753 22.5601 8.05753 22.6523C8.04603 22.7675 8.04603 22.8711 8.03452 22.9863C8.02301 23.1015 8.02301 23.2052 8.01151 23.3204C8.01151 23.401 8 23.4932 8 23.5738C8 23.6199 8 23.6544 8 23.7005C8 23.7927 8 23.8963 8 23.9885C8 24.0806 8 24.1843 8 24.2765C8 24.3225 8 24.3571 8 24.4032C8 24.4953 8 24.576 8.01151 24.6566C8.01151 24.7718 8.02301 24.8755 8.03452 24.9906C8.04603 25.1058 8.04603 25.2095 8.05753 25.3247C8.06904 25.4284 8.08055 25.532 8.08055 25.6242C8.09205 25.7048 8.10356 25.7855 8.10356 25.8776C8.10356 25.9352 8.11507 25.9813 8.12657 26.0274C8.13808 26.131 8.14959 26.2347 8.1726 26.3384C8.20712 26.5457 8.23013 26.7415 8.27616 26.9489C8.27616 26.9719 8.28767 26.995 8.28767 27.018C8.29917 27.0986 8.32219 27.1793 8.33369 27.2484C8.37972 27.4672 8.42575 27.6746 8.48328 27.8819C8.50629 27.9741 8.52931 28.0778 8.55232 28.1699C8.55232 28.1814 8.55232 28.1814 8.56383 28.1929C8.58684 28.2966 8.62136 28.3888 8.64437 28.4924C8.67889 28.6076 8.71341 28.7228 8.74793 28.838C8.77095 28.9302 8.80547 29.0223 8.83999 29.1145C8.88601 29.2412 8.92053 29.3564 8.96656 29.4831C9.01259 29.6098 9.05861 29.725 9.10464 29.8517C9.15067 29.9784 9.19669 30.0936 9.25423 30.2088C9.30025 30.324 9.35778 30.4507 9.41532 30.5659C9.46134 30.6695 9.50737 30.7732 9.5534 30.8769C9.59942 30.9806 9.65696 31.0842 9.70298 31.1879C9.80654 31.3952 9.9101 31.5911 10.0252 31.7869C10.0827 31.9021 10.1517 32.0058 10.2208 32.121C10.2898 32.2361 10.3589 32.3398 10.4164 32.455C10.5545 32.6739 10.6926 32.8927 10.8421 33.1001C10.8767 33.1577 10.9112 33.2037 10.9572 33.2613C11.0147 33.342 11.0723 33.4226 11.1298 33.4917C11.3024 33.7221 11.475 33.9525 11.6591 34.1713C11.7051 34.2174 11.7397 34.275 11.7857 34.3211C11.9353 34.4939 12.0849 34.6667 12.2344 34.8279C12.315 34.9086 12.384 34.9892 12.4646 35.0698C12.5451 35.1505 12.6142 35.2311 12.6947 35.3117C12.7753 35.3924 12.8558 35.473 12.9364 35.5421C13.178 35.7725 13.4311 36.0029 13.6843 36.2217C13.7303 36.2678 13.7763 36.3024 13.8339 36.3485C14.0525 36.5328 14.2826 36.7055 14.5128 36.8783C14.5933 36.9359 14.6624 36.9935 14.7429 37.0511C14.8004 37.0857 14.8465 37.1202 14.904 37.1663C15.1111 37.3161 15.3297 37.4543 15.5484 37.5925C15.6634 37.6616 15.767 37.7307 15.8821 37.7883C15.9971 37.8575 16.1007 37.915 16.2157 37.9842C16.3193 38.0418 16.4114 38.0994 16.5149 38.1454C16.6185 38.203 16.7105 38.2491 16.8141 38.2952C16.9061 38.3413 16.9867 38.3873 17.0787 38.4219C17.0903 38.4334 17.1018 38.4334 17.1248 38.4449C17.2283 38.491 17.3319 38.5371 17.4355 38.5832C17.5505 38.6407 17.6656 38.6868 17.7922 38.7444C17.9072 38.7905 18.0338 38.8481 18.1489 38.8942C18.2754 38.9402 18.3905 38.9863 18.5171 39.0324C18.6437 39.0785 18.7587 39.1246 18.8853 39.1591C18.9773 39.1937 19.0694 39.2167 19.173 39.2513C19.2765 39.2858 19.3916 39.3204 19.4951 39.3549C19.5987 39.3895 19.7023 39.4125 19.8058 39.4471C19.8979 39.4701 19.9899 39.4932 20.082 39.5162C20.2086 39.5508 20.3351 39.5738 20.4617 39.6084C20.5538 39.6314 20.6458 39.6544 20.7379 39.6659C20.8414 39.689 20.945 39.712 21.0601 39.7235C21.2672 39.7581 21.4628 39.7927 21.6699 39.8272C21.7735 39.8387 21.877 39.8503 21.9691 39.8733C22.0151 39.8848 22.0726 39.8848 22.1187 39.8963C22.2798 39.9194 22.4293 39.9309 22.5904 39.9424C22.648 39.9424 22.7055 39.9539 22.763 39.9539C22.8436 39.9654 22.9126 39.9654 22.9932 39.9654C23.1082 39.977 23.2118 39.977 23.3269 39.9885C23.4074 39.9885 23.4995 40 23.58 40C23.626 40 23.6606 40 23.7066 40C23.7986 40 23.9022 40 23.9942 40C24.0863 40 24.1899 40 24.2819 40C24.3279 40 24.3625 40 24.4085 40C24.489 40 24.5811 40 24.6616 39.9885C24.7767 39.9885 24.8803 39.977 24.9953 39.9654C25.0759 39.9654 25.1449 39.9539 25.2255 39.9539C25.283 39.9539 25.3405 39.9424 25.3981 39.9424C25.5592 39.9309 25.7202 39.9078 25.8698 39.8963C25.9274 39.8963 25.9734 39.8848 26.0309 39.8733C26.1345 39.8618 26.238 39.8503 26.3301 39.8272C26.5372 39.7927 26.7443 39.7581 26.9399 39.7235C27.0435 39.7005 27.1586 39.6775 27.2621 39.6659C27.3542 39.6429 27.4462 39.6314 27.5383 39.6084C27.6649 39.5853 27.7914 39.5508 27.918 39.5162C28.0101 39.4932 28.1021 39.4701 28.1942 39.4471C28.2977 39.424 28.4013 39.3895 28.5049 39.3549C28.6199 39.3204 28.7235 39.2858 28.827 39.2513C28.9191 39.2167 29.0111 39.1937 29.1147 39.1591C29.2413 39.113 29.3563 39.0785 29.4829 39.0324C29.6095 38.9863 29.7246 38.9402 29.8511 38.8942C29.9662 38.8481 30.0928 38.802 30.2078 38.7444C30.2769 38.7214 30.3344 38.6868 30.4035 38.6638C30.461 38.6407 30.507 38.6177 30.5645 38.5947C30.6681 38.5486 30.7717 38.5025 30.8752 38.4564C30.8867 38.4449 30.8982 38.4449 30.9213 38.4334C31.0133 38.3873 31.0939 38.3528 31.1859 38.3067C31.2895 38.2606 31.393 38.203 31.4851 38.1569C31.5886 38.0994 31.6807 38.0533 31.7843 37.9957C31.8993 37.9381 32.0029 37.869 32.1179 37.7999C32.233 37.7307 32.3366 37.6616 32.4516 37.604C32.6703 37.4658 32.8889 37.3276 33.096 37.1778C33.1535 37.1318 33.2226 37.0972 33.2801 37.0511C33.2801 37.0511 33.2801 37.0511 33.2916 37.0511C33.5908 36.8323 33.89 36.6134 34.1776 36.3715C34.2237 36.3254 34.2697 36.2909 34.3272 36.2448C34.7069 35.9222 35.0752 35.5767 35.4319 35.2196C35.708 34.9431 35.9727 34.6551 36.2258 34.3557C36.2603 34.3096 36.3064 34.2635 36.3524 34.2059C36.5365 33.987 36.7091 33.7567 36.8817 33.5263C36.9392 33.4456 36.9968 33.3765 37.0543 33.2959C37.0888 33.2383 37.1233 33.1922 37.1694 33.1346C37.2269 33.054 37.2729 32.9849 37.3305 32.9042C37.4225 32.766 37.5146 32.6278 37.5951 32.4896C37.6642 32.3859 37.7332 32.2707 37.7907 32.1555C37.8598 32.0403 37.9173 31.9366 37.9863 31.8215C38.1014 31.6256 38.205 31.4298 38.3085 31.2225C38.3546 31.1188 38.4121 31.0151 38.4581 30.9114C38.5041 30.8078 38.5502 30.7041 38.5962 30.6004C38.6307 30.5198 38.6652 30.4507 38.6997 30.3701C38.7228 30.324 38.7343 30.2779 38.7573 30.2433C38.8033 30.1281 38.8608 30.0014 38.9069 29.8862C38.9529 29.7711 38.9989 29.6443 39.0449 29.5176C39.091 29.3909 39.137 29.2757 39.1715 29.149C39.3211 28.7113 39.4477 28.2736 39.5512 27.8243C39.5627 27.7667 39.5858 27.6976 39.5973 27.64C39.5973 27.6285 39.5973 27.6285 39.5973 27.617C39.6088 27.5594 39.6203 27.5018 39.6318 27.4442C39.6433 27.3866 39.6548 27.329 39.6663 27.2714C39.6778 27.2253 39.6778 27.1908 39.6893 27.1447C39.7008 27.1102 39.7008 27.0756 39.7123 27.0295C39.7353 26.9028 39.7584 26.7876 39.7814 26.6609C39.7929 26.5918 39.8044 26.5227 39.8159 26.4651C39.8274 26.3844 39.8389 26.3153 39.8504 26.2347C39.8619 26.1656 39.8734 26.0965 39.8734 26.0389C39.8964 25.9006 39.9079 25.7739 39.9195 25.6357C39.931 25.5666 39.931 25.4975 39.9425 25.4284C39.954 25.3132 39.9655 25.198 39.9655 25.0828C39.9885 24.7257 40 24.3571 40 24C39.9885 23.8963 39.9885 23.7927 39.9885 23.7005ZM32.7968 32.478C32.7048 32.5702 32.6242 32.6623 32.5322 32.743C32.3136 32.9503 32.0949 33.1577 31.8648 33.3535C30.9443 34.1253 29.9087 34.7703 28.7925 35.2541C27.3197 35.8877 25.7087 36.2333 24.0058 36.2333C17.2629 36.2333 11.7742 30.7387 11.7742 23.9885C11.7742 17.2383 17.2629 11.7552 24.0058 11.7552C30.7486 11.7552 36.2258 17.2498 36.2258 23.9885C36.2258 24.7948 36.1453 25.5896 35.9957 26.3499C35.6965 27.8589 35.1327 29.2642 34.3387 30.5198C33.89 31.2225 33.3722 31.8791 32.7968 32.478Z" fill="white"/>
<path d="M35.0301 41C38.8961 41 42.0234 37.866 42.0151 34C42.0068 30.134 38.866 27 35 27C31.134 27 28.0067 30.134 28.015 34C28.0233 37.866 31.1641 41 35.0301 41Z" fill="white"/>
<path d="M38.8151 33.0853L38.1981 32.9553C38.144 32.793 38.079 32.6306 38.0033 32.479L38.3496 31.9486C38.4146 31.8512 38.3929 31.7321 38.3172 31.6455L37.4079 30.7361L37.3538 30.682C37.278 30.6062 37.1481 30.5846 37.0507 30.6495L36.5203 30.9959C36.3688 30.9202 36.2064 30.8552 36.0441 30.8011L35.9142 30.184C35.8925 30.0758 35.7951 30 35.6761 30H34.323C34.2148 30 34.1174 30.0758 34.0849 30.184L33.955 30.8011C33.7926 30.8552 33.6303 30.9202 33.4787 30.9959L33.3272 30.8985L32.9484 30.6495C32.8509 30.5846 32.7319 30.6062 32.6453 30.682L31.6819 31.6455C31.6062 31.7212 31.5845 31.8512 31.6495 31.9486L31.9958 32.479C31.9525 32.5656 31.9092 32.6522 31.8768 32.7388C31.8443 32.8146 31.8226 32.8796 31.801 32.9553L31.6278 32.9878L31.184 33.0853C31.0758 33.1069 31 33.2043 31 33.3234V34.6766C31 34.7848 31.0758 34.8823 31.184 34.9147L31.801 35.0447C31.8551 35.207 31.9201 35.3694 31.9958 35.521L31.6495 36.0514C31.5845 36.1488 31.6062 36.2679 31.6819 36.3545L32.3314 37.0041L32.6453 37.318C32.721 37.3938 32.8509 37.4154 32.9484 37.3505L33.4787 37.0041C33.6303 37.0798 33.7926 37.1448 33.955 37.1989L34.0849 37.816C34.1065 37.9242 34.204 38 34.323 38H35.6761C35.7843 38 35.8817 37.9242 35.9142 37.816L36.0441 37.1989C36.2064 37.1448 36.3688 37.0798 36.5203 37.0041L37.0507 37.3505C37.1481 37.4154 37.2672 37.3938 37.3538 37.318L38.3172 36.3545C38.3929 36.2788 38.4146 36.1488 38.3496 36.0514L38.0033 35.521C38.079 35.3694 38.144 35.207 38.1981 35.0447L38.8151 34.9147C38.9233 34.8931 38.9991 34.7957 38.9991 34.6766V33.3234C39.0099 33.2043 38.9233 33.1069 38.8151 33.0853ZM34.9941 35.4344C34.7668 35.4344 34.5395 35.3802 34.3555 35.2828C33.8901 35.0447 33.5653 34.5575 33.5653 33.9946C33.5653 33.2043 34.2148 32.5548 35.005 32.5548C35.4596 32.5548 35.8601 32.7713 36.1307 33.0961C36.3255 33.3451 36.4446 33.6482 36.4446 33.9946C36.4337 34.7848 35.7843 35.4344 34.9941 35.4344Z" fill="#57A6EE"/>
<path d="M28 26.0995C28 27.6214 26.8555 28.9275 24.7611 29.2729V30.633C24.7611 30.8381 24.5894 31 24.3605 31H23.3991C23.1702 31 22.9871 30.8489 22.9871 30.633V29.3917C22.1059 29.3593 21.2017 29.1758 20.5265 28.9275C20.1602 28.798 19.9542 28.4202 20.0572 28.064L20.2175 27.4919C20.2747 27.2868 20.412 27.1141 20.618 27.0278C20.8126 26.9306 21.0415 26.9198 21.2475 26.9954C21.8999 27.2328 22.6552 27.4056 23.4678 27.4056C24.4979 27.4056 25.2189 27.0278 25.2189 26.3477C25.2189 25.6893 24.6352 25.2791 23.2847 24.8473C21.3391 24.2321 20 23.3793 20 21.7062C20 20.1951 21.133 19.0077 23.0787 18.6515V17.3994C23.0787 17.1943 23.2732 17 23.5021 17H24.4635C24.6924 17 24.8526 17.1943 24.8526 17.3994V18.522C25.6996 18.5544 26.3062 18.6731 26.8212 18.835C27.2103 18.9537 27.4392 19.3423 27.3362 19.7093L27.1989 20.2274C27.1416 20.4217 27.0043 20.5944 26.8212 20.6916C26.6266 20.7887 26.4092 20.7995 26.2031 20.7348C25.7339 20.5837 25.1273 20.4433 24.3605 20.4433C23.1702 20.4433 22.7926 20.9291 22.7926 21.404C22.7926 21.9653 23.4335 22.3323 24.9785 22.872C27.1302 23.606 28 24.5559 28 26.0995Z" fill="#BD7C32"/>
</svg>
