<svg width="14" height="11" viewBox="0 0 14 11" fill="none" xmlns="http://www.w3.org/2000/svg">
<path d="M13.1015 0.042941L0.297394 4.69645C-0.117333 4.84719 -0.0922086 5.40224 0.334704 5.51979L3.58837 6.41586L4.80264 10.0093C4.92948 10.3847 5.4395 10.4984 5.73474 10.2173L7.41697 8.61536L10.7176 10.8749C11.1216 11.1515 11.6968 10.946 11.7994 10.4886L13.9855 0.74109C14.0925 0.263628 13.5889 -0.134173 13.1015 0.042941ZM11.4962 2.20616L5.54878 7.11119C5.4895 7.16009 5.45177 7.22776 5.44294 7.30111L5.21396 9.19952C5.20648 9.26143 5.11359 9.26962 5.09376 9.21014L4.15166 6.37895C4.10851 6.24932 4.16477 6.10889 4.28842 6.03738L11.3117 1.97489C11.4732 1.8814 11.6386 2.08876 11.4962 2.20616Z" fill="white"/>
</svg>
