<svg fill="none" height="72" viewBox="0 0 72 72" width="72" xmlns="http://www.w3.org/2000/svg" xmlns:xlink="http://www.w3.org/1999/xlink"><clipPath id="a"><path d="m0 0h72v72h-72z"/></clipPath><g clip-path="url(#a)"><ellipse cx="36" cy="25.5" fill="#f9a321" rx="15" ry="14.5"/><path d="m57.5014 72h-43.0204c-.0114-.0683-.0114-.1379 0-.2062.9861-2.8515 1.9369-5.7136 2.9811-8.5475.3838-1.0469 1.2325-1.7025 2.3383-1.9386.5525-.0984 1.1136-.1403 1.6746-.1251 2.4317-.0124 4.8651 0 7.325 0 .8364-2.5185 1.6622-4.9999 2.5074-7.543l-.7941-.2203c-6.1723-1.7154-10.7469-5.4111-13.7239-11.0871-1.537-2.9645-2.3464-6.2528-2.3612-9.5926 0-.5904-.2289-.7561-.7906-.8688-6.28441-1.2654-10.62307-4.8519-12.776558-10.9373-.419076-1.1791-.581071-2.4462-.861042-3.6622v-10.84392c.980778-2.39154 1.69567-2.8621 4.35451-2.86386h10.04549v-3.56352h43.2264v3.56352h.9262c3.21 0 6.42-.01762 9.6282 0 2.4986.01938 3.7928 1.34998 3.7998 3.85255 0 2.88323.0493 5.76823-.0141 8.65153-.176 7.9888-5.8547 14.5149-13.7344 15.8137-.486.0793-.6215.2661-.6779.7508-.2201 1.8805-.3011 3.8103-.8082 5.6149-1.8225 6.5173-5.8759 11.2034-12.0211 14.0162-1.2661.5798-2.6237.9605-4.0129 1.4592l2.4845 7.4584h8.0188c1.7256 0 2.9229.8812 3.4917 2.5167.6638 1.8998 1.3276 3.7996 1.9774 5.7048.2835.8618.5423 1.7324.817 2.5977zm-32.3005-50.4233c1.5055 2.0091 2.8296 3.9143 4.3052 5.6943.8628 1.0398 1.1023 1.9879.6709 3.2938-.567 1.7166-.9051 3.5107-1.3682 5.3841.324-.1762.5282-.2732.7325-.386 1.9686-1.0821 3.9425-2.1536 5.9005-3.2568.3892-.2186.6744-.2432 1.0812-.0124 1.9932 1.1315 4.0111 2.2241 6.0202 3.3256.1761.0952.3522.1763.6269.2961-.5565-2.2382-1.0759-4.3707-1.6253-6.4943-.0659-.1961-.0805-.4059-.0422-.6093.0382-.2033.1279-.3934.2606-.5521 1.5213-1.9915 3.0127-4.0059 4.5147-6.0133.1338-.1762.2536-.3701.4614-.6697h-.8664c-1.9897 0-3.9812-.0158-5.9727.0106-.486 0-.7466-.1322-.9491-.5957-.8628-1.9985-1.7696-3.9759-2.6658-5.9603-.0775-.1763-.1761-.3331-.3223-.5922-.905 2.0021-1.8224 3.849-2.569 5.7647-.4173 1.0733-.9473 1.484-2.1341 1.4099-1.9545-.1286-3.9214-.037-6.059-.037zm32.4361-10.7751v13.9721c.3356-.0612.6672-.1424.9931-.2432 2.7997-1.0575 4.7401-3.0207 5.6082-5.867.4085-1.3376.442-2.8021.5406-4.2156.0845-1.2037.0176-2.4179.0176-3.6463zm-43.3022 13.9386v-13.9228h-7.14889c0 1.4981.02113 2.9467 0 4.3936-.0493 2.8516.95085 5.2643 3.01629 7.2134 1.1522 1.1195 2.5769 1.9178 4.1326 2.3158z" fill="#ffc061"/></g></svg>