<svg fill="none" height="381" viewBox="0 0 296 381" width="296" xmlns="http://www.w3.org/2000/svg" xmlns:xlink="http://www.w3.org/1999/xlink"><clipPath id="a"><path d="m0 0h295.96v381h-295.96z"/></clipPath><g clip-path="url(#a)"><path d="m91.1109 155.63c-45.01 58.25-10.83 108.31-10.83 108.31l38.3601-25.72s-25.6601-23.15-27.5301-82.59z" fill="#ffc162"/><path d="m91.5005 161.64c0-1.96-.22-3.95-.29-6.01-45.02 58.25-10.84 108.31-10.84 108.31l2.83-1.9c-5.94-10.29-25.56-51.98 8.3-100.4z" fill="#ffcf96"/><path d="m93.6503 181.57c-4.84 11.53-7.24 23.94-7.05 36.44s2.96 24.83 8.15 36.21l23.8897-16.07s-18.04-16.33-24.9897-56.58z" fill="#f9a321"/><path d="m198.57 155.63c-1.86 59.44-27.55 82.56-27.55 82.56l38.39 25.72s34.28-50.02-10.84-108.28z" fill="#ffc162"/><path d="m198.57 155.63c0 1.7 0 3.21-.22 5.01 34.89 49.54 13.7 92.2 8.3 101.46l2.76 1.83s34.28-50.05-10.84-108.31z" fill="#ffcf96"/><path d="m171.02 238.19 20.99 14.08c9.61-21.06 10.76-45.01 3.22-66.9-7.27 37.58-24.21 52.82-24.21 52.82z" fill="#f9a321"/><g fill="#fffffd"><path d="m166.16 26.0698c.55.74 1.03 1.45 1.55 2.19-.52-.74-1-1.45-1.55-2.19z"/><path d="m132.5 14.3099c.48-.55.93-1.12 1.41-1.7-.61.58-.93 1.16-1.41 1.7z"/><path d="m136 10.1 1.38-1.64004z"/><path d="m124.971 24.0502 1.96-2.6z"/><path d="m129.221 18.42 1.35-1.67z"/><path d="m121.98 28.2598 1.51-2.19z"/><path d="m152.301 8.4502 1.39 1.64z"/><path d="m155.811 12.6001c.48.58.93 1.16 1.41 1.7-.51-.55-.96-1.12-1.41-1.7z"/><path d="m159.02 16.75 1.32 1.67z"/><path d="m139.73 5.66 1.22-1.41z"/><path d="m148.67 4.24023 1.19 1.41z"/><path d="m182.789 54.1401c.48 1 .93 2.02 1.38 3.02-.45-1-.9-2.03-1.38-3.02z"/><path d="m162.75 21.4399 1.96 2.6z"/><path d="m173.59 37.2002c1.91 3.04 3.68 6.1 5.3 9.16-1.65-3.04-3.41-6.1-5.3-9.16z"/><path d="m109.02 49.7298c.49-.96 1-1.93 1.51-2.89-.51.96-1.02 1.93-1.51 2.89z"/><path d="m171.369 33.6602 1.55 2.41z"/><path d="m179.15 46.8398c.52.96 1 1.93 1.48 2.89-.48-.96-.96-1.93-1.48-2.89z"/><path d="m105.52 57.1601c.45-1 .9-2.03 1.38-3.02-.48 1-.93 2.02-1.38 3.02z"/><path d="m107.221 53.3998 1.38-2.83z"/><path d="m181.051 50.5698c.48.93.96 1.9 1.42 2.83-.46-.93-.94-1.96-1.42-2.83z"/><path d="m119.279 32.1501 1.54-2.28z"/><path d="m116.77 36.0702 1.55-2.41z"/><path d="m168.859 29.8999 1.55 2.28z"/><path d="m110.789 46.3602c1.63-3.04 3.4-6.1 5.31-9.16-1.89 3.07-3.66 6.12-5.31 9.16z"/><path d="m198.579 155.63v-6.94c0-37.61-2.96-65.1598-14.54-91.5298-12.59 4.64-25.91 6.97-39.32 6.88-13.42.09-26.74-2.24-39.33-6.88-11.5696 26.36-14.5296 53.9098-14.5296 91.5298v6.94c1.86 59.44 27.5196 82.56 27.5196 82.56s1.35.45 3.73 1.06c14.81 3.44 30.21 3.44 45.02 0 2.38-.61 3.7-1.06 3.7-1.06s25.88-23.11 27.75-82.56zm-53.74-6.94c-6.73 0-13.31-2-18.91-5.74s-9.97-9.06-12.55-15.28c-2.57-6.22-3.25-13.07-1.93-19.67 1.31-6.6 4.55-12.6698 9.32-17.4298 4.76-4.76 10.83-8 17.43-9.32 6.61-1.31 13.45-.64 19.68 1.94 6.22 2.58 11.54 6.94 15.28 12.54 3.74 5.5998 5.74 12.1798 5.74 18.9098-.01 9.03-3.6 17.68-9.99 24.06-6.38 6.38-15.04 9.97-24.07 9.98z"/></g><path d="m144.841 83.9102c-6.74 0-13.33 1.99-18.94 5.73s-9.99 9.06-12.57 15.2898c-2.59 6.23-3.26 13.08-1.95 19.7 1.32 6.61 4.56 12.69 9.33 17.46s10.85 8.01 17.46 9.33c6.62 1.31 13.47.64 19.7-1.95 6.23-2.58 11.55-6.95 15.3-12.56 3.74-5.61 5.73-12.2 5.73-18.95-.01-9.03-3.6-17.68-9.99-24.0598-6.38-6.38-15.04-9.97-24.07-9.98zm0 57.4498c-4.63 0-9.15-1.37-13-3.94s-6.85-6.23-8.62-10.5c-1.77-4.28-2.24-8.98-1.33-13.52.9-4.54 3.13-8.71 6.4-11.98 3.28-3.2698 7.45-5.4998 11.99-6.4098 4.54-.9 9.24-.4401 13.52 1.3299s7.94 4.7699 10.51 8.6199 3.94 8.37 3.94 13c.02 3.08-.58 6.14-1.75 8.99s-2.89 5.44-5.07 7.63c-2.17 2.18-4.76 3.92-7.61 5.1-2.84 1.18-5.89 1.79-8.98 1.79v-.1z" fill="#ccdceb"/><path d="m295.96 381h-295.96c1.78-6.67 7.87-11.59 15.11-11.59 3.57 0 6.85 1.21 9.49 3.22 2.04-10.14 11.01-17.78 21.76-17.78 3.26 0 6.35.71 9.13 1.97 3.4-16.07 16-28.73 32.03-32.24-.02-.32-.05-.65-.05-.98 0-8.62 7-15.62 15.63-15.62 2.29 0 4.46.51 6.42 1.39l15.91-48.74h39.8l13.74 48.12c1.53-.49 3.15-.77 4.84-.77 4.31 0 8.22 1.75 11.05 4.58s4.58 6.73 4.58 11.04c20.17 0 37.01 14.24 41.03 33.22 2.78-1.26 5.87-1.97 9.13-1.97 10.75 0 19.72 7.64 21.76 17.78 2.64-2.01 5.92-3.22 9.49-3.22 7.24 0 13.33 4.92 15.11 11.59z" fill="#fff"/><path d="m144.84 80.6001c-6.73 0-13.31 2-18.91 5.74s-9.97 9.06-12.55 15.2799c-2.57 6.22-3.25 13.07-1.93 19.67 1.31 6.6 4.55 12.67 9.32 17.43 4.76 4.76 10.83 8 17.43 9.32 6.61 1.31 13.45.64 19.68-1.94 6.22-2.58 11.54-6.94 15.28-12.54s5.74-12.18 5.74-18.91c-.01-9.03-3.6-17.6799-9.99-24.0599-6.38-6.38-15.04-9.97-24.07-9.98zm0 57.4499c-4.63 0-9.15-1.37-13-3.95-3.85-2.57-6.85-6.23-8.62-10.5-1.77-4.28-2.24-8.98-1.33-13.52.9-4.54 3.13-8.71 6.4-11.9799 3.28-3.27 7.45-5.5 11.99-6.41 4.54-.9 9.24-.44 13.52 1.33s7.94 4.77 10.51 8.6199c2.57 3.85 3.94 8.37 3.94 13 0 6.21-2.46 12.16-6.85 16.55s-10.35 6.86-16.56 6.86z" fill="#49a6d5"/><path d="m144.84 83.1999c8.81 0 17.27 3.42 23.62 9.52 6.34 6.11 10.07 14.4401 10.4 23.2401v-1.32c-.27-8.85-3.98-17.2501-10.34-23.4201s-14.87-9.61-23.72-9.61-17.37 3.45-23.73 9.61c-6.36 6.17-10.07 14.5701-10.34 23.4201v1.32c.34-8.81 4.08-17.1501 10.45-23.2601 6.36-6.11 14.84-9.51 23.66-9.5z" fill="#85c2d9"/><path d="m144.841 140.65c6.21 0 12.17-2.47 16.56-6.85s6.85-10.34 6.85-16.55v-1.29c-.31 5.98-2.91 11.61-7.25 15.73s-10.1 6.42-16.09 6.42-11.75-2.3-16.09-6.42c-4.35-4.12-6.94-9.75-7.26-15.73v1.29c0 6.18 2.45 12.12 6.81 16.5 4.37 4.39 10.29 6.87 16.47 6.9z" fill="#85c2d9"/><path d="m144.84 88.4102c-5.19 0-10.26 1.54-14.57 4.42-4.32 2.88-7.68 6.98-9.67 11.7698-1.98 4.79-2.5 10.07-1.49 15.16s3.51 9.76 7.18 13.43 8.34 6.17 13.43 7.18 10.37.49 15.16-1.49c4.8-1.99 8.9-5.35 11.78-9.66s4.42-9.39 4.42-14.58c0-6.96-2.76-13.63-7.68-18.5499-4.92-4.92-11.6-7.6799-18.56-7.6799zm0 44.2698c-3.56 0-7.05-1.06-10.02-3.04s-5.28-4.8-6.64-8.09c-1.37-3.3-1.72-6.92-1.03-10.42.7-3.5 2.42-6.71 4.94-9.23 2.52-2.5198 5.73-4.2398 9.23-4.9298 3.5-.7 7.13-.34 10.43 1.03 3.29 1.36 6.11 3.6798 8.09 6.6398 1.98 2.97 3.04 6.45 3.04 10.02 0 2.37-.46 4.71-1.37 6.9s-2.24 4.18-3.91 5.85c-1.68 1.67-3.67 3-5.85 3.91-2.19.91-4.54 1.37-6.91 1.37z" fill="#e19542"/><path d="m184.17 57.16c-.45-1-.9-2.03-1.38-3.02 0-.23-.23-.48-.32-.74-.46-.93-.94-1.9-1.42-2.83-.12-.29-.26-.57-.42-.84-.48-.96-.96-1.93-1.48-2.89-.1-.15-.18-.32-.25-.48-1.65-3.04-3.42-6.1-5.31-9.16l-.67-1.13-1.55-2.41-.96-1.48-1.55-2.28-1.15-1.64c-.52-.74-1-1.45-1.55-2.19l-1.44-2.02-1.97-2.6c-.77-1.03-1.51-2.02-2.31-3.02l-1.42-1.67-1.92-2.44c-.49-.55-.94-1.12-1.42-1.7l-2.09-2.51-1.38-1.63998-2.45-2.8-1.19-1.41-3.73-4.2400005-3.82 4.2400005-1.22 1.41-2.42 2.8-1.38 1.63998-2.09 2.51c-.48.58-.93 1.16-1.41 1.7l-1.93 2.44-1.35 1.67c-.77 1-1.55 1.99-2.29 3.02l-1.96 2.6-1.48 2.02-1.51 2.19-1.16 1.64-1.54 2.28-.96 1.48-1.55 2.41-.67 1.13c-1.89 3.06-3.66 6.12-5.31 9.16-.1.15-.18.32-.25.48-.52.96-1.03 1.93-1.52 2.89 0 .26-.25.55-.41.84l-1.39 2.83c0 .26-.22.51-.32.74-.48 1-.93 2.02-1.38 3.02 12.59 4.64 25.91 6.97 39.32 6.88 13.42.09 26.74-2.24 39.33-6.88z" fill="#ffc162"/><path d="m144.839 138.05c12.93 0 23.41-10.48 23.41-23.4s-10.48-23.4-23.41-23.4-23.4 10.48-23.4 23.4 10.48 23.4 23.4 23.4z" fill="#304b64"/><path d="m144.84 134.64c11.05 0 20-8.95 20-20s-8.95-19.9999-20-19.9999-20 8.9499-20 19.9999 8.96 20 20 20z" fill="#3c5c7f"/><path d="m150.21 108.27c.71 1.32 1.75 2.43 3.03 3.21 1.01.29 2.09.18 3.02-.32.92-.5 1.62-1.34 1.93-2.34.26-1.02.29-2.08.08-3.11-.2-1.03-.64-2-1.27-2.84-1.38-1.98-3.31-3.4899-5.56-4.3499s-4.7-1.02-7.05-.47c-1.41.35-2.96 1.32-2.86 2.7599.1 1.45 1.8 2.22 3.22 2.83 2.2 1.02 4.09 2.62 5.46 4.63z" fill="#3c6f9a"/><path d="m161.89 116.15c.41-.59.59-1.3.5-2.01-.08-.71-.42-1.37-.95-1.84-2.93-2.7-7.3 2.41-4.47 4.92.37.31.81.52 1.28.64.47.11.96.12 1.43.02.48-.1.92-.31 1.3-.61s.69-.68.91-1.11z" fill="#3c6f9a"/><path d="m179.15 207.94c-8.1 2.76-16.94 1.83-25.43.64-10.48-1.45-21.22-3.21-30.13-9.03-7.88-5.48-14.21-12.9-18.39-21.54-10.0995-19.29-12.8695-41.09-13.0895-63.11-.8 10.42-1.13 21.57-1.13 33.79v6.94c1.87 59.44 27.5295 82.56 27.5295 82.56s1.35.45 3.73 1.06c14.81 3.44 30.21 3.44 45.01 0 2.38-.61 3.7-1.06 3.7-1.06s12.19-10.96 20.39-37.23c-3.65 2.98-7.77 5.33-12.19 6.98z" fill="#ccdceb"/><path d="m184.17 57.1599-.68-1.48c-8.66 1.67-17.55 1.93-26.3.77-5.36-.23-10.66-1.2-15.75-2.86-2.55-.85-4.9-2.22-6.9-4.01-1.99-1.8-3.6-3.99-4.71-6.43-1.4-4.73-1.57-9.74-.52-14.56.53-4.63 1.44-9.21 2.74-13.69l-1.48 1.86-1.35 1.67c-.77 1-1.55 1.99-2.29 3.02l-1.96 2.6-1.48 2.02-1.51 2.19-1.16 1.64-1.54 2.28-.96 1.48-1.55 2.41-.67 1.13c-1.89 3.06-3.66 6.12-5.31 9.16-.1.15-.18.32-.25.48-.52.96-1.03 1.93-1.52 2.89 0 .26-.25.55-.41.83l-1.39 2.83c0 .26-.22.51-.32.74-.48 1-.93 2.02-1.38 3.02 12.59 4.64 25.91 6.97 39.32 6.88 13.42.09 26.74-2.24 39.33-6.88z" fill="#f9a321"/><path d="m175.809 40.8898c-.74-1.25-1.45-2.48-2.22-3.7l-.68-1.13-1.54-2.41-.96-1.48-1.55-2.28-1.15-1.64c-.52-.74-1-1.45-1.55-2.19l-1.45-2.02-1.96-2.6c-.77-1.03-1.51-2.02-2.31-3.02l-1.42-1.67-1.93-2.44c-.48-.55-.93-1.12-1.41-1.7l-2.09-2.51-1.38-1.64003-2.45-2.8-1.19-1.41-3.73-4.24000438-2.15 2.38000438c11.04 12.86003 22.08 25.70003 33.12 38.51003z" fill="#f9a321"/><path d="m122.371 239.25-3.73 21.8s12.41 9.64 26.2 9.64 26.18-9.64 26.18-9.64l-3.7-21.8c-14.81 3.44-30.21 3.44-45.02 0z" fill="#3c5c7f"/><path d="m167.449 239.96v-.71c-14.81 3.44-30.21 3.44-45.02 0l-1.99 11.03h.26c8.76 1.56 17.73 1.56 26.49 0 7.59-1.48 14.6-5.06 20.26-10.32z" fill="#304b64"/></g></svg>