<svg width="32" height="32" viewBox="0 0 32 32" fill="none" xmlns="http://www.w3.org/2000/svg">
<path d="M30 12H22.6667V6.66667H27.3333C27.5101 6.66667 27.6797 6.59643 27.8047 6.4714C27.9298 6.34638 28 6.17681 28 6V3.33333C28 2.44928 27.6488 1.60143 27.0237 0.976311C26.3986 0.351189 25.5507 0 24.6667 0L3.33333 0C2.44928 0 1.60143 0.351189 0.976311 0.976311C0.351189 1.60143 0 2.44928 0 3.33333L0 28.6667C0 28.8435 0.0702379 29.013 0.195262 29.1381C0.320286 29.2631 0.489856 29.3333 0.666667 29.3333H16V30C16 30.5304 16.2107 31.0391 16.5858 31.4142C16.9609 31.7893 17.4696 32 18 32H30C30.5304 32 31.0391 31.7893 31.4142 31.4142C31.7893 31.0391 32 30.5304 32 30V14C32 13.4696 31.7893 12.9609 31.4142 12.5858C31.0391 12.2107 30.5304 12 30 12ZM26.6667 3.33333V5.33333H22.6667V3.33333C22.6667 2.8029 22.8774 2.29419 23.2525 1.91912C23.6275 1.54405 24.1362 1.33333 24.6667 1.33333C25.1971 1.33333 25.7058 1.54405 26.0809 1.91912C26.456 2.29419 26.6667 2.8029 26.6667 3.33333ZM1.33333 28V3.33333C1.33333 2.8029 1.54405 2.29419 1.91912 1.91912C2.29419 1.54405 2.8029 1.33333 3.33333 1.33333H22C21.1133 2.50667 21.3333 2.5 21.3333 12H18C17.4696 12 16.9609 12.2107 16.5858 12.5858C16.2107 12.9609 16 13.4696 16 14V28H1.33333ZM30.6667 30C30.6667 30.1768 30.5964 30.3464 30.4714 30.4714C30.3464 30.5964 30.1768 30.6667 30 30.6667H18C17.8232 30.6667 17.6536 30.5964 17.5286 30.4714C17.4036 30.3464 17.3333 30.1768 17.3333 30V14C17.3333 13.8232 17.4036 13.6536 17.5286 13.5286C17.6536 13.4036 17.8232 13.3333 18 13.3333H30C30.1768 13.3333 30.3464 13.4036 30.4714 13.5286C30.5964 13.6536 30.6667 13.8232 30.6667 14V30Z" fill="#57A6EE"/>
<path d="M28.6665 14.6665H19.3332C19.1564 14.6665 18.9868 14.7367 18.8618 14.8618C18.7367 14.9868 18.6665 15.1564 18.6665 15.3332V20.6665C18.6665 20.8433 18.7367 21.0129 18.8618 21.1379C18.9868 21.2629 19.1564 21.3332 19.3332 21.3332H28.6665C28.8433 21.3332 29.0129 21.2629 29.1379 21.1379C29.2629 21.0129 29.3332 20.8433 29.3332 20.6665V15.3332C29.3332 15.1564 29.2629 14.9868 29.1379 14.8618C29.0129 14.7367 28.8433 14.6665 28.6665 14.6665ZM27.9998 19.9998H19.9998V15.9998H27.9998V19.9998Z" fill="#57A6EE"/>
<path d="M24.6665 22.6665H23.3332C23.1564 22.6665 22.9868 22.7367 22.8618 22.8618C22.7367 22.9868 22.6665 23.1564 22.6665 23.3332C22.6665 23.51 22.7367 23.6795 22.8618 23.8046C22.9868 23.9296 23.1564 23.9998 23.3332 23.9998H24.6665C24.8433 23.9998 25.0129 23.9296 25.1379 23.8046C25.2629 23.6795 25.3332 23.51 25.3332 23.3332C25.3332 23.1564 25.2629 22.9868 25.1379 22.8618C25.0129 22.7367 24.8433 22.6665 24.6665 22.6665Z" fill="#57A6EE"/>
<path d="M20.6665 22.6665H19.3332C19.1564 22.6665 18.9868 22.7367 18.8618 22.8618C18.7367 22.9868 18.6665 23.1564 18.6665 23.3332C18.6665 23.51 18.7367 23.6795 18.8618 23.8046C18.9868 23.9296 19.1564 23.9998 19.3332 23.9998H20.6665C20.8433 23.9998 21.0129 23.9296 21.1379 23.8046C21.2629 23.6795 21.3332 23.51 21.3332 23.3332C21.3332 23.1564 21.2629 22.9868 21.1379 22.8618C21.0129 22.7367 20.8433 22.6665 20.6665 22.6665Z" fill="#57A6EE"/>
<path d="M28.6665 22.6665H27.3332C27.1564 22.6665 26.9868 22.7367 26.8618 22.8618C26.7367 22.9868 26.6665 23.1564 26.6665 23.3332C26.6665 23.51 26.7367 23.6795 26.8618 23.8046C26.9868 23.9296 27.1564 23.9998 27.3332 23.9998H28.6665C28.8433 23.9998 29.0129 23.9296 29.1379 23.8046C29.2629 23.6795 29.3332 23.51 29.3332 23.3332C29.3332 23.1564 29.2629 22.9868 29.1379 22.8618C29.0129 22.7367 28.8433 22.6665 28.6665 22.6665Z" fill="#57A6EE"/>
<path d="M24.6665 25.3335H23.3332C23.1564 25.3335 22.9868 25.4037 22.8618 25.5288C22.7367 25.6538 22.6665 25.8233 22.6665 26.0002C22.6665 26.177 22.7367 26.3465 22.8618 26.4716C22.9868 26.5966 23.1564 26.6668 23.3332 26.6668H24.6665C24.8433 26.6668 25.0129 26.5966 25.1379 26.4716C25.2629 26.3465 25.3332 26.177 25.3332 26.0002C25.3332 25.8233 25.2629 25.6538 25.1379 25.5288C25.0129 25.4037 24.8433 25.3335 24.6665 25.3335Z" fill="#57A6EE"/>
<path d="M20.6665 25.3335H19.3332C19.1564 25.3335 18.9868 25.4037 18.8618 25.5288C18.7367 25.6538 18.6665 25.8233 18.6665 26.0002C18.6665 26.177 18.7367 26.3465 18.8618 26.4716C18.9868 26.5966 19.1564 26.6668 19.3332 26.6668H20.6665C20.8433 26.6668 21.0129 26.5966 21.1379 26.4716C21.2629 26.3465 21.3332 26.177 21.3332 26.0002C21.3332 25.8233 21.2629 25.6538 21.1379 25.5288C21.0129 25.4037 20.8433 25.3335 20.6665 25.3335Z" fill="#57A6EE"/>
<path d="M28.6665 25.3335H27.3332C27.1564 25.3335 26.9868 25.4037 26.8618 25.5288C26.7367 25.6538 26.6665 25.8233 26.6665 26.0002C26.6665 26.177 26.7367 26.3465 26.8618 26.4716C26.9868 26.5966 27.1564 26.6668 27.3332 26.6668H28.6665C28.8433 26.6668 29.0129 26.5966 29.1379 26.4716C29.2629 26.3465 29.3332 26.177 29.3332 26.0002C29.3332 25.8233 29.2629 25.6538 29.1379 25.5288C29.0129 25.4037 28.8433 25.3335 28.6665 25.3335Z" fill="#57A6EE"/>
<path d="M24.6665 28H23.3332C23.1564 28 22.9868 28.0702 22.8618 28.1953C22.7367 28.3203 22.6665 28.4899 22.6665 28.6667C22.6665 28.8435 22.7367 29.013 22.8618 29.1381C22.9868 29.2631 23.1564 29.3333 23.3332 29.3333H24.6665C24.8433 29.3333 25.0129 29.2631 25.1379 29.1381C25.2629 29.013 25.3332 28.8435 25.3332 28.6667C25.3332 28.4899 25.2629 28.3203 25.1379 28.1953C25.0129 28.0702 24.8433 28 24.6665 28Z" fill="#57A6EE"/>
<path d="M20.6665 28H19.3332C19.1564 28 18.9868 28.0702 18.8618 28.1953C18.7367 28.3203 18.6665 28.4899 18.6665 28.6667C18.6665 28.8435 18.7367 29.013 18.8618 29.1381C18.9868 29.2631 19.1564 29.3333 19.3332 29.3333H20.6665C20.8433 29.3333 21.0129 29.2631 21.1379 29.1381C21.2629 29.013 21.3332 28.8435 21.3332 28.6667C21.3332 28.4899 21.2629 28.3203 21.1379 28.1953C21.0129 28.0702 20.8433 28 20.6665 28Z" fill="#57A6EE"/>
<path d="M28.6665 28H27.3332C27.1564 28 26.9868 28.0702 26.8618 28.1953C26.7367 28.3203 26.6665 28.4899 26.6665 28.6667C26.6665 28.8435 26.7367 29.013 26.8618 29.1381C26.9868 29.2631 27.1564 29.3333 27.3332 29.3333H28.6665C28.8433 29.3333 29.0129 29.2631 29.1379 29.1381C29.2629 29.013 29.3332 28.8435 29.3332 28.6667C29.3332 28.4899 29.2629 28.3203 29.1379 28.1953C29.0129 28.0702 28.8433 28 28.6665 28Z" fill="#57A6EE"/>
<path d="M14 12.6665H4.66667C4.48986 12.6665 4.32029 12.7367 4.19526 12.8618C4.07024 12.9868 4 13.1564 4 13.3332C4 13.51 4.07024 13.6796 4.19526 13.8046C4.32029 13.9296 4.48986 13.9998 4.66667 13.9998H14C14.1768 13.9998 14.3464 13.9296 14.4714 13.8046C14.5964 13.6796 14.6667 13.51 14.6667 13.3332C14.6667 13.1564 14.5964 12.9868 14.4714 12.8618C14.3464 12.7367 14.1768 12.6665 14 12.6665Z" fill="#57A6EE"/>
<path d="M14 19.3335H4.66667C4.48986 19.3335 4.32029 19.4037 4.19526 19.5288C4.07024 19.6538 4 19.8233 4 20.0002C4 20.177 4.07024 20.3465 4.19526 20.4716C4.32029 20.5966 4.48986 20.6668 4.66667 20.6668H14C14.1768 20.6668 14.3464 20.5966 14.4714 20.4716C14.5964 20.3465 14.6667 20.177 14.6667 20.0002C14.6667 19.8233 14.5964 19.6538 14.4714 19.5288C14.3464 19.4037 14.1768 19.3335 14 19.3335Z" fill="#57A6EE"/>
<path d="M4.66667 7.33333H18C18.1768 7.33333 18.3464 7.26309 18.4714 7.13807C18.5964 7.01305 18.6667 6.84348 18.6667 6.66667C18.6667 6.48985 18.5964 6.32029 18.4714 6.19526C18.3464 6.07024 18.1768 6 18 6H4.66667C4.48986 6 4.32029 6.07024 4.19526 6.19526C4.07024 6.32029 4 6.48985 4 6.66667C4 6.84348 4.07024 7.01305 4.19526 7.13807C4.32029 7.26309 4.48986 7.33333 4.66667 7.33333Z" fill="#57A6EE"/>
<path d="M4.66667 10.6668H18C18.1768 10.6668 18.3464 10.5966 18.4714 10.4716C18.5964 10.3465 18.6667 10.177 18.6667 10.0002C18.6667 9.82335 18.5964 9.65378 18.4714 9.52876C18.3464 9.40373 18.1768 9.3335 18 9.3335H4.66667C4.48986 9.3335 4.32029 9.40373 4.19526 9.52876C4.07024 9.65378 4 9.82335 4 10.0002C4 10.177 4.07024 10.3465 4.19526 10.4716C4.32029 10.5966 4.48986 10.6668 4.66667 10.6668Z" fill="#57A6EE"/>
<path d="M14 16H4.66667C4.48986 16 4.32029 16.0702 4.19526 16.1953C4.07024 16.3203 4 16.4899 4 16.6667C4 16.8435 4.07024 17.013 4.19526 17.1381C4.32029 17.2631 4.48986 17.3333 4.66667 17.3333H14C14.1768 17.3333 14.3464 17.2631 14.4714 17.1381C14.5964 17.013 14.6667 16.8435 14.6667 16.6667C14.6667 16.4899 14.5964 16.3203 14.4714 16.1953C14.3464 16.0702 14.1768 16 14 16Z" fill="#57A6EE"/>
<path d="M14 22.6665H4.66667C4.48986 22.6665 4.32029 22.7367 4.19526 22.8618C4.07024 22.9868 4 23.1564 4 23.3332C4 23.51 4.07024 23.6795 4.19526 23.8046C4.32029 23.9296 4.48986 23.9998 4.66667 23.9998H14C14.1768 23.9998 14.3464 23.9296 14.4714 23.8046C14.5964 23.6795 14.6667 23.51 14.6667 23.3332C14.6667 23.1564 14.5964 22.9868 14.4714 22.8618C14.3464 22.7367 14.1768 22.6665 14 22.6665Z" fill="#57A6EE"/>
</svg>
