<svg width="40" height="40" viewBox="0 0 40 40" fill="none" xmlns="http://www.w3.org/2000/svg">
<path d="M37.5 15H28.3333V8.33333H34.1667C34.3877 8.33333 34.5996 8.24554 34.7559 8.08926C34.9122 7.93297 35 7.72101 35 7.5V4.16667C35 3.0616 34.561 2.00179 33.7796 1.22039C32.9982 0.438987 31.9384 0 30.8333 0L4.16667 0C3.0616 0 2.00179 0.438987 1.22039 1.22039C0.438987 2.00179 0 3.0616 0 4.16667L0 35.8333C0 36.0543 0.0877974 36.2663 0.244078 36.4226C0.400358 36.5789 0.61232 36.6667 0.833333 36.6667H20V37.5C20 38.163 20.2634 38.7989 20.7322 39.2678C21.2011 39.7366 21.837 40 22.5 40H37.5C38.163 40 38.7989 39.7366 39.2678 39.2678C39.7366 38.7989 40 38.163 40 37.5V17.5C40 16.837 39.7366 16.2011 39.2678 15.7322C38.7989 15.2634 38.163 15 37.5 15ZM33.3333 4.16667V6.66667H28.3333V4.16667C28.3333 3.50363 28.5967 2.86774 29.0656 2.3989C29.5344 1.93006 30.1703 1.66667 30.8333 1.66667C31.4964 1.66667 32.1323 1.93006 32.6011 2.3989C33.0699 2.86774 33.3333 3.50363 33.3333 4.16667ZM1.66667 35V4.16667C1.66667 3.50363 1.93006 2.86774 2.3989 2.3989C2.86774 1.93006 3.50363 1.66667 4.16667 1.66667H27.5C26.3917 3.13333 26.6667 3.125 26.6667 15H22.5C21.837 15 21.2011 15.2634 20.7322 15.7322C20.2634 16.2011 20 16.837 20 17.5V35H1.66667ZM38.3333 37.5C38.3333 37.721 38.2455 37.933 38.0893 38.0893C37.933 38.2455 37.721 38.3333 37.5 38.3333H22.5C22.279 38.3333 22.067 38.2455 21.9107 38.0893C21.7545 37.933 21.6667 37.721 21.6667 37.5V17.5C21.6667 17.279 21.7545 17.067 21.9107 16.9107C22.067 16.7545 22.279 16.6667 22.5 16.6667H37.5C37.721 16.6667 37.933 16.7545 38.0893 16.9107C38.2455 17.067 38.3333 17.279 38.3333 17.5V37.5Z" fill="white"/>
<path d="M35.834 18.3335H24.1673C23.9463 18.3335 23.7343 18.4213 23.5781 18.5776C23.4218 18.7339 23.334 18.9458 23.334 19.1668V25.8335C23.334 26.0545 23.4218 26.2665 23.5781 26.4228C23.7343 26.579 23.9463 26.6668 24.1673 26.6668H35.834C36.055 26.6668 36.267 26.579 36.4232 26.4228C36.5795 26.2665 36.6673 26.0545 36.6673 25.8335V19.1668C36.6673 18.9458 36.5795 18.7339 36.4232 18.5776C36.267 18.4213 36.055 18.3335 35.834 18.3335ZM35.0007 25.0002H25.0007V20.0002H35.0007V25.0002Z" fill="white"/>
<path d="M30.834 28.3335H29.1673C28.9463 28.3335 28.7343 28.4213 28.5781 28.5776C28.4218 28.7339 28.334 28.9458 28.334 29.1668C28.334 29.3878 28.4218 29.5998 28.5781 29.7561C28.7343 29.9124 28.9463 30.0002 29.1673 30.0002H30.834C31.055 30.0002 31.267 29.9124 31.4232 29.7561C31.5795 29.5998 31.6673 29.3878 31.6673 29.1668C31.6673 28.9458 31.5795 28.7339 31.4232 28.5776C31.267 28.4213 31.055 28.3335 30.834 28.3335Z" fill="white"/>
<path d="M25.834 28.3335H24.1673C23.9463 28.3335 23.7343 28.4213 23.5781 28.5776C23.4218 28.7339 23.334 28.9458 23.334 29.1668C23.334 29.3878 23.4218 29.5998 23.5781 29.7561C23.7343 29.9124 23.9463 30.0002 24.1673 30.0002H25.834C26.055 30.0002 26.267 29.9124 26.4232 29.7561C26.5795 29.5998 26.6673 29.3878 26.6673 29.1668C26.6673 28.9458 26.5795 28.7339 26.4232 28.5776C26.267 28.4213 26.055 28.3335 25.834 28.3335Z" fill="white"/>
<path d="M35.834 28.3335H34.1673C33.9463 28.3335 33.7343 28.4213 33.5781 28.5776C33.4218 28.7339 33.334 28.9458 33.334 29.1668C33.334 29.3878 33.4218 29.5998 33.5781 29.7561C33.7343 29.9124 33.9463 30.0002 34.1673 30.0002H35.834C36.055 30.0002 36.267 29.9124 36.4232 29.7561C36.5795 29.5998 36.6673 29.3878 36.6673 29.1668C36.6673 28.9458 36.5795 28.7339 36.4232 28.5776C36.267 28.4213 36.055 28.3335 35.834 28.3335Z" fill="white"/>
<path d="M30.834 31.6665H29.1673C28.9463 31.6665 28.7343 31.7543 28.5781 31.9106C28.4218 32.0669 28.334 32.2788 28.334 32.4998C28.334 32.7208 28.4218 32.9328 28.5781 33.0891C28.7343 33.2454 28.9463 33.3332 29.1673 33.3332H30.834C31.055 33.3332 31.267 33.2454 31.4232 33.0891C31.5795 32.9328 31.6673 32.7208 31.6673 32.4998C31.6673 32.2788 31.5795 32.0669 31.4232 31.9106C31.267 31.7543 31.055 31.6665 30.834 31.6665Z" fill="white"/>
<path d="M25.834 31.6665H24.1673C23.9463 31.6665 23.7343 31.7543 23.5781 31.9106C23.4218 32.0669 23.334 32.2788 23.334 32.4998C23.334 32.7208 23.4218 32.9328 23.5781 33.0891C23.7343 33.2454 23.9463 33.3332 24.1673 33.3332H25.834C26.055 33.3332 26.267 33.2454 26.4232 33.0891C26.5795 32.9328 26.6673 32.7208 26.6673 32.4998C26.6673 32.2788 26.5795 32.0669 26.4232 31.9106C26.267 31.7543 26.055 31.6665 25.834 31.6665Z" fill="white"/>
<path d="M35.834 31.6665H34.1673C33.9463 31.6665 33.7343 31.7543 33.5781 31.9106C33.4218 32.0669 33.334 32.2788 33.334 32.4998C33.334 32.7208 33.4218 32.9328 33.5781 33.0891C33.7343 33.2454 33.9463 33.3332 34.1673 33.3332H35.834C36.055 33.3332 36.267 33.2454 36.4232 33.0891C36.5795 32.9328 36.6673 32.7208 36.6673 32.4998C36.6673 32.2788 36.5795 32.0669 36.4232 31.9106C36.267 31.7543 36.055 31.6665 35.834 31.6665Z" fill="white"/>
<path d="M30.834 35H29.1673C28.9463 35 28.7343 35.0878 28.5781 35.2441C28.4218 35.4004 28.334 35.6123 28.334 35.8333C28.334 36.0543 28.4218 36.2663 28.5781 36.4226C28.7343 36.5789 28.9463 36.6667 29.1673 36.6667H30.834C31.055 36.6667 31.267 36.5789 31.4232 36.4226C31.5795 36.2663 31.6673 36.0543 31.6673 35.8333C31.6673 35.6123 31.5795 35.4004 31.4232 35.2441C31.267 35.0878 31.055 35 30.834 35Z" fill="white"/>
<path d="M25.834 35H24.1673C23.9463 35 23.7343 35.0878 23.5781 35.2441C23.4218 35.4004 23.334 35.6123 23.334 35.8333C23.334 36.0543 23.4218 36.2663 23.5781 36.4226C23.7343 36.5789 23.9463 36.6667 24.1673 36.6667H25.834C26.055 36.6667 26.267 36.5789 26.4232 36.4226C26.5795 36.2663 26.6673 36.0543 26.6673 35.8333C26.6673 35.6123 26.5795 35.4004 26.4232 35.2441C26.267 35.0878 26.055 35 25.834 35Z" fill="white"/>
<path d="M35.834 35H34.1673C33.9463 35 33.7343 35.0878 33.5781 35.2441C33.4218 35.4004 33.334 35.6123 33.334 35.8333C33.334 36.0543 33.4218 36.2663 33.5781 36.4226C33.7343 36.5789 33.9463 36.6667 34.1673 36.6667H35.834C36.055 36.6667 36.267 36.5789 36.4232 36.4226C36.5795 36.2663 36.6673 36.0543 36.6673 35.8333C36.6673 35.6123 36.5795 35.4004 36.4232 35.2441C36.267 35.0878 36.055 35 35.834 35Z" fill="white"/>
<path d="M17.5 15.8335H5.83333C5.61232 15.8335 5.40036 15.9213 5.24408 16.0776C5.0878 16.2339 5 16.4458 5 16.6668C5 16.8878 5.0878 17.0998 5.24408 17.2561C5.40036 17.4124 5.61232 17.5002 5.83333 17.5002H17.5C17.721 17.5002 17.933 17.4124 18.0893 17.2561C18.2455 17.0998 18.3333 16.8878 18.3333 16.6668C18.3333 16.4458 18.2455 16.2339 18.0893 16.0776C17.933 15.9213 17.721 15.8335 17.5 15.8335Z" fill="white"/>
<path d="M17.5 24.1665H5.83333C5.61232 24.1665 5.40036 24.2543 5.24408 24.4106C5.0878 24.5669 5 24.7788 5 24.9998C5 25.2208 5.0878 25.4328 5.24408 25.5891C5.40036 25.7454 5.61232 25.8332 5.83333 25.8332H17.5C17.721 25.8332 17.933 25.7454 18.0893 25.5891C18.2455 25.4328 18.3333 25.2208 18.3333 24.9998C18.3333 24.7788 18.2455 24.5669 18.0893 24.4106C17.933 24.2543 17.721 24.1665 17.5 24.1665Z" fill="white"/>
<path d="M5.83333 9.16666H22.5C22.721 9.16666 22.933 9.07887 23.0893 8.92259C23.2455 8.76631 23.3333 8.55435 23.3333 8.33333C23.3333 8.11232 23.2455 7.90036 23.0893 7.74408C22.933 7.5878 22.721 7.5 22.5 7.5H5.83333C5.61232 7.5 5.40036 7.5878 5.24408 7.74408C5.0878 7.90036 5 8.11232 5 8.33333C5 8.55435 5.0878 8.76631 5.24408 8.92259C5.40036 9.07887 5.61232 9.16666 5.83333 9.16666Z" fill="white"/>
<path d="M5.83333 13.3332H22.5C22.721 13.3332 22.933 13.2454 23.0893 13.0891C23.2455 12.9328 23.3333 12.7209 23.3333 12.4998C23.3333 12.2788 23.2455 12.0669 23.0893 11.9106C22.933 11.7543 22.721 11.6665 22.5 11.6665H5.83333C5.61232 11.6665 5.40036 11.7543 5.24408 11.9106C5.0878 12.0669 5 12.2788 5 12.4998C5 12.7209 5.0878 12.9328 5.24408 13.0891C5.40036 13.2454 5.61232 13.3332 5.83333 13.3332Z" fill="white"/>
<path d="M17.5 20H5.83333C5.61232 20 5.40036 20.0878 5.24408 20.2441C5.0878 20.4004 5 20.6123 5 20.8333C5 21.0543 5.0878 21.2663 5.24408 21.4226C5.40036 21.5789 5.61232 21.6667 5.83333 21.6667H17.5C17.721 21.6667 17.933 21.5789 18.0893 21.4226C18.2455 21.2663 18.3333 21.0543 18.3333 20.8333C18.3333 20.6123 18.2455 20.4004 18.0893 20.2441C17.933 20.0878 17.721 20 17.5 20Z" fill="white"/>
<path d="M17.5 28.3335H5.83333C5.61232 28.3335 5.40036 28.4213 5.24408 28.5776C5.0878 28.7339 5 28.9458 5 29.1668C5 29.3878 5.0878 29.5998 5.24408 29.7561C5.40036 29.9124 5.61232 30.0002 5.83333 30.0002H17.5C17.721 30.0002 17.933 29.9124 18.0893 29.7561C18.2455 29.5998 18.3333 29.3878 18.3333 29.1668C18.3333 28.9458 18.2455 28.7339 18.0893 28.5776C17.933 28.4213 17.721 28.3335 17.5 28.3335Z" fill="white"/>
</svg>
