<svg width="40" height="41" viewBox="0 0 40 41" fill="none" xmlns="http://www.w3.org/2000/svg">
<path d="M36.875 36.75H36.25V14.875C36.25 14.7092 36.1842 14.5503 36.0669 14.4331C35.9497 14.3158 35.7908 14.25 35.625 14.25H30.625C30.4592 14.25 30.3003 14.3158 30.1831 14.4331C30.0658 14.5503 30 14.7092 30 14.875V36.75H27.5V23.625C27.5 23.4592 27.4342 23.3003 27.3169 23.1831C27.1997 23.0658 27.0408 23 26.875 23H21.875C21.7092 23 21.5503 23.0658 21.4331 23.1831C21.3158 23.3003 21.25 23.4592 21.25 23.625V36.75H18.75V27.375C18.75 27.2092 18.6842 27.0503 18.5669 26.9331C18.4497 26.8158 18.2908 26.75 18.125 26.75H13.125C12.9592 26.75 12.8003 26.8158 12.6831 26.9331C12.5658 27.0503 12.5 27.2092 12.5 27.375V36.75H10V22.375C10 22.2092 9.93415 22.0503 9.81694 21.9331C9.69973 21.8158 9.54076 21.75 9.375 21.75H4.375C4.20924 21.75 4.05027 21.8158 3.93306 21.9331C3.81585 22.0503 3.75 22.2092 3.75 22.375V36.75H3.125C2.95924 36.75 2.80027 36.8158 2.68306 36.9331C2.56585 37.0503 2.5 37.2092 2.5 37.375C2.5 37.5408 2.56585 37.6997 2.68306 37.8169C2.80027 37.9342 2.95924 38 3.125 38H36.875C37.0408 38 37.1997 37.9342 37.3169 37.8169C37.4342 37.6997 37.5 37.5408 37.5 37.375C37.5 37.2092 37.4342 37.0503 37.3169 36.9331C37.1997 36.8158 37.0408 36.75 36.875 36.75ZM5 36.75V23H8.75V36.75H5ZM13.75 36.75V28H17.5V36.75H13.75ZM22.5 36.75V24.25H26.25V36.75H22.5ZM31.25 36.75V15.5H35V36.75H31.25Z" fill="#57A6EE"/>
<path d="M6.875 15.5C7.13395 15.4977 7.38965 15.4421 7.6262 15.3367C7.86275 15.2313 8.07508 15.0784 8.25 14.8875L13.75 17.2625C13.75 17.2625 13.75 17.3375 13.75 17.375C13.7351 17.8723 13.9183 18.3551 14.2594 18.7173C14.6005 19.0795 15.0715 19.2913 15.5687 19.3062C16.066 19.3211 16.5489 19.1379 16.911 18.7968C17.2732 18.4557 17.4851 17.9848 17.5 17.4875L22.8625 15.9625C23.0951 16.28 23.4217 16.5163 23.796 16.6378C24.1704 16.7594 24.5735 16.7601 24.9482 16.6397C25.323 16.5194 25.6504 16.2843 25.884 15.9675C26.1177 15.6508 26.2457 15.2685 26.25 14.875C26.2474 14.5486 26.1567 14.2291 25.9875 13.95L32.325 6.56247C32.6926 6.73589 33.1066 6.78516 33.5047 6.70285C33.9027 6.62055 34.2632 6.41112 34.5319 6.10613C34.8006 5.80114 34.9629 5.41709 34.9943 5.01185C35.0258 4.60661 34.9247 4.20211 34.7064 3.8593C34.488 3.51649 34.1641 3.25392 33.7835 3.11116C33.403 2.9684 32.9863 2.95317 32.5963 3.06776C32.2064 3.18236 31.8642 3.42058 31.6214 3.74653C31.3785 4.07248 31.2482 4.46852 31.25 4.87497C31.2543 5.15602 31.3182 5.43295 31.4375 5.68747L25 13.125C24.7837 13.0452 24.5555 13.0029 24.325 13C23.8553 13.0117 23.4071 13.1993 23.0691 13.5257C22.7311 13.8521 22.528 14.2935 22.5 14.7625L17.1375 16.2875C16.9764 16.0599 16.7662 15.8713 16.5225 15.7358C16.2788 15.6003 16.0078 15.5212 15.7295 15.5044C15.4511 15.4876 15.1726 15.5335 14.9143 15.6388C14.6561 15.744 14.4248 15.9059 14.2375 16.1125L8.75 13.7375C8.75 13.7375 8.75 13.6625 8.75 13.625C8.75 13.2541 8.64003 12.8916 8.43401 12.5833C8.22798 12.2749 7.93514 12.0346 7.59253 11.8927C7.24992 11.7508 6.87292 11.7137 6.50921 11.786C6.14549 11.8583 5.8114 12.0369 5.54918 12.2991C5.28695 12.5614 5.10838 12.8955 5.03603 13.2592C4.96368 13.6229 5.00081 13.9999 5.14273 14.3425C5.28464 14.6851 5.52496 14.978 5.83331 15.184C6.14165 15.39 6.50416 15.5 6.875 15.5ZM33.125 4.24997C33.2486 4.24997 33.3694 4.28663 33.4722 4.35531C33.575 4.42398 33.6551 4.52159 33.7024 4.6358C33.7497 4.75 33.7621 4.87567 33.738 4.99691C33.7139 5.11814 33.6543 5.22951 33.5669 5.31692C33.4795 5.40432 33.3682 5.46385 33.2469 5.48797C33.1257 5.51208 33 5.4997 32.8858 5.4524C32.7716 5.40509 32.674 5.32499 32.6053 5.22221C32.5366 5.11942 32.5 4.99859 32.5 4.87497C32.5 4.70921 32.5658 4.55024 32.683 4.43303C32.8003 4.31582 32.9592 4.24997 33.125 4.24997ZM24.375 14.25C24.4986 14.25 24.6194 14.2866 24.7222 14.3553C24.825 14.424 24.9051 14.5216 24.9524 14.6358C24.9997 14.75 25.0121 14.8757 24.988 14.9969C24.9639 15.1181 24.9043 15.2295 24.8169 15.3169C24.7295 15.4043 24.6182 15.4638 24.4969 15.488C24.3757 15.5121 24.25 15.4997 24.1358 15.4524C24.0216 15.4051 23.924 15.325 23.8553 15.2222C23.7866 15.1194 23.75 14.9986 23.75 14.875C23.75 14.7092 23.8158 14.5502 23.9331 14.433C24.0503 14.3158 24.2092 14.25 24.375 14.25ZM15.625 16.75C15.7486 16.75 15.8694 16.7866 15.9722 16.8553C16.075 16.924 16.1551 17.0216 16.2024 17.1358C16.2497 17.25 16.2621 17.3757 16.238 17.4969C16.2139 17.6181 16.1543 17.7295 16.0669 17.8169C15.9795 17.9043 15.8682 17.9638 15.7469 17.988C15.6257 18.0121 15.5 17.9997 15.3858 17.9524C15.2716 17.9051 15.174 17.825 15.1053 17.7222C15.0367 17.6194 15 17.4986 15 17.375C15 17.2092 15.0658 17.0502 15.1831 16.933C15.3003 16.8158 15.4592 16.75 15.625 16.75ZM6.875 13C6.99861 13 7.11945 13.0366 7.22223 13.1053C7.32501 13.174 7.40512 13.2716 7.45242 13.3858C7.49973 13.5 7.51211 13.6257 7.48799 13.7469C7.46388 13.8681 7.40435 13.9795 7.31694 14.0669C7.22953 14.1543 7.11817 14.2138 6.99693 14.238C6.87569 14.2621 6.75003 14.2497 6.63582 14.2024C6.52162 14.1551 6.42401 14.075 6.35533 13.9722C6.28666 13.8694 6.25 13.7486 6.25 13.625C6.25 13.4592 6.31585 13.3002 6.43306 13.183C6.55027 13.0658 6.70924 13 6.875 13Z" fill="#57A6EE"/>
</svg>
