<svg width="80" height="80" viewBox="0 0 80 80" fill="none" xmlns="http://www.w3.org/2000/svg">
<rect width="80" height="80" rx="8" fill="url(#paint0_linear_1_1804)"/>
<g clip-path="url(#clip0_1_1804)">
<path d="M63.9992 40.4801C63.7071 41.1923 63.522 41.9768 63.1003 42.6025C62.2352 43.8849 60.9184 44.4129 59.3902 44.4176C57.2966 44.4232 55.2039 44.4195 53.1103 44.4195H52.5251C52.5853 44.6149 52.6247 44.7718 52.6801 44.9231C54.3727 49.5351 56.0727 54.1444 57.7512 58.7621C57.8836 59.1257 57.9466 59.556 57.8958 59.9355C57.8179 60.5162 57.3144 60.9164 56.7189 60.9718C56.1432 61.0254 55.6792 60.7999 55.3796 60.2963C55.2612 60.0971 55.1776 59.8745 55.0978 59.6556C53.2878 54.7372 51.4769 49.8198 49.6829 44.8958C49.5486 44.5275 49.3833 44.4063 48.9926 44.4026C48.6047 44.3988 48.4628 44.5379 48.3379 44.8836C46.543 49.8565 44.7377 54.8255 42.9118 59.788C42.7794 60.1488 42.5248 60.5096 42.2308 60.7557C41.8063 61.1118 41.146 61.0498 40.6989 60.7294C40.2246 60.3893 39.9757 59.8059 40.1663 59.2459C40.6688 57.77 41.207 56.3062 41.7387 54.8406C42.9353 51.5419 44.1366 48.2442 45.3351 44.9466C45.3924 44.7887 45.4375 44.6252 45.5032 44.4195H43.6087C43.6529 43.6115 43.6876 42.8364 43.744 42.0641C43.7543 41.9166 43.8389 41.7701 43.9074 41.6329C44.8307 39.7745 45.7596 37.919 46.6829 36.0606C47.4907 34.4353 47.4203 32.871 46.3298 31.3913C44.6833 29.1552 41.0126 29.2548 39.5568 31.6167C38.888 32.7019 38.3648 33.8781 37.7759 35.0131C37.697 35.1653 37.6209 35.3184 37.528 35.5026C37.4246 35.464 37.326 35.4359 37.2349 35.3908C36.2975 34.9276 35.3648 34.4559 34.4237 34.0012C34.1889 33.8875 34.0752 33.7616 34.0762 33.4742C34.0884 30.1464 34.0621 26.8177 34.0912 23.4899C34.1147 20.9053 35.9988 19.0216 38.5828 19.0141C45.5502 18.9934 52.5167 18.9972 59.4841 19.0132C61.822 19.0188 63.5183 20.5051 63.9362 22.8238C63.9437 22.8671 63.9776 22.9046 63.9992 22.945V40.4801ZM49.0499 27.839C49.6275 27.839 50.2052 27.839 50.7828 27.839C52.7186 27.838 54.6554 27.8474 56.5912 27.8296C57.3605 27.823 57.925 27.2518 57.97 26.5077C58.0142 25.7889 57.4816 25.1585 56.7274 25.0495C56.5433 25.0232 56.3536 25.027 56.1667 25.027C51.6225 25.0261 47.0784 25.0261 42.5342 25.027C42.1905 25.027 41.8467 25.0157 41.5039 25.0336C40.8877 25.0665 40.4293 25.3586 40.2002 25.9393C39.8245 26.8882 40.5139 27.8305 41.6006 27.8352C44.0831 27.8465 46.5665 27.839 49.0489 27.839H49.0499ZM53.4325 35.5881C52.435 35.5881 51.4365 35.5834 50.439 35.5918C50.224 35.5937 49.9985 35.6069 49.7966 35.6736C49.1382 35.8906 48.7766 36.5276 48.8874 37.2238C48.9992 37.9237 49.5561 38.3916 50.3555 38.3963C52.3824 38.4085 54.4093 38.4075 56.4353 38.3972C57.3426 38.3925 57.9766 37.7903 57.9738 36.9814C57.971 36.164 57.3454 35.5956 56.425 35.5899C55.4275 35.5834 54.429 35.5881 53.4315 35.5881H53.4325ZM53.4052 33.1162C54.4206 33.1162 55.4359 33.1275 56.4513 33.1124C57.2224 33.1012 57.7315 32.7319 57.9099 32.1006C58.1833 31.132 57.5107 30.3174 56.3977 30.3099C54.414 30.2967 52.4303 30.3061 50.4466 30.3071C50.3216 30.3071 50.1967 30.3165 50.0727 30.3334C49.3044 30.4376 48.7944 31.0869 48.8733 31.8544C48.9522 32.6136 49.5017 33.0974 50.3583 33.1115C51.3736 33.1294 52.389 33.1153 53.4043 33.1162H53.4052Z" fill="#FFE5BC"/>
<path d="M24.3304 34.0669C20.4973 33.5023 18.676 30.37 18.8207 27.6106C18.9785 24.622 21.3079 22.1793 24.367 21.8439C27.2233 21.5301 30.0561 23.4655 30.8207 26.2549C31.311 28.0418 31.0517 29.717 30.0561 31.2775C29.0699 32.823 27.6169 33.6733 25.8473 34.0632C27.6929 33.9655 29.331 34.5827 30.9259 35.3823C33.5201 36.6825 36.1181 37.9725 38.7621 39.2906C38.8476 39.1328 38.9303 38.99 39.0035 38.8425C39.8986 37.0574 40.7956 35.2723 41.6842 33.4844C41.9566 32.9367 42.3558 32.591 42.9916 32.5816C43.9647 32.5665 44.6429 33.4882 44.3348 34.4127C44.2709 34.6043 44.1798 34.7875 44.0896 34.9679C43.0499 37.0471 42.0017 39.1225 40.976 41.2091C40.8689 41.4261 40.8304 41.7193 40.8689 41.9598C41.0962 43.3794 40.6585 44.5575 39.5906 45.4848C38.502 46.4291 37.2067 46.7316 35.8795 46.1942C34.3795 45.5872 32.9519 44.8018 31.4932 44.0934C31.3147 44.007 31.1363 43.9215 30.8667 43.7918V44.458C30.8667 49.3491 30.8667 54.2411 30.8667 59.1322C30.8667 60.5208 30.3924 60.999 29.0164 60.999C26.2662 60.999 23.517 61 20.7668 60.999C19.5214 60.999 19.0095 60.4813 19.0085 59.2262C19.0085 56.8821 19.001 54.538 19.0161 52.1939C19.0179 51.851 18.9278 51.6819 18.6009 51.5315C17.162 50.8711 16.1729 49.738 16.0959 48.169C15.986 45.9142 15.908 43.619 16.2086 41.3933C16.7186 37.6108 19.8774 34.7124 23.6457 34.1834C23.8608 34.1534 24.074 34.1102 24.3295 34.066L24.3304 34.0669Z" fill="#FFE5BC"/>
</g>
<defs>
<linearGradient id="paint0_linear_1_1804" x1="80" y1="-9.43963e-05" x2="-3.12323" y2="3.3886" gradientUnits="userSpaceOnUse">
<stop stop-color="#F9A321"/>
<stop offset="1" stop-color="#FFC162"/>
</linearGradient>
<clipPath id="clip0_1_1804">
<rect width="48" height="42" fill="white" transform="translate(16 19)"/>
</clipPath>
</defs>
</svg>
