<svg width="40" height="40" viewBox="0 0 40 40" fill="none" xmlns="http://www.w3.org/2000/svg">
<path d="M38.6712 13.0869L22.7262 5.29769C21.3517 4.61041 19.0149 4.61041 17.6403 5.29769L1.32875 13.0869C0.183276 13.6368 0 14.4157 0 14.828C0 15.2404 0.183276 15.9735 1.32875 16.5692L2.6575 17.2106V24.5417C1.83276 24.8624 1.23711 25.6872 1.23711 26.6035C1.23711 27.5199 1.83276 28.3447 2.61168 28.6654L0.549828 35.2175H6.32302L4.26117 28.6654C5.08591 28.3447 5.63574 27.5199 5.63574 26.6035C5.63574 25.6413 5.04009 24.8624 4.21535 24.5417V17.9896L6.64376 19.1809V28.7112C6.64376 28.8487 6.68958 28.9861 6.78121 29.1236C7.01031 29.3985 11.2715 35.2175 19.9771 35.2175C28.6827 35.2175 32.9439 29.3527 33.1271 29.1236C33.2188 28.9861 33.2646 28.8487 33.2646 28.7112V19.2267L38.6712 16.5692C39.8167 16.0193 40 15.2404 40 14.828C39.9542 14.4157 39.8167 13.6368 38.6712 13.0869ZM31.7984 28.4821C31.0653 29.3985 27.1249 33.7971 19.9771 33.7971C12.8293 33.7971 8.88889 29.3985 8.15578 28.4821V19.8223L17.6403 24.3584C18.3276 24.6791 19.244 24.8624 20.1604 24.8624C21.1226 24.8624 22.0389 24.6791 22.7262 24.3126L31.7984 19.8681V28.4821ZM38.0298 15.2862L32.5315 17.9896C32.3024 17.9896 32.1191 18.0812 32.0275 18.2645L22.0848 23.0755C21.1226 23.5795 19.244 23.5795 18.236 23.0755L6.00229 17.2106L20.0687 15.5611C20.4811 15.5153 20.756 15.1488 20.7102 14.7822C20.6644 14.3699 20.2978 14.0949 19.9313 14.1408L3.6197 16.0652L1.97022 15.2862C1.55785 15.103 1.46621 14.8739 1.46621 14.8739C1.46621 14.828 1.55785 14.6448 1.97022 14.4615L18.2818 6.62644C18.7858 6.39735 19.4731 6.25989 20.1604 6.25989C20.8935 6.25989 21.6266 6.39735 22.0848 6.62644L38.0298 14.4157C38.4422 14.5989 38.5338 14.7822 38.5338 14.8739C38.5338 14.8739 38.3963 15.103 38.0298 15.2862Z" fill="white"/>
</svg>
