<svg width="40" height="40" viewBox="0 0 40 40" fill="none" xmlns="http://www.w3.org/2000/svg">
<g clip-path="url(#clip0_543_4372)">
<path d="M34.1667 8.33333C31.8683 8.33333 30 6.465 30 4.16667C30 1.86833 31.8683 0 34.1667 0C36.465 0 38.3333 1.86833 38.3333 4.16667C38.3333 6.465 36.465 8.33333 34.1667 8.33333ZM34.1667 1.66667C32.7883 1.66667 31.6667 2.78833 31.6667 4.16667C31.6667 5.545 32.7883 6.66667 34.1667 6.66667C35.545 6.66667 36.6667 5.545 36.6667 4.16667C36.6667 2.78833 35.545 1.66667 34.1667 1.66667Z" fill="white"/>
<path d="M39.1658 9.99989C38.9524 9.99989 38.7391 9.91822 38.5758 9.75655L36.0758 7.25655C35.7508 6.93156 35.7508 6.40322 36.0758 6.07822C36.4008 5.75322 36.9291 5.75322 37.2541 6.07822L39.7541 8.57822C40.0791 8.90322 40.0791 9.43155 39.7541 9.75655C39.5924 9.91822 39.3791 9.99989 39.1658 9.99989Z" fill="white"/>
<path d="M24.1667 10H2.5C1.12167 10 0 8.87833 0 7.5V2.5C0 1.12167 1.12167 0 2.5 0H24.1667C25.545 0 26.6667 1.12167 26.6667 2.5V7.5C26.6667 8.87833 25.545 10 24.1667 10ZM2.5 1.66667C2.04167 1.66667 1.66667 2.04167 1.66667 2.5V7.5C1.66667 7.95833 2.04167 8.33333 2.5 8.33333H24.1667C24.625 8.33333 25 7.95833 25 7.5V2.5C25 2.04167 24.625 1.66667 24.1667 1.66667H2.5Z" fill="white"/>
<path d="M5 40C2.24333 40 0 37.7567 0 35C0 32.2433 2.24333 30 5 30C7.75667 30 10 32.2433 10 35C10 37.7567 7.75667 40 5 40ZM5 31.6667C3.16167 31.6667 1.66667 33.1617 1.66667 35C1.66667 36.8383 3.16167 38.3333 5 38.3333C6.83833 38.3333 8.33333 36.8383 8.33333 35C8.33333 33.1617 6.83833 31.6667 5 31.6667Z" fill="white"/>
<path d="M9.16667 21.6667H0.833333C0.373333 21.6667 0 21.2933 0 20.8333C0 20.3733 0.373333 20 0.833333 20H9.16667C9.62667 20 10 20.3733 10 20.8333C10 21.2933 9.62667 21.6667 9.16667 21.6667Z" fill="white"/>
<path d="M9.16667 26.6667H0.833333C0.373333 26.6667 0 26.2933 0 25.8333C0 25.3733 0.373333 25 0.833333 25H9.16667C9.62667 25 10 25.3733 10 25.8333C10 26.2933 9.62667 26.6667 9.16667 26.6667Z" fill="white"/>
<path d="M9.16667 16.6667H0.833333C0.373333 16.6667 0 16.2933 0 15.8333C0 15.3733 0.373333 15 0.833333 15H9.16667C9.62667 15 10 15.3733 10 15.8333C10 16.2933 9.62667 16.6667 9.16667 16.6667Z" fill="white"/>
<path d="M37.5007 39.9997H15.834C14.4557 39.9997 13.334 38.878 13.334 37.4997V15.833C13.334 14.4547 14.4557 13.333 15.834 13.333H37.5007C38.879 13.333 40.0007 14.4547 40.0007 15.833V37.4997C40.0007 38.878 38.879 39.9997 37.5007 39.9997ZM15.834 14.9997C15.3757 14.9997 15.0007 15.3747 15.0007 15.833V37.4997C15.0007 37.958 15.3757 38.333 15.834 38.333H37.5007C37.959 38.333 38.334 37.958 38.334 37.4997V15.833C38.334 15.3747 37.959 14.9997 37.5007 14.9997H15.834Z" fill="white"/>
<path d="M26.666 25C25.2877 25 24.166 23.8783 24.166 22.5C24.166 21.1217 25.2877 20 26.666 20C28.0443 20 29.166 21.1217 29.166 22.5C29.166 23.8783 28.0443 25 26.666 25ZM26.666 21.6667C26.2077 21.6667 25.8327 22.0417 25.8327 22.5C25.8327 22.9583 26.2077 23.3333 26.666 23.3333C27.1243 23.3333 27.4993 22.9583 27.4993 22.5C27.4993 22.0417 27.1243 21.6667 26.666 21.6667Z" fill="white"/>
<path d="M30.8327 31.667C30.3727 31.667 29.9993 31.2937 29.9993 30.8337V30.0003C29.9993 29.0803 29.2527 28.3337 28.3327 28.3337H24.9993C24.0793 28.3337 23.3327 29.0803 23.3327 30.0003V30.8337C23.3327 31.2937 22.9593 31.667 22.4993 31.667C22.0393 31.667 21.666 31.2937 21.666 30.8337V30.0003C21.666 28.162 23.161 26.667 24.9993 26.667H28.3327C30.171 26.667 31.666 28.162 31.666 30.0003V30.8337C31.666 31.2937 31.2927 31.667 30.8327 31.667Z" fill="white"/>
</g>
<defs>
<clipPath id="clip0_543_4372">
<rect width="40" height="40" fill="white"/>
</clipPath>
</defs>
</svg>
