<svg width="42" height="41" viewBox="0 0 42 41" fill="none" xmlns="http://www.w3.org/2000/svg">
<path d="M19.5312 14.5625C19.9625 14.5625 20.3125 14.2125 20.3125 13.7812C20.3125 13.35 19.9625 13 19.5312 13C19.1 13 18.75 13.35 18.75 13.7812C18.75 14.2125 19.1 14.5625 19.5312 14.5625Z" fill="#57A6EE"/>
<path d="M19.5312 17.6875C19.9625 17.6875 20.3125 17.3375 20.3125 16.9062C20.3125 16.475 19.9625 16.125 19.5312 16.125C19.1 16.125 18.75 16.475 18.75 16.9062C18.75 17.3375 19.1 17.6875 19.5312 17.6875Z" fill="#57A6EE"/>
<path d="M39.7711 8.54138L31.9586 0.728882C31.8204 0.590332 31.6196 0.5 31.4062 0.5H11.7188C10.4263 0.5 9.375 1.55133 9.375 2.84375V5.22351C9.1156 5.20001 8.85468 5.1875 8.59375 5.1875C3.85529 5.1875 0 9.04279 0 13.7812C0 18.5197 3.85529 22.375 8.59375 22.375C8.85468 22.375 9.1156 22.3625 9.375 22.339V38.1562C9.375 39.4487 10.4263 40.5 11.7188 40.5H37.6562C38.9487 40.5 40 39.4487 40 38.1562V9.09375C40 8.88043 39.9112 8.68146 39.7711 8.54138ZM32.1875 3.16724L37.3328 8.3125H32.1875V3.16724ZM9.375 6.79364C12.674 7.15771 15.2191 9.78802 15.5798 13H9.375V6.79364ZM1.5625 13.7812C1.5625 10.1683 4.30176 7.18365 7.8125 6.79364V13.7812C7.8125 14.2128 8.16223 14.5616 8.59375 14.5616H15.5798C15.1874 18.0565 12.2305 20.8125 8.59375 20.8125C4.7168 20.8125 1.5625 17.6582 1.5625 13.7812ZM37.6562 38.9375H11.7188C11.2878 38.9375 10.9375 38.5872 10.9375 38.1562V22.0497C14.5947 21.0145 17.1875 17.6362 17.1875 13.7812C17.1875 9.92627 14.5947 6.54797 10.9375 5.51282V2.84375C10.9375 2.41284 11.2878 2.0625 11.7188 2.0625H30.625V9.09375C30.625 9.52527 30.9747 9.875 31.4062 9.875H38.4375V38.1562C38.4375 38.5872 38.0872 38.9375 37.6562 38.9375Z" fill="#57A6EE"/>
<path d="M20 6.75H28.2812C28.7128 6.75 29.0625 6.40027 29.0625 5.96875C29.0625 5.53723 28.7128 5.1875 28.2812 5.1875H20C19.5685 5.1875 19.2188 5.53723 19.2188 5.96875C19.2188 6.40027 19.5685 6.75 20 6.75Z" fill="#57A6EE"/>
<path d="M20 9.875H28.2812C28.7128 9.875 29.0625 9.52527 29.0625 9.09375C29.0625 8.66223 28.7128 8.3125 28.2812 8.3125H20C19.5685 8.3125 19.2188 8.66223 19.2188 9.09375C19.2188 9.52527 19.5685 9.875 20 9.875Z" fill="#57A6EE"/>
<path d="M8.59375 17.6875C6.43982 17.6875 4.6875 15.9352 4.6875 13.7812C4.6875 13.3497 4.33777 13 3.90625 13C3.47473 13 3.125 13.3497 3.125 13.7812C3.125 16.7967 5.57831 19.25 8.59375 19.25C9.02527 19.25 9.375 18.9003 9.375 18.4688C9.375 18.0372 9.02527 17.6875 8.59375 17.6875Z" fill="#57A6EE"/>
<path d="M34.2969 21.2812C33.0045 21.2812 31.9531 22.3326 31.9531 23.625C31.9531 24.1093 32.1008 24.5601 32.3535 24.9339L26.9284 30.7567C26.7136 30.6917 26.4859 30.6562 26.25 30.6562C25.9204 30.6562 25.6015 30.7246 25.3085 30.8531L22.865 27.8239C23.0347 27.4958 23.125 27.1299 23.125 26.75C23.125 25.4576 22.0737 24.4062 20.7812 24.4062C19.4888 24.4062 18.4375 25.4576 18.4375 26.75C18.4375 27.115 18.5211 27.4669 18.678 27.7849L15.8292 30.8726C15.5243 30.731 15.1898 30.6562 14.8438 30.6562C13.5513 30.6562 12.5 31.7076 12.5 33C12.5 34.2924 13.5513 35.3438 14.8438 35.3438C16.1362 35.3438 17.1875 34.2924 17.1875 33C17.1875 32.635 17.1042 32.2831 16.947 31.9651L19.7958 28.8774C20.1007 29.019 20.4352 29.0938 20.7812 29.0938C21.1108 29.0938 21.4297 29.0254 21.7227 28.8969L24.1663 31.9261C23.9966 32.2542 23.9062 32.6201 23.9062 33C23.9062 34.2924 24.9576 35.3438 26.25 35.3438C27.5424 35.3438 28.5938 34.2924 28.5938 33C28.5938 32.5157 28.446 32.0649 28.1934 31.6911L33.6185 25.8683C33.8333 25.9333 34.061 25.9688 34.2969 25.9688C35.5893 25.9688 36.6406 24.9174 36.6406 23.625C36.6406 22.3326 35.5893 21.2812 34.2969 21.2812ZM14.8438 33.7812C14.4128 33.7812 14.0625 33.4309 14.0625 33C14.0625 32.5691 14.4128 32.2188 14.8438 32.2188C15.275 32.2188 15.625 32.5685 15.625 33C15.625 33.4309 15.2747 33.7812 14.8438 33.7812ZM20 26.75C20 26.3191 20.3503 25.9688 20.7812 25.9688C21.2122 25.9688 21.5625 26.3191 21.5625 26.75C21.5625 27.1812 21.2128 27.5312 20.7812 27.5312C20.3497 27.5312 20 27.1812 20 26.75ZM26.25 33.7812C25.8191 33.7812 25.4688 33.4309 25.4688 33C25.4688 32.5688 25.8185 32.2188 26.25 32.2188C26.6809 32.2188 27.0312 32.5691 27.0312 33C27.0312 33.4309 26.6809 33.7812 26.25 33.7812ZM34.2969 24.4062C33.866 24.4062 33.5156 24.0559 33.5156 23.625C33.5156 23.1941 33.866 22.8438 34.2969 22.8438C34.7278 22.8438 35.0781 23.1941 35.0781 23.625C35.0781 24.0559 34.7278 24.4062 34.2969 24.4062Z" fill="#57A6EE"/>
<path d="M21.875 13.7812C21.875 14.2128 22.2247 14.5625 22.6562 14.5625H34.5312C34.9628 14.5625 35.3125 14.2128 35.3125 13.7812C35.3125 13.3497 34.9628 13 34.5312 13H22.6562C22.2247 13 21.875 13.3497 21.875 13.7812Z" fill="#57A6EE"/>
<path d="M34.5312 16.125H22.6562C22.2247 16.125 21.875 16.4747 21.875 16.9062C21.875 17.3378 22.2247 17.6875 22.6562 17.6875H34.5312C34.9628 17.6875 35.3125 17.3378 35.3125 16.9062C35.3125 16.4747 34.9628 16.125 34.5312 16.125Z" fill="#57A6EE"/>
</svg>
