<svg width="80" height="80" viewBox="0 0 80 80" fill="none" xmlns="http://www.w3.org/2000/svg">
<rect width="80" height="80" rx="8" fill="url(#paint0_linear_1_1816)"/>
<rect width="80" height="80" rx="8" fill="url(#paint1_linear_1_1816)"/>
<g clip-path="url(#clip0_1_1816)">
<path d="M58.3552 13C59.2759 13.2713 60.1862 13.5427 60.9525 14.1784C62.0891 15.1216 62.8349 16.3156 62.9018 17.7757C62.9918 19.7371 63.0252 21.7192 62.8555 23.6729C62.6472 26.0555 60.4768 28.0144 58.1495 28.1875C55.5728 28.3813 53.297 26.8773 52.5692 24.4895C52.4715 24.1716 52.3481 23.8434 52.3455 23.5204C52.3249 21.5719 52.2067 19.6105 52.3712 17.6749C52.5718 15.3258 54.2973 13.5995 56.5989 13.0982C56.6992 13.0775 56.7917 13.0336 56.8895 13H58.3604L58.3552 13ZM55.398 20.595C55.398 21.4194 55.362 22.2464 55.4057 23.0681C55.4648 24.1819 56.3006 24.9856 57.4423 25.1019C58.471 25.2079 59.6539 24.5489 59.7285 23.523C59.8699 21.5926 59.8699 19.6363 59.7362 17.7033C59.6642 16.6748 58.5018 16.0132 57.4629 16.1114C56.316 16.2199 55.47 17.0133 55.4082 18.1219C55.362 18.9437 55.398 19.7707 55.398 20.595Z" fill="#FFE5BC"/>
<path d="M44.0768 13C45.1055 13.2894 46.1032 13.6306 46.9081 14.3877C48.0242 15.4395 48.6131 16.729 48.6619 18.2563C48.6902 19.1246 48.0576 19.8043 47.245 19.8585C46.4041 19.9154 45.7509 19.3753 45.6018 18.4941C45.5581 18.2356 45.5529 17.9669 45.4809 17.7162C45.1903 16.6851 44.2209 16.0158 43.1768 16.1088C42.0376 16.2096 41.1736 16.9539 41.1273 18.0651C41.0553 19.7319 41.0553 21.4039 41.117 23.0707C41.1581 24.1923 41.9373 24.9236 43.0534 25.0864C43.2951 25.1226 43.5445 25.1174 43.7785 25.1795C44.5012 25.3733 44.9795 26.0917 44.8946 26.8204C44.8072 27.575 44.2183 28.141 43.4648 28.1953C41.3433 28.3503 38.9852 26.7868 38.3474 24.7246C38.134 24.0321 38.0285 23.2852 38.0003 22.5591C37.9463 21.2256 37.9823 19.887 37.9848 18.5509C37.9925 15.7419 39.6692 13.6745 42.4131 13.0827C42.4799 13.0698 42.5391 13.0284 42.6008 13H44.0717H44.0768Z" fill="#FFE5BC"/>
<path d="M33.1564 13C34.0616 13.3411 34.3959 14.013 34.3908 14.9666C34.3702 18.7473 34.3856 22.5255 34.3753 26.3062C34.3753 26.6189 34.3471 26.9471 34.2468 27.2365C34.0076 27.9213 33.2721 28.309 32.5573 28.1823C31.8012 28.048 31.292 27.4174 31.2895 26.5413C31.2792 24.0269 31.2843 21.5124 31.2843 19.0006C31.2843 18.8145 31.2843 18.6284 31.2843 18.277C30.8215 18.7525 30.4794 19.1194 30.122 19.4683C29.402 20.1712 28.4659 20.2048 27.8333 19.5614C27.1956 18.9101 27.2341 17.9979 27.9542 17.2666C29.1602 16.0416 30.3714 14.8219 31.5929 13.615C31.8372 13.3721 32.1432 13.2016 32.421 13H33.1564Z" fill="#FFE5BC"/>
<path d="M38.2908 40.3644C38.2908 41.1371 38.3062 41.9098 38.2882 42.6824C38.2316 45.109 36.7041 47.0524 34.3074 47.7656C32.2425 48.3807 29.8226 47.4891 28.5446 45.6181C28.0328 44.8687 27.6677 44.0288 27.6548 43.1218C27.6239 41.1732 27.5494 39.2144 27.7165 37.2788C27.9248 34.8703 30.0721 32.9606 32.5228 32.7513C34.9554 32.5445 37.3676 34.0925 37.9719 36.4519C38.2933 37.7052 38.283 39.0464 38.4219 40.3463L38.2908 40.3592V40.3644ZM30.7252 40.3463H30.7304C30.7304 41.1888 30.697 42.0312 30.7407 42.8711C30.787 43.7497 31.4298 44.494 32.2656 44.7498C33.7905 45.215 35.1689 44.1684 35.1997 42.486C35.2255 41.0647 35.21 39.6434 35.1997 38.2221C35.1997 37.9791 35.1766 37.7285 35.1149 37.4933C34.8397 36.4312 33.8651 35.7748 32.7311 35.873C31.6381 35.966 30.7972 36.7749 30.733 37.8758C30.6867 38.6976 30.7227 39.5245 30.7227 40.3489L30.7252 40.3463Z" fill="#FFE5BC"/>
<path d="M52.2835 40.3386C52.2835 39.5297 52.2578 38.7208 52.2886 37.9146C52.4044 34.9324 54.9091 32.6221 57.8663 32.7461C60.4662 32.8546 62.6649 34.8238 62.8912 37.5166C63.0557 39.4677 63.0249 41.4549 62.8552 43.4086C62.6494 45.7784 60.515 47.732 58.2161 47.9233C55.5777 48.1429 53.235 46.6777 52.5869 44.1994C52.2655 42.9641 52.2861 41.6384 52.1523 40.3541L52.2835 40.3411V40.3386ZM55.3925 40.3256C55.3925 41.15 55.3796 41.9744 55.3977 42.7987C55.4105 43.4319 55.7037 43.9436 56.1897 44.3364C56.8917 44.9023 57.6786 45.016 58.5015 44.6697C59.3038 44.3312 59.8156 43.7084 59.8362 42.8194C59.8722 41.1707 59.849 39.5219 59.8413 37.8732C59.8413 37.7182 59.8027 37.5605 59.759 37.4106C59.435 36.3563 58.4707 35.7516 57.3186 35.8782C56.2694 35.9919 55.4594 36.8214 55.4028 37.9068C55.3616 38.7105 55.3951 39.5194 55.3951 40.3282L55.3925 40.3256Z" fill="#FFE5BC"/>
<path d="M20.4323 59.4102C20.4323 58.5496 20.4014 57.6865 20.4374 56.8285C20.5352 54.4717 22.271 52.4612 24.6317 51.9288C26.8638 51.4249 29.2836 52.5284 30.3817 54.5415C30.8085 55.3245 31.0683 56.1514 31.0683 57.0508C31.0683 58.684 31.0914 60.3198 31.0554 61.9504C31.0091 63.992 29.5279 66.0129 27.6584 66.6589C25.4186 67.4342 23.1196 66.8476 21.7052 65.1471C20.8798 64.1548 20.4323 63.0229 20.4194 61.7256C20.4117 60.9529 20.4194 60.1803 20.4194 59.4076H20.4323V59.4102ZM23.495 59.3766C23.495 60.1492 23.4796 60.9219 23.4976 61.6946C23.5259 62.9505 24.4491 63.8783 25.6911 63.9222C26.8946 63.9661 27.9387 63.0487 27.9798 61.798C28.0338 60.219 28.0313 58.6375 27.9824 57.0611C27.9438 55.8077 26.9229 54.8878 25.7143 54.9084C24.4671 54.9317 23.5207 55.8853 23.495 57.1696C23.4796 57.9061 23.4925 58.6452 23.495 59.3817V59.3766Z" fill="#FFE5BC"/>
<path d="M45.3085 38.1161C44.9511 38.4985 44.6117 38.8991 44.2362 39.2635C43.5573 39.9199 42.647 39.9302 42.0272 39.3177C41.4049 38.7027 41.3895 37.7749 42.0427 37.1005C43.3002 35.8058 44.5808 34.5317 45.8614 33.2577C46.35 32.7719 46.9389 32.5987 47.5921 32.8701C48.2221 33.1311 48.5076 33.6531 48.5513 34.3198C48.5616 34.4775 48.559 34.6351 48.559 34.7953C48.559 38.5037 48.559 42.2121 48.559 45.9204C48.559 46.184 48.5538 46.4502 48.5076 46.706C48.3764 47.4219 47.7875 47.9129 47.0726 47.9361C46.3217 47.9594 45.6994 47.4968 45.5348 46.7706C45.4808 46.5329 45.468 46.2848 45.468 46.0393C45.4628 43.6153 45.4654 41.1887 45.4654 38.7647V38.1988L45.3137 38.1186L45.3085 38.1161Z" fill="#FFE5BC"/>
<path d="M20.7449 38.1239C20.3874 38.5063 20.0454 38.9069 19.67 39.2713C18.9962 39.9225 18.0782 39.9277 17.4636 39.31C16.8438 38.6872 16.8361 37.7724 17.497 37.0954C18.7571 35.8007 20.0326 34.5266 21.3132 33.2526C21.7838 32.7849 22.3572 32.6091 22.9976 32.8572C23.6327 33.1053 23.9336 33.617 23.9953 34.2811C24.0056 34.3845 24.003 34.4905 24.0056 34.5964C24.0056 38.4443 24.0082 42.2922 24.0056 46.1401C24.0056 47.2695 23.3756 47.9646 22.4035 47.9388C21.6886 47.9207 21.0972 47.4297 20.9609 46.7164C20.9146 46.4761 20.9069 46.228 20.9069 45.9825C20.9043 43.5766 20.9069 41.1681 20.9069 38.7622C20.9069 38.5735 20.9069 38.3875 20.9069 38.1988L20.7474 38.1239H20.7449Z" fill="#FFE5BC"/>
<path d="M38.6054 57.2031C38.2711 57.5598 37.9497 57.9293 37.5999 58.273C36.8928 58.9733 35.9336 59.0095 35.3112 58.3764C34.6684 57.7226 34.7044 56.8155 35.427 56.079C36.6433 54.8411 37.8751 53.6162 39.0992 52.3887C39.6135 51.8719 40.2178 51.6574 40.9121 51.9572C41.5833 52.2466 41.8533 52.8203 41.8559 53.5258C41.861 56.216 41.8661 58.9036 41.8533 61.5937C41.8481 62.5473 41.2181 63.2089 40.3566 63.2321C39.4669 63.2554 38.7983 62.6145 38.7726 61.6325C38.7391 60.3688 38.7623 59.1025 38.7623 57.8363C38.7623 57.6502 38.7623 57.4616 38.7623 57.2755L38.6054 57.2083V57.2031Z" fill="#FFE5BC"/>
</g>
<defs>
<linearGradient id="paint0_linear_1_1816" x1="80" y1="-9.43963e-05" x2="-3.12323" y2="3.3886" gradientUnits="userSpaceOnUse">
<stop stop-color="#F9A321"/>
<stop offset="1" stop-color="#FFC162"/>
</linearGradient>
<linearGradient id="paint1_linear_1_1816" x1="80" y1="-9.43963e-05" x2="-3.12323" y2="3.3886" gradientUnits="userSpaceOnUse">
<stop stop-color="#FD6853"/>
<stop offset="1" stop-color="#FFA564"/>
</linearGradient>
<clipPath id="clip0_1_1816">
<rect width="46" height="54" fill="white" transform="translate(17 13)"/>
</clipPath>
</defs>
</svg>
