<svg width="40" height="40" viewBox="0 0 40 40" fill="none" xmlns="http://www.w3.org/2000/svg">
<g clip-path="url(#clip0_64_2956)">
<path d="M0.000241093 8.60898C0.223072 8.17915 0.572539 8.02694 1.05473 8.04521C1.80724 8.07321 2.56097 8.05251 3.38411 8.05251C3.38411 7.7895 3.37924 7.5484 3.38411 7.30853C3.3975 6.69726 3.5838 6.48052 4.17437 6.33075C6.73753 5.68052 9.33723 5.49665 11.9576 5.8169C14.975 6.18585 17.7013 7.24156 19.8894 9.44673C19.9077 9.465 19.9321 9.47595 19.9832 9.51127C20.0611 9.44795 20.1537 9.38219 20.234 9.30548C22.1896 7.43638 24.5506 6.40624 27.1881 5.95327C30.091 5.45404 32.9658 5.6306 35.8176 6.33318C36.3923 6.47443 36.5713 6.68996 36.5823 7.28417C36.5859 7.5277 36.5823 7.77124 36.5823 8.05738C37.392 8.05738 38.1555 8.05738 38.9202 8.05738C39.7506 8.05738 39.999 8.30213 39.999 9.1204C39.999 17.191 39.999 25.2604 39.999 33.3311C39.999 34.2735 39.4754 34.5706 38.6231 34.1505C36.7808 33.2422 34.8289 32.6626 32.8149 32.2826C28.7126 31.5094 24.6346 31.6519 20.5847 32.6285C19.9491 32.7819 19.3719 32.6139 18.7801 32.486C13.9278 31.4315 9.11561 31.5703 4.35945 33.0059C3.33053 33.3164 2.33814 33.7536 1.34575 34.1725C0.662646 34.461 0.358232 34.3965 -0.000976562 33.7645V8.60898H0.000241093ZM19.2197 30.3356C19.2197 30.198 19.2197 30.0994 19.2197 30.002C19.2149 23.7919 19.2112 17.5807 19.1942 11.3706C19.1942 11.1892 19.0955 10.9688 18.9701 10.8324C17.8194 9.58311 16.4167 8.70883 14.8252 8.13288C12.6712 7.35358 10.4392 7.15023 8.17315 7.31096C7.09065 7.38767 6.01546 7.57641 4.94758 7.71279V28.1548C9.89126 27.6543 14.7266 27.7189 19.2185 30.3356H19.2197ZM35.0212 28.156V7.76515C32.3047 7.19041 29.6063 7.04673 26.9031 7.63364C24.6444 8.12436 22.6292 9.0997 21.0243 10.8093C20.8843 10.9591 20.7856 11.2123 20.7856 11.4169C20.7735 17.5868 20.7759 23.7566 20.7759 29.9265C20.7759 30.0495 20.7881 30.1712 20.7954 30.3174C25.269 27.7298 30.0873 27.6349 35.0212 28.156ZM1.57954 9.62694V32.2973C2.71196 31.9307 3.80907 31.5204 4.93662 31.2257C6.07878 30.9262 7.24286 30.6814 8.41181 30.5195C9.56858 30.3588 10.7436 30.2845 11.9126 30.2589C13.0766 30.2346 14.2432 30.3174 15.4328 30.3551C13.3104 29.6781 11.1515 29.3773 8.95367 29.4626C7.43403 29.521 5.91927 29.6805 4.40329 29.8108C3.8042 29.862 3.44986 29.5953 3.41211 29.0023C3.40359 28.8598 3.40846 28.7161 3.40846 28.5725C3.40846 22.4282 3.40846 16.2827 3.40846 10.1384V9.62816H1.57954V9.62694ZM36.6261 9.63303C36.6261 9.82055 36.6261 9.97519 36.6261 10.1298C36.6261 16.3119 36.6261 22.4927 36.6261 28.6747C36.6261 28.805 36.6346 28.9365 36.6212 29.0644C36.5701 29.5381 36.262 29.8108 35.7835 29.8059C35.6155 29.8035 35.4462 29.7852 35.2782 29.7621C33.0292 29.4455 30.7716 29.3493 28.5068 29.5502C27.1588 29.6696 25.8389 29.9314 24.5543 30.3795C29.3324 29.8973 33.9497 30.5597 38.4441 32.3569V9.63303H36.6273H36.6261Z" fill="white"/>
</g>
<defs>
<clipPath id="clip0_64_2956">
<rect width="40" height="40" fill="white"/>
</clipPath>
</defs>
</svg>
