<svg width="48" height="48" viewBox="0 0 48 48" fill="none" xmlns="http://www.w3.org/2000/svg">
<g clip-path="url(#clip0_64_1767)">
<path d="M31.1238 0H32.2489C34.1449 0.299169 35.2252 1.54571 36.1061 3.14255C37.8756 6.35414 39.7371 9.5146 41.5461 12.7045C41.7264 13.0228 41.9425 13.1698 42.3004 13.2248C44.075 13.4971 45.6335 15.1464 45.7498 16.9248C45.8253 18.0767 45.8125 19.2338 45.8214 20.3882C45.8291 21.4213 45.4149 21.824 44.3703 21.8253C42.3235 21.8278 40.2766 21.8163 38.231 21.8304C37.4051 21.8368 36.5728 21.8393 35.7558 21.9429C30.918 22.5566 27.4532 27.5913 28.5617 32.3627C29.5231 36.505 32.9508 39.2499 37.2107 39.2717C39.6322 39.2845 42.0537 39.2717 44.4752 39.2755C45.3983 39.2755 45.8163 39.6923 45.8227 40.6205C45.8304 41.5576 45.8815 42.4999 45.8061 43.4306C45.7486 44.1338 45.645 44.8792 45.3484 45.5069C44.5442 47.2112 43.0995 47.9936 41.2355 47.9962C35.8773 48.0026 30.5191 47.9987 25.1596 47.9987C18.3171 47.9987 11.4745 47.9962 4.632 48C3.08246 48 1.80396 47.4541 0.854038 46.2024C0.370765 45.5657 0.154698 44.8268 0 44.0609C0 35.0296 0 25.9983 0 16.9683C0.0166205 16.9427 0.0447475 16.9184 0.048583 16.8903C0.341359 14.6772 2.25272 12.9896 4.73556 13.0931C5.68549 13.1328 6.64053 13.1212 7.59045 13.088C7.91519 13.0765 8.27445 12.996 8.55316 12.8361C13.3706 10.049 18.1573 7.20818 22.9964 4.45941C25.6825 2.93416 28.1999 1.09312 31.1225 0.0012785L31.1238 0ZM12.5702 13.0752C12.7415 13.0893 12.8118 13.0995 12.8834 13.0995C14.0865 13.0995 15.2883 13.1097 16.4914 13.0918C16.6959 13.0893 16.9184 13.0049 17.0987 12.9013C22.4952 9.76646 27.8866 6.62519 33.2794 3.48391C33.3944 3.41615 33.5031 3.33688 33.613 3.26401C32.9009 2.14149 31.7298 1.88451 30.5357 2.57873C24.6687 5.99105 18.8055 9.4072 12.941 12.8234C12.8413 12.8809 12.7492 12.9538 12.5702 13.0765V13.0752ZM39.2563 13.0791C38.4407 11.6535 37.671 10.3098 36.8873 8.94055C34.5272 10.3162 32.222 11.6586 29.9169 13.0011L29.954 13.0791H39.2563Z" fill="#3F5770"/>
<path d="M40.5591 37.0639C39.264 37.0639 37.9638 37.1316 36.6737 37.0511C33.3484 36.844 30.6814 34.1476 30.5638 30.9488C30.4334 27.424 32.7667 24.5729 36.1969 24.0794C36.5664 24.0257 36.9422 24.004 37.3156 24.0027C39.6884 23.9963 42.0613 23.9976 44.4342 24.0001C46.6333 24.0027 47.9961 25.3669 47.9987 27.5659C48.0013 29.5642 48.0025 31.5625 47.9987 33.5608C47.9949 35.701 46.6371 37.0741 44.4943 37.0945C43.1826 37.1073 41.8721 37.0971 40.5604 37.0971V37.0639H40.5591ZM37.1532 28.3816C35.9437 28.347 34.9682 29.2624 34.9145 30.4821C34.8634 31.6558 35.8389 32.6901 37.0253 32.7182C38.2258 32.7464 39.2244 31.8092 39.2691 30.61C39.3138 29.4235 38.3575 28.4161 37.1532 28.3816Z" fill="#3F5770"/>
</g>
<defs>
<clipPath id="clip0_64_1767">
<rect width="48" height="48" fill="white"/>
</clipPath>
</defs>
</svg>
