<svg width="40" height="40" viewBox="0 0 40 40" fill="none" xmlns="http://www.w3.org/2000/svg">
<path d="M38.5955 35.4265H38.5244V34.505C38.5244 33.7306 37.8944 33.1006 37.1199 33.1006H35.4471V31.83C35.4471 31.2264 34.9726 30.7329 34.3772 30.6995V18.7557C34.9726 18.7223 35.4471 18.2288 35.4471 17.6252V16.3546H37.0701C37.6884 16.3546 38.1916 15.8516 38.1916 15.2331V14.0356H39.0446C39.5466 14.0356 39.955 13.6272 39.955 13.1253V12.0903C39.955 11.7556 39.7722 11.4488 39.4777 11.2895L26.0402 4.02281C25.7549 3.86827 25.399 3.97468 25.2449 4.25984C25.0908 4.54492 25.1969 4.90101 25.482 5.05507L38.7813 12.2472V12.8619H1.21867V12.2523L20.2884 2.24648L23.0638 3.74742C23.349 3.90179 23.7049 3.79546 23.8591 3.51038C24.0132 3.22531 23.9071 2.86921 23.622 2.71515L20.8466 1.21413C20.5038 1.02874 20.093 1.02617 19.7478 1.20726L0.532578 11.2869C0.231797 11.4446 0.045 11.7535 0.045 12.093V13.1252C0.045 13.6272 0.453438 14.0355 0.955391 14.0355H1.80844V15.2331C1.80844 15.8515 2.31148 16.3546 2.92992 16.3546H4.55289V17.6252C4.55289 18.2288 5.02742 18.7223 5.62281 18.7557V26.5311C5.62281 26.8552 5.88555 27.1179 6.20961 27.1179C6.53367 27.1179 6.79641 26.8552 6.79641 26.5311V18.759H8.67422V30.6963H6.79648V29.2891C6.79648 28.965 6.53375 28.7023 6.20969 28.7023C5.88562 28.7023 5.62289 28.965 5.62289 29.2891V30.6995C5.0275 30.7329 4.55297 31.2264 4.55297 31.83V33.1006H2.88008C2.1057 33.1006 1.47563 33.7306 1.47563 34.505V35.4265H1.40445C0.63 35.4265 0 36.0565 0 36.8309V38.0584C0 38.5368 0.389297 38.9262 0.867734 38.9262H39.1323C39.6107 38.9262 40 38.5369 40 38.0584V36.8309C40 36.0565 39.37 35.4265 38.5955 35.4265ZM2.98211 15.181V14.0356H37.0179V15.181H2.98211ZM34.2734 31.8699V33.1005H30.2558V31.8699H34.2734ZM31.3257 30.6962V18.7589H33.2035V30.6962H31.3257ZM30.2558 17.5853V16.3547H34.2734V17.5853H30.2558ZM26.2008 30.6995V18.7557C26.7962 18.7223 27.2707 18.2288 27.2707 17.6252V16.3546H29.0821V17.6252C29.0821 18.2288 29.5566 18.7223 30.152 18.7557V30.6995C29.5566 30.7329 29.0821 31.2264 29.0821 31.83V33.1006H27.2707V31.83C27.2707 31.2264 26.7962 30.7329 26.2008 30.6995ZM26.097 31.8699V33.1005H22.0794V31.8699H26.097ZM23.1493 30.6962V18.7589H25.0271V30.6962H23.1493ZM22.0794 17.5853V16.3547H26.097V17.5853H22.0794ZM18.0244 30.6995V18.7557C18.6198 18.7223 19.0943 18.2288 19.0943 17.6252V16.3546H20.9057V17.6252C20.9057 18.2288 21.3802 18.7223 21.9756 18.7557V30.6995C21.3802 30.7329 20.9057 31.2264 20.9057 31.83V33.1006H19.0943V31.83C19.0943 31.2264 18.6198 30.7329 18.0244 30.6995ZM17.4375 31.8699H17.9206V33.1005H13.903V31.8699H14.3861H17.4375ZM14.9729 30.6962V18.7589H16.8507V30.6962H14.9729ZM13.903 17.5853V16.3547H17.9206V17.5853H13.903ZM9.84797 30.6995V18.7557C10.4434 18.7223 10.9179 18.2288 10.9179 17.6252V16.3546H12.7293V17.6252C12.7293 18.2288 13.2038 18.7223 13.7992 18.7557V30.6995C13.2038 30.7329 12.7293 31.2264 12.7293 31.83V33.1006H10.9179V31.83C10.9179 31.2264 10.4434 30.7329 9.84797 30.6995ZM5.72656 17.5853V16.3547H9.74422V17.5853H5.72656ZM5.72656 31.8699H6.20969H9.26117H9.7443V33.1005H5.72656V31.8699ZM2.6493 34.505C2.6493 34.3778 2.75281 34.2742 2.88008 34.2742H37.1199C37.2472 34.2742 37.3507 34.3777 37.3507 34.505V35.4265H2.6493V34.505ZM38.8263 37.7525H1.17367V36.8309C1.17367 36.7037 1.27719 36.6002 1.40445 36.6002H38.5955C38.7228 36.6002 38.8263 36.7037 38.8263 36.8309V37.7525Z" fill="white"/>
</svg>
