<svg width="32" height="32" viewBox="0 0 32 32" fill="none" xmlns="http://www.w3.org/2000/svg">
<g clip-path="url(#clip0_555_24733)">
<path d="M27.3333 6.66667C25.4947 6.66667 24 5.172 24 3.33333C24 1.49467 25.4947 0 27.3333 0C29.172 0 30.6667 1.49467 30.6667 3.33333C30.6667 5.172 29.172 6.66667 27.3333 6.66667ZM27.3333 1.33333C26.2307 1.33333 25.3333 2.23067 25.3333 3.33333C25.3333 4.436 26.2307 5.33333 27.3333 5.33333C28.436 5.33333 29.3333 4.436 29.3333 3.33333C29.3333 2.23067 28.436 1.33333 27.3333 1.33333Z" fill="#57A6EE"/>
<path d="M31.3335 7.99981C31.1628 7.99981 30.9922 7.93448 30.8615 7.80514L28.8615 5.80515C28.6015 5.54515 28.6015 5.12248 28.8615 4.86248C29.1215 4.60248 29.5442 4.60248 29.8042 4.86248L31.8042 6.86248C32.0642 7.12248 32.0642 7.54514 31.8042 7.80514C31.6748 7.93448 31.5042 7.99981 31.3335 7.99981Z" fill="#57A6EE"/>
<path d="M19.3333 8H2C0.897333 8 0 7.10267 0 6V2C0 0.897333 0.897333 0 2 0H19.3333C20.436 0 21.3333 0.897333 21.3333 2V6C21.3333 7.10267 20.436 8 19.3333 8ZM2 1.33333C1.63333 1.33333 1.33333 1.63333 1.33333 2V6C1.33333 6.36667 1.63333 6.66667 2 6.66667H19.3333C19.7 6.66667 20 6.36667 20 6V2C20 1.63333 19.7 1.33333 19.3333 1.33333H2Z" fill="#57A6EE"/>
<path d="M4 32C1.79467 32 0 30.2053 0 28C0 25.7947 1.79467 24 4 24C6.20533 24 8 25.7947 8 28C8 30.2053 6.20533 32 4 32ZM4 25.3333C2.52933 25.3333 1.33333 26.5293 1.33333 28C1.33333 29.4707 2.52933 30.6667 4 30.6667C5.47067 30.6667 6.66667 29.4707 6.66667 28C6.66667 26.5293 5.47067 25.3333 4 25.3333Z" fill="#57A6EE"/>
<path d="M7.33333 17.3333H0.666667C0.298667 17.3333 0 17.0347 0 16.6667C0 16.2987 0.298667 16 0.666667 16H7.33333C7.70133 16 8 16.2987 8 16.6667C8 17.0347 7.70133 17.3333 7.33333 17.3333Z" fill="#57A6EE"/>
<path d="M7.33333 21.3333H0.666667C0.298667 21.3333 0 21.0347 0 20.6667C0 20.2987 0.298667 20 0.666667 20H7.33333C7.70133 20 8 20.2987 8 20.6667C8 21.0347 7.70133 21.3333 7.33333 21.3333Z" fill="#57A6EE"/>
<path d="M7.33333 13.3333H0.666667C0.298667 13.3333 0 13.0347 0 12.6667C0 12.2987 0.298667 12 0.666667 12H7.33333C7.70133 12 8 12.2987 8 12.6667C8 13.0347 7.70133 13.3333 7.33333 13.3333Z" fill="#57A6EE"/>
<path d="M29.9998 31.9998H12.6665C11.5638 31.9998 10.6665 31.1025 10.6665 29.9998V12.6665C10.6665 11.5638 11.5638 10.6665 12.6665 10.6665H29.9998C31.1025 10.6665 31.9998 11.5638 31.9998 12.6665V29.9998C31.9998 31.1025 31.1025 31.9998 29.9998 31.9998ZM12.6665 11.9998C12.2998 11.9998 11.9998 12.2998 11.9998 12.6665V29.9998C11.9998 30.3665 12.2998 30.6665 12.6665 30.6665H29.9998C30.3665 30.6665 30.6665 30.3665 30.6665 29.9998V12.6665C30.6665 12.2998 30.3665 11.9998 29.9998 11.9998H12.6665Z" fill="#57A6EE"/>
<path d="M21.3335 20C20.2308 20 19.3335 19.1027 19.3335 18C19.3335 16.8973 20.2308 16 21.3335 16C22.4362 16 23.3335 16.8973 23.3335 18C23.3335 19.1027 22.4362 20 21.3335 20ZM21.3335 17.3333C20.9668 17.3333 20.6668 17.6333 20.6668 18C20.6668 18.3667 20.9668 18.6667 21.3335 18.6667C21.7002 18.6667 22.0002 18.3667 22.0002 18C22.0002 17.6333 21.7002 17.3333 21.3335 17.3333Z" fill="#57A6EE"/>
<path d="M24.6668 25.3335C24.2988 25.3335 24.0002 25.0348 24.0002 24.6668V24.0002C24.0002 23.2642 23.4028 22.6668 22.6668 22.6668H20.0002C19.2642 22.6668 18.6668 23.2642 18.6668 24.0002V24.6668C18.6668 25.0348 18.3682 25.3335 18.0002 25.3335C17.6322 25.3335 17.3335 25.0348 17.3335 24.6668V24.0002C17.3335 22.5295 18.5295 21.3335 20.0002 21.3335H22.6668C24.1375 21.3335 25.3335 22.5295 25.3335 24.0002V24.6668C25.3335 25.0348 25.0348 25.3335 24.6668 25.3335Z" fill="#57A6EE"/>
</g>
<defs>
<clipPath id="clip0_555_24733">
<rect width="32" height="32" fill="white"/>
</clipPath>
</defs>
</svg>
