<svg width="40" height="41" viewBox="0 0 40 41" fill="none" xmlns="http://www.w3.org/2000/svg">
<g clip-path="url(#clip0_547_3355)">
<path d="M33.9993 13.1667V9.83333C33.9993 8.72876 33.1039 7.83333 31.9993 7.83333H31.3327V1.83333C31.3327 1.09695 30.7357 0.5 29.9993 0.5H9.99935C9.26297 0.5 8.66602 1.09695 8.66602 1.83333V7.83333H7.99935C6.89478 7.83333 5.99935 8.72876 5.99935 9.83333V13.1667C4.15931 13.1689 2.66822 14.66 2.66602 16.5V31.1667C2.66602 32.2712 3.56145 33.1667 4.66602 33.1667H7.38802L6.35202 38.088C6.22785 38.6778 6.37632 39.2922 6.75613 39.7602C7.13594 40.2283 7.70659 40.5001 8.30935 40.5H31.6893C32.2921 40.5001 32.8628 40.2283 33.2426 39.7602C33.6224 39.2922 33.7708 38.6778 33.6467 38.088L32.6107 33.1667H35.3327C36.4372 33.1667 37.3327 32.2712 37.3327 31.1667V16.5C37.3305 14.66 35.8394 13.1689 33.9993 13.1667ZM31.9993 9.16666C32.3675 9.16666 32.666 9.46514 32.666 9.83333V13.1667H31.3327V9.16666H31.9993ZM9.99935 1.83333H29.9993V13.1667H9.99935V1.83333ZM7.33268 9.83333C7.33268 9.46514 7.63116 9.16666 7.99935 9.16666H8.66602V13.1667H7.33268V9.83333ZM32.2073 38.92C32.0807 39.0761 31.8904 39.1667 31.6893 39.1666H8.30935C8.10839 39.1667 7.91811 39.0762 7.79146 38.9202C7.6648 38.7641 7.61528 38.5593 7.65668 38.3627L9.87402 27.8333H30.1247L32.342 38.3627C32.3834 38.5592 32.3339 38.764 32.2073 38.92ZM32.3327 31.8333L31.484 27.8033C31.7832 27.7371 31.9969 27.473 31.9993 27.1667C31.9993 26.7985 31.7009 26.5 31.3327 26.5H8.66602C8.29783 26.5 7.99935 26.7985 7.99935 27.1667C8.00203 27.4738 8.21712 27.7382 8.51735 27.8033L7.66602 31.8333H6.66602V24.5C6.66602 24.1318 6.96449 23.8333 7.33268 23.8333H32.666C33.0342 23.8333 33.3327 24.1318 33.3327 24.5V31.8333H32.3327ZM35.9993 31.1667C35.9993 31.5348 35.7009 31.8333 35.3327 31.8333H34.666V24.5C34.666 23.3954 33.7706 22.5 32.666 22.5H7.33268C6.22811 22.5 5.33268 23.3954 5.33268 24.5V31.8333H4.66602C4.29783 31.8333 3.99935 31.5348 3.99935 31.1667V16.5C3.99935 15.3954 4.89478 14.5 5.99935 14.5H33.9993C35.1039 14.5 35.9993 15.3954 35.9993 16.5V31.1667Z" fill="#57A6EE"/>
<path d="M7.33203 17.1666H5.9987C5.63051 17.1666 5.33203 17.4651 5.33203 17.8333C5.33203 18.2015 5.63051 18.5 5.9987 18.5H7.33203C7.70022 18.5 7.9987 18.2015 7.9987 17.8333C7.9987 17.4651 7.70022 17.1666 7.33203 17.1666Z" fill="#57A6EE"/>
<path d="M11.332 17.1666H9.9987C9.63051 17.1666 9.33203 17.4651 9.33203 17.8333C9.33203 18.2015 9.63051 18.5 9.9987 18.5H11.332C11.7002 18.5 11.9987 18.2015 11.9987 17.8333C11.9987 17.4651 11.7002 17.1666 11.332 17.1666Z" fill="#57A6EE"/>
<path d="M34 17.1666H14.6667C14.2985 17.1666 14 17.4651 14 17.8333C14 18.2015 14.2985 18.5 14.6667 18.5H34C34.3682 18.5 34.6667 18.2015 34.6667 17.8333C34.6667 17.4651 34.3682 17.1666 34 17.1666Z" fill="#57A6EE"/>
<path d="M14.6658 29.8334C12.8593 29.8319 11.2761 31.0413 10.8024 32.7846C10.3288 34.5278 11.0823 36.3722 12.6411 37.2851C14.2 38.1979 16.1772 37.9527 17.4658 36.6867C17.4758 36.6774 17.4884 36.6747 17.4984 36.6647C17.5084 36.6547 17.5111 36.642 17.5204 36.632C18.6467 35.482 18.9738 33.7689 18.3506 32.2848C17.7275 30.8007 16.2754 29.8347 14.6658 29.8334ZM17.3324 33.8334C17.3301 34.3079 17.1995 34.773 16.9544 35.1794L15.3324 33.5574V31.2614C16.5062 31.5644 17.3279 32.6211 17.3324 33.8334ZM11.9991 33.8334C12.0036 32.6211 12.8253 31.5644 13.9991 31.2614V33.8334C13.9991 34.0102 14.0694 34.1797 14.1944 34.3047L16.0118 36.122C15.6054 36.3671 15.1403 36.4977 14.6658 36.5C13.193 36.5 11.9991 35.3061 11.9991 33.8334Z" fill="#57A6EE"/>
<path d="M22 35.8334H20.6667C20.2985 35.8334 20 36.1319 20 36.5C20 36.8682 20.2985 37.1667 20.6667 37.1667H22C22.3682 37.1667 22.6667 36.8682 22.6667 36.5C22.6667 36.1319 22.3682 35.8334 22 35.8334Z" fill="#57A6EE"/>
<path d="M29.3333 35.8334H24.6667C24.2985 35.8334 24 36.1319 24 36.5C24 36.8682 24.2985 37.1667 24.6667 37.1667H29.3333C29.7015 37.1667 30 36.8682 30 36.5C30 36.1319 29.7015 35.8334 29.3333 35.8334Z" fill="#57A6EE"/>
<path d="M20.6667 34.5H26.6667C27.0349 34.5 27.3333 34.2015 27.3333 33.8333C27.3333 33.4651 27.0349 33.1666 26.6667 33.1666H20.6667C20.2985 33.1666 20 33.4651 20 33.8333C20 34.2015 20.2985 34.5 20.6667 34.5Z" fill="#57A6EE"/>
<path d="M20.6667 31.8333H22.6667C23.0349 31.8333 23.3333 31.5349 23.3333 31.1667C23.3333 30.7985 23.0349 30.5 22.6667 30.5H20.6667C20.2985 30.5 20 30.7985 20 31.1667C20 31.5349 20.2985 31.8333 20.6667 31.8333Z" fill="#57A6EE"/>
<path d="M25.3327 31.8333H27.9993C28.3675 31.8333 28.666 31.5349 28.666 31.1667C28.666 30.7985 28.3675 30.5 27.9993 30.5H25.3327C24.9645 30.5 24.666 30.7985 24.666 31.1667C24.666 31.5349 24.9645 31.8333 25.3327 31.8333Z" fill="#57A6EE"/>
</g>
<defs>
<clipPath id="clip0_547_3355">
<rect width="40" height="40" fill="white" transform="translate(0 0.5)"/>
</clipPath>
</defs>
</svg>
