<svg width="48" height="48" viewBox="0 0 48 48" fill="none" xmlns="http://www.w3.org/2000/svg">
<g clip-path="url(#clip0_64_1774)">
<path d="M31.0925 30.8376V40.3072H30.4953C21.697 40.3072 12.9002 40.3072 4.10198 40.3072C1.7783 40.3072 0.300803 38.8564 0.299321 36.5461C0.293393 27.7107 0.296357 18.8769 0.299321 10.0416C0.299321 9.88005 0.315622 9.71703 0.325996 9.52734H47.6576V33.148C47.4768 33.0546 47.3212 32.982 47.1716 32.899C43.5349 30.8762 39.8982 28.8489 36.2586 26.8319C35.9918 26.6837 35.8644 26.5267 35.8525 26.1947C35.7443 23.2427 33.8045 21.3621 30.8332 21.3458C27.647 21.3265 24.4623 21.3399 21.2762 21.3414C19.7942 21.3414 18.3108 21.2969 16.8318 21.3636C14.0739 21.4866 12.0481 23.6058 12.1415 26.1932C12.2378 28.8741 14.3199 30.8317 17.0941 30.8361C21.5207 30.8421 25.9472 30.8361 30.3738 30.8361C30.5946 30.8361 30.8139 30.8361 31.0925 30.8361V30.8376ZM23.9377 14.2281C28.5288 14.2281 33.1213 14.2281 37.7123 14.2281C37.9524 14.2281 38.1955 14.231 38.4326 14.1969C38.9705 14.1169 39.3573 13.6812 39.4047 13.1373C39.4507 12.6113 39.1261 12.097 38.6015 11.9474C38.3407 11.8733 38.0547 11.8599 37.7805 11.8584C28.5969 11.854 19.4149 11.8555 10.2313 11.8555C9.15242 11.8555 8.57299 12.2852 8.5878 13.0692C8.60262 13.8353 9.15539 14.2295 10.2179 14.2295C14.7912 14.2295 19.3645 14.2295 23.9362 14.2295L23.9377 14.2281ZM23.9748 18.9673C26.7149 18.9673 29.455 18.9717 32.1951 18.9643C33.0546 18.9614 33.5763 18.3716 33.4518 17.5802C33.354 16.9548 32.8679 16.6125 32.0499 16.6125C26.6808 16.611 21.3117 16.6125 15.9427 16.6125C15.8315 16.6125 15.7204 16.6125 15.6092 16.6214C14.9438 16.6851 14.5007 17.1993 14.5333 17.8632C14.5674 18.5464 15.0624 18.9643 15.8656 18.9658C18.5687 18.9703 21.2717 18.9658 23.9748 18.9658V18.9673ZM24.0015 35.5665C25.556 35.5665 27.1106 35.5783 28.6651 35.562C29.4431 35.5532 29.9159 35.0745 29.9085 34.372C29.9011 33.7081 29.4165 33.2072 28.6873 33.2028C25.559 33.1895 22.4321 33.1924 19.3037 33.2013C18.7791 33.2013 18.376 33.4503 18.1671 33.9452C17.8292 34.747 18.3938 35.5487 19.3363 35.562C20.8909 35.5828 22.4454 35.568 24 35.568L24.0015 35.5665Z" fill="#3F5770"/>
<path d="M22.7715 7.0807H0.358697C0.339432 6.99327 0.302383 6.90732 0.302383 6.82136C0.29942 5.69213 0.27719 4.56289 0.309793 3.43365C0.361661 1.63606 1.71912 0.207471 3.50337 0.0370485C3.77901 0.0103736 4.05762 0.00148194 4.33474 0.00148194C10.258 0 16.1814 0 22.1047 0H22.7715V7.0807Z" fill="#3F5770"/>
<path d="M25.2241 7.07773V-8.76561e-06C25.4346 -8.76561e-06 25.6154 -8.76561e-06 25.7961 -8.76561e-06C31.7936 -8.76561e-06 37.791 -0.00297264 43.7899 0.00147317C45.8394 0.00295511 47.3406 1.10107 47.6296 2.8957C47.757 3.6915 47.6888 4.51991 47.7007 5.33349C47.7096 5.90255 47.7022 6.47162 47.7022 7.07625H25.2241V7.07773ZM41.7863 2.39036C41.1194 2.39036 40.5829 2.92978 40.5963 3.58777C40.6096 4.22204 41.1387 4.73627 41.7789 4.73775C42.4428 4.73775 42.9837 4.19388 42.9674 3.53886C42.9526 2.90015 42.4265 2.39036 41.7848 2.39036H41.7863ZM33.4681 3.56405C33.4681 2.91052 32.9732 2.40221 32.3256 2.39036C31.6587 2.3785 31.1163 2.90311 31.1148 3.56405C31.1133 4.19684 31.632 4.72441 32.2693 4.73923C32.9435 4.75405 33.4681 4.23982 33.4681 3.56554V3.56405ZM37.0218 2.39036C36.349 2.40073 35.8511 2.92978 35.8704 3.61148C35.8896 4.2576 36.4068 4.74812 37.0589 4.73923C37.6976 4.72886 38.2163 4.2087 38.2207 3.57295C38.2252 2.91497 37.6843 2.38147 37.0204 2.39184L37.0218 2.39036Z" fill="#3F5770"/>
<path d="M46.524 34.9191C45.0583 35.7994 43.6831 36.6248 42.2782 37.468C42.3656 37.6207 42.4279 37.7511 42.5094 37.8696C43.9558 39.9962 45.4006 42.1258 46.8559 44.2464C47.6265 45.3683 47.3524 46.8887 46.2276 47.6164C45.088 48.3529 43.652 47.9913 42.8858 46.8324C41.3668 44.5324 39.8167 42.2532 38.237 39.9029C36.6646 40.8217 35.1145 41.7271 33.5051 42.6682V28.4712C37.8517 30.623 42.1345 32.7451 46.524 34.9191Z" fill="#3F5770"/>
<path d="M33.1748 25.1871C33.0459 25.1278 32.9199 25.0626 32.788 25.0107C31.9433 24.6802 31.1505 25.1989 31.1149 26.1118C31.1001 26.5001 31.1119 26.8883 31.1119 27.2781C31.1119 27.6456 31.1119 28.0116 31.1119 28.4133C30.9474 28.4296 30.8244 28.4533 30.7014 28.4533C26.1311 28.4547 21.5608 28.4651 16.9891 28.4503C15.2181 28.4444 14.077 26.8572 14.6639 25.2701C14.9944 24.3735 15.8168 23.7407 16.7771 23.7377C21.5875 23.7244 26.3994 23.7229 31.2097 23.7407C32.1611 23.7437 32.8265 24.2638 33.1748 25.1886V25.1871Z" fill="#3F5770"/>
</g>
<defs>
<clipPath id="clip0_64_1774">
<rect width="48" height="48" fill="white"/>
</clipPath>
</defs>
</svg>
