<svg width="40" height="40" viewBox="0 0 40 40" fill="none" xmlns="http://www.w3.org/2000/svg">
<g clip-path="url(#clip0_64_2959)">
<path d="M9.23696 2.00018H9.70194C10.3 2.231 10.5281 2.68068 10.4889 3.30198C10.4716 3.57139 10.4862 3.8428 10.4862 4.11354H12.4466C12.4466 3.83282 12.4612 3.57006 12.4439 3.30864C12.402 2.68933 12.6268 2.23766 13.2209 2.00018H13.6859C14.2845 2.23433 14.51 2.68667 14.4681 3.30797C14.4508 3.5694 14.4655 3.83282 14.4655 4.10555H25.5471C25.5471 3.81552 25.5644 3.55011 25.5438 3.28802C25.4946 2.67603 25.7281 2.24165 26.3001 2.00018H26.7651C27.3512 2.21969 27.596 2.64809 27.5574 3.26473C27.5394 3.54612 27.5541 3.82949 27.5541 4.11819H29.5237C29.5237 3.83082 29.541 3.55609 29.5204 3.28402C29.4732 2.6707 29.7093 2.23832 30.2834 2.00018H30.7484C31.3511 2.22768 31.5792 2.67869 31.5386 3.30132C31.5214 3.57139 31.536 3.84346 31.536 4.13216C32.1619 4.13216 32.736 4.12751 33.3101 4.13349C34.0505 4.14147 34.727 4.35368 35.3137 4.81067C36.215 5.51246 36.6062 6.44708 36.6055 7.58325C36.5989 15.9023 36.6022 24.2214 36.6015 32.5404C36.6015 32.6841 36.6195 32.8331 36.5882 32.9708C36.5004 33.356 36.4492 33.7644 36.2796 34.113C35.6636 35.3769 34.6146 35.9902 33.2156 35.9909C26.0474 35.9942 18.8785 35.9922 11.7102 35.9922C10.0505 35.9922 8.39082 36.0181 6.73246 35.9769C6.22823 35.9643 5.68609 35.8558 5.23508 35.6383C3.98117 35.0343 3.39645 33.9713 3.39579 32.5877C3.39446 24.2467 3.39512 15.905 3.39579 7.56396C3.39579 7.44223 3.39579 7.32049 3.40177 7.19876C3.46364 5.9056 4.3896 4.659 5.64285 4.33106C6.25152 4.17207 6.90608 4.18338 7.54135 4.13549C7.84402 4.11287 8.15001 4.1315 8.47064 4.1315C8.47064 3.81087 8.48528 3.54478 8.46798 3.2807C8.42674 2.66937 8.66156 2.23366 9.23895 1.99951L9.23696 2.00018ZM5.39739 12.5038V12.861C5.39739 19.4093 5.39739 25.9582 5.39739 32.5065C5.39739 33.511 5.877 33.9886 6.88413 33.9886C15.6229 33.9886 24.3617 33.9886 33.1005 33.9886C34.1316 33.9886 34.5979 33.521 34.5979 32.4886C34.5979 25.9509 34.5979 19.4133 34.5979 12.8756V12.5024H5.39739V12.5038ZM34.5919 10.4609C34.5919 9.38263 34.6079 8.33294 34.5853 7.28324C34.574 6.75573 34.1715 6.24685 33.6686 6.20295C32.9708 6.14241 32.2637 6.18765 31.5353 6.18765C31.5353 6.36393 31.5353 6.53954 31.5353 6.71516C31.5353 6.8921 31.5413 7.06905 31.5333 7.24599C31.5114 7.73226 31.2433 8.10477 30.8302 8.23116C30.2109 8.42141 29.5909 8.01696 29.5417 7.36373C29.5118 6.97126 29.5364 6.57546 29.5364 6.16503H27.5534C27.5534 6.50761 27.5561 6.82758 27.5534 7.14754C27.5467 7.81873 27.1456 8.2724 26.5556 8.27972C25.9669 8.28704 25.5584 7.83736 25.5485 7.16417C25.5431 6.83622 25.5478 6.50828 25.5478 6.16171H14.4635C14.4635 6.52025 14.4715 6.86017 14.4615 7.20009C14.4462 7.74556 14.1615 8.13138 13.7065 8.24313C13.0539 8.40345 12.4872 7.96042 12.4512 7.24466C12.4333 6.88678 12.4479 6.5269 12.4479 6.16437H10.4842C10.4842 6.52823 10.4895 6.87015 10.4829 7.2114C10.4736 7.67172 10.2807 8.02561 9.84163 8.20522C9.2343 8.454 8.56111 8.06087 8.49592 7.39699C8.45667 6.99454 8.4886 6.58544 8.4886 6.14108C7.87728 6.14108 7.32649 6.13443 6.77636 6.14241C5.89364 6.15572 5.40338 6.64997 5.39673 7.53003C5.3914 8.20455 5.3954 8.87974 5.3954 9.55425C5.3954 9.84961 5.3954 10.145 5.3954 10.4589H34.5913L34.5919 10.4609Z" fill="white"/>
<path d="M20.0008 31.2037C15.6324 31.2057 12.0396 27.6169 12.0303 23.2425C12.0203 18.8688 15.5945 15.2873 19.9828 15.272C24.3752 15.2574 27.9646 18.8415 27.9626 23.2405C27.9606 27.6182 24.3785 31.2017 20.0015 31.2037H20.0008ZM14.0379 23.1973C13.972 26.4202 16.6275 29.1116 19.9549 29.1954C23.1539 29.2759 25.8832 26.6058 25.9604 23.3197C26.0369 20.0781 23.3847 17.3448 20.0939 17.2743C16.8131 17.2038 14.1064 19.8513 14.0379 23.1966V23.1973Z" fill="white"/>
<path d="M19.2218 23.6065C20.1451 22.6812 21.0418 21.7666 21.9611 20.8745C22.1493 20.6916 22.4048 20.5326 22.6562 20.4688C23.0733 20.363 23.4798 20.5985 23.6813 20.9703C23.8769 21.3302 23.8303 21.7912 23.539 22.1112C23.2709 22.4052 22.9815 22.6792 22.7001 22.9606C21.8174 23.844 20.9347 24.7281 20.05 25.6101C19.4859 26.1722 18.951 26.1716 18.3849 25.6088C17.7969 25.0248 17.2109 24.438 16.6255 23.8513C16.1146 23.3391 16.0614 22.7338 16.4858 22.3027C16.9202 21.8617 17.5155 21.9063 18.0337 22.4211C18.4249 22.809 18.814 23.1994 19.2211 23.6059L19.2218 23.6065Z" fill="white"/>
</g>
<defs>
<clipPath id="clip0_64_2959">
<rect width="34" height="34" fill="white" transform="translate(3 2)"/>
</clipPath>
</defs>
</svg>
