<svg width="80" height="80" viewBox="0 0 80 80" fill="none" xmlns="http://www.w3.org/2000/svg">
<rect width="80" height="80" rx="8" fill="url(#paint0_linear_1_1836)"/>
<rect width="80" height="80" rx="8" fill="url(#paint1_linear_1_1836)"/>
<g clip-path="url(#clip0_1_1836)">
<path d="M16 33.621C16.3457 32.8143 16.9606 32.5399 17.8248 32.56C19.6196 32.6013 21.4156 32.5712 23.2116 32.5738C24.2975 32.575 24.8272 33.0974 24.8285 34.1746C24.831 39.0637 24.831 43.9515 24.8285 48.8406C24.8285 49.894 24.2962 50.4327 23.2504 50.4352C21.4394 50.4414 19.6271 50.4089 17.816 50.449C16.9506 50.4678 16.3357 50.1897 16 49.3742V33.6222V33.621Z" fill="#B4DBFF"/>
<path d="M33.7303 48V37.6L31.0903 39.64L29.3503 37.26L34.0103 33.84H37.0903V48H33.7303ZM51 40.88C51 41.88 50.9 42.8333 50.7 43.74C50.5 44.6467 50.18 45.4467 49.74 46.14C49.3 46.82 48.7267 47.3667 48.02 47.78C47.3267 48.18 46.48 48.38 45.48 48.38C44.48 48.38 43.6267 48.18 42.92 47.78C42.2133 47.3667 41.6333 46.82 41.18 46.14C40.74 45.4467 40.42 44.6467 40.22 43.74C40.02 42.8333 39.92 41.88 39.92 40.88C39.92 39.88 40.02 38.9333 40.22 38.04C40.42 37.1333 40.74 36.3467 41.18 35.68C41.6333 35 42.2133 34.46 42.92 34.06C43.6267 33.66 44.48 33.46 45.48 33.46C46.48 33.46 47.3267 33.66 48.02 34.06C48.7267 34.46 49.3 35 49.74 35.68C50.18 36.3467 50.5 37.1333 50.7 38.04C50.9 38.9333 51 39.88 51 40.88ZM47.56 40.88C47.56 40.44 47.5333 39.9533 47.48 39.42C47.4267 38.8867 47.3267 38.3933 47.18 37.94C47.0333 37.4733 46.82 37.0867 46.54 36.78C46.2733 36.46 45.92 36.3 45.48 36.3C45.04 36.3 44.68 36.46 44.4 36.78C44.12 37.0867 43.9 37.4733 43.74 37.94C43.5933 38.3933 43.4933 38.8867 43.44 39.42C43.3867 39.9533 43.36 40.44 43.36 40.88C43.36 41.3333 43.3867 41.8333 43.44 42.38C43.4933 42.9133 43.5933 43.4133 43.74 43.88C43.9 44.3333 44.12 44.72 44.4 45.04C44.68 45.3467 45.04 45.5 45.48 45.5C45.92 45.5 46.2733 45.3467 46.54 45.04C46.82 44.72 47.0333 44.3333 47.18 43.88C47.3267 43.4133 47.4267 42.9133 47.48 42.38C47.5333 41.8333 47.56 41.3333 47.56 40.88Z" fill="#B4DBFF"/>
<path d="M39.437 64C39.0651 63.8872 38.6818 63.8046 38.3249 63.658C36.4913 62.9102 35.3816 61.0275 35.6071 59.0796C35.8337 57.1142 37.3517 55.5359 39.3281 55.2114C41.228 54.8995 43.1681 55.9192 43.9834 57.7054C44.1537 58.0775 44.3391 58.1877 44.7411 58.1915C46.3756 58.204 47.9862 58.1326 49.5192 57.4737C51.6434 56.5605 53.2202 55.0736 54.2485 53.0043C54.2961 52.9078 54.3462 52.8126 54.3499 52.8076C55.2993 53.0018 56.201 53.1859 57.1366 53.3763C57.1103 53.449 57.0715 53.5943 57.0089 53.7283C54.8509 58.3017 51.2501 60.7306 46.1965 60.9836C45.6354 61.0112 45.0705 60.9761 44.5094 60.9999C44.3729 61.0062 44.1675 61.1001 44.1199 61.2091C43.4549 62.7047 42.3352 63.6204 40.7283 63.9411C40.702 63.9461 40.6807 63.9787 40.6569 63.9975H39.4383L39.437 64Z" fill="#B4DBFF"/>
<path d="M55.1705 41.5138C55.1705 39.0774 55.1692 36.6398 55.1705 34.2034C55.1705 33.0923 55.6915 32.5737 56.8049 32.5724C58.6635 32.5699 60.5222 32.5699 62.3808 32.5724C63.4592 32.5737 63.999 33.1098 63.999 34.1783C64.0002 39.0674 64.0002 43.9577 63.999 48.8468C63.999 49.884 63.4529 50.4301 62.4059 50.4326C60.5159 50.4376 58.626 50.4389 56.736 50.4326C55.7153 50.4289 55.173 49.8865 55.1717 48.8706C55.168 46.4179 55.1717 43.9652 55.1705 41.5125V41.5138Z" fill="#B4DBFF"/>
<path d="M25.2787 30.0409C24.397 29.9169 23.499 29.7891 22.6035 29.6638C23.881 23.3793 30.0944 16.3132 39.3838 16.01C49.213 15.6894 55.9799 22.9234 57.4077 29.6651C56.5147 29.7891 55.618 29.9144 54.7388 30.0359C52.2076 22.8745 47.2567 18.6343 39.4276 18.8861C32.1484 19.1204 27.572 23.323 25.28 30.0409H25.2787Z" fill="#B4DBFF"/>
</g>
<defs>
<linearGradient id="paint0_linear_1_1836" x1="80" y1="-9.43963e-05" x2="-3.12323" y2="3.3886" gradientUnits="userSpaceOnUse">
<stop stop-color="#2A6BA6"/>
<stop offset="1" stop-color="#5598D5"/>
</linearGradient>
<linearGradient id="paint1_linear_1_1836" x1="80" y1="-9.43963e-05" x2="-3.12323" y2="3.3886" gradientUnits="userSpaceOnUse">
<stop stop-color="#4CA3F2"/>
<stop offset="1" stop-color="#80C2FF"/>
</linearGradient>
<clipPath id="clip0_1_1836">
<rect width="48" height="48" fill="white" transform="translate(16 16)"/>
</clipPath>
</defs>
</svg>
