<svg width="40" height="41" viewBox="0 0 40 41" fill="none" xmlns="http://www.w3.org/2000/svg">
<path d="M15.3327 24.5C11.6507 24.5 8.66602 27.4847 8.66602 31.1667C8.66602 34.8486 11.6507 37.8333 15.3327 37.8333C19.0146 37.8333 21.9993 34.8486 21.9993 31.1667C21.9954 27.4863 19.013 24.5039 15.3327 24.5ZM15.3327 36.5C12.387 36.5 9.99935 34.1123 9.99935 31.1667C9.99935 28.221 12.387 25.8333 15.3327 25.8333C18.2783 25.8333 20.666 28.221 20.666 31.1667C20.6628 34.1107 18.2767 36.4967 15.3327 36.5Z" fill="#57A6EE"/>
<path d="M15.3327 29.1665C16.1468 29.1665 16.666 29.561 16.666 29.8332H17.9993C17.9993 28.8859 17.1602 28.1187 15.9993 27.8999V27.1665H14.666V27.8999C13.5052 28.117 12.666 28.8846 12.666 29.8332C12.666 30.9552 13.8372 31.8332 15.3327 31.8332C16.1468 31.8332 16.666 32.2277 16.666 32.4998C16.666 32.772 16.1468 33.1665 15.3327 33.1665C14.5186 33.1665 13.9993 32.772 13.9993 32.4998H12.666C12.666 33.4471 13.5052 34.2144 14.666 34.4331V35.1665H15.9993V34.4331C17.1602 34.216 17.9993 33.4484 17.9993 32.4998C17.9993 31.3778 16.8281 30.4998 15.3327 30.4998C14.5186 30.4998 13.9993 30.1053 13.9993 29.8332C13.9993 29.561 14.5186 29.1665 15.3327 29.1665Z" fill="#57A6EE"/>
<path d="M34 39.1667H6V23.1667H16.6667C17.7712 23.1667 18.6667 22.2712 18.6667 21.1667V4.5H26V12.5H34V21.8333H35.3333V11.5573L26.9427 3.16667H18.6667V2.5C18.6667 1.39551 17.7712 0.5 16.6667 0.5H2C0.895508 0.5 0 1.39551 0 2.5V21.1667C0 22.2712 0.895508 23.1667 2 23.1667H4.66667V40.5H35.3333V31.1667H34V39.1667ZM27.3333 5.44271L33.0573 11.1667H27.3333V5.44271ZM1.33333 21.1667V2.5C1.33333 2.13184 1.63184 1.83333 2 1.83333H16.6667C17.0348 1.83333 17.3333 2.13184 17.3333 2.5V21.1667C17.3333 21.5348 17.0348 21.8333 16.6667 21.8333H2C1.63184 21.8333 1.33333 21.5348 1.33333 21.1667Z" fill="#57A6EE"/>
<path d="M21.334 17.1665H22.6673V18.4998H21.334V17.1665Z" fill="#57A6EE"/>
<path d="M24 17.1665H32V18.4998H24V17.1665Z" fill="#57A6EE"/>
<path d="M21.334 14.5H22.6673V15.8333H21.334V14.5Z" fill="#57A6EE"/>
<path d="M24 14.5H32V15.8333H24V14.5Z" fill="#57A6EE"/>
<path d="M21.334 19.8335H22.6673V21.1668H21.334V19.8335Z" fill="#57A6EE"/>
<path d="M24 19.8335H32V21.1668H24V19.8335Z" fill="#57A6EE"/>
<path d="M21.334 22.5H22.6673V23.8333H21.334V22.5Z" fill="#57A6EE"/>
<path d="M24 22.5H32V23.8333H24V22.5Z" fill="#57A6EE"/>
<path d="M16.6667 2.5H2V7.16667H16.6667V2.5ZM15.3333 5.83333H3.33333V3.83333H15.3333V5.83333Z" fill="#57A6EE"/>
<path d="M5.33268 7.8335H3.99935C3.26302 7.8335 2.66602 8.4305 2.66602 9.16683V10.5002C2.66602 11.2365 3.26302 11.8335 3.99935 11.8335H5.33268C6.06901 11.8335 6.66602 11.2365 6.66602 10.5002V9.16683C6.66602 8.4305 6.06901 7.8335 5.33268 7.8335ZM3.99935 10.5002V9.16683H5.33268V10.5002H3.99935Z" fill="#57A6EE"/>
<path d="M10.0007 7.8335H8.66732C7.93099 7.8335 7.33398 8.4305 7.33398 9.16683V10.5002C7.33398 11.2365 7.93099 11.8335 8.66732 11.8335H10.0007C10.737 11.8335 11.334 11.2365 11.334 10.5002V9.16683C11.334 8.4305 10.737 7.8335 10.0007 7.8335ZM8.66732 10.5002V9.16683H10.0007V10.5002H8.66732Z" fill="#57A6EE"/>
<path d="M14.6667 7.8335H13.3333C12.597 7.8335 12 8.4305 12 9.16683V10.5002C12 11.2365 12.597 11.8335 13.3333 11.8335H14.6667C15.403 11.8335 16 11.2365 16 10.5002V9.16683C16 8.4305 15.403 7.8335 14.6667 7.8335ZM13.3333 10.5002V9.16683H14.6667V10.5002H13.3333Z" fill="#57A6EE"/>
<path d="M5.33268 12.5H3.99935C3.26302 12.5 2.66602 13.097 2.66602 13.8333V15.1667C2.66602 15.903 3.26302 16.5 3.99935 16.5H5.33268C6.06901 16.5 6.66602 15.903 6.66602 15.1667V13.8333C6.66602 13.097 6.06901 12.5 5.33268 12.5ZM3.99935 15.1667V13.8333H5.33268V15.1667H3.99935Z" fill="#57A6EE"/>
<path d="M10.0007 12.5H8.66732C7.93099 12.5 7.33398 13.097 7.33398 13.8333V15.1667C7.33398 15.903 7.93099 16.5 8.66732 16.5H10.0007C10.737 16.5 11.334 15.903 11.334 15.1667V13.8333C11.334 13.097 10.737 12.5 10.0007 12.5ZM8.66732 15.1667V13.8333H10.0007V15.1667H8.66732Z" fill="#57A6EE"/>
<path d="M14.6667 12.5H13.3333C12.597 12.5 12 13.097 12 13.8333V15.1667C12 15.903 12.597 16.5 13.3333 16.5H14.6667C15.403 16.5 16 15.903 16 15.1667V13.8333C16 13.097 15.403 12.5 14.6667 12.5ZM13.3333 15.1667V13.8333H14.6667V15.1667H13.3333Z" fill="#57A6EE"/>
<path d="M5.33268 17.1665H3.99935C3.26302 17.1665 2.66602 17.7635 2.66602 18.4998V19.8332C2.66602 20.5695 3.26302 21.1665 3.99935 21.1665H5.33268C6.06901 21.1665 6.66602 20.5695 6.66602 19.8332V18.4998C6.66602 17.7635 6.06901 17.1665 5.33268 17.1665ZM3.99935 19.8332V18.4998H5.33268V19.8332H3.99935Z" fill="#57A6EE"/>
<path d="M10.0007 17.1665H8.66732C7.93099 17.1665 7.33398 17.7635 7.33398 18.4998V19.8332C7.33398 20.5695 7.93099 21.1665 8.66732 21.1665H10.0007C10.737 21.1665 11.334 20.5695 11.334 19.8332V18.4998C11.334 17.7635 10.737 17.1665 10.0007 17.1665ZM8.66732 19.8332V18.4998H10.0007V19.8332H8.66732Z" fill="#57A6EE"/>
<path d="M14.6667 17.1665H13.3333C12.597 17.1665 12 17.7635 12 18.4998V19.8332C12 20.5695 12.597 21.1665 13.3333 21.1665H14.6667C15.403 21.1665 16 20.5695 16 19.8332V18.4998C16 17.7635 15.403 17.1665 14.6667 17.1665ZM13.3333 19.8332V18.4998H14.6667V19.8332H13.3333Z" fill="#57A6EE"/>
<path d="M39.394 21.7722C38.6027 21.0167 37.3576 21.0167 36.5662 21.7722L25.1375 33.2006C25.0822 33.2566 25.0369 33.3217 25.0041 33.3933L23.3947 36.8881C23.2785 37.1414 23.3322 37.4405 23.5295 37.6375C23.7264 37.8347 24.0256 37.8884 24.2788 37.7722L27.7736 36.1628C27.8452 36.13 27.9103 36.085 27.9663 36.0294L39.394 24.6007C40.1753 23.8197 40.1753 22.5531 39.394 21.7722ZM27.1069 35.0014L25.3602 35.8061L26.1649 34.0593L34.686 25.5375L35.6287 26.4802L27.1069 35.0014ZM36.5734 25.5346L35.6307 24.5922L36.0975 24.1254L37.0402 25.0681L36.5734 25.5346ZM38.4536 23.6547L37.9823 24.1261L37.0395 23.1833L37.5116 22.712C37.7749 22.46 38.1899 22.46 38.4536 22.712C38.7137 22.9724 38.7137 23.3943 38.4536 23.6547Z" fill="#57A6EE"/>
</svg>
