<svg xmlns="http://www.w3.org/2000/svg" width="40" height="40" viewBox="0 0 40 40" fill="none">
    <g clip-path="url(#clip0_964_11809)">
        <path d="M24.27 25.2102C23.81 24.7502 23.21 24.5002 22.56 24.5002H14.99L15.5 20.4802C15.5 20.4802 15.5 20.4202 15.5 20.4002C15.5 17.0802 13.14 16.2002 11.9 16.2002H11.88C11.74 16.2002 11.61 16.2402 11.5 16.3202C11.38 16.4002 11.3 16.5302 11.26 16.6702L8.89 24.8902C8.51 25.6402 7.93 26.2702 7.21 26.7002V26.3202C7.21 26.1502 7.14 25.9902 7.02 25.8702C6.9 25.7502 6.74 25.6802 6.57 25.6802H0.64C0.47 25.6802 0.31 25.7502 0.19 25.8702C0.07 25.9902 0 26.1502 0 26.3202V39.3502C0 39.5202 0.07 39.6902 0.19 39.8002C0.31 39.9202 0.47 39.9902 0.64 39.9902H6.57C6.74 39.9902 6.9 39.9202 7.02 39.8002C7.14 39.6802 7.21 39.5202 7.21 39.3502V39.0202L10.55 39.9902C10.55 39.9902 10.61 39.9902 10.64 39.9902C10.67 39.9902 10.69 39.9902 10.72 39.9902H20.79C21.25 39.9902 21.7 39.8502 22.08 39.6002C22.47 39.3502 22.77 39.0002 22.96 38.5802C23.15 38.1602 23.22 37.7002 23.16 37.2502C23.1 36.8202 22.92 36.4102 22.65 36.0602C22.93 35.8802 23.17 35.6502 23.35 35.3802C23.55 35.0902 23.68 34.7602 23.74 34.4202C23.8 34.0702 23.78 33.7202 23.69 33.3802C23.6 33.0602 23.45 32.7602 23.25 32.5102C23.53 32.3302 23.77 32.1002 23.95 31.8302C24.15 31.5402 24.28 31.2102 24.33 30.8702C24.39 30.5302 24.37 30.1702 24.28 29.8302C24.2 29.5102 24.04 29.2102 23.84 28.9602C24.18 28.7502 24.47 28.4602 24.67 28.1202C24.88 27.7602 25 27.3402 25 26.9202C25 26.2702 24.75 25.6702 24.29 25.2102H24.27ZM22.56 28.0602H19.6C19.43 28.0602 19.27 28.1302 19.15 28.2502C19.03 28.3702 18.96 28.5302 18.96 28.7002C18.96 28.8702 19.03 29.0402 19.15 29.1502C19.27 29.2702 19.43 29.3402 19.6 29.3402H21.97C22.27 29.3402 22.56 29.4602 22.77 29.6702C22.98 29.8802 23.1 30.1702 23.1 30.4702C23.1 30.7702 22.98 31.0602 22.77 31.2702C22.56 31.4802 22.27 31.6002 21.97 31.6002H19.01C18.84 31.6002 18.68 31.6702 18.56 31.7902C18.44 31.9102 18.37 32.0702 18.37 32.2402C18.37 32.4102 18.44 32.5702 18.56 32.6902C18.68 32.8102 18.84 32.8802 19.01 32.8802H21.38C21.68 32.8802 21.97 33.0002 22.18 33.2102C22.39 33.4202 22.51 33.7102 22.51 34.0102C22.51 34.3102 22.39 34.6002 22.18 34.8102C21.97 35.0202 21.68 35.1402 21.38 35.1402H18.42C18.25 35.1402 18.09 35.2102 17.97 35.3302C17.85 35.4502 17.78 35.6102 17.78 35.7802C17.78 35.9502 17.85 36.1102 17.97 36.2302C18.09 36.3502 18.25 36.4202 18.42 36.4202H20.79C21.09 36.4202 21.38 36.5402 21.59 36.7502C21.8 36.9602 21.92 37.2502 21.92 37.5502C21.92 37.8502 21.8 38.1402 21.59 38.3502C21.38 38.5602 21.09 38.6802 20.79 38.6802H10.8L7.21 37.6502V28.0302C9.03 27.5802 10.09 25.4102 10.1 25.3902C10.12 25.3502 10.13 25.3202 10.14 25.2802L12.36 17.5202C13.07 17.6902 14.2 18.2802 14.21 20.3302L13.62 25.0302C13.61 25.1202 13.62 25.2102 13.64 25.3002C13.67 25.3902 13.71 25.4702 13.77 25.5302C13.83 25.6002 13.9 25.6502 13.99 25.6902C14.07 25.7302 14.16 25.7502 14.25 25.7502H22.55C22.85 25.7502 23.14 25.8702 23.35 26.0802C23.56 26.2902 23.68 26.5802 23.68 26.8802C23.68 27.1802 23.56 27.4702 23.35 27.6802C23.14 27.8902 22.85 28.0102 22.55 28.0102L22.56 28.0602ZM5.92 26.9702V38.7202H1.29V26.9702H5.92V26.9702Z" fill="#57A6EE"/>
        <path d="M10.4691 8.21977C10.3491 8.08977 10.1691 8.01977 9.98906 8.01977H9.40906V7.43977C9.40906 7.25977 9.33906 7.08977 9.20906 6.95977C9.08906 6.82977 8.90906 6.75977 8.72906 6.75977C8.54906 6.75977 8.37906 6.82977 8.24906 6.95977C8.11906 7.08977 8.04906 7.25977 8.04906 7.43977V8.01977H7.46906C7.28906 8.01977 7.11906 8.08977 6.98906 8.21977C6.85906 8.34977 6.78906 8.51977 6.78906 8.69977C6.78906 8.87977 6.85906 9.04977 6.98906 9.17977C7.11906 9.30977 7.28906 9.37977 7.46906 9.37977H8.04906V9.95977C8.04906 10.1398 8.11906 10.3098 8.24906 10.4398C8.37906 10.5698 8.54906 10.6398 8.72906 10.6398C8.90906 10.6398 9.07906 10.5698 9.20906 10.4398C9.33906 10.3098 9.40906 10.1398 9.40906 9.95977V9.37977H9.98906C10.1691 9.37977 10.3391 9.30977 10.4691 9.17977C10.5991 9.04977 10.6691 8.87977 10.6691 8.69977C10.6691 8.51977 10.5991 8.34977 10.4691 8.21977Z" fill="#57A6EE"/>
        <path d="M33.5902 31.3501C33.4602 31.2201 33.2902 31.1501 33.1102 31.1501H32.5302V30.5701C32.5302 30.3901 32.4602 30.2201 32.3302 30.0901C32.2002 29.9601 32.0302 29.8901 31.8502 29.8901C31.6702 29.8901 31.5002 29.9601 31.3702 30.0901C31.2402 30.2201 31.1702 30.3901 31.1702 30.5701V31.1501H30.5902C30.4102 31.1501 30.2402 31.2201 30.1102 31.3501C29.9802 31.4801 29.9102 31.6501 29.9102 31.8301C29.9102 32.0101 29.9802 32.1801 30.1102 32.3101C30.2402 32.4401 30.4102 32.5101 30.5902 32.5101H31.1702V33.0901C31.1702 33.2701 31.2402 33.4401 31.3702 33.5701C31.5002 33.7001 31.6702 33.7701 31.8502 33.7701C32.0302 33.7701 32.2002 33.7001 32.3302 33.5701C32.4602 33.4501 32.5302 33.2701 32.5302 33.0901V32.5101H33.1102C33.2902 32.5101 33.4602 32.4401 33.5902 32.3101C33.7202 32.1901 33.7902 32.0101 33.7902 31.8301C33.7902 31.6501 33.7202 31.4801 33.5902 31.3501Z" fill="#57A6EE"/>
        <path d="M39.9398 12.48C39.6098 9.03 38.0098 5.85 35.4298 3.54C32.8798 1.25 29.6098 0 26.1998 0C26.1498 0 26.0998 0 26.0498 0C22.3698 0 18.8998 1.44 16.2998 4.04C13.6898 6.65 12.2598 10.11 12.2598 13.8C12.2598 13.98 12.3298 14.15 12.4598 14.28C12.5898 14.41 12.7598 14.48 12.9398 14.48C13.1198 14.48 13.2898 14.41 13.4198 14.28C13.5498 14.16 13.6198 13.98 13.6198 13.8C13.6198 11.44 14.2898 9.13 15.5598 7.13C16.8298 5.13 18.6298 3.55 20.7698 2.54C22.9098 1.53 25.2798 1.15 27.6298 1.45C29.9798 1.74 32.1798 2.69 33.9998 4.2C35.8198 5.7 37.1798 7.69 37.9098 9.94C38.6498 12.19 38.7298 14.58 38.1398 16.88C37.5598 19.17 36.3398 21.24 34.6198 22.86C32.8998 24.48 30.7698 25.58 28.4498 26.03C28.2698 26.05 28.0998 26.14 27.9898 26.27C27.8698 26.41 27.8198 26.59 27.8398 26.77C27.8598 26.95 27.9398 27.11 28.0798 27.23C28.1998 27.33 28.3498 27.38 28.5098 27.38C28.5298 27.38 28.5498 27.38 28.5698 27.38H28.6998C32.1098 26.76 35.1398 24.89 37.2298 22.12C39.3198 19.35 40.2898 15.93 39.9598 12.48H39.9398Z" fill="#57A6EE"/>
        <path d="M26.6296 11.76H25.4896C25.1996 11.76 24.9196 11.65 24.7196 11.44C24.5196 11.24 24.3996 10.95 24.3996 10.67C24.3996 10.39 24.5096 10.1 24.7196 9.9C24.9296 9.69 25.1996 9.58 25.4896 9.58H29.4996C29.9696 9.58 30.4196 9.4 30.7496 9.06C31.0796 8.73 31.2696 8.28 31.2696 7.81C31.2696 7.34 31.0896 6.89 30.7496 6.56C30.4196 6.23 29.9696 6.04 29.4996 6.04H27.8296V4.37C27.8296 4.21 27.7596 4.05 27.6496 3.93C27.5296 3.81 27.3796 3.75 27.2096 3.75H24.9196C24.7596 3.75 24.5896 3.82 24.4796 3.93C24.3596 4.05 24.2996 4.21 24.2996 4.37V6.2C23.2296 6.49 22.2996 7.16 21.6696 8.08C21.0396 9.01 20.7696 10.14 20.9096 11.26C21.0496 12.38 21.5896 13.4 22.4396 14.15C23.2796 14.9 24.3696 15.31 25.4896 15.31H26.6296C26.9196 15.31 27.1996 15.42 27.3996 15.63C27.6096 15.84 27.7196 16.11 27.7196 16.4C27.7196 16.69 27.5996 16.97 27.3996 17.17C27.1896 17.38 26.9196 17.49 26.6296 17.49H22.6196C22.1496 17.49 21.6996 17.67 21.3696 18.01C21.0396 18.34 20.8496 18.79 20.8496 19.26C20.8496 19.73 21.0396 20.18 21.3696 20.51C21.6996 20.84 22.1496 21.03 22.6196 21.03H24.2896V22.7C24.2896 22.87 24.3496 23.02 24.4696 23.14C24.5896 23.26 24.7396 23.32 24.9096 23.32H27.1996C27.3696 23.32 27.5196 23.26 27.6396 23.14C27.7596 23.02 27.8196 22.87 27.8196 22.7V20.87C28.7896 20.61 29.6696 20.03 30.2796 19.23C30.8996 18.42 31.2496 17.42 31.2496 16.4C31.2496 15.18 30.7596 13.99 29.8896 13.13C29.0096 12.26 27.8496 11.77 26.6196 11.77L26.6296 11.76ZM26.7296 19.94C26.6296 20.05 26.5796 20.2 26.5796 20.35V22.06H25.5396V20.39C25.5396 20.22 25.4796 20.07 25.3596 19.95C25.2396 19.83 25.0896 19.77 24.9196 19.77H22.6296C22.4896 19.77 22.3596 19.72 22.2596 19.62C22.1596 19.52 22.1096 19.39 22.1096 19.25C22.1096 19.11 22.1596 18.98 22.2596 18.88C22.3596 18.78 22.4896 18.73 22.6296 18.73H26.6396C27.2596 18.73 27.8496 18.49 28.2896 18.04C28.7296 17.6 28.9796 17 28.9796 16.39C28.9796 15.78 28.7396 15.18 28.2896 14.74C27.8396 14.3 27.2596 14.05 26.6396 14.05H25.4996C24.6496 14.05 23.8396 13.72 23.2096 13.13C22.5896 12.55 22.2096 11.76 22.1496 10.91C22.0896 10.06 22.3496 9.22 22.8796 8.56C23.4096 7.89 24.1696 7.45 25.0096 7.32C25.1596 7.3 25.2996 7.22 25.3896 7.11C25.4896 7 25.5396 6.85 25.5396 6.7V4.99H26.5796V6.66C26.5796 6.83 26.6396 6.98 26.7596 7.1C26.8796 7.22 27.0296 7.28 27.1996 7.28H29.4896C29.6296 7.28 29.7596 7.34 29.8596 7.43C29.9596 7.53 30.0096 7.66 30.0096 7.8C30.0096 7.94 29.9596 8.07 29.8596 8.17C29.7596 8.27 29.6296 8.32 29.4896 8.32H25.4796C24.8596 8.32 24.2696 8.56 23.8296 9.01C23.3896 9.45 23.1496 10.04 23.1496 10.66C23.1496 11.28 23.3996 11.88 23.8296 12.31C24.2696 12.75 24.8596 13 25.4796 13H26.6196C27.4696 13 28.2896 13.33 28.9096 13.92C29.5296 14.5 29.9096 15.29 29.9696 16.14C30.0296 16.99 29.7696 17.83 29.2396 18.49C28.7096 19.16 27.9496 19.6 27.1096 19.73C26.9596 19.75 26.8196 19.83 26.7296 19.94V19.94Z" fill="#57A6EE"/>
    </g>
    <defs>
        <clipPath id="clip0_964_11809">
            <rect width="40" height="40" fill="white"/>
        </clipPath>
    </defs>
</svg>
