<svg width="48" height="48" viewBox="0 0 48 48" fill="none" xmlns="http://www.w3.org/2000/svg">
<g clip-path="url(#clip0_64_1784)">
<path d="M0 41.2301V14.165H45.0152V23.3024C42.2509 21.0852 39.146 19.9339 35.5738 19.7856C36.4436 19.2789 36.7429 18.7131 36.5712 18.0516C36.3873 17.3441 35.8449 16.9772 34.9732 16.9753C34.1466 16.9734 33.319 16.9678 32.4923 16.9772C31.6197 16.9875 30.9985 17.5815 31.0013 18.3837C31.0041 19.1851 31.6262 19.7697 32.5008 19.7828C32.9877 19.7903 33.4747 19.7837 33.9608 19.7837C30.6992 20.1234 27.8129 21.3357 25.2916 23.4075C24.8065 22.8192 24.5419 22.6193 24.0493 22.6081C23.0509 22.5856 22.0516 22.5734 21.0541 22.61C20.311 22.6372 19.7536 23.2865 19.763 24.0156C19.7724 24.7268 20.3194 25.3236 21.0419 25.3912C21.2896 25.4146 21.5411 25.4015 21.7907 25.4024C22.2627 25.4034 22.7337 25.4024 23.2085 25.4024C22.6868 26.2535 22.1895 27.0417 21.7194 27.8458C21.5721 28.0963 21.4285 28.223 21.1114 28.2286C20.5127 28.238 20.0811 28.5627 19.8606 29.1238C19.6523 29.6549 19.7499 30.1635 20.1646 30.5407C20.4236 30.7762 20.4245 30.9704 20.3391 31.2707C19.5425 34.0744 19.5688 36.8781 20.4264 39.6612C20.6947 40.5329 21.0645 41.3736 21.4004 42.2613H20.8458C14.5262 42.2613 8.20659 42.25 1.88791 42.2744C1.01808 42.2782 0.374392 42.0427 0.000938325 41.231L0 41.2301ZM11.2946 19.7828C11.7628 19.7828 12.2311 19.7931 12.6993 19.7809C13.5344 19.7593 14.1434 19.155 14.1377 18.3697C14.1321 17.6031 13.5335 16.996 12.7265 16.98C11.791 16.9622 10.8536 16.9603 9.91809 16.981C9.11582 16.9988 8.52093 17.6218 8.52562 18.3884C8.53125 19.155 9.1299 19.7528 9.93686 19.779C10.3891 19.794 10.8414 19.7819 11.2946 19.7819V19.7828ZM22.5695 16.9763C22.1013 16.9763 21.6331 16.9631 21.1658 16.9791C20.3616 17.0063 19.7639 17.6124 19.7639 18.3791C19.7639 19.1457 20.3616 19.7612 21.1658 19.7772C22.1013 19.7959 23.0387 19.7959 23.9742 19.7772C24.7783 19.7612 25.3761 19.1457 25.3761 18.3791C25.3761 17.6124 24.7783 17.0063 23.9742 16.9791C23.5069 16.9631 23.0377 16.9763 22.5705 16.9763H22.5695ZM11.3012 25.4015C11.7694 25.4015 12.2376 25.4118 12.7059 25.3996C13.5381 25.3771 14.1471 24.7662 14.1377 23.9818C14.1284 23.2152 13.5288 22.6137 12.7199 22.5987C11.7994 22.5818 10.8789 22.5827 9.95844 22.5987C9.12615 22.6128 8.51717 23.2302 8.52656 24.0146C8.53594 24.7812 9.13553 25.3743 9.94436 25.3987C10.3966 25.4127 10.8489 25.4015 11.3021 25.4015H11.3012ZM11.2937 31.0192C11.7769 31.0192 12.262 31.0333 12.7443 31.0164C13.5466 30.9873 14.1424 30.3755 14.1377 29.608C14.133 28.8414 13.5344 28.2333 12.7274 28.2174C11.7919 28.1996 10.8545 28.1977 9.91903 28.2174C9.11676 28.2352 8.52093 28.8573 8.52562 29.6239C8.53031 30.3905 9.12896 30.9901 9.93592 31.0155C10.3882 31.0305 10.8405 31.0183 11.2937 31.0173V31.0192ZM11.335 36.6379C11.8032 36.6379 12.2714 36.6511 12.7387 36.6351C13.5419 36.6069 14.1396 35.9999 14.1377 35.2323C14.1359 34.4657 13.5381 33.852 12.7331 33.8361C11.7976 33.8173 10.8602 33.8173 9.92466 33.8361C9.12145 33.853 8.52374 34.4704 8.52562 35.237C8.52749 36.0036 9.12521 36.6079 9.93029 36.6342C10.3976 36.6501 10.8667 36.637 11.334 36.637L11.335 36.6379Z" fill="#3F5770"/>
<path d="M34.369 47.9727C33.1464 47.68 31.8684 47.527 30.7114 47.0691C26.8643 45.5462 24.2529 42.7622 23.1757 38.7677C21.8048 33.6858 23.1504 29.2719 27.0857 25.7766C29.9448 23.2375 33.3772 22.2654 37.1661 22.8584C41.718 23.5706 45.0396 26.0778 46.8525 30.2815C48.9018 35.0351 48.183 39.5466 44.8754 43.5401C42.7229 46.1392 39.8732 47.5495 36.5112 47.907C36.4202 47.9164 36.332 47.9502 36.2419 47.9727H34.369ZM36.7092 33.926C36.7092 32.4875 36.7195 31.1166 36.7054 29.7458C36.697 28.9125 36.0786 28.3026 35.2942 28.3101C34.5276 28.3167 33.9139 28.9153 33.9073 29.7223C33.8923 31.5933 33.8914 33.4653 33.9073 35.3372C33.9139 36.1207 34.4891 36.7166 35.2642 36.725C37.1671 36.7457 39.07 36.7428 40.972 36.725C41.5706 36.7194 42.0041 36.39 42.2256 35.8299C42.5934 34.9018 41.9188 33.9438 40.8753 33.9307C39.5063 33.9138 38.1364 33.9269 36.7082 33.9269L36.7092 33.926Z" fill="#3F5770"/>
<path d="M28.1826 2.93438C30.0602 2.93438 31.9368 2.93438 33.8144 2.93438L33.8013 2.9203C33.8032 4.29119 33.8078 5.66209 33.8069 7.03298C33.8069 7.66729 34.0546 8.15897 34.6458 8.42264C35.601 8.84864 36.5994 8.17023 36.6125 7.0799C36.6294 5.69399 36.6209 4.30715 36.6228 2.9203L36.6097 2.93438C38.9348 2.9325 41.26 2.92406 43.5852 2.93156C44.4025 2.93438 45.018 3.45421 45.0274 4.22645C45.0546 6.58071 45.0377 8.9359 45.0377 11.3549H0V3.95715C0.357502 3.15957 0.980549 2.89966 1.8363 2.91467C4.0667 2.95314 6.2971 2.93156 8.52843 2.93438L8.5153 2.9203C8.51717 4.29119 8.52186 5.66209 8.52093 7.03298C8.52093 7.66729 8.76864 8.15897 9.35979 8.42264C10.315 8.84864 11.3134 8.17023 11.3265 7.0799C11.3434 5.69399 11.335 4.30715 11.3368 2.9203L11.3237 2.93438C13.2013 2.93438 15.0779 2.93438 16.9555 2.93438L16.9424 2.9203C16.9443 4.29119 16.949 5.66209 16.948 7.03298C16.948 7.66729 17.1957 8.15897 17.7869 8.42264C18.7421 8.84864 19.7405 8.17023 19.7536 7.0799C19.7705 5.69399 19.7621 4.30715 19.7639 2.9203L19.7508 2.93438C21.6284 2.93438 23.505 2.93438 25.3826 2.93438L25.3695 2.9203C25.3714 4.29119 25.3761 5.66209 25.3751 7.03298C25.3751 7.66729 25.6228 8.15897 26.214 8.42264C27.1692 8.84864 28.1676 8.17023 28.1807 7.0799C28.1976 5.69399 28.1892 4.30715 28.191 2.9203L28.1779 2.93438H28.1826Z" fill="#3F5770"/>
<path d="M8.52852 2.934C8.52664 2.43575 8.51257 1.9375 8.52664 1.44019C8.55104 0.60414 9.15532 0.0139339 9.95008 0.0270704C10.727 0.040207 11.3031 0.621968 11.3266 1.44019C11.3407 1.9375 11.3266 2.43575 11.3247 2.934L11.3379 2.91993H8.51538L8.52852 2.934Z" fill="#3F5770"/>
<path d="M16.9565 2.934C16.9546 2.43575 16.9405 1.9375 16.9546 1.44019C16.979 0.60414 17.5833 0.0139339 18.3781 0.0270704C19.155 0.040207 19.7311 0.621968 19.7546 1.44019C19.7687 1.9375 19.7546 2.43575 19.7527 2.934L19.7658 2.91993H16.9434L16.9565 2.934Z" fill="#3F5770"/>
<path d="M25.3855 2.934C25.3836 2.43575 25.3695 1.9375 25.3836 1.44019C25.408 0.60414 26.0123 0.0139339 26.807 0.0270704C27.5839 0.040207 28.1601 0.621968 28.1835 1.44019C28.1976 1.9375 28.1835 2.43575 28.1817 2.934L28.1948 2.91993H25.3723L25.3855 2.934Z" fill="#3F5770"/>
<path d="M33.8134 2.934C33.8116 2.43575 33.7975 1.9375 33.8116 1.44019C33.8359 0.60414 34.4402 0.0139339 35.235 0.0270704C36.0119 0.040207 36.5881 0.621968 36.6115 1.44019C36.6256 1.9375 36.6115 2.43575 36.6096 2.934L36.6228 2.91993H33.8003L33.8134 2.934Z" fill="#3F5770"/>
</g>
<defs>
<clipPath id="clip0_64_1784">
<rect width="48" height="48" fill="white"/>
</clipPath>
</defs>
</svg>
