<svg width="50" height="50" viewBox="0 0 50 50" fill="none" xmlns="http://www.w3.org/2000/svg">
<g clip-path="url(#clip0_64_1797)">
<path d="M31.5046 0C32.2448 0.319582 32.9913 0.624005 33.7227 0.963798C34.6372 1.38949 35.5871 1.63075 36.5989 1.59033C38.5379 1.51201 39.983 2.28255 40.9165 4.01561C41.4457 4.99836 42.244 5.74236 43.2445 6.24132C44.9674 7.10153 45.7986 8.45944 45.7127 10.4009C45.6647 11.4986 45.9653 12.5319 46.5729 13.4502C47.6213 15.0355 47.6264 16.598 46.5805 18.1858C45.9451 19.1496 45.6698 20.2284 45.7114 21.3804C45.7759 23.1728 45.0104 24.484 43.4251 25.3013C42.292 25.8849 41.4205 26.7173 40.7927 27.8263C39.9299 29.3497 38.6061 30.1089 36.8566 30.052C35.5151 30.0091 34.2974 30.3325 33.1391 31.0108C31.6397 31.8887 30.1012 31.8798 28.6031 30.9969C27.4776 30.3337 26.2877 30.0078 24.9803 30.0533C23.1702 30.1165 21.8199 29.3396 20.9331 27.7594C20.3356 26.6933 19.4881 25.8937 18.4005 25.3354C16.8013 24.5156 15.9929 23.2246 16.0636 21.3981C16.1091 20.2132 15.7996 19.113 15.1491 18.1176C14.155 16.5968 14.1436 15.0759 15.1352 13.5513C15.7933 12.5395 16.1028 11.4279 16.0661 10.2253C16.0106 8.40891 16.8038 7.11164 18.4194 6.29942C19.5121 5.75121 20.3533 4.93646 20.9445 3.86782C21.8274 2.26865 23.2056 1.5398 25.0005 1.59159C26.2902 1.62822 27.465 1.31117 28.5841 0.673269C29.0957 0.381477 29.6831 0.221055 30.2364 0C30.6595 0 31.0827 0 31.5046 0ZM24.9588 26.2613C25.3908 26.2739 25.6144 25.9366 25.8355 25.583C29.6945 19.3972 33.556 13.2115 37.4162 7.02574C37.5109 6.87543 37.6057 6.72132 37.6701 6.55585C37.8343 6.13268 37.6954 5.78152 37.3404 5.53394C36.9754 5.28005 36.5964 5.31668 36.2705 5.61605C36.1303 5.74489 36.028 5.92047 35.9257 6.08468C32.6048 11.4014 29.2852 16.718 25.9656 22.036C25.3807 22.9732 24.7871 23.9042 24.2161 24.8491C23.8081 25.5248 24.1769 26.2575 24.9588 26.2613ZM31.9707 21.2288C32.0819 21.6393 32.1955 22.4415 32.5113 23.1551C33.7379 25.9303 36.9526 26.6516 39.0684 24.6672C41.2525 22.6196 41.1451 18.7669 38.8499 16.8444C37.3985 15.6279 35.3939 15.5799 33.9084 16.7521C32.5909 17.7917 32.044 19.2065 31.972 21.2301L31.9707 21.2288ZM21.134 10.747C21.1125 11.7487 21.3563 12.681 21.8578 13.5437C23.1992 15.8515 25.9896 16.4389 27.945 14.8321C30.3336 12.8692 30.3867 8.87376 28.0511 6.84637C26.4898 5.49099 24.2919 5.51499 22.7736 6.91837C21.6594 7.94786 21.1592 9.24766 21.134 10.747Z" fill="#3F5770"/>
<path d="M49.9519 37.9671C49.7953 38.0441 49.6298 38.106 49.4845 38.1995C44.0807 41.6934 38.6971 45.2189 33.268 48.6712C31.3959 49.8611 29.2334 50.2072 27.0721 49.8863C25.2203 49.611 23.4102 49.0413 21.595 48.5524C18.9777 47.8463 16.3668 47.1149 13.7659 46.3545C12.0783 45.8606 10.4955 46.016 8.98101 46.909C8.74353 47.0492 8.49216 47.1667 8.24585 47.2905C8.22058 47.3031 8.18521 47.2956 8.10942 47.2981C8.10942 47.0947 8.10437 46.8914 8.10942 46.6892C8.19658 43.5364 8.29132 40.3822 8.36585 37.2294C8.37343 36.8959 8.47574 36.7001 8.76248 36.5334C12.3688 34.4365 16.0712 34.2546 19.7899 36.1329C21.662 37.0791 23.5706 37.621 25.6725 37.6134C27.753 37.6058 29.8334 37.717 31.9138 37.7751C33.9576 37.8319 35.6705 39.133 36.2225 41.053C36.2655 41.202 36.2844 41.3587 36.2996 41.4357C34.7699 41.4357 33.2768 41.4559 31.785 41.4307C29.6881 41.394 27.5913 41.3208 25.4944 41.2703C24.83 41.2538 24.4321 41.5873 24.4296 42.133C24.427 42.6673 24.8262 43.0122 25.4856 43.0311C29.3054 43.1347 33.1252 43.2383 36.945 43.3355C37.9152 43.3608 38.1905 43.0703 38.1577 42.09C38.1476 41.7831 38.1147 41.4762 38.0882 41.1098C38.8183 40.7612 39.5737 40.3961 40.3329 40.0374C42.2263 39.1418 44.135 38.2765 46.0108 37.3481C47.4382 36.6407 48.7304 36.762 49.9519 37.77V37.9658V37.9671Z" fill="#3F5770"/>
<path d="M0.481363 33.4463C2.57443 33.5006 4.61445 33.5537 6.71257 33.6092C6.56731 38.8817 6.42457 44.1074 6.27931 49.3913C4.19634 49.3344 2.15632 49.2788 0.0480957 49.222L0.481363 33.4476V33.4463Z" fill="#3F5770"/>
<path d="M38.8878 20.6528C38.8436 21.8225 38.5872 22.6423 37.943 23.3055C36.9767 24.2996 35.5707 24.2705 34.6335 23.2461C33.4676 21.9703 33.4638 19.7433 34.6272 18.4675C35.6086 17.3901 37.0676 17.4002 38.0352 18.4903C38.5821 19.1054 38.9043 20.0313 38.8878 20.6516V20.6528Z" fill="#3F5770"/>
<path d="M28.0058 10.8618C28.0008 11.7334 27.7266 12.581 27.0584 13.2669C26.1477 14.2017 24.8239 14.2143 23.8854 13.3124C22.5691 12.0492 22.5641 9.55446 23.8752 8.2875C24.8403 7.35402 26.2045 7.38939 27.1165 8.3835C27.738 9.06056 28.002 9.8791 28.0058 10.8618Z" fill="#3F5770"/>
</g>
<defs>
<clipPath id="clip0_64_1797">
<rect width="50" height="50" fill="white"/>
</clipPath>
</defs>
</svg>
