<svg width="80" height="80" viewBox="0 0 80 80" fill="none" xmlns="http://www.w3.org/2000/svg">
<rect width="80" height="80" rx="8" fill="url(#paint0_linear_1149_2192)"/>
<g clip-path="url(#clip0_1149_2192)">
<path d="M64.0001 40.4802C63.708 41.1924 63.523 41.9769 63.1013 42.6026C62.2362 43.885 60.9194 44.413 59.3912 44.4177C57.2976 44.4234 55.2049 44.4196 53.1113 44.4196H52.5261C52.5862 44.615 52.6257 44.7719 52.6811 44.9232C54.3736 49.5353 56.0737 54.1445 57.7522 58.7622C57.8846 59.1258 57.9475 59.5561 57.8968 59.9357C57.8189 60.5163 57.3154 60.9165 56.7199 60.972C56.1442 61.0255 55.6802 60.8 55.3805 60.2964C55.2622 60.0973 55.1786 59.8746 55.0988 59.6557C53.2888 54.7373 51.4779 49.8199 49.6839 44.8959C49.5496 44.5277 49.3843 44.4065 48.9936 44.4027C48.6056 44.3989 48.4638 44.538 48.3389 44.8837C46.544 49.8566 44.7387 54.8257 42.9128 59.7882C42.7803 60.1489 42.5258 60.5097 42.2318 60.7559C41.8073 61.1119 41.147 61.0499 40.6999 60.7296C40.2256 60.3895 39.9767 59.806 40.1673 59.2461C40.6698 57.7701 41.208 56.3063 41.7396 54.8407C42.9363 51.5421 44.1376 48.2444 45.3361 44.9467C45.3934 44.7888 45.4385 44.6254 45.5042 44.4196H43.6097C43.6539 43.6116 43.6886 42.8365 43.745 42.0643C43.7553 41.9167 43.8398 41.7702 43.9084 41.633C44.8317 39.7747 45.7606 37.9191 46.6839 36.0608C47.4917 34.4354 47.4212 32.8711 46.3308 31.3914C44.6842 29.1553 41.0136 29.2549 39.5577 31.6169C38.889 32.702 38.3658 33.8783 37.7769 35.0132C37.698 35.1654 37.6219 35.3185 37.5289 35.5027C37.4256 35.4642 37.327 35.436 37.2359 35.3909C36.2985 34.9277 35.3658 34.4561 34.4247 34.0013C34.1899 33.8877 34.0762 33.7618 34.0772 33.4743C34.0894 30.1465 34.0631 26.8178 34.0922 23.4901C34.1157 20.9055 35.9998 19.0217 38.5837 19.0142C45.5512 18.9936 52.5177 18.9973 59.4851 19.0133C61.8229 19.0189 63.5192 20.5052 63.9372 22.824C63.9447 22.8672 63.9785 22.9048 64.0001 22.9452V40.4802ZM49.0509 27.8391C49.6285 27.8391 50.2061 27.8391 50.7838 27.8391C52.7196 27.8381 54.6564 27.8475 56.5922 27.8297C57.3614 27.8231 57.9259 27.2519 57.971 26.5078C58.0152 25.7891 57.4826 25.1586 56.7284 25.0497C56.5443 25.0234 56.3545 25.0271 56.1676 25.0271C51.6235 25.0262 47.0793 25.0262 42.5352 25.0271C42.1914 25.0271 41.8477 25.0158 41.5048 25.0337C40.8887 25.0666 40.4303 25.3588 40.2011 25.9394C39.8254 26.8883 40.5149 27.8306 41.6016 27.8353C44.084 27.8466 46.5674 27.8391 49.0499 27.8391H49.0509ZM53.4334 35.5882C52.436 35.5882 51.4375 35.5835 50.44 35.5919C50.2249 35.5938 49.9995 35.607 49.7976 35.6737C49.1391 35.8907 48.7775 36.5277 48.8884 37.2239C49.0001 37.9238 49.5571 38.3917 50.3564 38.3964C52.3834 38.4086 54.4103 38.4077 56.4363 38.3973C57.3436 38.3926 57.9776 37.7904 57.9748 36.9815C57.972 36.1641 57.3464 35.5957 56.4259 35.5901C55.4284 35.5835 54.43 35.5882 53.4325 35.5882H53.4334ZM53.4062 33.1163C54.4216 33.1163 55.4369 33.1276 56.4522 33.1126C57.2234 33.1013 57.7324 32.7321 57.9109 32.1007C58.1842 31.1321 57.5117 30.3175 56.3987 30.31C54.415 30.2968 52.4313 30.3062 50.4475 30.3072C50.3226 30.3072 50.1977 30.3166 50.0737 30.3335C49.3054 30.4378 48.7954 31.087 48.8743 31.8546C48.9532 32.6137 49.5026 33.0975 50.3592 33.1116C51.3746 33.1295 52.3899 33.1154 53.4053 33.1163H53.4062Z" fill="#FFE5BC"/>
<path d="M24.3304 34.0669C20.4973 33.5023 18.676 30.37 18.8207 27.6106C18.9785 24.622 21.3079 22.1793 24.367 21.8439C27.2233 21.5301 30.0561 23.4655 30.8207 26.2549C31.311 28.0418 31.0517 29.717 30.0561 31.2775C29.0699 32.823 27.6169 33.6733 25.8473 34.0632C27.6929 33.9655 29.331 34.5827 30.9259 35.3823C33.5201 36.6825 36.1181 37.9725 38.7621 39.2906C38.8476 39.1328 38.9303 38.99 39.0035 38.8425C39.8986 37.0574 40.7956 35.2723 41.6842 33.4844C41.9566 32.9367 42.3558 32.591 42.9916 32.5816C43.9647 32.5665 44.6429 33.4882 44.3348 34.4127C44.2709 34.6043 44.1798 34.7875 44.0896 34.9679C43.0499 37.0471 42.0017 39.1225 40.976 41.2091C40.8689 41.4261 40.8304 41.7193 40.8689 41.9598C41.0962 43.3794 40.6585 44.5575 39.5906 45.4848C38.502 46.4291 37.2067 46.7316 35.8795 46.1942C34.3795 45.5872 32.9519 44.8018 31.4932 44.0934C31.3147 44.007 31.1363 43.9215 30.8667 43.7918V44.458C30.8667 49.3491 30.8667 54.2411 30.8667 59.1322C30.8667 60.5208 30.3924 60.999 29.0164 60.999C26.2662 60.999 23.517 61 20.7668 60.999C19.5214 60.999 19.0095 60.4813 19.0085 59.2262C19.0085 56.8821 19.001 54.538 19.0161 52.1939C19.0179 51.851 18.9278 51.6819 18.6009 51.5315C17.162 50.8711 16.1729 49.738 16.0959 48.169C15.986 45.9142 15.908 43.619 16.2086 41.3933C16.7186 37.6108 19.8774 34.7124 23.6457 34.1834C23.8608 34.1534 24.074 34.1102 24.3295 34.066L24.3304 34.0669Z" fill="#FFE5BC"/>
</g>
<defs>
<linearGradient id="paint0_linear_1149_2192" x1="80" y1="-9.43963e-05" x2="-3.12323" y2="3.3886" gradientUnits="userSpaceOnUse">
<stop stop-color="#F9A321"/>
<stop offset="1" stop-color="#FFC162"/>
</linearGradient>
<clipPath id="clip0_1149_2192">
<rect width="48" height="42" fill="white" transform="translate(16 19)"/>
</clipPath>
</defs>
</svg>
