<svg width="32" height="33" viewBox="0 0 32 33" fill="none" xmlns="http://www.w3.org/2000/svg">
<path d="M6.59998 19.916C5.94 21.5671 4.90002 23.1983 3.51001 24.7698C3.07001 25.2671 3.01001 25.9832 3.37 26.5402C3.65003 26.9779 4.10999 27.2166 4.60999 27.2166C4.75 27.2166 4.89002 27.2067 5.03003 27.1569C7.96997 26.3015 14.84 23.2679 15.03 13.5405C15.1 9.79078 12.34 6.56821 8.75 6.2002C6.76001 6.00127 4.78003 6.64773 3.31 7.96065C1.84003 9.28352 1 11.1733 1 13.1427C1 16.4249 3.34003 19.2994 6.59998 19.916Z" fill="#57A6EE"/>
<path d="M24.7108 6.2002C22.7307 6.00127 20.7507 6.64773 19.2808 7.96064C17.8107 9.28351 16.9707 11.1733 16.9707 13.1427C16.9707 16.4249 19.3107 19.2994 22.5707 19.916C21.9107 21.5671 20.8707 23.1983 19.4807 24.7698C19.0407 25.2671 18.9807 25.9832 19.3408 26.5402C19.6207 26.9778 20.0808 27.2165 20.5808 27.2165C20.7207 27.2165 20.8607 27.2066 21.0007 27.1569C23.9407 26.3015 30.8107 23.2679 31.0007 13.5405V13.4013C31.0007 9.71119 28.2708 6.56821 24.7108 6.2002Z" fill="#57A6EE"/>
</svg>
