<svg width="72" height="72" viewBox="0 0 72 72" fill="none" xmlns="http://www.w3.org/2000/svg">
<rect width="72" height="72" rx="16" fill="url(#paint0_linear_1_151)"/>
<path d="M53.5 31H44.3333V24.3333H50.1667C50.3877 24.3333 50.5996 24.2455 50.7559 24.0893C50.9122 23.933 51 23.721 51 23.5V20.1667C51 19.0616 50.561 18.0018 49.7796 17.2204C48.9982 16.439 47.9384 16 46.8333 16H20.1667C19.0616 16 18.0018 16.439 17.2204 17.2204C16.439 18.0018 16 19.0616 16 20.1667V51.8333C16 52.0543 16.0878 52.2663 16.2441 52.4226C16.4004 52.5789 16.6123 52.6667 16.8333 52.6667H36V53.5C36 54.163 36.2634 54.7989 36.7322 55.2678C37.2011 55.7366 37.837 56 38.5 56H53.5C54.163 56 54.7989 55.7366 55.2678 55.2678C55.7366 54.7989 56 54.163 56 53.5V33.5C56 32.837 55.7366 32.2011 55.2678 31.7322C54.7989 31.2634 54.163 31 53.5 31ZM49.3333 20.1667V22.6667H44.3333V20.1667C44.3333 19.5036 44.5967 18.8677 45.0656 18.3989C45.5344 17.9301 46.1703 17.6667 46.8333 17.6667C47.4964 17.6667 48.1323 17.9301 48.6011 18.3989C49.0699 18.8677 49.3333 19.5036 49.3333 20.1667ZM17.6667 51V20.1667C17.6667 19.5036 17.9301 18.8677 18.3989 18.3989C18.8677 17.9301 19.5036 17.6667 20.1667 17.6667H43.5C42.3917 19.1333 42.6667 19.125 42.6667 31H38.5C37.837 31 37.2011 31.2634 36.7322 31.7322C36.2634 32.2011 36 32.837 36 33.5V51H17.6667ZM54.3333 53.5C54.3333 53.721 54.2455 53.933 54.0893 54.0893C53.933 54.2455 53.721 54.3333 53.5 54.3333H38.5C38.279 54.3333 38.067 54.2455 37.9107 54.0893C37.7545 53.933 37.6667 53.721 37.6667 53.5V33.5C37.6667 33.279 37.7545 33.067 37.9107 32.9107C38.067 32.7545 38.279 32.6667 38.5 32.6667H53.5C53.721 32.6667 53.933 32.7545 54.0893 32.9107C54.2455 33.067 54.3333 33.279 54.3333 33.5V53.5Z" fill="white"/>
<path d="M51.834 34.3335H40.1673C39.9463 34.3335 39.7343 34.4213 39.5781 34.5776C39.4218 34.7339 39.334 34.9458 39.334 35.1668V41.8335C39.334 42.0545 39.4218 42.2665 39.5781 42.4228C39.7343 42.579 39.9463 42.6668 40.1673 42.6668H51.834C52.055 42.6668 52.267 42.579 52.4232 42.4228C52.5795 42.2665 52.6673 42.0545 52.6673 41.8335V35.1668C52.6673 34.9458 52.5795 34.7339 52.4232 34.5776C52.267 34.4213 52.055 34.3335 51.834 34.3335ZM51.0007 41.0002H41.0007V36.0002H51.0007V41.0002Z" fill="white"/>
<path d="M46.834 44.3335H45.1673C44.9463 44.3335 44.7343 44.4213 44.5781 44.5776C44.4218 44.7339 44.334 44.9458 44.334 45.1668C44.334 45.3878 44.4218 45.5998 44.5781 45.7561C44.7343 45.9124 44.9463 46.0002 45.1673 46.0002H46.834C47.055 46.0002 47.267 45.9124 47.4232 45.7561C47.5795 45.5998 47.6673 45.3878 47.6673 45.1668C47.6673 44.9458 47.5795 44.7339 47.4232 44.5776C47.267 44.4213 47.055 44.3335 46.834 44.3335Z" fill="white"/>
<path d="M41.834 44.3335H40.1673C39.9463 44.3335 39.7343 44.4213 39.5781 44.5776C39.4218 44.7339 39.334 44.9458 39.334 45.1668C39.334 45.3878 39.4218 45.5998 39.5781 45.7561C39.7343 45.9124 39.9463 46.0002 40.1673 46.0002H41.834C42.055 46.0002 42.267 45.9124 42.4232 45.7561C42.5795 45.5998 42.6673 45.3878 42.6673 45.1668C42.6673 44.9458 42.5795 44.7339 42.4232 44.5776C42.267 44.4213 42.055 44.3335 41.834 44.3335Z" fill="white"/>
<path d="M51.834 44.3335H50.1673C49.9463 44.3335 49.7343 44.4213 49.5781 44.5776C49.4218 44.7339 49.334 44.9458 49.334 45.1668C49.334 45.3878 49.4218 45.5998 49.5781 45.7561C49.7343 45.9124 49.9463 46.0002 50.1673 46.0002H51.834C52.055 46.0002 52.267 45.9124 52.4232 45.7561C52.5795 45.5998 52.6673 45.3878 52.6673 45.1668C52.6673 44.9458 52.5795 44.7339 52.4232 44.5776C52.267 44.4213 52.055 44.3335 51.834 44.3335Z" fill="white"/>
<path d="M46.834 47.6665H45.1673C44.9463 47.6665 44.7343 47.7543 44.5781 47.9106C44.4218 48.0669 44.334 48.2788 44.334 48.4998C44.334 48.7208 44.4218 48.9328 44.5781 49.0891C44.7343 49.2454 44.9463 49.3332 45.1673 49.3332H46.834C47.055 49.3332 47.267 49.2454 47.4232 49.0891C47.5795 48.9328 47.6673 48.7208 47.6673 48.4998C47.6673 48.2788 47.5795 48.0669 47.4232 47.9106C47.267 47.7543 47.055 47.6665 46.834 47.6665Z" fill="white"/>
<path d="M41.834 47.6665H40.1673C39.9463 47.6665 39.7343 47.7543 39.5781 47.9106C39.4218 48.0669 39.334 48.2788 39.334 48.4998C39.334 48.7208 39.4218 48.9328 39.5781 49.0891C39.7343 49.2454 39.9463 49.3332 40.1673 49.3332H41.834C42.055 49.3332 42.267 49.2454 42.4232 49.0891C42.5795 48.9328 42.6673 48.7208 42.6673 48.4998C42.6673 48.2788 42.5795 48.0669 42.4232 47.9106C42.267 47.7543 42.055 47.6665 41.834 47.6665Z" fill="white"/>
<path d="M51.834 47.6665H50.1673C49.9463 47.6665 49.7343 47.7543 49.5781 47.9106C49.4218 48.0669 49.334 48.2788 49.334 48.4998C49.334 48.7208 49.4218 48.9328 49.5781 49.0891C49.7343 49.2454 49.9463 49.3332 50.1673 49.3332H51.834C52.055 49.3332 52.267 49.2454 52.4232 49.0891C52.5795 48.9328 52.6673 48.7208 52.6673 48.4998C52.6673 48.2788 52.5795 48.0669 52.4232 47.9106C52.267 47.7543 52.055 47.6665 51.834 47.6665Z" fill="white"/>
<path d="M46.834 51H45.1673C44.9463 51 44.7343 51.0878 44.5781 51.2441C44.4218 51.4004 44.334 51.6123 44.334 51.8333C44.334 52.0543 44.4218 52.2663 44.5781 52.4226C44.7343 52.5789 44.9463 52.6667 45.1673 52.6667H46.834C47.055 52.6667 47.267 52.5789 47.4232 52.4226C47.5795 52.2663 47.6673 52.0543 47.6673 51.8333C47.6673 51.6123 47.5795 51.4004 47.4232 51.2441C47.267 51.0878 47.055 51 46.834 51Z" fill="white"/>
<path d="M41.834 51H40.1673C39.9463 51 39.7343 51.0878 39.5781 51.2441C39.4218 51.4004 39.334 51.6123 39.334 51.8333C39.334 52.0543 39.4218 52.2663 39.5781 52.4226C39.7343 52.5789 39.9463 52.6667 40.1673 52.6667H41.834C42.055 52.6667 42.267 52.5789 42.4232 52.4226C42.5795 52.2663 42.6673 52.0543 42.6673 51.8333C42.6673 51.6123 42.5795 51.4004 42.4232 51.2441C42.267 51.0878 42.055 51 41.834 51Z" fill="white"/>
<path d="M51.834 51H50.1673C49.9463 51 49.7343 51.0878 49.5781 51.2441C49.4218 51.4004 49.334 51.6123 49.334 51.8333C49.334 52.0543 49.4218 52.2663 49.5781 52.4226C49.7343 52.5789 49.9463 52.6667 50.1673 52.6667H51.834C52.055 52.6667 52.267 52.5789 52.4232 52.4226C52.5795 52.2663 52.6673 52.0543 52.6673 51.8333C52.6673 51.6123 52.5795 51.4004 52.4232 51.2441C52.267 51.0878 52.055 51 51.834 51Z" fill="white"/>
<path d="M33.5 31.8335H21.8333C21.6123 31.8335 21.4004 31.9213 21.2441 32.0776C21.0878 32.2339 21 32.4458 21 32.6668C21 32.8878 21.0878 33.0998 21.2441 33.2561C21.4004 33.4124 21.6123 33.5002 21.8333 33.5002H33.5C33.721 33.5002 33.933 33.4124 34.0893 33.2561C34.2455 33.0998 34.3333 32.8878 34.3333 32.6668C34.3333 32.4458 34.2455 32.2339 34.0893 32.0776C33.933 31.9213 33.721 31.8335 33.5 31.8335Z" fill="white"/>
<path d="M33.5 40.1665H21.8333C21.6123 40.1665 21.4004 40.2543 21.2441 40.4106C21.0878 40.5669 21 40.7788 21 40.9998C21 41.2208 21.0878 41.4328 21.2441 41.5891C21.4004 41.7454 21.6123 41.8332 21.8333 41.8332H33.5C33.721 41.8332 33.933 41.7454 34.0893 41.5891C34.2455 41.4328 34.3333 41.2208 34.3333 40.9998C34.3333 40.7788 34.2455 40.5669 34.0893 40.4106C33.933 40.2543 33.721 40.1665 33.5 40.1665Z" fill="white"/>
<path d="M21.8333 25.1667H38.5C38.721 25.1667 38.933 25.0789 39.0893 24.9226C39.2455 24.7663 39.3333 24.5543 39.3333 24.3333C39.3333 24.1123 39.2455 23.9004 39.0893 23.7441C38.933 23.5878 38.721 23.5 38.5 23.5H21.8333C21.6123 23.5 21.4004 23.5878 21.2441 23.7441C21.0878 23.9004 21 24.1123 21 24.3333C21 24.5543 21.0878 24.7663 21.2441 24.9226C21.4004 25.0789 21.6123 25.1667 21.8333 25.1667Z" fill="white"/>
<path d="M21.8333 29.3332H38.5C38.721 29.3332 38.933 29.2454 39.0893 29.0891C39.2455 28.9328 39.3333 28.7209 39.3333 28.4998C39.3333 28.2788 39.2455 28.0669 39.0893 27.9106C38.933 27.7543 38.721 27.6665 38.5 27.6665H21.8333C21.6123 27.6665 21.4004 27.7543 21.2441 27.9106C21.0878 28.0669 21 28.2788 21 28.4998C21 28.7209 21.0878 28.9328 21.2441 29.0891C21.4004 29.2454 21.6123 29.3332 21.8333 29.3332Z" fill="white"/>
<path d="M33.5 36H21.8333C21.6123 36 21.4004 36.0878 21.2441 36.2441C21.0878 36.4004 21 36.6123 21 36.8333C21 37.0543 21.0878 37.2663 21.2441 37.4226C21.4004 37.5789 21.6123 37.6667 21.8333 37.6667H33.5C33.721 37.6667 33.933 37.5789 34.0893 37.4226C34.2455 37.2663 34.3333 37.0543 34.3333 36.8333C34.3333 36.6123 34.2455 36.4004 34.0893 36.2441C33.933 36.0878 33.721 36 33.5 36Z" fill="white"/>
<path d="M33.5 44.3335H21.8333C21.6123 44.3335 21.4004 44.4213 21.2441 44.5776C21.0878 44.7339 21 44.9458 21 45.1668C21 45.3878 21.0878 45.5998 21.2441 45.7561C21.4004 45.9124 21.6123 46.0002 21.8333 46.0002H33.5C33.721 46.0002 33.933 45.9124 34.0893 45.7561C34.2455 45.5998 34.3333 45.3878 34.3333 45.1668C34.3333 44.9458 34.2455 44.7339 34.0893 44.5776C33.933 44.4213 33.721 44.3335 33.5 44.3335Z" fill="white"/>
<defs>
<linearGradient id="paint0_linear_1_151" x1="72" y1="-8.49567e-05" x2="-2.8109" y2="3.04974" gradientUnits="userSpaceOnUse">
<stop stop-color="#4CA3F2"/>
<stop offset="1" stop-color="#80C2FF"/>
</linearGradient>
</defs>
</svg>
