<svg width="72" height="72" viewBox="0 0 72 72" fill="none" xmlns="http://www.w3.org/2000/svg">
<rect width="72" height="72" rx="16" fill="url(#paint0_linear_555_14935)"/>
<g clip-path="url(#clip0_555_14935)">
<path d="M50.1667 24.3333C47.8683 24.3333 46 22.465 46 20.1667C46 17.8683 47.8683 16 50.1667 16C52.465 16 54.3333 17.8683 54.3333 20.1667C54.3333 22.465 52.465 24.3333 50.1667 24.3333ZM50.1667 17.6667C48.7883 17.6667 47.6667 18.7883 47.6667 20.1667C47.6667 21.545 48.7883 22.6667 50.1667 22.6667C51.545 22.6667 52.6667 21.545 52.6667 20.1667C52.6667 18.7883 51.545 17.6667 50.1667 17.6667Z" fill="white"/>
<path d="M55.1658 25.9999C54.9524 25.9999 54.7391 25.9182 54.5758 25.7566L52.0758 23.2566C51.7508 22.9316 51.7508 22.4032 52.0758 22.0782C52.4008 21.7532 52.9291 21.7532 53.2541 22.0782L55.7541 24.5782C56.0791 24.9032 56.0791 25.4316 55.7541 25.7566C55.5924 25.9182 55.3791 25.9999 55.1658 25.9999Z" fill="white"/>
<path d="M40.1667 26H18.5C17.1217 26 16 24.8783 16 23.5V18.5C16 17.1217 17.1217 16 18.5 16H40.1667C41.545 16 42.6667 17.1217 42.6667 18.5V23.5C42.6667 24.8783 41.545 26 40.1667 26ZM18.5 17.6667C18.0417 17.6667 17.6667 18.0417 17.6667 18.5V23.5C17.6667 23.9583 18.0417 24.3333 18.5 24.3333H40.1667C40.625 24.3333 41 23.9583 41 23.5V18.5C41 18.0417 40.625 17.6667 40.1667 17.6667H18.5Z" fill="white"/>
<path d="M21 56C18.2433 56 16 53.7567 16 51C16 48.2433 18.2433 46 21 46C23.7567 46 26 48.2433 26 51C26 53.7567 23.7567 56 21 56ZM21 47.6667C19.1617 47.6667 17.6667 49.1617 17.6667 51C17.6667 52.8383 19.1617 54.3333 21 54.3333C22.8383 54.3333 24.3333 52.8383 24.3333 51C24.3333 49.1617 22.8383 47.6667 21 47.6667Z" fill="white"/>
<path d="M25.1667 37.6667H16.8333C16.3733 37.6667 16 37.2933 16 36.8333C16 36.3733 16.3733 36 16.8333 36H25.1667C25.6267 36 26 36.3733 26 36.8333C26 37.2933 25.6267 37.6667 25.1667 37.6667Z" fill="white"/>
<path d="M25.1667 42.6667H16.8333C16.3733 42.6667 16 42.2933 16 41.8333C16 41.3733 16.3733 41 16.8333 41H25.1667C25.6267 41 26 41.3733 26 41.8333C26 42.2933 25.6267 42.6667 25.1667 42.6667Z" fill="white"/>
<path d="M25.1667 32.6667H16.8333C16.3733 32.6667 16 32.2933 16 31.8333C16 31.3733 16.3733 31 16.8333 31H25.1667C25.6267 31 26 31.3733 26 31.8333C26 32.2933 25.6267 32.6667 25.1667 32.6667Z" fill="white"/>
<path d="M53.5007 55.9997H31.834C30.4557 55.9997 29.334 54.878 29.334 53.4997V31.833C29.334 30.4547 30.4557 29.333 31.834 29.333H53.5007C54.879 29.333 56.0007 30.4547 56.0007 31.833V53.4997C56.0007 54.878 54.879 55.9997 53.5007 55.9997ZM31.834 30.9997C31.3757 30.9997 31.0007 31.3747 31.0007 31.833V53.4997C31.0007 53.958 31.3757 54.333 31.834 54.333H53.5007C53.959 54.333 54.334 53.958 54.334 53.4997V31.833C54.334 31.3747 53.959 30.9997 53.5007 30.9997H31.834Z" fill="white"/>
<path d="M42.666 41C41.2877 41 40.166 39.8783 40.166 38.5C40.166 37.1217 41.2877 36 42.666 36C44.0443 36 45.166 37.1217 45.166 38.5C45.166 39.8783 44.0443 41 42.666 41ZM42.666 37.6667C42.2077 37.6667 41.8327 38.0417 41.8327 38.5C41.8327 38.9583 42.2077 39.3333 42.666 39.3333C43.1243 39.3333 43.4993 38.9583 43.4993 38.5C43.4993 38.0417 43.1243 37.6667 42.666 37.6667Z" fill="white"/>
<path d="M46.8327 47.667C46.3727 47.667 45.9993 47.2937 45.9993 46.8337V46.0003C45.9993 45.0803 45.2527 44.3337 44.3327 44.3337H40.9993C40.0793 44.3337 39.3327 45.0803 39.3327 46.0003V46.8337C39.3327 47.2937 38.9593 47.667 38.4993 47.667C38.0393 47.667 37.666 47.2937 37.666 46.8337V46.0003C37.666 44.162 39.161 42.667 40.9993 42.667H44.3327C46.171 42.667 47.666 44.162 47.666 46.0003V46.8337C47.666 47.2937 47.2927 47.667 46.8327 47.667Z" fill="white"/>
</g>
<defs>
<linearGradient id="paint0_linear_555_14935" x1="72" y1="-8.49567e-05" x2="-2.8109" y2="3.04974" gradientUnits="userSpaceOnUse">
<stop stop-color="#4CA3F2"/>
<stop offset="1" stop-color="#80C2FF"/>
</linearGradient>
<clipPath id="clip0_555_14935">
<rect width="40" height="40" fill="white" transform="translate(16 16)"/>
</clipPath>
</defs>
</svg>
