<svg width="1920" height="703" viewBox="0 0 1920 703" fill="none" xmlns="http://www.w3.org/2000/svg">
<path d="M1920 37.018V123.118H0V56.098C359.69 -45.862 546.06 126.938 908.01 123.118C1259.57 119.398 1389.87 -62.162 1802.67 22.448C1838.53 29.798 1878.61 34.528 1920 37.028V37.018Z" fill="url(#paint0_linear_920_5997)"/>
<rect y="123.181" width="1920" height="580" fill="url(#paint1_linear_920_5997)"/>
<path d="M1920 329.641V703.181H0V272.101C0.53 271.611 1.1 271.171 1.7 270.771C19.38 258.961 59.99 265.441 79.66 268.091C105.98 271.641 131.75 278.801 156.73 287.701C237.11 316.361 310.09 361.701 385.1 402.641C395.9 408.531 406.74 414.331 417.65 419.981C686.25 559.001 1013.03 601.431 1295.05 492.181C1395.44 453.301 1488.09 396.601 1587.89 356.221C1687.69 315.831 1799.82 292.241 1902.92 323.241C1908.55 324.941 1914.33 327.061 1920 329.641Z" fill="#F4FAFF" fill-opacity="0.1"/>
<g filter="url(#filter0_d_920_5997)">
<path d="M815.37 703.181H0V647.631C84.65 617.801 174.19 602.641 267.51 603.661C280.58 603.801 293.72 604.261 306.93 605.041C433.91 612.541 569.5 629.681 678.82 660.311C788.14 690.94 769.75 687.251 815.37 703.181Z" fill="#F4FAFF" fill-opacity="0.1" shape-rendering="crispEdges"/>
</g>
<g filter="url(#filter1_d_920_5997)">
<path d="M1920 703.181H1400.18C1408.1 698.881 1416 694.541 1423.87 690.161C1551.63 619.171 1679.05 537.591 1823.78 517.191C1855.81 512.681 1887.89 511.221 1920 511.431V703.181Z" fill="#A6D4FE" fill-opacity="0.5" shape-rendering="crispEdges"/>
</g>
<defs>
<filter id="filter0_d_920_5997" x="-70" y="533.612" width="955.369" height="239.568" filterUnits="userSpaceOnUse" color-interpolation-filters="sRGB">
<feFlood flood-opacity="0" result="BackgroundImageFix"/>
<feColorMatrix in="SourceAlpha" type="matrix" values="0 0 0 0 0 0 0 0 0 0 0 0 0 0 0 0 0 0 127 0" result="hardAlpha"/>
<feOffset/>
<feGaussianBlur stdDeviation="35"/>
<feComposite in2="hardAlpha" operator="out"/>
<feColorMatrix type="matrix" values="0 0 0 0 0.329412 0 0 0 0 0.658824 0 0 0 0 0.960784 0 0 0 0.15 0"/>
<feBlend mode="normal" in2="BackgroundImageFix" result="effect1_dropShadow_920_5997"/>
<feBlend mode="normal" in="SourceGraphic" in2="effect1_dropShadow_920_5997" result="shape"/>
</filter>
<filter id="filter1_d_920_5997" x="1330.18" y="391.411" width="659.82" height="331.77" filterUnits="userSpaceOnUse" color-interpolation-filters="sRGB">
<feFlood flood-opacity="0" result="BackgroundImageFix"/>
<feColorMatrix in="SourceAlpha" type="matrix" values="0 0 0 0 0 0 0 0 0 0 0 0 0 0 0 0 0 0 127 0" result="hardAlpha"/>
<feOffset dy="-50"/>
<feGaussianBlur stdDeviation="35"/>
<feComposite in2="hardAlpha" operator="out"/>
<feColorMatrix type="matrix" values="0 0 0 0 0.329412 0 0 0 0 0.658824 0 0 0 0 0.960784 0 0 0 0.1 0"/>
<feBlend mode="normal" in2="BackgroundImageFix" result="effect1_dropShadow_920_5997"/>
<feBlend mode="normal" in="SourceGraphic" in2="effect1_dropShadow_920_5997" result="shape"/>
</filter>
<linearGradient id="paint0_linear_920_5997" x1="1920" y1="-0.000145347" x2="496.499" y2="904.538" gradientUnits="userSpaceOnUse">
<stop stop-color="#4CA3F2"/>
<stop offset="1" stop-color="#80C2FF"/>
</linearGradient>
<linearGradient id="paint1_linear_920_5997" x1="1920" y1="123.18" x2="-42.5307" y2="388.03" gradientUnits="userSpaceOnUse">
<stop stop-color="#4CA3F2"/>
<stop offset="1" stop-color="#80C2FF"/>
</linearGradient>
</defs>
</svg>
