<svg width="1920" height="703" viewBox="0 0 1920 703" fill="none" xmlns="http://www.w3.org/2000/svg">
<path d="M1920 37.018V703H0V56.098C359.69 -45.862 546.06 126.938 908.01 123.118C1259.57 119.398 1389.87 -62.162 1802.67 22.448C1838.53 29.798 1878.61 34.528 1920 37.028V37.018Z" fill="url(#paint0_linear_920_5997)"/>
<path d="M1920 329.46V703H0V271.92C0.53 271.43 1.1 270.99 1.7 270.59C19.38 258.78 59.99 265.26 79.66 267.91C105.98 271.46 131.75 278.62 156.73 287.52C237.11 316.18 310.09 361.52 385.1 402.46C395.9 408.35 406.74 414.15 417.65 419.8C686.25 558.82 1013.03 601.25 1295.05 492C1395.44 453.12 1488.09 396.42 1587.89 356.04C1687.69 315.65 1799.82 292.06 1902.92 323.06C1908.55 324.76 1914.33 326.88 1920 329.46Z" fill="#F4FAFF" fill-opacity="0.1"/>
<g filter="url(#filter0_d_920_5997)">
<path d="M815.37 703H0V647.45C84.65 617.62 174.19 602.46 267.51 603.48C280.58 603.62 293.72 604.08 306.93 604.86C433.91 612.36 569.5 629.5 678.82 660.13C788.14 690.76 769.75 687.07 815.37 703Z" fill="#F4FAFF" fill-opacity="0.1" shape-rendering="crispEdges"/>
</g>
<g filter="url(#filter1_d_920_5997)">
<path d="M1920 703H1400.18C1408.1 698.7 1416 694.36 1423.87 689.98C1551.63 618.99 1679.05 537.41 1823.78 517.01C1855.81 512.5 1887.89 511.04 1920 511.25V703Z" fill="#A6D4FE" fill-opacity="0.5" shape-rendering="crispEdges"/>
</g>
<defs>
<filter id="filter0_d_920_5997" x="-70" y="533.432" width="955.369" height="239.568" filterUnits="userSpaceOnUse" color-interpolation-filters="sRGB">
<feFlood flood-opacity="0" result="BackgroundImageFix"/>
<feColorMatrix in="SourceAlpha" type="matrix" values="0 0 0 0 0 0 0 0 0 0 0 0 0 0 0 0 0 0 127 0" result="hardAlpha"/>
<feOffset/>
<feGaussianBlur stdDeviation="35"/>
<feComposite in2="hardAlpha" operator="out"/>
<feColorMatrix type="matrix" values="0 0 0 0 0.329412 0 0 0 0 0.658824 0 0 0 0 0.960784 0 0 0 0.15 0"/>
<feBlend mode="normal" in2="BackgroundImageFix" result="effect1_dropShadow_920_5997"/>
<feBlend mode="normal" in="SourceGraphic" in2="effect1_dropShadow_920_5997" result="shape"/>
</filter>
<filter id="filter1_d_920_5997" x="1330.18" y="391.23" width="659.82" height="331.77" filterUnits="userSpaceOnUse" color-interpolation-filters="sRGB">
<feFlood flood-opacity="0" result="BackgroundImageFix"/>
<feColorMatrix in="SourceAlpha" type="matrix" values="0 0 0 0 0 0 0 0 0 0 0 0 0 0 0 0 0 0 127 0" result="hardAlpha"/>
<feOffset dy="-50"/>
<feGaussianBlur stdDeviation="35"/>
<feComposite in2="hardAlpha" operator="out"/>
<feColorMatrix type="matrix" values="0 0 0 0 0.329412 0 0 0 0 0.658824 0 0 0 0 0.960784 0 0 0 0.1 0"/>
<feBlend mode="normal" in2="BackgroundImageFix" result="effect1_dropShadow_920_5997"/>
<feBlend mode="normal" in="SourceGraphic" in2="effect1_dropShadow_920_5997" result="shape"/>
</filter>
<linearGradient id="paint0_linear_920_5997" x1="1920" y1="-0.000829508" x2="-53.804" y2="219.765" gradientUnits="userSpaceOnUse">
<stop stop-color="#4CA3F2"/>
<stop offset="1" stop-color="#80C2FF"/>
</linearGradient>
</defs>
</svg>
