<svg width="16" height="16" viewBox="0 0 16 16" fill="none" xmlns="http://www.w3.org/2000/svg">
<g clip-path="url(#clip0_320_1851)">
<path d="M0 11.6246C0.10562 11.499 0.204561 11.367 0.317696 11.2489C1.09002 10.4453 1.64776 9.50684 2.05939 8.4778C2.51986 7.32728 2.7599 6.12875 2.81626 4.89223C2.81876 4.84088 2.82503 4.78995 2.83045 4.729H15.99C15.9608 5.09887 15.9424 5.46165 15.9011 5.8215C15.7232 7.37904 15.2845 8.85476 14.4984 10.2186C14.1222 10.8711 13.6784 11.4722 13.1399 12.002C12.9854 12.154 12.8155 12.2216 12.5964 12.2212C8.60241 12.217 4.60805 12.2162 0.6141 12.2224C0.327297 12.2228 0.121484 12.1377 0 11.8747V11.6246H0Z" fill="#57A6EE"/>
<path d="M2.8434 13.1558H3.05213C6.23368 13.1558 9.41523 13.1529 12.5968 13.1591C13.0681 13.16 13.4547 13.0047 13.7899 12.6782C14.695 11.7974 15.3567 10.7537 15.8706 9.60946C15.9044 9.5339 15.9365 9.4575 15.9862 9.34229C15.9933 9.41743 15.9992 9.45416 15.9992 9.49048C15.9996 11.162 16 12.8335 15.9992 14.5046C15.9992 14.8402 15.8113 15.0302 15.4794 15.0302C11.4387 15.0306 7.39801 15.0306 3.35731 15.0302C3.03377 15.0302 2.84465 14.839 2.8434 14.5146C2.84215 14.0679 2.8434 13.6208 2.8434 13.1554V13.1558Z" fill="#57A6EE"/>
<path d="M15.9996 3.77422H2.8434C2.8434 3.72496 2.8434 3.6757 2.8434 3.62602C2.8434 3.23569 2.8434 2.84495 2.8434 2.45462C2.84382 2.08476 3.01957 1.90692 3.38569 1.9065C4.07828 1.90608 4.77086 1.9065 5.46303 1.9065H5.6559C5.6559 1.75538 5.65465 1.61219 5.6559 1.46858C5.65882 1.17553 5.85086 0.970554 6.12138 0.969301C6.39232 0.968049 6.58812 1.17219 6.59229 1.46399C6.59438 1.60384 6.59229 1.74411 6.59229 1.89523H8.93597C8.93597 1.75663 8.93514 1.61803 8.93597 1.47902C8.93806 1.17469 9.1301 0.967631 9.40688 0.969301C9.68325 0.970971 9.87069 1.1772 9.8732 1.48445C9.87445 1.61887 9.8732 1.75329 9.8732 1.8969H12.2482C12.2482 1.74703 12.2465 1.60259 12.2482 1.45856C12.2524 1.17636 12.444 0.973476 12.7082 0.969301C12.98 0.965127 13.1796 1.16885 13.1846 1.45815C13.1871 1.60259 13.185 1.74703 13.185 1.9065H13.3674C14.0705 1.9065 14.7735 1.90566 15.4761 1.9065C15.8113 1.90692 15.9962 2.09227 15.9971 2.42874C15.9983 2.87125 15.9971 3.31334 15.9971 3.7738L15.9996 3.77422Z" fill="#57A6EE"/>
</g>
<defs>
<clipPath id="clip0_320_1851">
<rect width="16" height="16" fill="white"/>
</clipPath>
</defs>
</svg>
