<svg width="24" height="24" viewBox="0 0 24 24" fill="none" xmlns="http://www.w3.org/2000/svg">
<g clip-path="url(#clip0_1425_8005)">
<path d="M24 17.4368C23.722 17.9759 23.4308 18.083 22.8547 17.8526C20.8132 17.036 18.7718 16.2188 16.7304 15.4022C16.659 15.3734 16.587 15.3471 16.4786 15.3058C16.473 15.4016 16.4655 15.4736 16.4655 15.5456C16.4642 16.0923 16.468 16.639 16.4642 17.1863C16.4555 18.5333 15.5281 19.4788 14.1823 19.4813C10.2222 19.4889 6.26145 19.4876 2.30132 19.4813C0.934935 19.4795 0.00126034 18.5245 0.000634134 17.1537C-0.000618279 13.7165 -0.000618279 10.2799 0.000634134 6.84262C0.000634134 5.46246 0.941197 4.51689 2.32574 4.51626C6.2627 4.5125 10.1997 4.51313 14.136 4.51626C15.5262 4.51751 16.458 5.45056 16.4636 6.83698C16.4661 7.36801 16.4636 7.89903 16.4636 8.43068C16.4636 8.50645 16.4636 8.58222 16.4636 8.69306C16.5751 8.65236 16.6534 8.62606 16.7304 8.596C18.7718 7.77942 20.8132 6.96222 22.8547 6.14628C23.4314 5.91583 23.7213 6.02229 23.9994 6.5627V17.4374L24 17.4368ZM8.23525 18.0774C10.1878 18.0774 12.1397 18.0774 14.0922 18.0774C14.7678 18.0774 15.059 17.7843 15.059 17.1055C15.059 13.7008 15.059 10.2961 15.059 6.89146C15.059 6.21328 14.7678 5.92147 14.0903 5.92147C10.1859 5.92147 6.28149 5.92147 2.37709 5.92147C1.70329 5.92147 1.40709 6.21892 1.40709 6.89271C1.40709 10.2893 1.40709 13.6864 1.40709 17.083C1.40709 17.7881 1.69515 18.0768 2.40214 18.0768C4.34651 18.0768 6.29088 18.0768 8.23525 18.0768V18.0774ZM22.5791 16.2238V7.78255C22.5328 7.79821 22.504 7.80698 22.4764 7.81762C20.5221 8.59913 18.5683 9.38251 16.6114 10.1578C16.4611 10.2172 16.4649 10.3106 16.4649 10.4302C16.4661 11.469 16.4699 12.5079 16.4611 13.5462C16.4599 13.7215 16.5099 13.8054 16.6759 13.8699C17.7361 14.2845 18.7912 14.7115 19.8483 15.1336C20.7519 15.4949 21.6561 15.855 22.5798 16.2238H22.5791Z" fill="white"/>
</g>
<defs>
<clipPath id="clip0_1425_8005">
<rect width="24" height="24" fill="white"/>
</clipPath>
</defs>
</svg>
