<svg width="375" height="237" viewBox="0 0 375 237" fill="none" xmlns="http://www.w3.org/2000/svg">
<g filter="url(#filter0_d_698_12921)">
<path d="M-30.0013 121.774C-101.759 65.4862 -145.951 67.9837 -175 71.6358V298H555V103.947C532.75 83.8298 464.515 66.8292 349.369 136.63C234.223 206.43 41.7564 178.061 -30.0013 121.774Z" fill="#F4FAFF" fill-opacity="0.7" shape-rendering="crispEdges"/>
</g>
<g filter="url(#filter1_d_698_12921)">
<path d="M-184 170.276C-86.3481 182.659 -66.8548 241.614 43.7926 235.7C154.44 229.786 189.714 105.038 376.106 170.276C520.473 220.806 557.808 176.208 558.972 145.028V142C559.009 142.992 559.01 144.003 558.972 145.028V344H-51.6315H-175.646L-184 170.276Z" fill="white"/>
</g>
<defs>
<filter id="filter0_d_698_12921" x="-245" y="0" width="870" height="368" filterUnits="userSpaceOnUse" color-interpolation-filters="sRGB">
<feFlood flood-opacity="0" result="BackgroundImageFix"/>
<feColorMatrix in="SourceAlpha" type="matrix" values="0 0 0 0 0 0 0 0 0 0 0 0 0 0 0 0 0 0 127 0" result="hardAlpha"/>
<feOffset/>
<feGaussianBlur stdDeviation="35"/>
<feComposite in2="hardAlpha" operator="out"/>
<feColorMatrix type="matrix" values="0 0 0 0 0.329412 0 0 0 0 0.658824 0 0 0 0 0.960784 0 0 0 0.15 0"/>
<feBlend mode="normal" in2="BackgroundImageFix" result="effect1_dropShadow_698_12921"/>
<feBlend mode="normal" in="SourceGraphic" in2="effect1_dropShadow_698_12921" result="shape"/>
</filter>
<filter id="filter1_d_698_12921" x="-254" y="22" width="883" height="342" filterUnits="userSpaceOnUse" color-interpolation-filters="sRGB">
<feFlood flood-opacity="0" result="BackgroundImageFix"/>
<feColorMatrix in="SourceAlpha" type="matrix" values="0 0 0 0 0 0 0 0 0 0 0 0 0 0 0 0 0 0 127 0" result="hardAlpha"/>
<feOffset dy="-50"/>
<feGaussianBlur stdDeviation="35"/>
<feComposite in2="hardAlpha" operator="out"/>
<feColorMatrix type="matrix" values="0 0 0 0 0.329412 0 0 0 0 0.658824 0 0 0 0 0.960784 0 0 0 0.1 0"/>
<feBlend mode="normal" in2="BackgroundImageFix" result="effect1_dropShadow_698_12921"/>
<feBlend mode="normal" in="SourceGraphic" in2="effect1_dropShadow_698_12921" result="shape"/>
</filter>
</defs>
</svg>
