<svg width="16" height="17" viewBox="0 0 16 17" fill="none" xmlns="http://www.w3.org/2000/svg">
<g clip-path="url(#clip0_320_1857)">
<path d="M0 8.99533V7.99544C0.0192047 7.84639 0.0400793 7.69776 0.057614 7.54872C0.242981 5.9873 0.823714 4.58577 1.84574 3.39508C3.71151 1.22161 6.08872 0.258875 8.94353 0.558218C10.7909 0.751934 12.3845 1.5339 13.6725 2.86612C15.6706 4.93229 16.3799 7.40427 15.8084 10.2198C15.1792 13.3206 12.5235 15.856 9.40946 16.3699C9.10761 16.4196 8.80326 16.4538 8.50016 16.4952H7.50026C7.39798 16.4822 7.29569 16.4685 7.1934 16.4572C5.75097 16.2998 4.43378 15.8113 3.2698 14.9409C1.56643 13.6679 0.509759 11.985 0.124413 9.88919C0.0701388 9.5936 0.0409143 9.29342 0 8.99533ZM8.56904 6.01318C8.56904 5.34185 8.56988 4.67011 8.56779 3.99878C8.56779 3.91653 8.56403 3.83053 8.54107 3.75246C8.46091 3.48443 8.2004 3.32286 7.92569 3.36001C7.64179 3.39842 7.4343 3.62178 7.43388 3.91444C7.43096 5.44456 7.43263 6.97508 7.43263 8.5052C7.43263 8.70351 7.52949 8.85005 7.67937 8.96987C8.61038 9.71384 9.5393 10.4599 10.4732 11.2005C10.5555 11.2657 10.6619 11.3174 10.7642 11.3371C11.031 11.388 11.2698 11.2531 11.3767 11.0143C11.4865 10.7701 11.4255 10.5071 11.2034 10.3284C10.3684 9.65622 9.53178 8.98573 8.6922 8.31941C8.60119 8.24719 8.56529 8.17538 8.56612 8.05848C8.57197 7.37671 8.56904 6.69495 8.56904 6.01276V6.01318Z" fill="#57A6EE"/>
</g>
<defs>
<clipPath id="clip0_320_1857">
<rect width="15.9996" height="16" fill="white" transform="translate(0 0.5)"/>
</clipPath>
</defs>
</svg>
