<svg width="72" height="72" viewBox="0 0 72 72" fill="none" xmlns="http://www.w3.org/2000/svg">
<g clip-path="url(#clip0_1_96)">
<ellipse cx="36" cy="25.5" rx="15" ry="14.5" fill="#F9A321"/>
<path d="M57.5014 72H14.481C14.4696 71.9317 14.4696 71.8621 14.481 71.7938C15.4671 68.9423 16.4179 66.0802 17.4621 63.2463C17.8459 62.1994 18.6946 61.5438 19.8004 61.3077C20.3529 61.2093 20.914 61.1674 21.475 61.1826C23.9067 61.1702 26.3401 61.1826 28.8 61.1826C29.6364 58.6641 30.4622 56.1827 31.3074 53.6396L30.5133 53.4193C24.341 51.7039 19.7664 48.0082 16.7894 42.3322C15.2524 39.3677 14.443 36.0794 14.4282 32.7396C14.4282 32.1492 14.1993 31.9835 13.6376 31.8708C7.35319 30.6054 3.01453 27.0189 0.861042 20.9335C0.441966 19.7544 0.279971 18.4873 0 17.2713V6.42738C0.980778 4.03584 1.69567 3.56528 4.35451 3.56352H14.4V0H57.6264V3.56352H58.5526C61.7626 3.56352 64.9726 3.5459 68.1808 3.56352C70.6794 3.5829 71.9736 4.9135 71.9806 7.41607C71.9806 10.2993 72.0299 13.1843 71.9665 16.0676C71.7905 24.0564 66.1118 30.5825 58.2321 31.8813C57.7461 31.9606 57.6106 32.1474 57.5542 32.6321C57.3341 34.5126 57.2531 36.4424 56.746 38.247C54.9235 44.7643 50.8701 49.4504 44.7249 52.2632C43.4588 52.843 42.1012 53.2237 40.712 53.7224L43.1965 61.1808C45.924 61.1808 48.5687 61.1808 51.2153 61.1808C52.9409 61.1808 54.1382 62.062 54.707 63.6975C55.3708 65.5973 56.0346 67.4971 56.6844 69.4023C56.9679 70.2641 57.2267 71.1347 57.5014 72ZM25.2009 21.5767C26.7064 23.5858 28.0305 25.491 29.5061 27.271C30.3689 28.3108 30.6084 29.2589 30.177 30.5648C29.61 32.2814 29.2719 34.0755 28.8088 35.9489C29.1328 35.7727 29.337 35.6757 29.5413 35.5629C31.5099 34.4808 33.4838 33.4093 35.4418 32.3061C35.831 32.0875 36.1162 32.0629 36.523 32.2937C38.5162 33.4252 40.5341 34.5178 42.5432 35.6193C42.7193 35.7145 42.8954 35.7956 43.1701 35.9154C42.6136 33.6772 42.0942 31.5447 41.5448 29.4211C41.4789 29.225 41.4643 29.0152 41.5026 28.8118C41.5408 28.6085 41.6305 28.4184 41.7632 28.2597C43.2845 26.2682 44.7759 24.2538 46.2779 22.2464C46.4117 22.0702 46.5315 21.8763 46.7393 21.5767H45.8729C43.8832 21.5767 41.8917 21.5609 39.9002 21.5873C39.4142 21.5873 39.1536 21.4551 38.9511 20.9916C38.0883 18.9931 37.1815 17.0157 36.2853 15.0313C36.2078 14.855 36.1092 14.6982 35.963 14.4391C35.058 16.4412 34.1406 18.2881 33.394 20.2038C32.9767 21.2771 32.4467 21.6878 31.2599 21.6137C29.3054 21.4851 27.3385 21.5767 25.2009 21.5767ZM57.637 10.8016V24.7737C57.9726 24.7125 58.3042 24.6313 58.6301 24.5305C61.4298 23.473 63.3702 21.5098 64.2383 18.6635C64.6468 17.3259 64.6803 15.8614 64.7789 14.4479C64.8634 13.2442 64.7965 12.03 64.7965 10.8016H57.637ZM14.3348 24.7402V10.8174H7.18591C7.18591 12.3155 7.20704 13.7641 7.18591 15.211C7.13661 18.0626 8.13676 20.4753 10.2022 22.4244C11.3544 23.5439 12.7791 24.3422 14.3348 24.7402Z" fill="#FFC061"/>
</g>
<defs>
<clipPath id="clip0_1_96">
<rect width="72" height="72" fill="white"/>
</clipPath>
</defs>
</svg>
