<svg width="47" height="47" viewBox="0 0 47 47" fill="none" xmlns="http://www.w3.org/2000/svg">
<path d="M37.5356 47H9.45287C9.44541 46.9554 9.44541 46.91 9.45287 46.8654C10.0966 45.004 10.7172 43.1357 11.3989 41.2858C11.6494 40.6024 12.2034 40.1744 12.9253 40.0203C13.286 39.9561 13.6522 39.9287 14.0184 39.9386C15.6057 39.9306 17.1943 39.9386 18.8 39.9386C19.346 38.2946 19.8851 36.6748 20.4368 35.0147L19.9184 34.8709C15.8893 33.7512 12.9031 31.3387 10.9598 27.6335C9.95644 25.6984 9.42806 23.5519 9.41839 21.3717C9.41839 20.9863 9.26896 20.8782 8.9023 20.8045C4.8 19.9785 1.96782 17.6374 0.562069 13.6649C0.288506 12.8953 0.182759 12.0681 0 11.2743L0 4.19565C0.64023 2.6345 1.1069 2.32734 2.84253 2.32619L9.4 2.32619V0L37.6172 0V2.32619H38.2218C40.3172 2.32619 42.4126 2.31468 44.5069 2.32619C46.1379 2.33884 46.9828 3.20742 46.9874 4.84104C46.9874 6.72316 47.0195 8.60643 46.9782 10.4885C46.8632 15.7035 43.1563 19.9636 38.0126 20.8114C37.6954 20.8632 37.6069 20.9851 37.5701 21.3015C37.4264 22.529 37.3736 23.7888 37.0425 24.9668C35.8529 29.2211 33.2069 32.2801 29.1954 34.1162C28.369 34.4947 27.4828 34.7432 26.5759 35.0688L28.1977 39.9375C29.9782 39.9375 31.7046 39.9375 33.4322 39.9375C34.5586 39.9375 35.3402 40.5127 35.7115 41.5803C36.1448 42.8205 36.5782 44.0606 37.0023 45.3043C37.1874 45.8668 37.3563 46.4351 37.5356 47ZM16.4506 14.0848C17.4333 15.3963 18.2977 16.6399 19.2609 17.8019C19.8241 18.4806 19.9805 19.0996 19.6989 19.952C19.3287 21.0726 19.108 22.2437 18.8057 23.4666C19.0172 23.3516 19.1506 23.2883 19.2839 23.2147C20.569 22.5083 21.8575 21.8089 23.1356 21.0887C23.3897 20.946 23.5759 20.9299 23.8414 21.0806C25.1425 21.8192 26.4598 22.5325 27.7713 23.2515C27.8862 23.3136 28.0011 23.3665 28.1805 23.4448C27.8172 21.9837 27.4782 20.5917 27.1195 19.2054C27.0765 19.0774 27.067 18.9405 27.0919 18.8077C27.1169 18.675 27.1755 18.5509 27.2621 18.4473C28.2552 17.1473 29.2287 15.8323 30.2092 14.522C30.2966 14.4069 30.3747 14.2804 30.5103 14.0848H29.9448C28.646 14.0848 27.346 14.0745 26.046 14.0917C25.7287 14.0917 25.5586 14.0054 25.4264 13.7029C24.8632 12.3983 24.2713 11.1075 23.6862 9.81209C23.6356 9.69704 23.5713 9.59465 23.4759 9.42554C22.8851 10.7324 22.2862 11.9381 21.7988 13.1886C21.5264 13.8892 21.1805 14.1573 20.4057 14.109C19.1299 14.025 17.846 14.0848 16.4506 14.0848ZM37.6241 7.05104V16.1717C37.8432 16.1318 38.0597 16.0788 38.2724 16.0129C40.1 15.3227 41.3667 14.0411 41.9333 12.1831C42.2 11.31 42.2218 10.3539 42.2862 9.43129C42.3414 8.64554 42.2977 7.85289 42.2977 7.05104H37.6241ZM9.35747 16.1499V7.06139H4.6908C4.6908 8.03926 4.7046 8.98492 4.6908 9.92943C4.65862 11.7908 5.31149 13.3658 6.65977 14.6382C7.41188 15.3689 8.3419 15.8901 9.35747 16.1499Z" fill="#FFC061"/>
</svg>
