<svg width="1170" height="570" viewBox="0 0 1170 570" fill="none" xmlns="http://www.w3.org/2000/svg">
<path d="M1027 570L875.716 569.514L931.159 405.335H976.903L1027 570Z" fill="#FFFFFD"/>
<path d="M891.732 284.103C840.001 351.89 879.279 410.138 879.279 410.138L923.361 380.21C923.361 380.21 893.875 353.274 891.732 284.103Z" fill="#FFC162"/>
<path d="M892.178 291.099C892.178 288.816 891.919 286.497 891.845 284.103C840.115 351.89 879.393 410.138 879.393 410.138L882.644 407.931C875.809 395.96 853.269 347.438 892.178 291.099Z" fill="#FFCF96"/>
<path d="M894.651 314.293C889.087 327.711 886.327 342.149 886.543 356.7C886.759 371.25 889.947 385.598 895.907 398.841L923.361 380.135C923.361 380.135 902.632 361.131 894.651 314.293Z" fill="#F9A321"/>
<path d="M927.649 381.407L923.362 406.771C923.362 406.771 937.625 417.994 953.477 417.994C969.328 417.994 983.554 406.771 983.554 406.771L979.305 381.407C962.288 385.409 944.592 385.409 927.575 381.407H927.649Z" fill="#3C5C7F"/>
<path d="M1015.22 284.103C1013.08 353.274 983.553 380.172 983.553 380.172L1027.67 410.101C1027.67 410.101 1067.06 351.89 1015.22 284.103Z" fill="#FFC162"/>
<path d="M1015.22 284.103C1015.22 286.086 1015.22 287.844 1014.96 289.939C1055.05 347.588 1030.7 397.232 1024.5 408.006L1027.67 410.138C1027.67 410.138 1067.06 351.89 1015.22 284.103Z" fill="#FFCF96"/>
<path d="M983.553 380.172L1007.68 396.558C1018.72 372.047 1020.05 344.178 1011.38 318.707C1003.03 362.44 983.553 380.172 983.553 380.172Z" fill="#F9A321"/>
<path d="M977.973 133.34C978.601 134.2 979.155 135.023 979.746 135.884C979.155 135.023 978.601 134.2 977.973 133.34Z" fill="#FFFFFD"/>
<path d="M939.285 119.648C939.839 119.012 940.357 118.339 940.911 117.665C940.209 118.339 939.839 119.012 939.285 119.648Z" fill="#FFFFFD"/>
<path d="M943.312 114.747L944.901 112.839L943.312 114.747Z" fill="#FFFFFD"/>
<path d="M930.643 130.983L932.897 127.953L930.643 130.983Z" fill="#FFFFFD"/>
<path d="M935.516 124.436L937.068 122.49L935.516 124.436Z" fill="#FFFFFD"/>
<path d="M927.204 135.884L928.941 133.34L927.204 135.884Z" fill="#FFFFFD"/>
<path d="M962.048 112.839L963.637 114.747L962.048 112.839Z" fill="#FFFFFD"/>
<path d="M966.075 117.665C966.629 118.339 967.147 119.012 967.701 119.648C967.11 119.012 966.592 118.339 966.075 117.665Z" fill="#FFFFFD"/>
<path d="M969.771 122.49L971.287 124.436L969.771 122.49Z" fill="#FFFFFD"/>
<path d="M947.6 109.584L949.004 107.938L947.6 109.584Z" fill="#FFFFFD"/>
<path d="M957.871 107.938L959.238 109.584L957.871 107.938Z" fill="#FFFFFD"/>
<path d="M997.076 166C997.63 167.16 998.148 168.357 998.665 169.517C998.148 168.357 997.63 167.16 997.076 166Z" fill="#FFFFFD"/>
<path d="M974.057 127.954L976.311 130.984L974.057 127.954Z" fill="#FFFFFD"/>
<path d="M986.508 146.283C988.7 149.825 990.732 153.379 992.605 156.945C990.708 153.404 988.676 149.85 986.508 146.283Z" fill="#FFFFFD"/>
<path d="M912.314 160.874C912.869 159.752 913.46 158.63 914.051 157.507C913.46 158.63 912.869 159.752 912.314 160.874Z" fill="#FFFFFD"/>
<path d="M983.96 142.168L985.734 144.974L983.96 142.168Z" fill="#FFFFFD"/>
<path d="M992.902 157.507C993.494 158.63 994.048 159.752 994.602 160.874C994.048 159.752 993.494 158.63 992.902 157.507Z" fill="#FFFFFD"/>
<path d="M908.288 169.514C908.805 168.355 909.323 167.158 909.877 165.998C909.323 167.158 908.805 168.355 908.288 169.514Z" fill="#FFFFFD"/>
<path d="M910.243 165.139L911.832 161.847L910.243 165.139Z" fill="#FFFFFD"/>
<path d="M995.08 161.847C995.634 162.932 996.189 164.054 996.706 165.139C996.189 164.054 995.634 162.857 995.08 161.847Z" fill="#FFFFFD"/>
<path d="M924.102 140.409L925.875 137.753L924.102 140.409Z" fill="#FFFFFD"/>
<path d="M921.219 144.974L922.992 142.168L921.219 144.974Z" fill="#FFFFFD"/>
<path d="M981.077 137.792L982.851 140.448L981.077 137.792Z" fill="#FFFFFD"/>
<path d="M914.346 156.945C916.218 153.404 918.25 149.85 920.442 146.283C918.275 149.85 916.242 153.404 914.346 156.945Z" fill="#FFFFFD"/>
<path d="M1015.22 284.104C1015.22 281.447 1015.22 278.791 1015.22 276.023C1015.22 232.253 1011.82 200.192 998.519 169.516C984.055 174.918 968.746 177.63 953.329 177.522C937.913 177.63 922.603 174.918 908.139 169.516C894.837 200.192 891.438 232.253 891.438 276.023C891.438 278.791 891.438 281.447 891.438 284.104C893.581 353.275 923.067 380.173 923.067 380.173C923.067 380.173 924.619 380.697 927.353 381.408C944.37 385.41 962.067 385.41 979.084 381.408C981.818 380.697 983.333 380.173 983.333 380.173C983.333 380.173 1013.08 353.275 1015.22 284.104ZM953.477 276.023C945.738 276.023 938.172 273.699 931.737 269.346C925.302 264.993 920.287 258.806 917.325 251.566C914.364 244.327 913.589 236.362 915.099 228.676C916.608 220.991 920.335 213.932 925.808 208.392C931.28 202.851 938.252 199.078 945.843 197.549C953.434 196.021 961.301 196.805 968.452 199.804C975.602 202.802 981.713 207.88 986.013 214.395C990.312 220.91 992.607 228.57 992.607 236.405C992.598 246.91 988.472 256.981 981.136 264.408C973.799 271.836 963.852 276.013 953.477 276.023V276.023Z" fill="#FFFFFD"/>
<path d="M953.477 200.642C945.727 200.634 938.149 202.955 931.703 207.309C925.256 211.664 920.23 217.857 917.261 225.104C914.292 232.352 913.513 240.328 915.023 248.024C916.533 255.72 920.264 262.789 925.744 268.337C931.224 273.885 938.207 277.663 945.808 279.192C953.409 280.72 961.287 279.932 968.446 276.926C975.604 273.92 981.721 268.831 986.022 262.305C990.323 255.778 992.614 248.106 992.607 240.259C992.597 229.755 988.472 219.684 981.135 212.257C973.799 204.829 963.852 200.652 953.477 200.642V200.642ZM953.477 267.494C948.156 267.494 942.956 265.897 938.532 262.904C934.108 259.912 930.66 255.658 928.625 250.682C926.589 245.705 926.056 240.229 927.094 234.946C928.132 229.663 930.694 224.81 934.456 221.002C938.218 217.193 943.011 214.599 948.229 213.548C953.447 212.497 958.856 213.036 963.771 215.098C968.686 217.159 972.887 220.65 975.843 225.129C978.799 229.607 980.377 234.873 980.377 240.259C980.391 243.845 979.706 247.399 978.361 250.716C977.016 254.033 975.036 257.049 972.537 259.59C970.038 262.131 967.067 264.147 963.797 265.522C960.526 266.898 957.019 267.606 953.477 267.606V267.494Z" fill="#CCDCEB"/>
<path d="M953.476 196.788C945.737 196.788 938.171 199.112 931.736 203.465C925.301 207.818 920.286 214.005 917.324 221.245C914.363 228.484 913.588 236.45 915.098 244.135C916.607 251.82 920.334 258.879 925.807 264.419C931.279 269.96 938.252 273.733 945.842 275.262C953.433 276.791 961.3 276.006 968.451 273.007C975.601 270.009 981.712 264.931 986.012 258.416C990.311 251.901 992.606 244.241 992.606 236.406C992.597 225.901 988.471 215.83 981.135 208.403C973.798 200.975 963.851 196.798 953.476 196.788V196.788ZM953.476 263.64C948.156 263.64 942.955 262.043 938.531 259.05C934.108 256.058 930.66 251.804 928.624 246.828C926.588 241.851 926.055 236.375 927.093 231.092C928.131 225.809 930.693 220.957 934.455 217.148C938.217 213.339 943.01 210.745 948.228 209.694C953.446 208.643 958.855 209.183 963.77 211.244C968.685 213.305 972.887 216.796 975.842 221.275C978.798 225.754 980.376 231.019 980.376 236.406C980.376 243.629 977.542 250.556 972.497 255.663C967.452 260.771 960.61 263.64 953.476 263.64V263.64Z" fill="#49A6D5"/>
<path d="M953.477 199.818C963.597 199.82 973.323 203.792 980.613 210.9C987.902 218.008 992.188 227.699 992.57 237.939C992.57 237.415 992.57 236.929 992.57 236.405C992.258 226.103 987.996 216.33 980.688 209.155C973.381 201.98 963.601 197.968 953.421 197.968C943.242 197.968 933.462 201.98 926.154 209.155C918.847 216.33 914.585 226.103 914.272 236.405C914.272 236.929 914.272 237.415 914.272 237.939C914.665 227.683 918.969 217.981 926.28 210.872C933.591 203.763 943.34 199.8 953.477 199.818V199.818Z" fill="#85C2D9"/>
<path d="M953.475 266.67C960.609 266.67 967.451 263.8 972.496 258.693C977.54 253.585 980.375 246.658 980.375 239.435C980.375 238.949 980.375 238.425 980.375 237.938C980.014 244.895 977.03 251.447 972.039 256.242C967.048 261.037 960.429 263.71 953.549 263.71C946.668 263.71 940.05 261.037 935.058 256.242C930.067 251.447 927.083 244.895 926.723 237.938C926.723 238.425 926.723 238.949 926.723 239.435C926.723 246.632 929.536 253.537 934.549 258.64C939.562 263.743 946.366 266.63 953.475 266.67V266.67Z" fill="#85C2D9"/>
<path d="M953.476 205.878C947.512 205.878 941.683 207.669 936.724 211.023C931.766 214.377 927.901 219.145 925.619 224.723C923.337 230.301 922.74 236.439 923.904 242.361C925.067 248.282 927.939 253.722 932.155 257.991C936.372 262.26 941.745 265.168 947.593 266.345C953.442 267.523 959.505 266.919 965.014 264.608C970.524 262.298 975.233 258.385 978.546 253.365C981.859 248.345 983.627 242.443 983.627 236.405C983.627 228.309 980.45 220.544 974.796 214.82C969.141 209.095 961.472 205.878 953.476 205.878V205.878ZM953.476 257.392C949.376 257.392 945.368 256.162 941.959 253.855C938.55 251.549 935.893 248.272 934.324 244.437C932.755 240.602 932.345 236.382 933.145 232.311C933.945 228.24 935.919 224.5 938.818 221.565C941.717 218.63 945.411 216.631 949.432 215.821C953.453 215.012 957.621 215.427 961.408 217.016C965.196 218.604 968.434 221.294 970.711 224.745C972.989 228.197 974.205 232.254 974.205 236.405C974.205 239.161 973.669 241.89 972.627 244.437C971.585 246.983 970.058 249.297 968.133 251.245C966.208 253.194 963.923 254.74 961.408 255.795C958.893 256.85 956.198 257.392 953.476 257.392V257.392Z" fill="#E19542"/>
<path d="M998.668 169.516C998.151 168.356 997.634 167.159 997.08 165.999C997.08 165.737 996.821 165.438 996.71 165.139C996.193 164.054 995.639 162.931 995.084 161.846C994.947 161.511 994.786 161.186 994.604 160.874C994.05 159.751 993.495 158.629 992.904 157.507C992.791 157.328 992.693 157.14 992.609 156.946C990.712 153.404 988.68 149.85 986.512 146.284L985.736 144.974L983.962 142.169L982.854 140.448L981.08 137.792L979.75 135.884C979.159 135.023 978.604 134.2 977.976 133.34L976.314 130.983L974.06 127.953C973.173 126.756 972.323 125.596 971.399 124.436L969.773 122.491L967.556 119.648C967.002 119.012 966.485 118.338 965.931 117.665L963.529 114.747L961.94 112.839L959.132 109.584L957.764 107.938L953.478 103L949.081 107.938L947.677 109.584L944.906 112.839L943.317 114.747L940.915 117.665C940.361 118.338 939.844 119.012 939.289 119.648L937.072 122.491L935.52 124.436C934.634 125.596 933.747 126.756 932.897 127.953L930.643 130.983L928.943 133.34L927.207 135.884L925.876 137.792L924.103 140.448L922.994 142.169L921.221 144.974L920.445 146.284C918.277 149.85 916.245 153.404 914.348 156.946C914.235 157.125 914.136 157.312 914.052 157.507C913.461 158.629 912.87 159.751 912.316 160.874C912.316 161.173 912.02 161.51 911.835 161.846L910.246 165.139C910.246 165.438 909.988 165.737 909.877 165.999C909.323 167.159 908.805 168.356 908.288 169.516C922.752 174.918 938.062 177.63 953.478 177.521C968.895 177.63 984.204 174.918 998.668 169.516V169.516Z" fill="#FFC162"/>
<path d="M953.475 263.64C968.331 263.64 980.375 251.447 980.375 236.405C980.375 221.364 968.331 209.171 953.475 209.171C938.619 209.171 926.575 221.364 926.575 236.405C926.575 251.447 938.619 263.64 953.475 263.64Z" fill="#304B64"/>
<path d="M953.475 259.675C966.169 259.675 976.458 249.257 976.458 236.406C976.458 223.555 966.169 213.137 953.475 213.137C940.782 213.137 930.492 223.555 930.492 236.406C930.492 249.257 940.782 259.675 953.475 259.675Z" fill="#3C5C7F"/>
<path d="M959.646 228.998C960.459 230.532 961.657 231.822 963.119 232.739C964.28 233.078 965.526 232.943 966.59 232.362C967.654 231.782 968.451 230.802 968.809 229.634C969.111 228.451 969.144 227.214 968.908 226.015C968.671 224.817 968.17 223.688 967.442 222.713C965.863 220.414 963.637 218.65 961.053 217.649C958.47 216.648 955.649 216.457 952.958 217.101C951.332 217.513 949.558 218.635 949.669 220.319C949.78 222.002 951.738 222.9 953.364 223.611C955.898 224.803 958.068 226.664 959.646 228.998V228.998Z" fill="#3C6F9A"/>
<path d="M973.058 238.163C973.529 237.48 973.737 236.646 973.641 235.819C973.546 234.991 973.154 234.228 972.541 233.674C969.178 230.531 964.153 236.479 967.405 239.397C967.835 239.754 968.339 240.008 968.879 240.14C969.419 240.272 969.982 240.279 970.525 240.16C971.069 240.042 971.579 239.801 972.017 239.455C972.456 239.109 972.812 238.667 973.058 238.163Z" fill="#3C6F9A"/>
<path d="M992.901 344.969C983.589 348.187 973.428 347.102 963.673 345.717C951.627 344.034 939.286 341.976 929.051 335.205C919.996 328.827 912.717 320.194 907.915 310.14C896.313 287.694 893.135 262.33 892.876 236.704C891.953 248.825 891.583 261.806 891.583 276.022C891.583 278.79 891.583 281.447 891.583 284.103C893.726 353.274 923.212 380.172 923.212 380.172C923.212 380.172 924.764 380.696 927.499 381.407C944.516 385.409 962.212 385.409 979.229 381.407C981.963 380.696 983.478 380.172 983.478 380.172C983.478 380.172 997.483 367.415 1006.9 336.851C1002.71 340.316 997.977 343.059 992.901 344.969V344.969Z" fill="#CCDCEB"/>
<path d="M998.668 169.517L997.892 167.796C987.931 169.744 977.724 170.048 967.667 168.694C961.511 168.422 955.419 167.302 949.562 165.364C946.632 164.374 943.936 162.784 941.641 160.692C939.346 158.6 937.501 156.052 936.222 153.206C934.62 147.697 934.417 141.868 935.631 136.259C936.232 130.866 937.283 125.535 938.772 120.322L937.072 122.492L935.52 124.437C934.634 125.597 933.747 126.757 932.897 127.954L930.643 130.984L928.943 133.341L927.207 135.885L925.876 137.793L924.103 140.449L922.994 142.17L921.221 144.975L920.445 146.285C918.277 149.851 916.245 153.405 914.348 156.947C914.235 157.126 914.136 157.313 914.052 157.508C913.461 158.63 912.87 159.752 912.316 160.875C912.316 161.174 912.02 161.511 911.835 161.847L910.246 165.14C910.246 165.439 909.988 165.738 909.877 166C909.323 167.16 908.805 168.357 908.288 169.517C922.752 174.919 938.062 177.631 953.478 177.522C968.895 177.631 984.204 174.919 998.668 169.517V169.517Z" fill="#F9A321"/>
<path d="M989.061 150.586C988.211 149.127 987.398 147.705 986.511 146.284L985.735 144.974L983.962 142.169L982.853 140.448L981.079 137.792L979.749 135.884C979.158 135.023 978.604 134.2 977.976 133.34L976.313 130.983L974.059 127.953C973.172 126.756 972.322 125.596 971.399 124.436L969.773 122.491L967.556 119.648C967.001 119.012 966.484 118.338 965.93 117.665L963.528 114.747L961.939 112.839L959.131 109.584L957.764 107.938L953.478 103L951.002 105.768C963.688 120.732 976.374 135.672 989.061 150.586Z" fill="#F9A321"/>
<path d="M979.453 382.231V381.408C962.436 385.41 944.74 385.41 927.723 381.408L925.432 394.24H925.727C935.797 396.054 946.104 396.054 956.174 394.24C964.889 392.516 972.953 388.356 979.453 382.231V382.231Z" fill="#304B64"/>
<path d="M1170 490.79V522C1170 548.51 1148.51 570 1122 570H48C21.49 570 0 548.51 0 522V490.79C2.98 487.53 6.29 484.54 9.86 481.86C20.54 473.86 33.21 468.96 46.49 467.69C59.78 466.42 73.15 468.84 85.15 474.68C97.14 480.52 107.29 489.55 114.49 500.78C119.53 494.66 126.01 489.89 133.35 486.89C140.7 483.89 148.67 482.75 156.55 483.58C164.44 484.42 172 487.19 178.55 491.66C185.11 496.13 190.45 502.15 194.1 509.19C197.25 508.3 200.5 507.85 203.77 507.85C209.37 507.85 214.89 509.16 219.9 511.66C224.91 514.16 229.27 517.8 232.63 522.28C240.53 513.27 250.51 506.33 261.71 502.05C272.9 497.78 284.97 496.3 296.87 497.75C308.77 499.2 320.13 503.53 329.97 510.37C339.81 517.21 347.83 526.35 353.33 536.99C360.93 529.39 371.02 524.77 381.74 523.98C392.46 523.2 403.11 526.29 411.74 532.7C412.03 522.8 414.84 513.13 419.88 504.61C424.93 496.09 432.06 488.98 440.6 483.96C449.13 478.93 458.81 476.15 468.71 475.88C478.62 475.61 488.43 477.85 497.23 482.39C499.74 473.6 504.17 465.47 510.21 458.59C516.24 451.71 523.72 446.26 532.11 442.61C547.12 436.1 568.68 433 585 433C601.32 433 622.88 436.1 637.89 442.61C646.28 446.26 653.76 451.71 659.79 458.59C665.83 465.47 670.26 473.6 672.77 482.39C681.57 477.85 691.38 475.61 701.29 475.88C711.19 476.15 720.87 478.93 729.41 483.96C737.94 488.98 745.07 496.09 750.12 504.61C755.16 513.13 757.97 522.8 758.26 532.7C766.89 526.29 777.54 523.2 788.26 523.98C798.98 524.77 809.07 529.39 816.67 536.99C822.17 526.35 830.19 517.21 840.03 510.37C849.87 503.53 861.23 499.2 873.13 497.75C885.03 496.3 897.1 497.78 908.29 502.05C919.49 506.33 929.47 513.27 937.37 522.28C940.73 517.8 945.09 514.16 950.1 511.66C955.11 509.16 960.63 507.85 966.23 507.85C969.5 507.85 972.75 508.3 975.9 509.19C979.55 502.15 984.89 496.13 991.45 491.66C998 487.19 1005.56 484.42 1013.44 483.58C1021.33 482.75 1029.3 483.89 1036.65 486.89C1043.99 489.89 1050.47 494.66 1055.51 500.78C1062.71 489.55 1072.86 480.52 1084.85 474.68C1096.85 468.84 1110.22 466.42 1123.51 467.69C1136.79 468.96 1149.46 473.86 1160.14 481.86C1163.71 484.54 1167.02 487.53 1170 490.79V490.79Z" fill="white"/>
</svg>
