<svg width="24" height="24" viewBox="0 0 24 24" fill="none" xmlns="http://www.w3.org/2000/svg">
<path d="M12.0005 19.2047L7.12782 14.332L8.13329 13.3266L11.2894 16.4822V1.59375H12.7116V16.4822L15.8677 13.3266L16.8755 14.332L12.0005 19.2047ZM20.903 16.4531V20.8228C20.9015 20.8655 20.8839 20.9061 20.8537 20.9363C20.8235 20.9666 20.783 20.9843 20.7403 20.9859H3.24189C3.20126 20.9832 3.16336 20.9645 3.13642 20.9339C3.10947 20.9034 3.09566 20.8635 3.09798 20.8228V16.4531H1.67579V20.8228C1.67429 21.2402 1.83826 21.6412 2.13179 21.938C2.42531 22.2348 2.82448 22.4032 3.24189 22.4062H20.7403C21.1606 22.4058 21.5635 22.2386 21.8606 21.9413C22.1577 21.6441 22.3248 21.2412 22.3252 20.8209V16.4531H20.903Z" fill="#57A6EE"/>
</svg>
