<svg width="12" height="10" viewBox="0 0 12 10" fill="none" xmlns="http://www.w3.org/2000/svg">
<path d="M2.59893 0C1.12299 0 0 1.06452 0 2.64516C0 3.83871 0.609626 4.67742 1.50802 5.03226L0.224599 10H2.82353L4.49198 5.41935C5.06952 3.93548 5.19786 3.3871 5.19786 2.64516C5.19786 1.09677 4.10695 0 2.59893 0ZM9.40107 0C7.92513 0 6.80214 1.06452 6.80214 2.64516C6.80214 3.83871 7.41176 4.67742 8.31016 5.03226L7.02674 10H9.62567L11.2941 5.41935C11.8717 3.93548 12 3.3871 12 2.64516C12 1.09677 10.9091 0 9.40107 0Z" fill="#57A6EE"/>
</svg>
