<svg xmlns="http://www.w3.org/2000/svg" xmlns:xlink="http://www.w3.org/1999/xlink" fill="none" height="802" viewBox="0 0 375 802" width="375"><linearGradient id="a" gradientUnits="userSpaceOnUse" x1="-30.1381" x2="372.27" y1="416.254" y2="387.912"><stop offset="0" stop-color="#4ca3f2"/><stop offset="1" stop-color="#80c2ff"/></linearGradient><path d="m375 2.38553v799.61447h-375v-777.6146c34.8 8.0969 71.8 15.4998 117 15 104.2-.9997 147.6-50.6947 258-36.99987z" fill="url(#a)"/><path d="m375 543.939v258.061h-375v-387c19.5 10.562 41.1 23.217 65.3 38.562 72.3 45.936 188 82.107 309.7 90.377z" fill="#f4faff" fill-opacity=".1"/><path d="m375 713.754v88.246h-375v-195c101.5 6 149 42.461 212.2 66.196 39.9 15.021 83.4 28.741 142.8 37.554 6.7 1.101 13.4 2.003 20 3.004z" fill="#f4faff" fill-opacity=".1"/><path d="m212.2 653.615c55.3-30.139 106.6-55.718 162.8-67.615v216h-375v-44.187c84.1-31.824 150.7-70.787 212.2-104.198z" fill="#a6d4fe" fill-opacity=".5"/></svg>
