<svg width="343" height="244" viewBox="0 0 343 244" fill="none" xmlns="http://www.w3.org/2000/svg">
<rect width="343" height="244" fill="url(#paint0_linear_592_11400)"/>
<g filter="url(#filter0_d_592_11400)">
<path d="M233.761 48.2421C312.816 60.4301 340.785 113.976 355.805 124.491L349.343 288.93H-13.72V100.341C-13.72 100.341 16.9213 114.202 65.856 95.4301C114.791 76.6579 154.706 36.054 233.761 48.2421Z" fill="#F4FAFF" fill-opacity="0.1" shape-rendering="crispEdges"/>
</g>
<g filter="url(#filter1_d_592_11400)">
<path d="M265.829 144.786C326.993 89.43 430.929 119.497 447.272 123.582V276.93H-10.4825L-61.2827 155.533C-32.212 120.809 32.256 92.2834 86.6425 120.871C141.029 149.458 204.665 200.143 265.829 144.786Z" fill="#F4FAFF" fill-opacity="0.1" shape-rendering="crispEdges"/>
</g>
<g filter="url(#filter2_d_592_11400)">
<path d="M361.293 215.697C313.996 219.536 304.554 237.815 250.962 235.982C197.37 234.148 180.285 195.47 90.0052 215.697C20.0203 231.377 1.49133 217.512 0.92807 207.844V206.93C0.910431 207.23 0.910065 207.535 0.92807 207.844V288.93H297.181H357.247L361.293 215.697Z" fill="#F4FAFF" fill-opacity="0.2" shape-rendering="crispEdges"/>
</g>
<defs>
<filter id="filter0_d_592_11400" x="-83.72" y="-24" width="509.525" height="382.93" filterUnits="userSpaceOnUse" color-interpolation-filters="sRGB">
<feFlood flood-opacity="0" result="BackgroundImageFix"/>
<feColorMatrix in="SourceAlpha" type="matrix" values="0 0 0 0 0 0 0 0 0 0 0 0 0 0 0 0 0 0 127 0" result="hardAlpha"/>
<feOffset/>
<feGaussianBlur stdDeviation="35"/>
<feComposite in2="hardAlpha" operator="out"/>
<feColorMatrix type="matrix" values="0 0 0 0 0.329412 0 0 0 0 0.658824 0 0 0 0 0.960784 0 0 0 0.15 0"/>
<feBlend mode="normal" in2="BackgroundImageFix" result="effect1_dropShadow_592_11400"/>
<feBlend mode="normal" in="SourceGraphic" in2="effect1_dropShadow_592_11400" result="shape"/>
</filter>
<filter id="filter1_d_592_11400" x="-131.283" y="39.1665" width="648.555" height="307.764" filterUnits="userSpaceOnUse" color-interpolation-filters="sRGB">
<feFlood flood-opacity="0" result="BackgroundImageFix"/>
<feColorMatrix in="SourceAlpha" type="matrix" values="0 0 0 0 0 0 0 0 0 0 0 0 0 0 0 0 0 0 127 0" result="hardAlpha"/>
<feOffset/>
<feGaussianBlur stdDeviation="35"/>
<feComposite in2="hardAlpha" operator="out"/>
<feColorMatrix type="matrix" values="0 0 0 0 0.329412 0 0 0 0 0.658824 0 0 0 0 0.960784 0 0 0 0.15 0"/>
<feBlend mode="normal" in2="BackgroundImageFix" result="effect1_dropShadow_592_11400"/>
<feBlend mode="normal" in="SourceGraphic" in2="effect1_dropShadow_592_11400" result="shape"/>
</filter>
<filter id="filter2_d_592_11400" x="-69.0853" y="86.9302" width="500.379" height="222" filterUnits="userSpaceOnUse" color-interpolation-filters="sRGB">
<feFlood flood-opacity="0" result="BackgroundImageFix"/>
<feColorMatrix in="SourceAlpha" type="matrix" values="0 0 0 0 0 0 0 0 0 0 0 0 0 0 0 0 0 0 127 0" result="hardAlpha"/>
<feOffset dy="-50"/>
<feGaussianBlur stdDeviation="35"/>
<feComposite in2="hardAlpha" operator="out"/>
<feColorMatrix type="matrix" values="0 0 0 0 0.329412 0 0 0 0 0.658824 0 0 0 0 0.960784 0 0 0 0.1 0"/>
<feBlend mode="normal" in2="BackgroundImageFix" result="effect1_dropShadow_592_11400"/>
<feBlend mode="normal" in="SourceGraphic" in2="effect1_dropShadow_592_11400" result="shape"/>
</filter>
<linearGradient id="paint0_linear_592_11400" x1="343" y1="-0.000287909" x2="-12.8146" y2="20.3907" gradientUnits="userSpaceOnUse">
<stop stop-color="#4CA3F2"/>
<stop offset="1" stop-color="#80C2FF"/>
</linearGradient>
</defs>
</svg>
