<svg width="1920" height="835" viewBox="0 0 1920 835" fill="none" xmlns="http://www.w3.org/2000/svg">
<g clip-path="url(#clip0_543_3403)">
<path d="M0 0V835H1920V0H0Z" fill="#EEF7FF"/>
<g filter="url(#filter0_d_543_3403)">
<path d="M1224.47 835H80.8906C135.681 797.81 213.651 752.89 315.461 719.14C420.081 684.45 549.861 661.57 705.501 671C979.711 687.62 1092.19 766.32 1224.47 835Z" fill="#F4FAFF" fill-opacity="0.7" shape-rendering="crispEdges"/>
</g>
<g filter="url(#filter1_d_543_3403)">
<path d="M360.76 752.2C407.91 785.36 455.98 816.07 511.19 831.34C513.66 832.02 522.34 834.95 522.34 834.95C477.14 834.95 407.13 835 353.85 835H0V614.39C0 606.33 104.33 621.06 113.52 623.05C152.6 631.5 190.57 645.11 226.06 663.52C273.53 688.15 316.74 721.23 360.76 752.19V752.2Z" fill="#F4FAFF" fill-opacity="0.7" shape-rendering="crispEdges"/>
</g>
<g filter="url(#filter2_d_543_3403)">
<path d="M1920.02 691.54C1920.02 700.24 1920 709.95 1920 717.54V835H1299.83C1338.35 818.77 1374.53 796.1 1411.44 776C1450.17 754.91 1489.36 734.58 1529.75 716.8C1605.73 683.35 1686.9 658.89 1769.9 657.25C1819.29 656.27 1883.2 667.96 1920.02 691.54Z" fill="#F4FAFF" fill-opacity="0.7" shape-rendering="crispEdges"/>
</g>
</g>
<defs>
<filter id="filter0_d_543_3403" x="10.8906" y="598.867" width="1283.58" height="306.133" filterUnits="userSpaceOnUse" color-interpolation-filters="sRGB">
<feFlood flood-opacity="0" result="BackgroundImageFix"/>
<feColorMatrix in="SourceAlpha" type="matrix" values="0 0 0 0 0 0 0 0 0 0 0 0 0 0 0 0 0 0 127 0" result="hardAlpha"/>
<feOffset/>
<feGaussianBlur stdDeviation="35"/>
<feComposite in2="hardAlpha" operator="out"/>
<feColorMatrix type="matrix" values="0 0 0 0 0.329412 0 0 0 0 0.658824 0 0 0 0 0.960784 0 0 0 0.15 0"/>
<feBlend mode="normal" in2="BackgroundImageFix" result="effect1_dropShadow_543_3403"/>
<feBlend mode="normal" in="SourceGraphic" in2="effect1_dropShadow_543_3403" result="shape"/>
</filter>
<filter id="filter1_d_543_3403" x="-70" y="541.998" width="662.34" height="363.002" filterUnits="userSpaceOnUse" color-interpolation-filters="sRGB">
<feFlood flood-opacity="0" result="BackgroundImageFix"/>
<feColorMatrix in="SourceAlpha" type="matrix" values="0 0 0 0 0 0 0 0 0 0 0 0 0 0 0 0 0 0 127 0" result="hardAlpha"/>
<feOffset/>
<feGaussianBlur stdDeviation="35"/>
<feComposite in2="hardAlpha" operator="out"/>
<feColorMatrix type="matrix" values="0 0 0 0 0.329412 0 0 0 0 0.658824 0 0 0 0 0.960784 0 0 0 0.15 0"/>
<feBlend mode="normal" in2="BackgroundImageFix" result="effect1_dropShadow_543_3403"/>
<feBlend mode="normal" in="SourceGraphic" in2="effect1_dropShadow_543_3403" result="shape"/>
</filter>
<filter id="filter2_d_543_3403" x="1229.83" y="587.193" width="760.189" height="317.807" filterUnits="userSpaceOnUse" color-interpolation-filters="sRGB">
<feFlood flood-opacity="0" result="BackgroundImageFix"/>
<feColorMatrix in="SourceAlpha" type="matrix" values="0 0 0 0 0 0 0 0 0 0 0 0 0 0 0 0 0 0 127 0" result="hardAlpha"/>
<feOffset/>
<feGaussianBlur stdDeviation="35"/>
<feComposite in2="hardAlpha" operator="out"/>
<feColorMatrix type="matrix" values="0 0 0 0 0.329412 0 0 0 0 0.658824 0 0 0 0 0.960784 0 0 0 0.15 0"/>
<feBlend mode="normal" in2="BackgroundImageFix" result="effect1_dropShadow_543_3403"/>
<feBlend mode="normal" in="SourceGraphic" in2="effect1_dropShadow_543_3403" result="shape"/>
</filter>
<clipPath id="clip0_543_3403">
<rect width="1920" height="835" fill="white"/>
</clipPath>
</defs>
</svg>
