<svg width="1920" height="184" viewBox="0 0 1920 184" fill="none" xmlns="http://www.w3.org/2000/svg">
<g clip-path="url(#clip0_543_3614)">
<g filter="url(#filter0_d_543_3614)">
<path d="M1642.7 184C1640.18 182.18 1630.47 183.77 1627.1 183.75C1620.45 183.71 1613.8 183.75 1607.15 183.75H718.02C715.13 183.75 712.24 183.76 709.35 183.73C718.89 183.15 727.75 177.75 736.28 173.85C747.49 168.72 758.61 163.4 769.67 157.95C791.82 147.05 813.71 135.66 835.64 124.32C879.35 101.73 923.26 79.2602 969.22 61.5102C981.6 56.7302 994.13 52.2902 1006.79 48.2902C1097.62 19.6302 1194.94 14.9702 1288.8 29.6102C1387.25 44.9702 1480.69 82.5502 1566.06 133.28C1592.41 148.94 1618.01 165.87 1642.72 183.99L1642.7 184Z" fill="#F4FAFF" fill-opacity="0.1" shape-rendering="crispEdges"/>
</g>
<g filter="url(#filter1_d_543_3614)">
<path d="M735.681 173.03C743.831 176.58 751.901 180.22 759.861 183.99C730.321 184.2 700.741 184 671.191 184H243.121C239.291 184 235.461 184 231.631 184C234.521 184 239.181 176.62 241.281 174.72C245.401 170.98 250.181 167.95 254.841 164.88C264.461 158.54 274.371 152.65 284.521 147.22C304.831 136.35 326.131 127.31 348.041 120.19C391.871 105.96 438.241 99.4299 484.301 101.39C490.291 101.64 496.271 102.04 502.241 102.59C547.131 106.68 590.861 118.63 633.241 133.59C667.381 145.64 702.191 158.47 735.681 173.04V173.03Z" fill="#F4FAFF" fill-opacity="0.1" shape-rendering="crispEdges"/>
</g>
<g filter="url(#filter2_d_543_3614)">
<path d="M1920 67.6499V184H1192.43C1254.33 168.27 1309.41 135.9 1369.46 114.81C1426.53 94.7599 1487.01 86.5199 1547.19 80.2799C1656.95 68.9099 1768.75 61.7199 1879.14 65.1899C1892.71 65.6199 1906.44 66.4499 1920 67.6499V67.6499Z" fill="#F4FAFF" fill-opacity="0.1" shape-rendering="crispEdges"/>
</g>
</g>
<defs>
<filter id="filter0_d_543_3614" x="639.35" y="-48.4785" width="1073.37" height="302.479" filterUnits="userSpaceOnUse" color-interpolation-filters="sRGB">
<feFlood flood-opacity="0" result="BackgroundImageFix"/>
<feColorMatrix in="SourceAlpha" type="matrix" values="0 0 0 0 0 0 0 0 0 0 0 0 0 0 0 0 0 0 127 0" result="hardAlpha"/>
<feOffset/>
<feGaussianBlur stdDeviation="35"/>
<feComposite in2="hardAlpha" operator="out"/>
<feColorMatrix type="matrix" values="0 0 0 0 0.329412 0 0 0 0 0.658824 0 0 0 0 0.960784 0 0 0 0.15 0"/>
<feBlend mode="normal" in2="BackgroundImageFix" result="effect1_dropShadow_543_3614"/>
<feBlend mode="normal" in="SourceGraphic" in2="effect1_dropShadow_543_3614" result="shape"/>
</filter>
<filter id="filter1_d_543_3614" x="161.631" y="31.0493" width="668.23" height="223.037" filterUnits="userSpaceOnUse" color-interpolation-filters="sRGB">
<feFlood flood-opacity="0" result="BackgroundImageFix"/>
<feColorMatrix in="SourceAlpha" type="matrix" values="0 0 0 0 0 0 0 0 0 0 0 0 0 0 0 0 0 0 127 0" result="hardAlpha"/>
<feOffset/>
<feGaussianBlur stdDeviation="35"/>
<feComposite in2="hardAlpha" operator="out"/>
<feColorMatrix type="matrix" values="0 0 0 0 0.329412 0 0 0 0 0.658824 0 0 0 0 0.960784 0 0 0 0.15 0"/>
<feBlend mode="normal" in2="BackgroundImageFix" result="effect1_dropShadow_543_3614"/>
<feBlend mode="normal" in="SourceGraphic" in2="effect1_dropShadow_543_3614" result="shape"/>
</filter>
<filter id="filter2_d_543_3614" x="1122.43" y="-5.6875" width="867.57" height="259.688" filterUnits="userSpaceOnUse" color-interpolation-filters="sRGB">
<feFlood flood-opacity="0" result="BackgroundImageFix"/>
<feColorMatrix in="SourceAlpha" type="matrix" values="0 0 0 0 0 0 0 0 0 0 0 0 0 0 0 0 0 0 127 0" result="hardAlpha"/>
<feOffset/>
<feGaussianBlur stdDeviation="35"/>
<feComposite in2="hardAlpha" operator="out"/>
<feColorMatrix type="matrix" values="0 0 0 0 0.329412 0 0 0 0 0.658824 0 0 0 0 0.960784 0 0 0 0.15 0"/>
<feBlend mode="normal" in2="BackgroundImageFix" result="effect1_dropShadow_543_3614"/>
<feBlend mode="normal" in="SourceGraphic" in2="effect1_dropShadow_543_3614" result="shape"/>
</filter>
<clipPath id="clip0_543_3614">
<rect width="1920" height="184" fill="white"/>
</clipPath>
</defs>
</svg>
