<svg width="30" height="30" viewBox="0 0 30 30" fill="none" xmlns="http://www.w3.org/2000/svg">
<path d="M14.1211 0H15.8789C15.9543 0.0168457 16.0291 0.0432129 16.1052 0.0483398C17.9355 0.169922 19.6919 0.60498 21.3362 1.41138C25.9534 3.67529 28.7754 7.33594 29.7634 12.3904C29.8748 12.9609 29.9224 13.5447 30 14.1218V15.8796C29.9832 15.9639 29.9561 16.0474 29.9502 16.1323C29.8044 18.2249 29.2507 20.2068 28.2378 22.04C25.9043 26.2646 22.3601 28.8523 17.6125 29.7642C17.0405 29.874 16.4568 29.9231 15.8782 30.0007H14.1204C14.0449 29.9839 13.9702 29.9575 13.894 29.9524C12.0535 29.8315 10.2876 29.3921 8.63672 28.5784C4.03638 26.3101 1.22095 22.6545 0.236572 17.6103C0.125244 17.0398 0.0776367 16.4561 0 15.8789C0 15.293 0 14.707 0 14.1211C0.0168457 14.0369 0.0439453 13.9534 0.0498047 13.8684C0.195557 11.7759 0.749268 9.79394 1.76221 7.96069C4.09497 3.73608 7.63916 1.14844 12.3867 0.236572C12.9587 0.126709 13.5425 0.0776367 14.1211 0ZM28.6399 15.0044C28.6472 7.49048 22.5278 1.36743 15.0044 1.36011C7.49048 1.35278 1.36743 7.47217 1.36011 14.9956C1.35278 22.5095 7.47217 28.6326 14.9956 28.6399C22.5095 28.6472 28.6326 22.5278 28.6399 15.0044Z" fill="#57A6EE"/>
<path d="M11.6111 14.1289C11.6704 13.8902 11.7283 13.6367 11.8008 13.3877C11.8169 13.3328 11.8799 13.2705 11.9355 13.2507C12.9536 12.8897 13.9534 12.4641 15.0754 12.5315C16.0305 12.5886 16.9087 13.1577 17.0588 14.0088C17.1526 14.5398 17.1196 15.1279 16.9966 15.656C16.7007 16.9268 16.3118 18.1756 15.9778 19.4375C15.906 19.7078 15.8884 19.9964 15.8796 20.2776C15.865 20.7449 16.0781 21.0042 16.541 21.0979C17.0603 21.2027 17.5693 21.1397 18.0659 20.9632C18.1084 20.9478 18.1538 20.9382 18.2476 20.9126C18.1758 21.1917 18.1194 21.4348 18.0469 21.6729C18.0308 21.7249 17.9634 21.7798 17.9077 21.7988C17.291 22.012 16.6846 22.2742 16.0518 22.4133C15.1509 22.6118 14.2471 22.6089 13.4348 22.0501C12.8437 21.6436 12.5889 21.0803 12.627 20.3714C12.6951 19.0969 13.2056 17.9309 13.5081 16.7136C13.6582 16.1101 13.8113 15.5008 13.875 14.8855C13.9453 14.2014 13.5842 13.866 12.8811 13.9129C12.4607 13.9407 12.0461 14.0528 11.6118 14.1304L11.6111 14.1289Z" fill="#57A6EE"/>
<path d="M18.4146 9.23596C18.3831 10.0013 17.9942 10.4943 17.346 10.8041C16.5593 11.1805 15.5735 10.9821 14.9912 10.3383C14.3262 9.60291 14.4639 8.50061 15.2974 7.88464C16.4011 7.06873 18.0733 7.61145 18.3684 8.88367C18.397 9.00598 18.4014 9.13342 18.4138 9.23596H18.4146Z" fill="#57A6EE"/>
</svg>
