<svg width="12" height="10" viewBox="0 0 12 10" fill="none" xmlns="http://www.w3.org/2000/svg">
<path d="M3.68984 4.93548L4.97326 0H2.40642L0.705882 4.58065C0.128342 6.06452 0 6.6129 0 7.35484C0 8.90323 1.09091 10 2.63102 10C4.07487 10 5.19786 8.93548 5.19786 7.35484C5.19786 6.16129 4.62032 5.32258 3.68984 4.93548ZM10.492 4.93548L11.7754 0H9.20856L7.50802 4.58065C6.93048 6.06452 6.80214 6.6129 6.80214 7.35484C6.80214 8.90323 7.89305 10 9.43315 10C10.877 10 12 8.93548 12 7.35484C12 6.16129 11.4225 5.32258 10.492 4.93548Z" fill="#57A6EE"/>
</svg>
