<svg width="16" height="16" viewBox="0 0 16 16" fill="none" xmlns="http://www.w3.org/2000/svg">
<g clip-path="url(#clip0_320_1866)">
<path d="M15.9993 4.66166C15.9596 4.88028 15.9278 5.10107 15.8795 5.31753C15.7013 6.12132 15.3066 6.80822 14.7308 7.38977C13.9292 8.20006 13.124 9.00601 12.313 9.80691C11.8 10.3134 11.0106 10.1063 10.8367 9.42739C10.771 9.17052 10.8244 8.93169 10.9796 8.71812C11.0279 8.65102 11.0871 8.59113 11.1455 8.53196C11.9212 7.75487 12.6997 6.97994 13.4739 6.20141C14.3333 5.33701 14.5165 4.04691 13.927 3.04687C13.0403 1.54391 11.0589 1.29138 9.81213 2.52592C9.017 3.31311 8.22981 4.10824 7.43756 4.8976C7.11792 5.2158 6.73118 5.28362 6.37114 5.09097C5.89709 4.83771 5.74196 4.18184 6.11572 3.79798C7.04794 2.83979 7.9513 1.84118 8.9701 0.98256C10.9146 -0.656043 13.8383 -0.183438 15.2669 1.92633C15.658 2.50355 15.8896 3.14499 15.9697 3.83983C15.9762 3.89539 15.9892 3.95023 15.9993 4.00578V4.66166Z" fill="#57A6EE"/>
<path d="M4.03625 16.0002C3.78588 15.9562 3.53046 15.9316 3.28658 15.8638C1.64654 15.4085 0.562071 14.3659 0.146468 12.715C-0.248211 11.1464 0.168835 9.7582 1.29587 8.59798C2.07946 7.79202 2.88397 7.00627 3.67909 6.21042C3.93019 5.95861 4.22602 5.85038 4.57452 5.95428C4.89416 6.04952 5.09691 6.26959 5.17339 6.59356C5.23256 6.84465 5.17988 7.07987 5.02692 7.28767C4.97785 7.35405 4.91941 7.41466 4.86097 7.47383C4.0846 8.25092 3.30534 9.02512 2.53186 9.8051C1.72157 10.6219 1.51305 11.7749 1.98638 12.7814C2.75265 14.4106 4.88333 14.7729 6.18498 13.49C6.98588 12.7006 7.77524 11.9004 8.57181 11.1067C8.89578 10.7842 9.28685 10.7222 9.65267 10.9256C10.1087 11.1803 10.2299 11.798 9.90304 12.2056C9.87995 12.2338 9.85758 12.2634 9.83233 12.2886C8.97298 13.1444 8.12446 14.0116 7.25068 14.8522C6.55657 15.5204 5.7066 15.8739 4.74985 15.9742C4.70944 15.9785 4.66976 15.9908 4.62935 15.9987H4.03625V16.0002Z" fill="#57A6EE"/>
<path d="M5.50818 11.3146C5.20586 11.2951 4.93529 11.145 4.7816 10.8239C4.62864 10.5036 4.66904 10.1976 4.88334 9.91551C4.92374 9.86212 4.97064 9.81234 5.01826 9.76471C6.60059 8.18167 8.18219 6.59935 9.76523 5.01702C10.1123 4.66997 10.5034 4.59926 10.8814 4.81211C11.3245 5.06176 11.4507 5.66352 11.1419 6.06902C11.0914 6.13468 11.0344 6.19601 10.976 6.25518C9.40158 7.83101 7.82575 9.40539 6.25209 10.9819C6.05727 11.1775 5.84009 11.3138 5.50818 11.3153V11.3146Z" fill="#57A6EE"/>
</g>
<defs>
<clipPath id="clip0_320_1866">
<rect width="16" height="16" fill="white"/>
</clipPath>
</defs>
</svg>
