<svg width="106" height="142" viewBox="0 0 106 142" fill="none" xmlns="http://www.w3.org/2000/svg">
<g clip-path="url(#clip0_1903_9925)">
<path d="M99.1205 142H6.89893C1.47001 139.958 0.0194451 137.85 0.0194451 132.024C0.0194451 112.14 0.0194451 92.2564 0.0194451 72.3767C0.0194451 70.5736 -0.0349996 68.7667 0.0388897 66.9675C0.237224 62.1105 3.70613 58.8172 8.60616 58.7824C10.3678 58.7709 12.1295 58.7824 14.0662 58.7824C14.0662 58.1686 14.0662 57.6744 14.0662 57.1802C14.0662 51.2614 13.9806 45.3427 14.1012 39.4239C14.1595 36.5282 14.3034 33.5746 14.914 30.7562C19.1801 11.1042 36.9019 -1.69854 57.0503 0.181719C76.0632 1.95387 91.366 18.0963 91.8755 37.061C92.0544 43.7134 91.9338 50.3773 91.9494 57.0334C91.9494 57.574 91.9494 58.1145 91.9494 58.7747C93.6994 58.7747 95.2744 58.7747 96.8494 58.7747C102.617 58.7786 105.992 62.0874 105.992 67.7938C106 89.5268 106 111.26 105.981 132.989C105.981 134.039 105.876 135.128 105.592 136.136C104.67 139.398 102.247 141.101 99.1166 141.996L99.1205 142ZM78.0271 58.74C78.0543 58.2998 78.0893 57.9871 78.0893 57.6744C78.0893 51.3425 78.1087 45.0145 78.0737 38.6826C78.066 37.3467 77.9687 35.9954 77.7315 34.6827C75.2232 20.8028 62.9653 12.0617 48.9108 14.0887C38.0763 15.6523 28.7974 25.2158 28.179 36.0533C27.7551 43.4701 28.0079 50.9216 27.969 58.3577C27.969 58.4736 28.0818 58.5933 28.1557 58.7361H78.0271V58.74ZM61.6898 117.406C61.6275 116.955 61.6042 116.596 61.5303 116.244C60.6631 112.136 59.8036 108.028 58.9053 103.928C58.7148 103.048 58.8003 102.472 59.6209 101.835C62.2692 99.7775 63.5876 96.9667 63.5487 93.6386C63.4942 88.7198 59.9709 84.5346 55.1836 83.5308C50.4353 82.5385 45.5586 84.9516 43.4858 89.3183C41.3663 93.7853 42.5797 98.8895 46.5775 101.99C47.2036 102.476 47.3319 102.889 47.1686 103.607C46.6047 106.082 46.0991 108.569 45.578 111.051C45.1386 113.148 44.7147 115.248 44.2713 117.41H61.6937L61.6898 117.406Z" fill="#AAAAAA" fill-opacity="0.5"/>
</g>
<defs>
<clipPath id="clip0_1903_9925">
<rect width="106" height="142" fill="white"/>
</clipPath>
</defs>
</svg>
