<svg width="141" height="38" viewBox="0 0 141 38" fill="none" xmlns="http://www.w3.org/2000/svg">
<g clip-path="url(#clip0_620_5149)">
<path d="M18.4103 36.5273C28.5781 36.5273 36.8206 28.3504 36.8206 18.2637C36.8206 8.17692 28.5781 0 18.4103 0C8.24258 0 0 8.17692 0 18.2637C0 28.3504 8.24258 36.5273 18.4103 36.5273Z" fill="white"/>
<path d="M32.4863 18.2637C32.4863 25.9557 26.1773 32.2409 18.4102 32.2409C10.6431 32.2409 4.3208 25.9689 4.3208 18.2637C4.3208 10.5585 10.6431 4.29968 18.4102 4.29968C26.1773 4.29968 32.4863 10.5717 32.4863 18.2637Z" fill="#D5952E"/>
<path d="M28.2319 28.2567L28.444 28.2173C28.4705 28.1252 28.5103 28.0463 28.5368 27.9543C28.444 28.0595 28.338 28.1647 28.2319 28.2567ZM28.2319 28.2567L28.444 28.2173C28.4705 28.1252 28.5103 28.0463 28.5368 27.9543C28.444 28.0595 28.338 28.1647 28.2319 28.2567ZM36.8208 17.9349C36.8208 17.8823 36.8208 17.8429 36.8208 17.7903C36.8208 17.6851 36.8208 17.5931 36.8075 17.501C36.8075 17.3695 36.7943 17.2512 36.7943 17.1197C36.781 16.9882 36.781 16.8699 36.7678 16.7384C36.7545 16.62 36.7413 16.5017 36.7413 16.3965C36.728 16.3045 36.7147 16.2124 36.7147 16.1204C36.7147 16.0546 36.7015 16.002 36.6882 15.9363C36.675 15.818 36.6617 15.6996 36.6352 15.5813C36.5955 15.3446 36.569 15.1211 36.5159 14.8844C36.5159 14.8581 36.5027 14.8318 36.5027 14.8055C36.4894 14.7135 36.4629 14.6214 36.4497 14.5425C36.3966 14.2927 36.3436 14.056 36.2774 13.8062C36.2508 13.701 36.2243 13.5827 36.1978 13.4775C36.1978 13.4643 36.1978 13.4643 36.1846 13.4512C36.1581 13.3328 36.1183 13.2277 36.0918 13.1093C36.052 12.9778 36.0123 12.8463 35.9725 12.7149C35.946 12.6097 35.9062 12.5045 35.8665 12.3993C35.8134 12.2546 35.7737 12.1232 35.7207 11.9785C35.6677 11.8339 35.6146 11.7024 35.5616 11.5578C35.5086 11.4263 35.4556 11.2816 35.3893 11.1501C35.3363 11.0187 35.27 10.874 35.217 10.7425C35.164 10.6242 35.111 10.5059 35.058 10.3875C35.0049 10.2692 34.9387 10.1508 34.8856 10.0325C34.7664 9.79582 34.6471 9.57229 34.5145 9.34876C34.4482 9.21727 34.3687 9.09893 34.2892 8.96745C34.2097 8.83596 34.1434 8.71762 34.0639 8.58613C33.9048 8.33631 33.7458 8.08648 33.5735 7.8498C33.5337 7.78406 33.4939 7.73146 33.4409 7.66572C33.3746 7.57368 33.3084 7.48163 33.2421 7.40274C33.0433 7.13977 32.8445 6.87679 32.6324 6.62696C32.5794 6.57437 32.5396 6.50862 32.4866 6.45603C32.4071 6.36399 32.3143 6.2588 32.2348 6.16676C32.1552 6.07471 32.0625 5.96952 31.9829 5.87748C31.8902 5.78544 31.8106 5.6934 31.7178 5.60136C31.6251 5.50932 31.5323 5.41727 31.4528 5.32523C31.3732 5.23319 31.2672 5.14115 31.1744 5.06226C30.9889 4.89132 30.8033 4.70724 30.6045 4.54945C30.5117 4.45741 30.4057 4.37852 30.3129 4.29963C30.2599 4.24703 30.1936 4.20759 30.1406 4.15499C29.8887 3.94461 29.6237 3.74738 29.3586 3.55015C29.2658 3.4844 29.173 3.41866 29.0935 3.35291C29.0272 3.31347 28.9742 3.27402 28.9079 3.22143C28.6693 3.05049 28.4175 2.89271 28.1657 2.73492C28.0464 2.65603 27.9138 2.57714 27.7813 2.51139C27.6488 2.4325 27.5295 2.36676 27.3969 2.28786C27.2776 2.22212 27.1716 2.16952 27.0523 2.10378C26.933 2.03804 26.827 1.98544 26.7077 1.93285C26.6017 1.88025 26.5089 1.82766 26.4028 1.78821C26.3896 1.77506 26.3763 1.77506 26.3498 1.76191C26.2305 1.70932 26.1112 1.65672 25.992 1.60413C25.8594 1.53838 25.7269 1.48579 25.5811 1.43319C25.4485 1.3806 25.3027 1.31485 25.1702 1.26226C25.0376 1.20966 24.8918 1.15707 24.746 1.10447C24.6003 1.05188 24.4677 0.999282 24.3219 0.959835C24.2159 0.920389 24.1098 0.894091 23.9906 0.854645C23.8713 0.815199 23.7387 0.775752 23.6194 0.736306C23.5001 0.69686 23.3808 0.670562 23.2616 0.631116C23.1555 0.604818 23.0495 0.57852 22.9435 0.552223C22.7977 0.512776 22.6519 0.486479 22.5061 0.447033C22.4 0.420735 22.294 0.394437 22.188 0.381289C22.0687 0.354991 21.9494 0.328693 21.8168 0.315545C21.5783 0.276098 21.3529 0.236652 21.1144 0.197206C20.9951 0.184057 20.8758 0.170908 20.7697 0.14461C20.7035 0.131462 20.6504 0.131462 20.5842 0.118313C20.3986 0.0920153 20.2263 0.0788665 20.0407 0.0657177C19.9745 0.0657177 19.9082 0.0525689 19.8419 0.0525689C19.7492 0.0525689 19.6696 0.0394201 19.5768 0.0394201C19.4443 0.0262713 19.325 0.0262713 19.1925 0.0262713C19.0997 0.0262713 18.9937 0.0131226 18.9009 0.0131226C18.8479 0.0131226 18.8081 0.0131226 18.7551 0.0131226C18.649 0.0131226 18.5298 0.0131226 18.4237 0.0131226C18.3177 0.0131226 18.1984 0.0131226 18.0924 0.0131226C18.0393 0.0131226 17.9996 0.0131226 17.9466 0.0131226C17.8538 0.0131226 17.7477 0.0131226 17.655 0.0262713C17.5224 0.0262713 17.4031 0.0394201 17.2706 0.0394201C17.1778 0.0394201 17.0983 0.0525689 17.0055 0.0525689C16.9392 0.0525689 16.873 0.0657177 16.8067 0.0657177C16.6211 0.0788665 16.4356 0.105164 16.2633 0.118313C16.197 0.118313 16.144 0.131462 16.0909 0.14461C15.9717 0.157759 15.8524 0.170908 15.7463 0.197206C15.5078 0.236652 15.2692 0.276098 15.0439 0.315545C14.9246 0.341842 14.8053 0.354991 14.6727 0.381289C14.5667 0.407586 14.4607 0.433884 14.3546 0.447033C14.2088 0.47333 14.063 0.512776 13.9172 0.552223C13.8112 0.57852 13.7052 0.604818 13.5991 0.631116C13.4798 0.657413 13.3605 0.69686 13.2413 0.736306C13.1087 0.775752 12.9894 0.815199 12.8701 0.854645C12.7243 0.894091 12.6183 0.920389 12.499 0.959835C12.3532 1.01243 12.2207 1.05188 12.0749 1.10447C11.9423 1.15707 11.7965 1.20966 11.664 1.26226C11.5314 1.31485 11.3856 1.36745 11.2531 1.43319C11.1206 1.48579 10.9748 1.55153 10.8422 1.60413C10.7229 1.65672 10.6036 1.70932 10.4843 1.76191C10.4711 1.77506 10.4578 1.77506 10.4313 1.78821C10.3253 1.8408 10.2325 1.88025 10.1265 1.93285C10.0072 1.98544 9.8879 2.05118 9.78187 2.10378C9.66258 2.16952 9.55654 2.22212 9.43725 2.28786C9.30471 2.36676 9.18542 2.4325 9.05288 2.51139C8.92033 2.59028 8.80104 2.65603 8.6685 2.73492C8.41667 2.89271 8.16483 3.05049 7.92625 3.22143C7.85998 3.26087 7.80697 3.30032 7.74069 3.35291C7.64791 3.41866 7.55513 3.4844 7.47561 3.55015C7.21052 3.74738 6.94543 3.94461 6.6936 4.15499C6.64058 4.20759 6.58756 4.24703 6.52129 4.29963C6.42851 4.37852 6.32248 4.47056 6.2297 4.54945C6.03088 4.72039 5.84532 4.89132 5.65976 5.06226C5.56698 5.1543 5.4742 5.24634 5.38142 5.32523C5.28863 5.40413 5.19585 5.50932 5.11633 5.60136C5.02355 5.6934 4.94402 5.78544 4.85124 5.87748C4.75846 5.96952 4.67893 6.06157 4.58615 6.16676C4.50663 6.2588 4.41385 6.36399 4.33432 6.45603C4.29456 6.50862 4.24154 6.57437 4.18852 6.62696C3.97645 6.87679 3.77764 7.13977 3.57882 7.40274C3.51255 7.49478 3.44628 7.58682 3.38001 7.66572C3.34024 7.73146 3.30048 7.78406 3.24746 7.8498C3.07516 8.08648 2.9161 8.33631 2.75705 8.58613C2.67752 8.70447 2.598 8.83596 2.53173 8.96745C2.4522 9.09893 2.38593 9.21727 2.3064 9.34876C2.17386 9.57229 2.05457 9.79582 1.93528 10.0325C1.88226 10.1508 1.81599 10.2692 1.76297 10.3875C1.70996 10.5059 1.65694 10.6242 1.60392 10.7425C1.53765 10.874 1.48463 11.0055 1.41836 11.1501C1.36534 11.2816 1.29907 11.4263 1.24605 11.5578C1.19303 11.6892 1.14002 11.8339 1.087 11.9785C1.03398 12.1232 0.980965 12.2546 0.941202 12.3993C0.901439 12.5045 0.87493 12.6097 0.835167 12.7149C0.795404 12.8463 0.755641 12.9778 0.715878 13.1093C0.689369 13.2145 0.649606 13.3328 0.623097 13.4512C0.623097 13.4643 0.623097 13.4643 0.609843 13.4775C0.583334 13.5827 0.556825 13.701 0.530316 13.8062C0.464044 14.0429 0.411027 14.2927 0.35801 14.5425C0.344755 14.6346 0.318246 14.7266 0.304992 14.8055C0.304992 14.8318 0.291738 14.8581 0.291738 14.8844C0.251975 15.1079 0.212211 15.3446 0.172448 15.5813C0.159194 15.6996 0.132685 15.818 0.119431 15.9363C0.106177 16.002 0.106177 16.0546 0.0929221 16.1204C0.0796678 16.2124 0.0664134 16.3045 0.0664134 16.3965C0.053159 16.5149 0.0399047 16.6332 0.0399047 16.7384C0.0266503 16.8699 0.0266503 16.9882 0.0133959 17.1197C0.000141554 17.2512 0.000141552 17.3695 -0.0131128 17.501C-0.0131128 17.5931 -0.0263672 17.6982 -0.0263672 17.7903C-0.0263672 17.8429 -0.0263672 17.8823 -0.0263672 17.9349C-0.0263672 18.0401 -0.0263672 18.1584 -0.0263672 18.2636C-0.0263672 18.3688 -0.0263672 18.4872 -0.0263672 18.5924C-0.0263672 18.645 -0.0263672 18.6844 -0.0263672 18.737C-0.0263672 18.8422 -0.0263672 18.9342 -0.0131128 19.0263C-0.0131128 19.1578 0.000141554 19.2761 0.0133959 19.4076C0.0266503 19.5391 0.0266503 19.6574 0.0399047 19.7889C0.053159 19.9072 0.0664134 20.0256 0.0664134 20.1308C0.0796678 20.2228 0.0929221 20.3148 0.0929221 20.42C0.0929221 20.4858 0.106177 20.5384 0.119431 20.591C0.132685 20.7093 0.14594 20.8277 0.172448 20.946C0.212211 21.1827 0.23872 21.4062 0.291738 21.6429C0.291738 21.6692 0.304992 21.6955 0.304992 21.7218C0.318246 21.8138 0.344755 21.9059 0.35801 21.9847C0.411027 22.2346 0.464044 22.4713 0.530316 22.7079C0.556825 22.8131 0.583334 22.9315 0.609843 23.0366C0.609843 23.0498 0.609843 23.0498 0.623097 23.0629C0.649606 23.1813 0.689369 23.2865 0.715878 23.4048C0.755641 23.5363 0.795404 23.6678 0.835167 23.7993C0.861676 23.9045 0.901439 24.0097 0.941202 24.1148C0.994219 24.2595 1.03398 24.391 1.087 24.5356C1.14002 24.6802 1.19303 24.8117 1.24605 24.9564C1.29907 25.101 1.35209 25.2325 1.41836 25.364C1.47138 25.4955 1.53765 25.6401 1.60392 25.7716C1.65694 25.8899 1.70996 26.0083 1.76297 26.1266C1.81599 26.245 1.88226 26.3633 1.93528 26.4816C2.05457 26.7183 2.17386 26.9418 2.3064 27.1654C2.37267 27.2969 2.4522 27.4152 2.53173 27.5467C2.61125 27.6782 2.69078 27.7965 2.75705 27.928C2.9161 28.1778 3.07516 28.4277 3.24746 28.6643C3.28723 28.7301 3.32699 28.7827 3.38001 28.8484C3.44628 28.9405 3.51255 29.0325 3.57882 29.1114C3.77764 29.3744 3.97645 29.6373 4.18852 29.8872C4.24154 29.9398 4.2813 30.0055 4.33432 30.0581C4.50663 30.2553 4.67893 30.4526 4.85124 30.6366C4.94402 30.7287 5.02355 30.8207 5.11633 30.9128C5.20911 31.0048 5.28863 31.0969 5.38142 31.1889C5.4742 31.2809 5.56698 31.373 5.65976 31.4519C5.9381 31.7148 6.2297 31.9778 6.52129 32.2277C6.57431 32.2802 6.62733 32.3197 6.6936 32.3723C6.94543 32.5827 7.21052 32.7799 7.47561 32.9771C7.56839 33.0429 7.64791 33.1086 7.74069 33.1744C7.80697 33.2138 7.85998 33.2533 7.92625 33.3059C8.16483 33.4768 8.41667 33.6346 8.6685 33.7924C8.80104 33.8713 8.92033 33.9501 9.05288 34.0159C9.18542 34.0948 9.30471 34.1605 9.43725 34.2394C9.55654 34.3052 9.66258 34.3709 9.78187 34.4235C9.90116 34.4892 10.0072 34.5418 10.1265 34.5944C10.2325 34.647 10.3253 34.6996 10.4313 34.7391C10.4446 34.7522 10.4578 34.7522 10.4843 34.7654C10.6036 34.818 10.7229 34.8706 10.8422 34.9232C10.9748 34.9889 11.1073 35.0415 11.2531 35.1072C11.3856 35.1598 11.5314 35.2256 11.664 35.2782C11.8098 35.3308 11.9423 35.3834 12.0881 35.436C12.2339 35.4886 12.3665 35.5411 12.5123 35.5806C12.6183 35.62 12.7243 35.6463 12.8436 35.6858C12.9629 35.7252 13.0955 35.7647 13.2147 35.8041C13.334 35.8436 13.4533 35.8699 13.5726 35.9093C13.6787 35.9356 13.7847 35.9619 13.8907 35.9882C14.0365 36.0277 14.1823 36.0539 14.3281 36.0934C14.4341 36.1197 14.5402 36.146 14.6462 36.1591C14.7655 36.1854 14.8848 36.2117 15.0173 36.2249C15.2559 36.2643 15.4812 36.3038 15.7198 36.3432C15.8391 36.3564 15.9584 36.3695 16.0644 36.3958C16.1175 36.409 16.1837 36.409 16.2367 36.4221C16.4223 36.4484 16.5946 36.4616 16.7802 36.4747C16.8464 36.4747 16.9127 36.4879 16.979 36.4879C17.0718 36.501 17.1513 36.501 17.2441 36.501C17.3766 36.5142 17.4959 36.5142 17.6285 36.5273C17.7212 36.5273 17.8273 36.5405 17.92 36.5405C17.9731 36.5405 18.0128 36.5405 18.0658 36.5405C18.1719 36.5405 18.2912 36.5405 18.3972 36.5405C18.5032 36.5405 18.6225 36.5405 18.7286 36.5405C18.7816 36.5405 18.8213 36.5405 18.8744 36.5405C18.9671 36.5405 19.0732 36.5405 19.166 36.5273C19.2985 36.5273 19.4178 36.5142 19.5503 36.501C19.6431 36.501 19.7226 36.4879 19.8154 36.4879C19.8817 36.4879 19.948 36.4747 20.0142 36.4747C20.1998 36.4616 20.3854 36.4353 20.5577 36.4221C20.6239 36.4221 20.677 36.409 20.7432 36.3958C20.8625 36.3827 20.9818 36.3695 21.0878 36.3432C21.3264 36.3038 21.565 36.2643 21.7903 36.2249C21.9096 36.1986 22.0422 36.1723 22.1614 36.1591C22.2675 36.1328 22.3735 36.1197 22.4796 36.0934C22.6254 36.0671 22.7711 36.0277 22.9169 35.9882C23.023 35.9619 23.129 35.9356 23.2351 35.9093C23.3543 35.883 23.4736 35.8436 23.5929 35.8041C23.7255 35.7647 23.8448 35.7252 23.964 35.6858C24.0701 35.6463 24.1761 35.62 24.2954 35.5806C24.4412 35.528 24.5737 35.4886 24.7195 35.436C24.8653 35.3834 24.9979 35.3308 25.1437 35.2782C25.2762 35.2256 25.422 35.173 25.5546 35.1072C25.6341 35.0809 25.7004 35.0415 25.7799 35.0152C25.8462 34.9889 25.8992 34.9626 25.9655 34.9363C26.0847 34.8837 26.204 34.8311 26.3233 34.7785C26.3366 34.7654 26.3498 34.7654 26.3763 34.7522C26.4824 34.6996 26.5752 34.6602 26.6812 34.6076C26.8005 34.555 26.9198 34.4892 27.0258 34.4366C27.1451 34.3709 27.2511 34.3183 27.3704 34.2526C27.503 34.1868 27.6222 34.1079 27.7548 34.029C27.8873 33.9501 28.0066 33.8713 28.1392 33.8055C28.391 33.6477 28.6428 33.4899 28.8814 33.319C28.9477 33.2664 29.0272 33.227 29.0935 33.1744C29.0935 33.1744 29.0935 33.1744 29.1067 33.1744C29.4514 32.9245 29.796 32.6747 30.1273 32.3986C30.1803 32.346 30.2334 32.3065 30.2996 32.2539C30.737 31.8858 31.1612 31.4913 31.5721 31.0837C31.8902 30.7681 32.195 30.4394 32.4866 30.0975C32.5264 30.045 32.5794 29.9924 32.6324 29.9266C32.8445 29.6768 33.0433 29.4138 33.2421 29.1508C33.3084 29.0588 33.3746 28.9799 33.4409 28.8879C33.4807 28.8221 33.5204 28.7695 33.5735 28.7038C33.6397 28.6117 33.6927 28.5328 33.759 28.4408C33.8651 28.283 33.9711 28.1252 34.0639 27.9674C34.1434 27.8491 34.2229 27.7176 34.2892 27.5861C34.3687 27.4546 34.435 27.3363 34.5145 27.2048C34.6471 26.9813 34.7664 26.7578 34.8856 26.5211C34.9387 26.4027 35.0049 26.2844 35.058 26.1661C35.111 26.0477 35.164 25.9294 35.217 25.811C35.2568 25.719 35.2965 25.6401 35.3363 25.5481C35.3628 25.4955 35.3761 25.4429 35.4026 25.4034C35.4556 25.2719 35.5219 25.1273 35.5749 24.9958C35.6279 24.8643 35.6809 24.7197 35.7339 24.5751C35.7869 24.4304 35.84 24.2989 35.8797 24.1543C36.052 23.6546 36.1978 23.155 36.3171 22.6422C36.3304 22.5764 36.3569 22.4975 36.3701 22.4318C36.3701 22.4187 36.3701 22.4187 36.3701 22.4055C36.3834 22.3398 36.3966 22.274 36.4099 22.2083C36.4232 22.1425 36.4364 22.0768 36.4497 22.011C36.4629 21.9584 36.4629 21.919 36.4762 21.8664C36.4894 21.827 36.4894 21.7875 36.5027 21.7349C36.5292 21.5903 36.5557 21.4588 36.5822 21.3142C36.5955 21.2353 36.6087 21.1564 36.622 21.0906C36.6352 20.9986 36.6485 20.9197 36.6617 20.8277C36.675 20.7488 36.6882 20.6699 36.6882 20.6041C36.7147 20.4463 36.728 20.3017 36.7413 20.1439C36.7545 20.065 36.7545 19.9861 36.7678 19.9072C36.781 19.7757 36.7943 19.6443 36.7943 19.5128C36.8208 19.1052 36.834 18.6844 36.834 18.2768C36.8208 18.1584 36.8208 18.0401 36.8208 17.9349ZM28.5368 27.9543C28.4308 28.0595 28.338 28.1647 28.2319 28.2567C27.9801 28.4934 27.7283 28.7301 27.4632 28.9536C26.4028 29.8346 25.21 30.5709 23.9243 31.1232C22.2277 31.8463 20.3721 32.2408 18.4105 32.2408C10.6434 32.2408 4.32107 25.9688 4.32107 18.2636C4.32107 10.5584 10.6434 4.29963 18.4105 4.29963C26.1775 4.29963 32.4866 10.5716 32.4866 18.2636C32.4866 19.1841 32.3938 20.0913 32.2215 20.9591C31.8769 22.6816 31.2274 24.2858 30.3129 25.719C29.796 26.5211 29.1995 27.2706 28.5368 27.9543Z" fill="#F8AE34"/>
<path d="M38.4241 35.5056C41.7782 32.1782 41.7782 26.7834 38.4241 23.4561C35.07 20.1287 29.6319 20.1287 26.2778 23.456C22.9236 26.7834 22.9236 32.1782 26.2778 35.5056C29.6319 38.833 35.07 38.833 38.4241 35.5056Z" fill="white"/>
<path d="M37.0325 28.3751L36.277 28.2173C36.2108 28.0201 36.1312 27.8228 36.0385 27.6388L36.4626 26.9945C36.5421 26.8761 36.5156 26.7315 36.4228 26.6263L35.3095 25.5218L35.2432 25.4561C35.1504 25.364 34.9914 25.3377 34.8721 25.4166L34.2226 25.8374C34.0371 25.7453 33.8382 25.6664 33.6394 25.6007L33.4804 24.8512C33.4539 24.7197 33.3346 24.6277 33.1888 24.6277H31.532C31.3994 24.6277 31.2801 24.7197 31.2404 24.8512L31.0813 25.6007C30.8825 25.6664 30.6837 25.7453 30.4981 25.8374L30.3126 25.719L29.8487 25.4166C29.7294 25.3377 29.5836 25.364 29.4776 25.4561L28.2979 26.6263C28.2051 26.7183 28.1786 26.8761 28.2582 26.9945L28.6823 27.6388C28.6293 27.7439 28.5763 27.8491 28.5365 27.9543C28.4967 28.0464 28.4702 28.1253 28.4437 28.2173L28.2316 28.2567L27.6882 28.3751C27.5557 28.4014 27.4629 28.5197 27.4629 28.6644V30.308C27.4629 30.4394 27.5557 30.5578 27.6882 30.5972L28.4437 30.755C28.51 30.9522 28.5895 31.1495 28.6823 31.3336L28.2582 31.9779C28.1786 32.0962 28.2051 32.2408 28.2979 32.346L29.0932 33.1349L29.4776 33.5163C29.5703 33.6083 29.7294 33.6346 29.8487 33.5557L30.4981 33.1349C30.6837 33.227 30.8825 33.3059 31.0813 33.3716L31.2404 34.1211C31.2669 34.2526 31.3862 34.3446 31.532 34.3446H33.1888C33.3213 34.3446 33.4406 34.2526 33.4804 34.1211L33.6394 33.3716C33.8382 33.3059 34.0371 33.227 34.2226 33.1349L34.8721 33.5557C34.9914 33.6346 35.1372 33.6083 35.2432 33.5163L36.4228 32.346C36.5156 32.254 36.5421 32.0962 36.4626 31.9779L36.0385 31.3336C36.1312 31.1495 36.2108 30.9522 36.277 30.755L37.0325 30.5972C37.1651 30.5709 37.2579 30.4526 37.2579 30.308V28.6644C37.2711 28.5197 37.1651 28.4014 37.0325 28.3751ZM32.3538 31.2284C32.0754 31.2284 31.7971 31.1626 31.5717 31.0443C31.0018 30.755 30.6042 30.1633 30.6042 29.4796C30.6042 28.5197 31.3994 27.7308 32.367 27.7308C32.9237 27.7308 33.4141 27.9938 33.7455 28.3882C33.984 28.6907 34.1298 29.0588 34.1298 29.4796C34.1166 30.4394 33.3213 31.2284 32.3538 31.2284Z" fill="#57A6EE"/>
<path d="M61.3013 25.6927C61.3013 26.0872 61.1422 26.4159 60.8374 26.692C60.5325 26.9682 60.1614 27.1128 59.7373 27.1128C59.2999 27.1128 58.9287 26.9682 58.6106 26.692C58.2925 26.4159 58.1335 26.0872 58.1335 25.6927V17.9744L55.5621 23.0104C55.4163 23.3128 55.2043 23.5232 54.9392 23.6547C54.6741 23.7862 54.3825 23.8519 54.0644 23.8519C53.7595 23.8519 53.4812 23.7862 53.2161 23.6547C52.951 23.5232 52.7389 23.2997 52.5931 23.0104L50.0218 17.9876V25.7059C50.0218 26.1004 49.8627 26.4291 49.5314 26.7052C49.2133 26.9813 48.8289 27.126 48.3915 27.126C47.9541 27.126 47.583 26.9813 47.2914 26.7052C46.9998 26.4291 46.854 26.1004 46.854 25.7059V12.373C46.854 11.9391 47.0131 11.5841 47.3179 11.308C47.6228 11.0318 48.0204 10.8872 48.4843 10.8872C49.2398 10.8872 49.77 11.1765 50.0616 11.7682L54.0909 19.6837L58.1202 11.7419C58.2793 11.4132 58.5046 11.1896 58.7829 11.0713C59.0613 10.953 59.3529 10.8872 59.671 10.8872C60.1349 10.8872 60.5325 11.0318 60.8374 11.3211C61.1422 11.6104 61.3013 11.9654 61.3013 12.3599V25.6927Z" fill="white"/>
<path d="M68.6043 27.0602C67.809 27.0602 67.1066 26.955 66.4969 26.7315C65.8872 26.5211 65.3702 26.2187 64.9594 25.8505C64.5485 25.4824 64.2304 25.0353 64.0183 24.5225C63.8062 24.0097 63.7002 23.4706 63.7002 22.8921V19.5523C63.7002 18.9737 63.8062 18.4215 64.0183 17.9218C64.2304 17.409 64.5352 16.9751 64.9594 16.5938C65.3702 16.2256 65.8872 15.9232 66.4969 15.7128C67.1066 15.5024 67.809 15.3841 68.6043 15.3841C69.3996 15.3841 70.102 15.4893 70.7117 15.7128C71.3214 15.9232 71.8384 16.2256 72.2492 16.5938C72.6601 16.9619 72.9782 17.409 73.1903 17.9218C73.4024 18.4346 73.5084 18.9737 73.5084 19.5523V22.8921C73.5084 23.4706 73.4024 24.0228 73.1903 24.5225C72.9782 25.0353 72.6601 25.4692 72.2492 25.8505C71.8384 26.2187 71.3214 26.5211 70.7117 26.7315C70.1153 26.955 69.3996 27.0602 68.6043 27.0602ZM68.6043 24.4173C69.1875 24.4173 69.6381 24.2858 69.943 24.0097C70.2478 23.7467 70.3936 23.3654 70.3936 22.8921V19.526C70.3936 19.0658 70.2478 18.6976 69.943 18.4215C69.6381 18.1585 69.2007 18.0139 68.6043 18.0139C68.0211 18.0139 67.5705 18.1453 67.2656 18.4215C66.9608 18.6844 66.815 19.0526 66.815 19.526V22.8921C66.815 23.3654 66.9608 23.7467 67.2656 24.0097C67.5705 24.2858 68.0211 24.4173 68.6043 24.4173Z" fill="white"/>
<path d="M83.4362 27.0602C82.9989 27.0602 82.6277 26.9287 82.3229 26.6526C82.018 26.3896 81.8722 26.0609 81.8722 25.6664V22.7737H80.9179L78.2405 26.4291C77.9092 26.8498 77.485 27.0602 76.9548 27.0602C76.5174 27.0602 76.1596 26.955 75.8945 26.7315C75.6294 26.5211 75.4704 26.2187 75.4438 25.8242C75.4438 25.7059 75.4704 25.5613 75.5101 25.4035C75.5499 25.2457 75.6161 25.1142 75.6957 24.9827L77.6573 22.3792C76.9018 22.1163 76.3584 21.6955 76.027 21.1433C75.6957 20.591 75.5234 19.9073 75.5234 19.1052C75.5234 18.0401 75.8945 17.1855 76.6235 16.5412C77.3525 15.8969 78.4658 15.5682 79.9636 15.5682H83.4495C83.8869 15.5682 84.258 15.7128 84.5629 15.9889C84.8677 16.2651 85.0135 16.5938 85.0135 16.9619V25.6664C85.0135 26.0609 84.8677 26.3896 84.5629 26.6526C84.2448 26.9287 83.8736 27.0602 83.4362 27.0602ZM78.6249 19.1972C78.6249 19.3287 78.6382 19.4602 78.6779 19.5786C78.7177 19.6969 78.7972 19.8152 78.9165 19.9204C79.0358 20.0256 79.2081 20.1045 79.4202 20.1703C79.6322 20.236 79.9106 20.2623 80.2552 20.2623H81.8855V18.1585H80.0034C79.0755 18.1322 78.6249 18.4872 78.6249 19.1972Z" fill="white"/>
<path d="M109.004 25.6927C109.004 26.0872 108.845 26.4159 108.54 26.692C108.235 26.9682 107.864 27.1128 107.44 27.1128C107.003 27.1128 106.631 26.9682 106.313 26.692C105.995 26.4159 105.836 26.0872 105.836 25.6927V17.9744L103.252 23.0104C103.106 23.3128 102.894 23.5232 102.629 23.6547C102.364 23.7862 102.072 23.8519 101.754 23.8519C101.449 23.8519 101.171 23.7862 100.906 23.6547C100.64 23.5232 100.428 23.2997 100.283 23.0104L97.7113 17.9876V25.7059C97.7113 26.1004 97.5522 26.4291 97.2208 26.7052C96.9027 26.9813 96.5184 27.126 96.081 27.126C95.6436 27.126 95.2724 26.9813 94.9808 26.7052C94.6893 26.4291 94.5435 26.1004 94.5435 25.7059V12.373C94.5435 11.9391 94.7025 11.5841 95.0074 11.308C95.3122 11.0318 95.7098 10.8872 96.1737 10.8872C96.9292 10.8872 97.4594 11.1765 97.751 11.7682L101.78 19.6837L105.81 11.7419C105.969 11.4132 106.194 11.1896 106.472 11.0713C106.751 10.953 107.042 10.8872 107.36 10.8872C107.824 10.8872 108.222 11.0318 108.527 11.3211C108.832 11.6104 108.991 11.9654 108.991 12.3599V25.6927H109.004Z" fill="white"/>
<path d="M117.725 23.6152H116.93C116.055 23.6152 115.26 23.4969 114.557 23.2734C113.855 23.0367 113.245 22.708 112.741 22.2609C112.238 21.8139 111.853 21.2748 111.575 20.6305C111.31 19.9862 111.164 19.2498 111.164 18.4083C111.164 17.7246 111.27 17.054 111.469 16.4228C111.668 15.7917 111.999 15.2263 112.45 14.7398C112.9 14.2533 113.497 13.8588 114.226 13.5696C114.955 13.2803 115.856 13.1356 116.93 13.1356H117.725V12.3336C117.725 12.1363 117.765 11.9523 117.858 11.7813C117.95 11.6104 118.07 11.4526 118.215 11.3211C118.361 11.1896 118.533 11.0844 118.719 11.0055C118.905 10.9267 119.103 10.8872 119.289 10.8872C119.766 10.8872 120.151 11.0318 120.442 11.308C120.734 11.5972 120.866 11.926 120.866 12.3204V13.1225H121.662C122.722 13.1225 123.61 13.2671 124.352 13.5564C125.094 13.8457 125.691 14.2401 126.142 14.7267C126.592 15.2132 126.924 15.7786 127.122 16.4097C127.321 17.0408 127.427 17.7114 127.427 18.3952C127.427 19.2367 127.295 19.973 127.016 20.6173C126.751 21.2616 126.354 21.8007 125.85 22.2478C125.346 22.6948 124.737 23.0235 124.034 23.2602C123.332 23.4969 122.536 23.6021 121.662 23.6021H120.866V25.6664C120.866 26.0609 120.707 26.3896 120.402 26.6789C120.098 26.9682 119.726 27.0997 119.289 27.0997C118.852 27.0997 118.48 26.955 118.176 26.6789C117.871 26.3896 117.712 26.0609 117.712 25.6664V23.6152H117.725ZM117.725 20.7357V15.9758H116.93C116.4 15.9758 115.975 16.0415 115.631 16.1862C115.286 16.3308 115.021 16.5149 114.822 16.7384C114.623 16.9619 114.491 17.2249 114.425 17.5142C114.358 17.8035 114.319 18.0927 114.319 18.382C114.319 19.1841 114.531 19.7889 114.968 20.1703C115.405 20.5516 116.055 20.7357 116.916 20.7357H117.725ZM120.893 15.9889V20.7488H121.688C122.55 20.7488 123.199 20.5647 123.636 20.1834C124.074 19.8021 124.286 19.2104 124.286 18.3952C124.286 18.1059 124.246 17.8298 124.167 17.5273C124.087 17.2381 123.955 16.9751 123.769 16.7516C123.583 16.528 123.318 16.344 122.974 16.1993C122.629 16.0547 122.205 15.9889 121.675 15.9889H120.893Z" fill="white"/>
<path d="M135.128 27.1128C134.147 27.1128 133.299 26.955 132.557 26.6526C131.828 26.3502 131.218 25.9294 130.728 25.4035C130.237 24.8775 129.866 24.2464 129.614 23.5363C129.362 22.8263 129.243 22.0505 129.243 21.2222V16.7779C129.243 15.9889 129.349 15.2395 129.575 14.5294C129.787 13.8194 130.131 13.2014 130.608 12.6623C131.072 12.1232 131.682 11.7024 132.424 11.3869C133.166 11.0713 134.068 10.9135 135.128 10.9135C136.188 10.9135 137.09 11.0713 137.832 11.3869C138.574 11.7024 139.184 12.1232 139.648 12.6623C140.112 13.2014 140.456 13.8194 140.682 14.5294C140.894 15.2395 141.013 15.9889 141.013 16.7779V21.2222C141.013 22.0505 140.894 22.8132 140.642 23.5363C140.39 24.2595 140.019 24.8775 139.529 25.4035C139.038 25.9294 138.428 26.3502 137.699 26.6526C136.957 26.955 136.109 27.1128 135.128 27.1128ZM135.128 13.7405C134.134 13.7405 133.432 14.0166 133.021 14.5689C132.61 15.1211 132.411 15.8575 132.411 16.7647V21.209C132.411 22.1031 132.623 22.8395 133.06 23.4049C133.498 23.9703 134.187 24.2595 135.115 24.2595C136.043 24.2595 136.732 23.9703 137.169 23.4049C137.607 22.8395 137.819 22.1031 137.819 21.209V16.7647C137.819 15.8575 137.62 15.1211 137.209 14.5689C136.825 14.0166 136.122 13.7405 135.128 13.7405Z" fill="white"/>
<path d="M23.3009 21.0775C23.3009 22.9315 21.9755 24.5225 19.5499 24.9433V26.6C19.5499 26.8498 19.3511 27.0471 19.086 27.0471H17.9727C17.7076 27.0471 17.4955 26.863 17.4955 26.6V25.0879C16.4749 25.0485 15.4278 24.8249 14.6458 24.5225C14.2217 24.3647 13.9831 23.9045 14.1024 23.4706L14.288 22.7737C14.3542 22.5239 14.5133 22.3135 14.7519 22.2083C14.9772 22.09 15.2423 22.0768 15.4809 22.1689C16.2364 22.4582 17.1111 22.6685 18.0522 22.6685C19.2451 22.6685 20.0801 22.2083 20.0801 21.38C20.0801 20.5779 19.4042 20.0782 17.8401 19.5523C15.5869 18.8028 14.0361 17.764 14.0361 15.726C14.0361 13.8851 15.3483 12.4388 17.6016 12.0049V10.4796C17.6016 10.2298 17.8269 9.9931 18.092 9.9931H19.2053C19.4704 9.9931 19.656 10.2298 19.656 10.4796V11.8471C20.6368 11.8865 21.3393 12.0312 21.9357 12.2284C22.3864 12.373 22.6515 12.8464 22.5322 13.2934L22.3731 13.9246C22.3069 14.1613 22.1478 14.3716 21.9357 14.49C21.7104 14.6083 21.4586 14.6215 21.22 14.5426C20.6766 14.3585 19.9741 14.1876 19.086 14.1876C17.7076 14.1876 17.2702 14.7793 17.2702 15.3578C17.2702 16.0415 18.0124 16.4886 19.8018 17.146C22.2936 18.0402 23.3009 19.1973 23.3009 21.0775Z" fill="#BD7C32"/>
</g>
<defs>
<clipPath id="clip0_620_5149">
<rect width="141" height="38" fill="white"/>
</clipPath>
</defs>
</svg>
