<svg width="166" height="45" viewBox="0 0 166 45" fill="none" xmlns="http://www.w3.org/2000/svg">
<g clip-path="url(#clip0_513_10589)">
<path d="M21.6746 43.2561C33.6451 43.2561 43.3491 33.5729 43.3491 21.628C43.3491 9.6832 33.6451 0 21.6746 0C9.70403 0 0 9.6832 0 21.628C0 33.5729 9.70403 43.2561 21.6746 43.2561Z" fill="white"/>
<path d="M38.2463 21.628C38.2463 30.737 30.8186 38.1799 21.6744 38.1799C12.5302 38.1799 5.08691 30.7526 5.08691 21.628C5.08691 12.5034 12.5302 5.09167 21.6744 5.09167C30.8186 5.09167 38.2463 12.519 38.2463 21.628Z" fill="#D5952E"/>
<path d="M33.2374 33.4619L33.4871 33.4152C33.5183 33.3062 33.5651 33.2128 33.5963 33.1038C33.4871 33.2284 33.3622 33.3529 33.2374 33.4619ZM33.2374 33.4619L33.4871 33.4152C33.5183 33.3062 33.5651 33.2128 33.5963 33.1038C33.4871 33.2284 33.3622 33.3529 33.2374 33.4619ZM43.3491 21.2387C43.3491 21.1765 43.3491 21.1297 43.3491 21.0675C43.3491 20.9429 43.3491 20.8339 43.3335 20.7249C43.3335 20.5692 43.3179 20.4291 43.3179 20.2733C43.3023 20.1176 43.3023 19.9775 43.2867 19.8218C43.2711 19.6817 43.2555 19.5415 43.2555 19.4169C43.2399 19.308 43.2243 19.199 43.2243 19.09C43.2243 19.0121 43.2086 18.9498 43.193 18.872C43.1774 18.7318 43.1618 18.5917 43.1306 18.4515C43.0838 18.1713 43.0526 17.9066 42.9902 17.6263C42.9902 17.5951 42.9746 17.564 42.9746 17.5329C42.959 17.4239 42.9278 17.3149 42.9122 17.2214C42.8497 16.9256 42.7873 16.6453 42.7093 16.3495C42.6781 16.2249 42.6469 16.0848 42.6157 15.9602C42.6157 15.9446 42.6157 15.9446 42.6001 15.9291C42.5689 15.7889 42.522 15.6644 42.4908 15.5242C42.444 15.3685 42.3972 15.2128 42.3504 15.0571C42.3192 14.9325 42.2724 14.808 42.2256 14.6834C42.1631 14.5121 42.1163 14.3564 42.0539 14.1851C41.9915 14.0138 41.9291 13.8581 41.8667 13.6868C41.8042 13.5311 41.7418 13.3599 41.6638 13.2041C41.6014 13.0484 41.5234 12.8772 41.4609 12.7214C41.3985 12.5813 41.3361 12.4412 41.2737 12.301C41.2113 12.1609 41.1333 12.0208 41.0708 11.8806C40.9304 11.6003 40.79 11.3356 40.6339 11.0709C40.5559 10.9152 40.4623 10.7751 40.3686 10.6194C40.275 10.4637 40.197 10.3235 40.1034 10.1678C39.9161 9.87197 39.7289 9.57612 39.526 9.29584C39.4792 9.21799 39.4324 9.1557 39.37 9.07785C39.2919 8.96885 39.2139 8.85985 39.1359 8.76643C38.9018 8.45501 38.6678 8.14359 38.4181 7.84774C38.3557 7.78546 38.3088 7.70761 38.2464 7.64532C38.1528 7.53632 38.0436 7.41176 37.9499 7.30276C37.8563 7.19377 37.7471 7.0692 37.6535 6.9602C37.5442 6.8512 37.4506 6.74221 37.3414 6.63321C37.2321 6.52421 37.1229 6.41522 37.0293 6.30622C36.9357 6.19723 36.8108 6.08823 36.7016 5.9948C36.4831 5.79238 36.2647 5.57439 36.0306 5.38754C35.9214 5.27854 35.7965 5.18511 35.6873 5.09169C35.6249 5.02941 35.5469 4.98269 35.4844 4.92041C35.188 4.67127 34.8759 4.43771 34.5638 4.20414C34.4546 4.12629 34.3453 4.04844 34.2517 3.97058C34.1737 3.92387 34.1113 3.87716 34.0332 3.81487C33.7524 3.61245 33.4559 3.4256 33.1594 3.23875C33.0189 3.14532 32.8629 3.0519 32.7069 2.97404C32.5508 2.88062 32.4104 2.80276 32.2543 2.70934C32.1139 2.63148 31.9891 2.5692 31.8486 2.49134C31.7082 2.41349 31.5833 2.3512 31.4429 2.28892C31.3181 2.22664 31.2088 2.16435 31.084 2.11764C31.0684 2.10207 31.0528 2.10207 31.0216 2.0865C30.8811 2.02421 30.7407 1.96193 30.6003 1.89965C30.4442 1.82179 30.2882 1.75951 30.1165 1.69722C29.9605 1.63494 29.7888 1.55709 29.6328 1.4948C29.4767 1.43252 29.3051 1.37024 29.1334 1.30795C28.9618 1.24567 28.8057 1.18338 28.6341 1.13667C28.5093 1.08996 28.3844 1.05882 28.244 1.0121C28.1035 0.965391 27.9475 0.918678 27.8071 0.871965C27.6666 0.825253 27.5262 0.794111 27.3857 0.747398C27.2609 0.716256 27.1361 0.685114 27.0112 0.653972C26.8396 0.607259 26.6679 0.576118 26.4963 0.529405C26.3715 0.498263 26.2466 0.467121 26.1218 0.45155C25.9813 0.420408 25.8409 0.389266 25.6849 0.373695C25.404 0.326983 25.1387 0.28027 24.8578 0.233557C24.7174 0.217986 24.5769 0.202415 24.4521 0.171273C24.3741 0.155702 24.3117 0.155702 24.2336 0.140131C24.0152 0.10899 23.8123 0.0934186 23.5939 0.0778477C23.5158 0.0778477 23.4378 0.0622768 23.3598 0.0622768C23.2506 0.0622768 23.1569 0.0467058 23.0477 0.0467058C22.8917 0.0311349 22.7512 0.0311349 22.5952 0.0311349C22.486 0.0311349 22.3611 0.015564 22.2519 0.015564C22.1895 0.015564 22.1427 0.015564 22.0802 0.015564C21.9554 0.015564 21.815 0.015564 21.6901 0.015564C21.5653 0.015564 21.4249 0.015564 21.3 0.015564C21.2376 0.015564 21.1908 0.015564 21.1284 0.015564C21.0191 0.015564 20.8943 0.015564 20.7851 0.0311349C20.629 0.0311349 20.4886 0.0467058 20.3325 0.0467058C20.2233 0.0467058 20.1297 0.0622768 20.0205 0.0622768C19.9424 0.0622768 19.8644 0.0778477 19.7864 0.0778477C19.5679 0.0934186 19.3495 0.12456 19.1466 0.140131C19.0686 0.140131 19.0062 0.155702 18.9437 0.171273C18.8033 0.186844 18.6629 0.202415 18.538 0.233557C18.2571 0.28027 17.9763 0.326983 17.711 0.373695C17.5706 0.404837 17.4301 0.420408 17.2741 0.45155C17.1492 0.482692 17.0244 0.513834 16.8996 0.529405C16.7279 0.560547 16.5563 0.607259 16.3846 0.653972C16.2598 0.685114 16.1349 0.716256 16.0101 0.747398C15.8697 0.77854 15.7292 0.825253 15.5888 0.871965C15.4327 0.918678 15.2923 0.965391 15.1519 1.0121C14.9802 1.05882 14.8554 1.08996 14.7149 1.13667C14.5433 1.19896 14.3872 1.24567 14.2156 1.30795C14.0596 1.37024 13.8879 1.43252 13.7319 1.4948C13.5758 1.55709 13.4042 1.61937 13.2481 1.69722C13.0921 1.75951 12.9204 1.83736 12.7644 1.89965C12.6239 1.96193 12.4835 2.02421 12.3431 2.0865C12.3275 2.10207 12.3119 2.10207 12.2806 2.11764C12.1558 2.17992 12.0466 2.22664 11.9217 2.28892C11.7813 2.3512 11.6409 2.42906 11.516 2.49134C11.3756 2.5692 11.2508 2.63148 11.1103 2.70934C10.9543 2.80276 10.8138 2.88062 10.6578 2.97404C10.5017 3.06747 10.3613 3.14532 10.2053 3.23875C9.90878 3.4256 9.61229 3.61245 9.33141 3.81487C9.25339 3.86158 9.19097 3.9083 9.11295 3.97058C9.00372 4.04844 8.89449 4.12629 8.80086 4.20414C8.48877 4.43771 8.17668 4.67127 7.8802 4.92041C7.81778 4.98269 7.75536 5.02941 7.67734 5.09169C7.56811 5.18511 7.44327 5.29411 7.33404 5.38754C7.09998 5.58996 6.88152 5.79238 6.66305 5.9948C6.55382 6.1038 6.44459 6.2128 6.33536 6.30622C6.22613 6.39965 6.1169 6.52421 6.02327 6.63321C5.91404 6.74221 5.82041 6.8512 5.71118 6.9602C5.60195 7.0692 5.50832 7.17819 5.39909 7.30276C5.30547 7.41176 5.19624 7.53632 5.10261 7.64532C5.0558 7.70761 4.99338 7.78546 4.93096 7.84774C4.68129 8.14359 4.44722 8.45501 4.21316 8.76643C4.13513 8.87543 4.05711 8.98442 3.97909 9.07785C3.93228 9.1557 3.88546 9.21799 3.82305 9.29584C3.62019 9.57612 3.43293 9.87197 3.24568 10.1678C3.15206 10.308 3.05843 10.4637 2.98041 10.6194C2.88678 10.7751 2.80876 10.9152 2.71513 11.0709C2.55909 11.3356 2.41865 11.6003 2.27821 11.8806C2.21579 12.0208 2.13777 12.1609 2.07535 12.301C2.01293 12.4412 1.95051 12.5813 1.8881 12.7214C1.81007 12.8772 1.74766 13.0329 1.66963 13.2041C1.60722 13.3599 1.52919 13.5311 1.46678 13.6868C1.40436 13.8426 1.34194 14.0138 1.27952 14.1851C1.2171 14.3564 1.15469 14.5121 1.10787 14.6834C1.06106 14.808 1.02985 14.9325 0.983038 15.0571C0.936225 15.2128 0.889412 15.3685 0.842598 15.5242C0.81139 15.6488 0.764576 15.7889 0.733367 15.9291C0.733367 15.9446 0.733367 15.9446 0.717763 15.9602C0.686554 16.0848 0.655345 16.2249 0.624136 16.3495C0.546114 16.6298 0.483696 16.9256 0.421279 17.2214C0.405674 17.3304 0.374465 17.4394 0.358861 17.5329C0.358861 17.564 0.343256 17.5951 0.343256 17.6263C0.296443 17.891 0.24963 18.1713 0.202817 18.4515C0.187212 18.5917 0.156003 18.7318 0.140399 18.872C0.124794 18.9498 0.124794 19.0121 0.10919 19.09C0.0935855 19.199 0.0779811 19.308 0.0779811 19.4169C0.0623766 19.5571 0.0467722 19.6972 0.0467722 19.8218C0.0311677 19.9775 0.0311677 20.1176 0.0155633 20.2733C-4.11253e-05 20.4291 -4.11272e-05 20.5692 -0.0156456 20.7249C-0.0156456 20.8339 -0.03125 20.9585 -0.03125 21.0675C-0.03125 21.1297 -0.03125 21.1765 -0.03125 21.2387C-0.03125 21.3633 -0.03125 21.5035 -0.03125 21.628C-0.03125 21.7526 -0.03125 21.8927 -0.03125 22.0173C-0.03125 22.0796 -0.03125 22.1263 -0.03125 22.1886C-0.03125 22.3131 -0.03125 22.4221 -0.0156456 22.5311C-0.0156456 22.6868 -4.11253e-05 22.827 0.0155633 22.9827C0.0311677 23.1384 0.0311677 23.2785 0.0467722 23.4342C0.0623766 23.5744 0.0779811 23.7145 0.0779811 23.8391C0.0935855 23.9481 0.10919 24.0571 0.10919 24.1817C0.10919 24.2595 0.124794 24.3218 0.140399 24.3841C0.156003 24.5242 0.171608 24.6644 0.202817 24.8045C0.24963 25.0848 0.280839 25.3495 0.343256 25.6298C0.343256 25.6609 0.358861 25.692 0.358861 25.7232C0.374465 25.8322 0.405674 25.9412 0.421279 26.0346C0.483696 26.3304 0.546114 26.6107 0.624136 26.891C0.655345 27.0156 0.686554 27.1557 0.717763 27.2803C0.717763 27.2958 0.717763 27.2958 0.733367 27.3114C0.764576 27.4515 0.81139 27.5761 0.842598 27.7163C0.889412 27.872 0.936225 28.0277 0.983038 28.1834C1.01425 28.308 1.06106 28.4325 1.10787 28.5571C1.17029 28.7284 1.2171 28.8841 1.27952 29.0554C1.34194 29.2266 1.40436 29.3823 1.46678 29.5536C1.52919 29.7249 1.59161 29.8806 1.66963 30.0363C1.73205 30.192 1.81007 30.3633 1.8881 30.519C1.95051 30.6592 2.01293 30.7993 2.07535 30.9394C2.13777 31.0796 2.21579 31.2197 2.27821 31.3599C2.41865 31.6401 2.55909 31.9048 2.71513 32.1695C2.79315 32.3253 2.88678 32.4654 2.98041 32.6211C3.07403 32.7768 3.16766 32.9169 3.24568 33.0727C3.43293 33.3685 3.62019 33.6644 3.82305 33.9446C3.86986 34.0225 3.91667 34.0848 3.97909 34.1626C4.05711 34.2716 4.13513 34.3806 4.21316 34.474C4.44722 34.7855 4.68129 35.0969 4.93096 35.3927C4.99338 35.455 5.04019 35.5329 5.10261 35.5951C5.30547 35.8287 5.50832 36.0623 5.71118 36.2803C5.82041 36.3893 5.91404 36.4983 6.02327 36.6073C6.1325 36.7163 6.22613 36.8253 6.33536 36.9342C6.44459 37.0432 6.55382 37.1522 6.66305 37.2457C6.99075 37.5571 7.33404 37.8685 7.67734 38.1644C7.73976 38.2266 7.80218 38.2733 7.8802 38.3356C8.17668 38.5848 8.48877 38.8183 8.80086 39.0519C8.91009 39.1297 9.00372 39.2076 9.11295 39.2855C9.19097 39.3322 9.25339 39.3789 9.33141 39.4412C9.61229 39.6436 9.90878 39.8304 10.2053 40.0173C10.3613 40.1107 10.5017 40.2041 10.6578 40.282C10.8138 40.3754 10.9543 40.4533 11.1103 40.5467C11.2508 40.6246 11.3756 40.7024 11.516 40.7647C11.6565 40.8426 11.7813 40.9048 11.9217 40.9671C12.0466 41.0294 12.1558 41.0917 12.2806 41.1384C12.2963 41.154 12.3119 41.154 12.3431 41.1695C12.4835 41.2318 12.6239 41.2941 12.7644 41.3564C12.9204 41.4342 13.0765 41.4965 13.2481 41.5744C13.4042 41.6367 13.5758 41.7145 13.7319 41.7768C13.9035 41.8391 14.0596 41.9014 14.2312 41.9637C14.4029 42.0259 14.5589 42.0882 14.7305 42.1349C14.8554 42.1817 14.9802 42.2128 15.1207 42.2595C15.2611 42.3062 15.4171 42.3529 15.5576 42.3996C15.698 42.4464 15.8385 42.4775 15.9789 42.5242C16.1037 42.5554 16.2286 42.5865 16.3534 42.6176C16.5251 42.6644 16.6967 42.6955 16.8684 42.7422C16.9932 42.7733 17.118 42.8045 17.2429 42.8201C17.3833 42.8512 17.5237 42.8823 17.6798 42.8979C17.9607 42.9446 18.2259 42.9913 18.5068 43.0381C18.6473 43.0536 18.7877 43.0692 18.9125 43.1003C18.975 43.1159 19.053 43.1159 19.1154 43.1315C19.3339 43.1626 19.5367 43.1782 19.7552 43.1938C19.8332 43.1938 19.9112 43.2093 19.9892 43.2093C20.0985 43.2249 20.1921 43.2249 20.3013 43.2249C20.4574 43.2405 20.5978 43.2405 20.7539 43.256C20.8631 43.256 20.9879 43.2716 21.0972 43.2716C21.1596 43.2716 21.2064 43.2716 21.2688 43.2716C21.3936 43.2716 21.5341 43.2716 21.6589 43.2716C21.7838 43.2716 21.9242 43.2716 22.049 43.2716C22.1114 43.2716 22.1583 43.2716 22.2207 43.2716C22.3299 43.2716 22.4547 43.2716 22.564 43.256C22.72 43.256 22.8605 43.2405 23.0165 43.2249C23.1257 43.2249 23.2194 43.2093 23.3286 43.2093C23.4066 43.2093 23.4846 43.1938 23.5627 43.1938C23.7811 43.1782 23.9996 43.147 24.2024 43.1315C24.2805 43.1315 24.3429 43.1159 24.4209 43.1003C24.5613 43.0848 24.7018 43.0692 24.8266 43.0381C25.1075 42.9913 25.3884 42.9446 25.6537 42.8979C25.7941 42.8668 25.9501 42.8356 26.0906 42.8201C26.2154 42.7889 26.3402 42.7733 26.4651 42.7422C26.6367 42.7111 26.8084 42.6644 26.98 42.6176C27.1049 42.5865 27.2297 42.5554 27.3545 42.5242C27.495 42.4931 27.6354 42.4464 27.7759 42.3996C27.9319 42.3529 28.0723 42.3062 28.2128 42.2595C28.3376 42.2128 28.4625 42.1817 28.6029 42.1349C28.7745 42.0727 28.9306 42.0259 29.1022 41.9637C29.2739 41.9014 29.4299 41.8391 29.6016 41.7768C29.7576 41.7145 29.9293 41.6522 30.0853 41.5744C30.1789 41.5432 30.257 41.4965 30.3506 41.4654C30.4286 41.4342 30.491 41.4031 30.569 41.372C30.7095 41.3097 30.8499 41.2474 30.9904 41.1851C31.006 41.1695 31.0216 41.1695 31.0528 41.154C31.1776 41.0917 31.2869 41.045 31.4117 40.9827C31.5521 40.9204 31.6926 40.8426 31.8174 40.7803C31.9578 40.7024 32.0827 40.6401 32.2231 40.5623C32.3792 40.4844 32.5196 40.391 32.6756 40.2976C32.8317 40.2041 32.9721 40.1107 33.1282 40.0329C33.4247 39.846 33.7211 39.6592 34.002 39.4567C34.08 39.3945 34.1737 39.3477 34.2517 39.2855C34.2517 39.2855 34.2517 39.2855 34.2673 39.2855C34.673 38.9896 35.0787 38.6938 35.4688 38.3668C35.5313 38.3045 35.5937 38.2578 35.6717 38.1955C36.1866 37.7595 36.686 37.2924 37.1697 36.8097C37.5442 36.436 37.9031 36.0467 38.2464 35.6419C38.2932 35.5796 38.3557 35.5173 38.4181 35.4394C38.6678 35.1436 38.9018 34.8322 39.1359 34.5208C39.2139 34.4118 39.2919 34.3183 39.37 34.2093C39.4168 34.1315 39.4636 34.0692 39.526 33.9913C39.604 33.8823 39.6664 33.7889 39.7445 33.6799C39.8693 33.4931 39.9941 33.3062 40.1034 33.1194C40.197 32.9792 40.2906 32.8235 40.3686 32.6678C40.4623 32.5121 40.5403 32.372 40.6339 32.2163C40.79 31.9515 40.9304 31.6868 41.0708 31.4066C41.1333 31.2664 41.2113 31.1263 41.2737 30.9862C41.3361 30.846 41.3985 30.7059 41.4609 30.5657C41.5078 30.4567 41.5546 30.3633 41.6014 30.2543C41.6326 30.192 41.6482 30.1297 41.6794 30.083C41.7418 29.9273 41.8199 29.756 41.8823 29.6003C41.9447 29.4446 42.0071 29.2733 42.0695 29.1021C42.1319 28.9308 42.1944 28.7751 42.2412 28.6038C42.444 28.0121 42.6157 27.4204 42.7561 26.8131C42.7717 26.7353 42.8029 26.6419 42.8185 26.564C42.8185 26.5484 42.8185 26.5484 42.8185 26.5329C42.8341 26.455 42.8497 26.3772 42.8653 26.2993C42.881 26.2214 42.8966 26.1436 42.9122 26.0657C42.9278 26.0035 42.9278 25.9567 42.9434 25.8945C42.959 25.8477 42.959 25.801 42.9746 25.7387C43.0058 25.5675 43.037 25.4118 43.0682 25.2405C43.0838 25.1471 43.0994 25.0536 43.115 24.9758C43.1306 24.8668 43.1462 24.7733 43.1618 24.6644C43.1774 24.5709 43.193 24.4775 43.193 24.3996C43.2242 24.2128 43.2399 24.0415 43.2555 23.8547C43.2711 23.7612 43.2711 23.6678 43.2867 23.5744C43.3023 23.4187 43.3179 23.263 43.3179 23.1073C43.3491 22.6246 43.3647 22.1263 43.3647 21.6436C43.3491 21.5035 43.3491 21.3633 43.3491 21.2387ZM33.5963 33.1038C33.4715 33.2284 33.3622 33.3529 33.2374 33.4619C32.9409 33.7422 32.6444 34.0225 32.3324 34.2872C31.084 35.3304 29.6796 36.2024 28.166 36.8564C26.1686 37.7128 23.984 38.1799 21.6745 38.1799C12.5303 38.1799 5.08701 30.7526 5.08701 21.628C5.08701 12.5035 12.5303 5.09169 21.6745 5.09169C30.8187 5.09169 38.2464 12.519 38.2464 21.628C38.2464 22.718 38.1372 23.7924 37.9343 24.8201C37.5286 26.8599 36.764 28.7595 35.6873 30.4567C35.0787 31.4066 34.3765 32.2941 33.5963 33.1038Z" fill="#F8AE34"/>
<path d="M45.2368 42.0462C49.1856 38.1058 49.1856 31.7173 45.2368 27.7769C41.2879 23.8366 34.8856 23.8366 30.9368 27.7769C26.988 31.7173 26.988 38.1058 30.9368 42.0462C34.8856 45.9865 41.2879 45.9865 45.2368 42.0462Z" fill="#57A6EE"/>
<path d="M43.5987 33.6021L42.7092 33.4152C42.6312 33.1817 42.5376 32.9481 42.4283 32.7301L42.9277 31.9671C43.0213 31.827 42.9901 31.6557 42.8809 31.5311L41.5701 30.2232L41.4921 30.1453C41.3828 30.0363 41.1956 30.0052 41.0552 30.0986L40.2905 30.5969C40.0721 30.4879 39.838 30.3945 39.6039 30.3166L39.4167 29.4291C39.3855 29.2734 39.245 29.1644 39.0734 29.1644H37.1228C36.9668 29.1644 36.8264 29.2734 36.7795 29.4291L36.5923 30.3166C36.3582 30.3945 36.1242 30.4879 35.9057 30.5969L35.6872 30.4568L35.1411 30.0986C35.0006 30.0052 34.829 30.0363 34.7041 30.1453L33.3154 31.5311C33.2061 31.6401 33.1749 31.827 33.2685 31.9671L33.7679 32.7301C33.7055 32.8547 33.643 32.9792 33.5962 33.1038C33.5494 33.2128 33.5182 33.3062 33.487 33.4152L33.2373 33.4619L32.5976 33.6021C32.4415 33.6332 32.3323 33.7734 32.3323 33.9446V35.891C32.3323 36.0467 32.4415 36.1869 32.5976 36.2336L33.487 36.4204C33.565 36.654 33.6587 36.8875 33.7679 37.1055L33.2685 37.8685C33.1749 38.0086 33.2061 38.1799 33.3154 38.3045L34.2516 39.2388L34.7041 39.6903C34.8134 39.7993 35.0006 39.8304 35.1411 39.737L35.9057 39.2388C36.1242 39.3477 36.3582 39.4412 36.5923 39.519L36.7795 40.4066C36.8107 40.5623 36.9512 40.6713 37.1228 40.6713H39.0734C39.2294 40.6713 39.3699 40.5623 39.4167 40.4066L39.6039 39.519C39.838 39.4412 40.0721 39.3477 40.2905 39.2388L41.0552 39.737C41.1956 39.8304 41.3672 39.7993 41.4921 39.6903L42.8809 38.3045C42.9901 38.1955 43.0213 38.0086 42.9277 37.8685L42.4283 37.1055C42.5376 36.8875 42.6312 36.654 42.7092 36.4204L43.5987 36.2336C43.7547 36.2024 43.8639 36.0623 43.8639 35.891V33.9446C43.8796 33.7734 43.7547 33.6332 43.5987 33.6021ZM38.0903 36.981C37.7626 36.981 37.4349 36.9031 37.1696 36.763C36.4987 36.4204 36.0305 35.7197 36.0305 34.91C36.0305 33.7734 36.9668 32.8391 38.1059 32.8391C38.7613 32.8391 39.3387 33.1505 39.7288 33.6176C40.0097 33.9758 40.1813 34.4118 40.1813 34.91C40.1657 36.0467 39.2294 36.981 38.0903 36.981Z" fill="white"/>
<path d="M72.1705 30.4256C72.1705 30.8928 71.9832 31.282 71.6243 31.609C71.2654 31.936 70.8285 32.1073 70.3291 32.1073C69.8142 32.1073 69.3773 31.936 69.0028 31.609C68.6283 31.282 68.441 30.8928 68.441 30.4256V21.2855L65.4137 27.2492C65.2421 27.6073 64.9924 27.8564 64.6803 28.0121C64.3682 28.1678 64.0249 28.2457 63.6504 28.2457C63.2915 28.2457 62.9638 28.1678 62.6518 28.0121C62.3397 27.8564 62.09 27.5917 61.9183 27.2492L58.8911 21.3011V30.4412C58.8911 30.9083 58.7038 31.2976 58.3137 31.6246C57.9392 31.9516 57.4867 32.1229 56.9717 32.1229C56.4568 32.1229 56.0199 31.9516 55.6766 31.6246C55.3333 31.2976 55.1616 30.9083 55.1616 30.4412V14.6523C55.1616 14.1384 55.3489 13.718 55.7078 13.391C56.0667 13.064 56.5348 12.8928 57.081 12.8928C57.9704 12.8928 58.5946 13.2353 58.9379 13.936L63.6816 23.3097L68.4254 13.9049C68.6126 13.5156 68.8779 13.2509 69.2056 13.1108C69.5333 12.9706 69.8766 12.8928 70.2511 12.8928C70.7973 12.8928 71.2654 13.064 71.6243 13.4066C71.9832 13.7492 72.1705 14.1696 72.1705 14.6367V30.4256Z" fill="#57A6EE"/>
<path d="M80.7685 32.045C79.8322 32.045 79.0052 31.9204 78.2874 31.6557C77.5696 31.4066 76.961 31.0485 76.4773 30.6125C75.9936 30.1765 75.619 29.6471 75.3694 29.0398C75.1197 28.4326 74.9949 27.7941 74.9949 27.109V23.154C74.9949 22.4689 75.1197 21.8149 75.3694 21.2232C75.619 20.6159 75.978 20.1021 76.4773 19.6505C76.961 19.2146 77.5696 18.8564 78.2874 18.6073C79.0052 18.3582 79.8322 18.218 80.7685 18.218C81.7048 18.218 82.5318 18.3426 83.2496 18.6073C83.9674 18.8564 84.576 19.2146 85.0597 19.6505C85.5434 20.0865 85.918 20.6159 86.1676 21.2232C86.4173 21.8305 86.5421 22.4689 86.5421 23.154V27.109C86.5421 27.7941 86.4173 28.4481 86.1676 29.0398C85.918 29.6471 85.5434 30.1609 85.0597 30.6125C84.576 31.0485 83.9674 31.4066 83.2496 31.6557C82.5474 31.9204 81.7048 32.045 80.7685 32.045ZM80.7685 28.9152C81.4551 28.9152 81.9856 28.7595 82.3445 28.4326C82.7035 28.1211 82.8751 27.6696 82.8751 27.109V23.1229C82.8751 22.5779 82.7035 22.1419 82.3445 21.8149C81.9856 21.5035 81.4707 21.3322 80.7685 21.3322C80.0819 21.3322 79.5514 21.4879 79.1925 21.8149C78.8336 22.1263 78.6619 22.5623 78.6619 23.1229V27.109C78.6619 27.6696 78.8336 28.1211 79.1925 28.4326C79.5514 28.7595 80.0819 28.9152 80.7685 28.9152Z" fill="#57A6EE"/>
<path d="M98.2298 32.045C97.7149 32.045 97.2779 31.8893 96.919 31.5623C96.5601 31.2509 96.3885 30.8616 96.3885 30.3945V26.9689H95.265L92.1129 31.2976C91.7227 31.7959 91.2234 32.045 90.5992 32.045C90.0843 32.045 89.6629 31.9205 89.3509 31.6558C89.0388 31.4066 88.8515 31.0485 88.8203 30.5814C88.8203 30.4412 88.8515 30.2699 88.8983 30.0831C88.9451 29.8962 89.0232 29.7405 89.1168 29.5848L91.4263 26.5018C90.5368 26.1904 89.897 25.6921 89.5069 25.0381C89.1168 24.3841 88.9139 23.5744 88.9139 22.6246C88.9139 21.3634 89.3509 20.3513 90.2091 19.5883C91.0673 18.8253 92.3781 18.436 94.1414 18.436H98.2454C98.7604 18.436 99.1973 18.6073 99.5562 18.9343C99.9151 19.2613 100.087 19.6506 100.087 20.0866V30.3945C100.087 30.8616 99.9151 31.2509 99.5562 31.5623C99.1817 31.8893 98.7448 32.045 98.2298 32.045ZM92.5654 22.7336C92.5654 22.8893 92.581 23.045 92.6278 23.1852C92.6746 23.3253 92.7682 23.4654 92.9087 23.59C93.0491 23.7146 93.252 23.808 93.5017 23.8859C93.7513 23.9637 94.079 23.9949 94.4847 23.9949H96.4041V21.5035H94.1882C93.0959 21.4724 92.5654 21.8928 92.5654 22.7336Z" fill="#57A6EE"/>
<path d="M128.331 30.4256C128.331 30.8928 128.144 31.282 127.785 31.609C127.426 31.936 126.989 32.1073 126.49 32.1073C125.975 32.1073 125.538 31.936 125.163 31.609C124.789 31.282 124.601 30.8928 124.601 30.4256V21.2855L121.559 27.2492C121.387 27.6073 121.137 27.8564 120.825 28.0121C120.513 28.1678 120.17 28.2457 119.795 28.2457C119.436 28.2457 119.109 28.1678 118.797 28.0121C118.484 27.8564 118.235 27.5917 118.063 27.2492L115.036 21.3011V30.4412C115.036 30.9083 114.849 31.2976 114.458 31.6246C114.084 31.9516 113.631 32.1229 113.117 32.1229C112.602 32.1229 112.165 31.9516 111.821 31.6246C111.478 31.2976 111.306 30.9083 111.306 30.4412V14.6523C111.306 14.1384 111.494 13.718 111.853 13.391C112.211 13.064 112.68 12.8928 113.226 12.8928C114.115 12.8928 114.739 13.2353 115.083 13.936L119.826 23.3097L124.57 13.9049C124.757 13.5156 125.023 13.2509 125.35 13.1108C125.678 12.9706 126.021 12.8928 126.396 12.8928C126.942 12.8928 127.41 13.064 127.769 13.4066C128.128 13.7492 128.315 14.1696 128.315 14.6367V30.4256H128.331Z" fill="#57A6EE"/>
<path d="M138.598 27.9654H137.662C136.632 27.9654 135.696 27.8253 134.869 27.5606C134.042 27.2803 133.324 26.891 132.731 26.3616C132.138 25.8322 131.686 25.1938 131.358 24.4308C131.046 23.6678 130.874 22.7959 130.874 21.7993C130.874 20.9896 130.999 20.1955 131.233 19.4481C131.467 18.7007 131.857 18.0312 132.388 17.455C132.918 16.8789 133.621 16.4118 134.479 16.0692C135.337 15.7267 136.398 15.5554 137.662 15.5554H138.598V14.6056C138.598 14.372 138.645 14.154 138.755 13.9516C138.864 13.7492 139.004 13.5623 139.176 13.4066C139.347 13.2509 139.55 13.1263 139.769 13.0329C139.987 12.9395 140.221 12.8928 140.44 12.8928C141.002 12.8928 141.454 13.064 141.797 13.391C142.141 13.7336 142.297 14.1229 142.297 14.59V15.5398H143.233C144.481 15.5398 145.527 15.7111 146.401 16.0537C147.275 16.3962 147.977 16.8633 148.507 17.4395C149.038 18.0156 149.428 18.6851 149.662 19.4326C149.896 20.18 150.021 20.9741 150.021 21.7838C150.021 22.7803 149.865 23.6523 149.537 24.4153C149.225 25.1782 148.757 25.8166 148.164 26.346C147.571 26.8755 146.853 27.2647 146.026 27.545C145.199 27.8253 144.263 27.9499 143.233 27.9499H142.297V30.3945C142.297 30.8616 142.109 31.2509 141.751 31.5935C141.392 31.936 140.955 32.0917 140.44 32.0917C139.925 32.0917 139.488 31.9204 139.129 31.5935C138.77 31.2509 138.583 30.8616 138.583 30.3945V27.9654H138.598ZM138.598 24.5554V18.9187H137.662C137.038 18.9187 136.539 18.9966 136.133 19.1678C135.727 19.3391 135.415 19.5571 135.181 19.8218C134.947 20.0865 134.791 20.398 134.713 20.7405C134.635 21.0831 134.588 21.4256 134.588 21.7682C134.588 22.718 134.838 23.4343 135.353 23.8858C135.868 24.3374 136.632 24.5554 137.647 24.5554H138.598ZM142.328 18.9343V24.571H143.264C144.278 24.571 145.043 24.353 145.558 23.9014C146.073 23.4499 146.323 22.7492 146.323 21.7838C146.323 21.4412 146.276 21.1142 146.182 20.7561C146.089 20.4135 145.933 20.1021 145.714 19.8374C145.496 19.5727 145.184 19.3547 144.778 19.1834C144.372 19.0121 143.873 18.9343 143.249 18.9343H142.328Z" fill="#57A6EE"/>
<path d="M159.087 32.1073C157.932 32.1073 156.934 31.9204 156.06 31.5623C155.202 31.2042 154.484 30.7059 153.906 30.0831C153.329 29.4602 152.892 28.7128 152.596 27.872C152.299 27.0312 152.159 26.1125 152.159 25.1315V19.8685C152.159 18.9343 152.284 18.0467 152.549 17.2059C152.798 16.3651 153.204 15.6332 153.766 14.9948C154.312 14.3564 155.03 13.8581 155.904 13.4844C156.778 13.1107 157.839 12.9239 159.087 12.9239C160.335 12.9239 161.397 13.1107 162.27 13.4844C163.144 13.8581 163.862 14.3564 164.408 14.9948C164.954 15.6332 165.36 16.3651 165.625 17.2059C165.875 18.0467 166.015 18.9343 166.015 19.8685V25.1315C166.015 26.1125 165.875 27.0156 165.579 27.872C165.282 28.7284 164.845 29.4602 164.268 30.0831C163.69 30.7059 162.973 31.2042 162.114 31.5623C161.24 31.9204 160.242 32.1073 159.087 32.1073ZM159.087 16.2716C157.917 16.2716 157.09 16.5986 156.606 17.2526C156.122 17.9066 155.888 18.7786 155.888 19.853V25.1159C155.888 26.1748 156.138 27.0467 156.653 27.7163C157.168 28.3858 157.979 28.7284 159.071 28.7284C160.164 28.7284 160.975 28.3858 161.49 27.7163C162.005 27.0467 162.255 26.1748 162.255 25.1159V19.853C162.255 18.7786 162.021 17.9066 161.537 17.2526C161.084 16.5986 160.257 16.2716 159.087 16.2716Z" fill="#57A6EE"/>
<path d="M27.4326 24.9602C27.4326 27.1557 25.8722 29.0398 23.0166 29.5381V31.5C23.0166 31.7959 22.7825 32.0294 22.4704 32.0294H21.1597C20.8476 32.0294 20.5979 31.8114 20.5979 31.5V29.7094C19.3964 29.6626 18.1636 29.3979 17.243 29.0398C16.7436 28.853 16.4627 28.308 16.6032 27.7941L16.8216 26.9689C16.8997 26.673 17.0869 26.4239 17.3678 26.2993C17.6331 26.1592 17.9451 26.1436 18.226 26.2526C19.1155 26.5952 20.1454 26.8443 21.2533 26.8443C22.6577 26.8443 23.6408 26.2993 23.6408 25.3184C23.6408 24.3685 22.8449 23.7768 21.0036 23.154C18.3509 22.2664 16.5251 21.0363 16.5251 18.6228C16.5251 16.4429 18.07 14.7301 20.7227 14.2163V12.41C20.7227 12.1142 20.988 11.8339 21.3001 11.8339H22.6109C22.923 11.8339 23.1414 12.1142 23.1414 12.41V14.0294C24.2962 14.0761 25.1232 14.2474 25.8254 14.481C26.3559 14.6523 26.668 15.2128 26.5276 15.7422L26.3403 16.4896C26.2623 16.7699 26.0751 17.019 25.8254 17.1592C25.5601 17.2993 25.2636 17.3149 24.9827 17.2215C24.343 17.0035 23.5159 16.8011 22.4704 16.8011C20.8476 16.8011 20.3326 17.5017 20.3326 18.1869C20.3326 18.9966 21.2065 19.526 23.3131 20.3045C26.2467 21.3633 27.4326 22.7336 27.4326 24.9602Z" fill="#BD7C32"/>
</g>
<defs>
<clipPath id="clip0_513_10589">
<rect width="166" height="45" fill="white"/>
</clipPath>
</defs>
</svg>
