<svg width="375" height="198" viewBox="0 0 375 198" fill="none" xmlns="http://www.w3.org/2000/svg">
<path d="M16.7661 105.702C-21.7802 64.8496 -79.8056 60.7416 -104 63.7941V253H504V90.8014C485.468 73.9865 424.653 53.4258 329.646 105.702C210.887 171.047 64.9489 156.767 16.7661 105.702Z" fill="#F4FAFF" fill-opacity="0.7"/>
<g filter="url(#filter0_d_592_11313)">
<path d="M-112 123.797C-30.6453 134.218 -14.4053 202.498 77.7761 197.521C169.957 192.543 199.344 68.893 354.63 123.797C474.903 166.322 506.007 128.789 506.976 102.549V100C507.008 100.835 507.008 101.686 506.976 102.549V270H-105.04L-112 123.797Z" fill="#EEF7FF"/>
</g>
<defs>
<filter id="filter0_d_592_11313" x="-112" y="0" width="819" height="370" filterUnits="userSpaceOnUse" color-interpolation-filters="sRGB">
<feFlood flood-opacity="0" result="BackgroundImageFix"/>
<feColorMatrix in="SourceAlpha" type="matrix" values="0 0 0 0 0 0 0 0 0 0 0 0 0 0 0 0 0 0 127 0" result="hardAlpha"/>
<feOffset dx="100"/>
<feGaussianBlur stdDeviation="50"/>
<feComposite in2="hardAlpha" operator="out"/>
<feColorMatrix type="matrix" values="0 0 0 0 0.329412 0 0 0 0 0.658824 0 0 0 0 0.960784 0 0 0 0.15 0"/>
<feBlend mode="normal" in2="BackgroundImageFix" result="effect1_dropShadow_592_11313"/>
<feBlend mode="normal" in="SourceGraphic" in2="effect1_dropShadow_592_11313" result="shape"/>
</filter>
</defs>
</svg>
