<svg width="106" height="106" viewBox="0 0 106 106" fill="none" xmlns="http://www.w3.org/2000/svg">
<g clip-path="url(#clip0_1903_9891)">
<path d="M50.2676 60.8031C47.6679 64.6356 45.248 68.7991 43.9981 73.6076C43.9752 73.3251 43.941 73.0454 43.9296 72.7629C43.9182 72.4433 43.9296 72.1208 43.9239 71.8012C43.8839 69.9806 43.1163 69.1644 41.3242 69.1473C38.7616 69.1188 36.1961 69.1188 33.6335 69.1473C31.9298 69.1673 31.1594 69.9634 31.1223 71.6443C31.1051 72.4975 31.0937 73.3536 31.128 74.2069C31.185 75.6166 32.0183 76.4727 33.4166 76.487C36.1219 76.5155 38.83 76.5526 41.5325 76.4584C42.2716 76.4327 42.9964 75.9562 43.7412 75.6794C42.9137 80.5478 43.4987 85.5046 45.4306 90.3758C44.9712 90.3958 44.6573 90.4243 44.3434 90.4243C32.9515 90.4243 21.5596 90.4358 10.1648 90.4215C5.2679 90.4158 1.48106 87.6135 0.336737 83.1532C0.108443 82.2685 0.0114176 81.3268 0.0114176 80.4108C2.83063e-06 56.9564 -0.00285085 33.4934 0.00571019 10.0333C0.00856387 4.2717 4.22345 0.0339868 9.96791 0.0282794C28.3371 0.014011 46.7091 0.014011 65.0782 0.0282794C70.7399 0.0339868 74.9291 4.20892 74.9976 9.85065C75.0176 11.4145 75.0005 12.9754 75.0005 14.6134C72.2895 15.2527 70.3004 16.7794 69.1789 19.1508C67.5295 19.0138 65.9885 18.8826 64.2992 18.7427C64.2992 18.172 64.3049 17.4015 64.2992 16.631C64.2849 14.8075 63.4516 13.9571 61.6138 13.9542C55.5612 13.9457 49.5085 13.9514 43.4559 13.9514C33.5593 13.9514 23.6627 13.9514 13.7633 13.9514C11.4461 13.9514 10.7042 14.6962 10.7042 17.0191C10.7042 19.439 10.7013 21.8618 10.7042 24.2817C10.707 26.4277 11.4518 27.1811 13.5864 27.1811C28.0403 27.1811 42.4942 27.1868 56.9481 27.1696C57.8042 27.1696 58.2522 27.2667 58.3863 28.3054C58.6289 30.1746 59.7333 31.6385 61.1059 32.8941C61.6566 33.3992 62.196 33.9157 62.6526 34.3495C61.6652 35.491 60.772 36.564 59.8217 37.5884C59.6505 37.7739 59.2624 37.8281 58.9713 37.8281C56.657 37.8481 54.3427 37.831 52.0283 37.8396C50.3133 37.8453 49.4828 38.6586 49.4343 40.3793C49.4115 41.1612 49.4058 41.946 49.4343 42.7279C49.4943 44.3431 50.2876 45.1507 51.8999 45.1821C53.8575 45.2163 55.8237 45.3019 57.7728 45.1593C59.3851 45.0394 60.5038 45.5131 61.1572 47.1026C59.4622 49.0859 57.7214 51.1463 55.9436 53.1752C55.7723 53.3721 55.3814 53.4463 55.0903 53.4578C54.023 53.492 52.9529 53.4492 51.8856 53.4777C50.3532 53.5205 49.5085 54.3395 49.44 55.8577C49.4001 56.7452 49.3373 57.6498 49.46 58.523C49.5599 59.2222 49.9252 59.8842 50.259 60.8088L50.2676 60.8031ZM19.2395 53.4663C17.8897 53.4663 16.5399 53.4378 15.1901 53.4749C13.6663 53.5148 12.8273 54.3738 12.7931 55.8777C12.7731 56.7652 12.7674 57.6555 12.7931 58.543C12.8359 59.9213 13.6691 60.8231 15.0617 60.8459C17.7956 60.8916 20.5322 60.8916 23.2689 60.8459C24.6501 60.826 25.5062 59.9385 25.5804 58.5573C25.6261 57.7069 25.6118 56.8508 25.589 56.0004C25.549 54.3766 24.6901 53.5034 23.072 53.4692C21.7936 53.4435 20.5151 53.4635 19.2338 53.4635L19.2395 53.4663ZM37.4603 60.8631C38.7387 60.8631 40.0172 60.8631 41.2956 60.8631C41.367 60.8631 41.4383 60.8631 41.5097 60.8631C42.9764 60.7946 43.8297 60.0041 43.9096 58.5516C43.961 57.5956 43.9638 56.6311 43.8982 55.6779C43.8097 54.3795 43.005 53.5234 41.7208 53.4977C38.9157 53.4406 36.1076 53.4406 33.3053 53.4977C31.9812 53.5262 31.1907 54.4337 31.1337 55.7864C31.1023 56.6025 31.1108 57.4187 31.1251 58.2377C31.1508 60.0298 31.9584 60.8459 33.7305 60.8659C34.9747 60.8802 36.2161 60.8688 37.4603 60.8659V60.8631ZM19.2281 37.8339C17.8783 37.8339 16.5285 37.8167 15.1787 37.8367C13.6691 37.8595 12.8273 38.7128 12.7931 40.2309C12.7731 41.0842 12.7731 41.9374 12.7931 42.7878C12.8273 44.2803 13.5978 45.1421 15.076 45.165C17.8098 45.2106 20.5465 45.2106 23.2803 45.165C24.73 45.1393 25.5319 44.2632 25.5918 42.7821C25.6232 41.966 25.6175 41.147 25.5947 40.3308C25.5519 38.7042 24.6843 37.8481 23.0663 37.8339C21.7879 37.8224 20.5094 37.8339 19.231 37.8339H19.2281ZM19.1168 76.5012C20.5008 76.5012 21.8877 76.5269 23.2718 76.4927C24.6044 76.4613 25.4862 75.6451 25.5747 74.321C25.6403 73.3308 25.6346 72.3292 25.5747 71.3389C25.5005 70.089 24.71 69.2129 23.4972 69.1901C20.6236 69.1302 17.7442 69.1302 14.8705 69.1901C13.6206 69.2158 12.8558 70.0805 12.8045 71.3247C12.7645 72.2464 12.7759 73.171 12.7931 74.0956C12.8244 75.6137 13.6663 76.4698 15.173 76.4984C16.4857 76.5212 17.8013 76.5041 19.1168 76.5012ZM37.4917 37.8367C36.1076 37.8367 34.7207 37.8082 33.3367 37.8453C32.0611 37.8795 31.2107 38.7099 31.1451 39.9855C31.0937 40.9415 31.1023 41.9032 31.1337 42.862C31.1822 44.3031 31.947 45.1421 33.3767 45.165C36.1447 45.2135 38.9157 45.2106 41.6866 45.165C43.0021 45.1421 43.7983 44.346 43.8925 43.0333C43.9638 42.043 43.9638 41.0442 43.901 40.054C43.8154 38.6614 42.9393 37.8652 41.5382 37.8424C40.1884 37.8196 38.8386 37.8367 37.4888 37.8396L37.4917 37.8367Z" fill="white" fill-opacity="0.5"/>
<path d="M76.3532 105.98C67.9805 105.94 60.501 103.469 54.4369 97.5331C45.8131 89.0862 44.4005 77.3404 50.5759 66.7447C54.2885 60.3753 58.9857 54.7536 63.8854 49.2888C64.0909 49.0605 64.5389 48.9435 64.8699 48.952C65.863 48.9691 66.8533 49.1347 67.8435 49.1375C73.7535 49.1575 79.6634 49.1489 85.5734 49.1432C86.0699 49.1432 86.6036 49.2146 87.0573 49.0633C88.1303 48.7066 88.7752 49.089 89.4915 49.9137C94.0431 55.1616 98.5177 60.4666 102.019 66.4993C106.574 74.3412 107.493 82.4599 103.332 90.7299C99.839 97.6729 94.0488 102.019 86.7605 104.442C83.3903 105.56 79.906 106.014 76.3532 105.98V105.98ZM71.5048 70.1035C71.5133 68.6881 72.1925 67.6322 73.4795 66.9302C76.336 65.3692 79.7833 66.3994 81.3357 69.2816C82.0091 70.5287 83.0736 70.9682 84.1294 70.4345C85.1653 69.9095 85.4593 68.7566 84.8628 67.4924C83.7927 65.218 82.0662 63.6057 79.6805 62.878C78.5591 62.5355 78.1681 62.0818 78.2195 60.9261C78.2708 59.7247 77.409 58.9627 76.2989 58.9599C75.1575 58.957 74.2728 59.776 74.3556 61.0145C74.4298 62.1417 74.1045 62.7353 72.9516 62.8694C72.5806 62.9122 72.2182 63.1348 71.8729 63.3146C69.0905 64.7785 67.4725 67.013 67.541 70.2262C67.6095 73.4024 69.3959 75.4656 72.2153 76.6213C73.548 77.1692 75.0262 77.3576 76.4074 77.797C77.7829 78.2336 79.2639 78.5647 80.4482 79.3295C82.6056 80.7306 82.3202 83.5872 79.9631 84.6059C78.8187 85.0996 77.5089 85.3821 76.2618 85.4221C73.4681 85.5105 71.5133 84.1579 70.68 81.8407C70.2035 80.5166 69.2075 79.9459 68.0575 80.3397C66.9931 80.7049 66.5165 81.7865 66.9189 83.0706C67.8292 85.97 69.8097 87.8876 72.6633 88.7552C73.9018 89.1319 74.4983 89.5371 74.3698 90.9325C74.2757 91.9456 75.2288 92.7047 76.2362 92.7303C77.2578 92.756 78.0711 92.0626 78.2166 91.0267C78.2566 90.747 78.2851 90.4531 78.2509 90.1763C78.1595 89.4515 78.5048 89.2374 79.1726 89.0634C80.1942 88.798 81.2301 88.4527 82.149 87.9419C86.7291 85.3964 87.1229 79.3894 82.9594 76.1933C81.2758 74.9005 79.301 74.3641 77.272 73.916C75.9593 73.6249 74.6409 73.2996 73.3939 72.8088C72.1925 72.3351 71.4562 71.382 71.499 70.1007L71.5048 70.1035Z" fill="white" fill-opacity="0.5"/>
<path d="M76.3759 33.5765C73.4223 33.5765 70.4687 33.605 67.5152 33.5508C67.0158 33.5422 66.4194 33.2939 66.0427 32.9601C64.9811 32.0155 63.9995 30.9796 63.0092 29.958C61.3398 28.2315 61.1372 25.8572 62.4842 24.028C63.814 22.2217 66.1882 21.728 68.3085 22.8209C70.1634 23.7769 71.4019 23.249 72.0525 21.2286C72.7003 19.211 74.3983 17.944 76.4272 17.9611C78.3934 17.9782 80.06 19.2567 80.6935 21.2314C81.3384 23.2518 82.5798 23.7769 84.4404 22.8209C86.5236 21.7508 88.8579 22.2074 90.2048 23.9453C91.5946 25.7402 91.4547 28.1488 89.8139 29.8838C88.7637 30.9967 87.6822 32.0811 86.5607 33.117C86.2667 33.3881 85.7588 33.5508 85.345 33.5565C82.3572 33.5936 79.3665 33.5765 76.3787 33.5765H76.3759Z" fill="white" fill-opacity="0.5"/>
<path d="M76.3073 45.727C73.214 45.727 70.1177 45.7328 67.0243 45.727C64.2334 45.7185 62.2929 43.8978 62.3129 41.321C62.3329 38.7955 64.2648 37.0005 66.9958 36.9976C73.2568 36.9891 79.5177 36.9891 85.7759 36.9976C88.4897 37.0005 90.4331 38.8268 90.4416 41.3495C90.4502 43.8693 88.504 45.7156 85.8016 45.727C82.6368 45.7385 79.4692 45.727 76.3045 45.7299L76.3073 45.727Z" fill="white" fill-opacity="0.5"/>
</g>
<defs>
<clipPath id="clip0_1903_9891">
<rect width="106" height="106" fill="white"/>
</clipPath>
</defs>
</svg>
