<svg width="114" height="114" viewBox="0 0 114 114" fill="none" xmlns="http://www.w3.org/2000/svg">
<g clip-path="url(#clip0_1903_9870)">
<path d="M46.9644 114C42.8352 110.669 38.7179 107.323 34.553 104.04C34.1895 103.754 33.5013 103.793 32.974 103.823C28.4098 104.064 23.8516 104.341 19.2874 104.6C18.8823 104.624 18.4771 104.603 17.8872 104.603C20.9201 95.1173 23.9291 85.7146 26.944 76.2881C28.246 76.5086 29.1874 76.9495 29.8607 78.1323C31.4188 80.8732 33.1557 83.5129 34.7854 86.2151C35.1339 86.7961 35.4706 87.0076 36.1975 86.9063C39.4717 86.4564 42.7518 86.0602 46.0379 85.7265C46.6427 85.6639 47.3666 85.8427 47.891 86.1555C49.8692 87.3324 51.7669 88.6403 53.7362 89.832C54.4304 90.2521 54.5823 90.6275 54.3231 91.4229C51.9993 98.5464 49.7262 105.685 47.4441 112.823C47.3219 113.205 47.2713 113.61 47.1879 114.003H46.9644V114Z" fill="white" fill-opacity="0.5"/>
<path d="M66.8121 114C65.957 111.206 65.1228 108.405 64.241 105.619C62.7424 100.879 61.2379 96.1452 59.6768 91.426C59.4117 90.6246 59.5815 90.2551 60.2697 89.841C62.1764 88.688 64.0533 87.4904 65.9004 86.245C66.6274 85.7564 67.3364 85.5866 68.1914 85.6998C71.3941 86.1169 74.6057 86.4625 77.8054 86.9094C78.5294 87.0107 78.866 86.7962 79.2146 86.2152C80.8442 83.513 82.5841 80.8733 84.1392 78.1324C84.8125 76.9436 85.7748 76.5414 87.0499 76.2822C90.0619 85.6968 93.065 95.0816 96.1217 104.633C94.072 104.532 92.1653 104.446 90.2586 104.338C87.0321 104.16 83.8056 103.96 80.5791 103.796C80.1977 103.778 79.7121 103.814 79.438 104.031C75.285 107.333 71.1617 110.669 67.0325 114H66.8091H66.8121Z" fill="white" fill-opacity="0.5"/>
<path d="M39.0785 4.00733C42.1441 4.38272 44.9058 4.74918 47.6765 5.03519C48.2128 5.0918 48.8652 4.96964 49.3211 4.69257C51.6687 3.2625 53.9806 1.77583 56.2746 0.265327C56.8227 -0.095168 57.21 -0.0862301 57.7523 0.271286C60.0165 1.76094 62.2956 3.23271 64.6104 4.63894C65.096 4.93389 65.7813 5.08584 66.3503 5.02923C69.0465 4.76407 71.7367 4.41847 74.424 4.06394C75.0794 3.97754 75.428 4.19801 75.7587 4.75216C77.15 7.07899 78.5621 9.39391 80.0309 11.6701C80.3229 12.12 80.8412 12.5341 81.3477 12.7188C83.9247 13.6603 86.5286 14.5392 89.1354 15.3942C89.7134 15.5849 89.9577 15.8441 90.0173 16.4697C90.2764 19.2792 90.5744 22.0887 90.914 24.8893C90.9647 25.3183 91.2209 25.7979 91.5307 26.1078C93.4642 28.0622 95.4216 29.9988 97.4147 31.8906C97.9331 32.3822 97.9897 32.7904 97.7483 33.4279C96.795 35.9633 95.8625 38.5076 94.9955 41.0728C94.8227 41.5793 94.8227 42.2467 94.9955 42.7531C95.8774 45.3541 96.8248 47.9312 97.7841 50.5023C97.9926 51.0624 97.936 51.4199 97.4832 51.8519C95.4722 53.7825 93.4881 55.7399 91.5367 57.7331C91.2089 58.0668 90.9587 58.5911 90.9021 59.0559C90.5625 61.8207 90.2586 64.5914 90.0202 67.3652C89.9577 68.0832 89.5793 68.2917 89.0192 68.4794C86.4511 69.3434 83.8801 70.1925 81.3358 71.1191C80.8323 71.3038 80.3139 71.7179 80.022 72.1678C78.5711 74.4142 77.1738 76.6934 75.8064 78.9904C75.4369 79.6101 75.1003 79.8484 74.3197 79.7382C71.5997 79.3479 68.8677 79.044 66.1328 78.7729C65.6651 78.7252 65.099 78.8772 64.6938 79.1274C62.385 80.5456 60.091 81.9935 57.8357 83.4951C57.2011 83.9182 56.7751 83.8884 56.1584 83.4802C53.9627 82.0233 51.7432 80.5962 49.4849 79.2377C48.9636 78.9219 48.2366 78.7461 47.6318 78.7997C44.9714 79.044 42.3139 79.3658 39.6684 79.7382C38.9653 79.8365 38.6048 79.6786 38.2443 79.0768C36.8947 76.8125 35.5302 74.5542 34.0793 72.3525C33.7069 71.7894 33.0753 71.2621 32.4467 71.0267C29.9829 70.1031 27.4774 69.2749 24.9719 68.4735C24.2449 68.2411 24.0334 67.8597 23.9708 67.1268C23.7295 64.3531 23.4227 61.5823 23.086 58.8175C23.0383 58.4273 22.7553 58.0042 22.4663 57.7122C20.5566 55.7846 18.641 53.86 16.6717 51.9979C16.0878 51.4438 16.0401 50.9879 16.3083 50.2789C17.2408 47.815 18.1435 45.3392 18.9717 42.8395C19.1594 42.2675 19.1505 41.5287 18.9598 40.9536C18.1047 38.3855 17.1663 35.8441 16.2189 33.3058C16.0074 32.7367 16.0848 32.3822 16.5317 31.9562C18.495 30.0822 20.4434 28.1933 22.3293 26.2448C22.7464 25.8158 23.0413 25.1336 23.1188 24.5347C23.4703 21.8474 23.7474 19.1481 23.9917 16.4489C24.0513 15.8054 24.3432 15.576 24.8974 15.3912C27.4684 14.5392 30.0365 13.6781 32.5778 12.7456C33.1141 12.549 33.6771 12.1259 33.987 11.6492C35.4617 9.37603 36.8411 7.04026 38.289 4.74918C38.5065 4.40358 38.9027 4.17417 39.0844 4.01031L39.0785 4.00733ZM28.1566 41.916C28.1686 57.8552 41.0746 70.7556 57.0104 70.7526C72.9463 70.7496 85.8732 57.8135 85.8463 41.8981C85.8195 25.9558 72.8957 13.0227 56.9926 13.0316C41.0895 13.0406 28.1447 26.0065 28.1566 41.916V41.916Z" fill="white" fill-opacity="0.5"/>
<path d="M79.149 41.8618C79.1907 54.068 69.3056 64.0219 57.1027 64.0636C44.8224 64.1053 34.8867 54.2319 34.8509 41.9542C34.8152 29.7212 44.7896 19.7137 57.0104 19.7256C69.2014 19.7345 79.1073 29.6407 79.149 41.8618Z" fill="white" fill-opacity="0.5"/>
</g>
<defs>
<clipPath id="clip0_1903_9870">
<rect width="114" height="114" fill="white"/>
</clipPath>
</defs>
</svg>
