<svg width="1920" height="242" viewBox="0 0 1920 242" fill="none" xmlns="http://www.w3.org/2000/svg">
<g filter="url(#filter0_d_1346_9761)">
<path d="M413.17 234.63C444.5 239.76 475.77 242 507 242H0V129.2C22.01 132.31 44.63 138.68 65.14 143.36C182.12 170.07 294.45 215.21 413.17 234.63Z" fill="white"/>
</g>
<g filter="url(#filter1_d_1346_9761)">
<path d="M1920 120.73V242H507C651.8 242 795.69 193.73 940.49 160.66C970.8 153.73 1001.15 147.47 1031.56 142.46C1083.57 133.89 1135.83 128.99 1188.26 126.54C1411.02 116.09 1636.94 149.69 1860.24 132.67C1880.59 131.13 1901.51 128.96 1920 120.73Z" fill="white"/>
</g>
<defs>
<filter id="filter0_d_1346_9761" x="-70" y="9.2002" width="647" height="252.8" filterUnits="userSpaceOnUse" color-interpolation-filters="sRGB">
<feFlood flood-opacity="0" result="BackgroundImageFix"/>
<feColorMatrix in="SourceAlpha" type="matrix" values="0 0 0 0 0 0 0 0 0 0 0 0 0 0 0 0 0 0 127 0" result="hardAlpha"/>
<feOffset dy="-50"/>
<feGaussianBlur stdDeviation="35"/>
<feComposite in2="hardAlpha" operator="out"/>
<feColorMatrix type="matrix" values="0 0 0 0 0.329412 0 0 0 0 0.658824 0 0 0 0 0.960784 0 0 0 0.1 0"/>
<feBlend mode="normal" in2="BackgroundImageFix" result="effect1_dropShadow_1346_9761"/>
<feBlend mode="normal" in="SourceGraphic" in2="effect1_dropShadow_1346_9761" result="shape"/>
</filter>
<filter id="filter1_d_1346_9761" x="437" y="0.730469" width="1553" height="261.27" filterUnits="userSpaceOnUse" color-interpolation-filters="sRGB">
<feFlood flood-opacity="0" result="BackgroundImageFix"/>
<feColorMatrix in="SourceAlpha" type="matrix" values="0 0 0 0 0 0 0 0 0 0 0 0 0 0 0 0 0 0 127 0" result="hardAlpha"/>
<feOffset dy="-50"/>
<feGaussianBlur stdDeviation="35"/>
<feComposite in2="hardAlpha" operator="out"/>
<feColorMatrix type="matrix" values="0 0 0 0 0.329412 0 0 0 0 0.658824 0 0 0 0 0.960784 0 0 0 0.1 0"/>
<feBlend mode="normal" in2="BackgroundImageFix" result="effect1_dropShadow_1346_9761"/>
<feBlend mode="normal" in="SourceGraphic" in2="effect1_dropShadow_1346_9761" result="shape"/>
</filter>
</defs>
</svg>
