<svg width="1920" height="444" viewBox="0 0 1920 444" fill="none" xmlns="http://www.w3.org/2000/svg">
<g filter="url(#filter0_d_1346_9759)">
<path d="M1920 354.63V444H0V354.63C6.37 349.81 14.51 343.37 24.43 335.71C75.15 296.58 172.47 225.67 318.26 177.85C422.39 143.68 551.24 121.28 705.5 130.63C998.79 148.41 1107.06 237.21 1252.43 308.79C1264.7 314.84 1277.25 320.76 1290.19 326.5C1339.53 348.43 1394.66 367.78 1463 381.63C1761.5 442.13 1920 354.63 1920 354.63Z" fill="#F4FAFF" fill-opacity="0.7" shape-rendering="crispEdges"/>
</g>
<g filter="url(#filter1_d_1346_9759)">
<path d="M1920 145.14V444H0V73.2395C18.57 71.6695 37.02 70.0195 55.61 70.0195C67.97 70.0195 80.4 70.7495 92.95 72.7195C134.24 79.1995 174.05 93.9395 211.19 112.85C265.71 140.62 315.39 176.77 366.88 209.89C380.2 218.45 393.64 226.82 407.31 234.78C523.96 302.69 656.62 340.49 790.75 355.54C840.38 361.11 890.48 363.57 940.49 362.66C1024.21 361.15 1107.68 350.19 1188.26 328.54C1224.76 318.74 1260.66 306.74 1295.73 292.43C1402.95 248.69 1501.13 184.16 1610.24 145.36C1651.07 130.84 1693.63 120.64 1736.8 116.51C1792.31 111.2 1849.69 116.02 1901.57 137.48C1907.82 140.06 1914.16 142.42 1920 145.14Z" fill="#F4FAFF" fill-opacity="0.7" shape-rendering="crispEdges"/>
</g>
<g filter="url(#filter2_d_1346_9759)">
<path d="M413.17 436.63C444.5 441.76 475.77 444 507 444H0V331.2C22.01 334.31 44.63 340.68 65.14 345.36C182.12 372.07 294.45 417.21 413.17 436.63Z" fill="white"/>
</g>
<g filter="url(#filter3_d_1346_9759)">
<path d="M1920 322.73V444H507C651.8 444 795.69 395.73 940.49 362.66C970.8 355.73 1001.15 349.47 1031.56 344.46C1083.57 335.89 1135.83 330.99 1188.26 328.54C1411.02 318.09 1636.94 351.69 1860.24 334.67C1880.59 333.13 1901.51 330.96 1920 322.73Z" fill="white"/>
</g>
<defs>
<filter id="filter0_d_1346_9759" x="-70" y="58.4961" width="2060" height="455.504" filterUnits="userSpaceOnUse" color-interpolation-filters="sRGB">
<feFlood flood-opacity="0" result="BackgroundImageFix"/>
<feColorMatrix in="SourceAlpha" type="matrix" values="0 0 0 0 0 0 0 0 0 0 0 0 0 0 0 0 0 0 127 0" result="hardAlpha"/>
<feOffset/>
<feGaussianBlur stdDeviation="35"/>
<feComposite in2="hardAlpha" operator="out"/>
<feColorMatrix type="matrix" values="0 0 0 0 0.329412 0 0 0 0 0.658824 0 0 0 0 0.960784 0 0 0 0.15 0"/>
<feBlend mode="normal" in2="BackgroundImageFix" result="effect1_dropShadow_1346_9759"/>
<feBlend mode="normal" in="SourceGraphic" in2="effect1_dropShadow_1346_9759" result="shape"/>
</filter>
<filter id="filter1_d_1346_9759" x="-70" y="0.0195312" width="2060" height="513.98" filterUnits="userSpaceOnUse" color-interpolation-filters="sRGB">
<feFlood flood-opacity="0" result="BackgroundImageFix"/>
<feColorMatrix in="SourceAlpha" type="matrix" values="0 0 0 0 0 0 0 0 0 0 0 0 0 0 0 0 0 0 127 0" result="hardAlpha"/>
<feOffset/>
<feGaussianBlur stdDeviation="35"/>
<feComposite in2="hardAlpha" operator="out"/>
<feColorMatrix type="matrix" values="0 0 0 0 0.329412 0 0 0 0 0.658824 0 0 0 0 0.960784 0 0 0 0.15 0"/>
<feBlend mode="normal" in2="BackgroundImageFix" result="effect1_dropShadow_1346_9759"/>
<feBlend mode="normal" in="SourceGraphic" in2="effect1_dropShadow_1346_9759" result="shape"/>
</filter>
<filter id="filter2_d_1346_9759" x="-70" y="211.2" width="647" height="252.8" filterUnits="userSpaceOnUse" color-interpolation-filters="sRGB">
<feFlood flood-opacity="0" result="BackgroundImageFix"/>
<feColorMatrix in="SourceAlpha" type="matrix" values="0 0 0 0 0 0 0 0 0 0 0 0 0 0 0 0 0 0 127 0" result="hardAlpha"/>
<feOffset dy="-50"/>
<feGaussianBlur stdDeviation="35"/>
<feComposite in2="hardAlpha" operator="out"/>
<feColorMatrix type="matrix" values="0 0 0 0 0.329412 0 0 0 0 0.658824 0 0 0 0 0.960784 0 0 0 0.1 0"/>
<feBlend mode="normal" in2="BackgroundImageFix" result="effect1_dropShadow_1346_9759"/>
<feBlend mode="normal" in="SourceGraphic" in2="effect1_dropShadow_1346_9759" result="shape"/>
</filter>
<filter id="filter3_d_1346_9759" x="437" y="202.73" width="1553" height="261.27" filterUnits="userSpaceOnUse" color-interpolation-filters="sRGB">
<feFlood flood-opacity="0" result="BackgroundImageFix"/>
<feColorMatrix in="SourceAlpha" type="matrix" values="0 0 0 0 0 0 0 0 0 0 0 0 0 0 0 0 0 0 127 0" result="hardAlpha"/>
<feOffset dy="-50"/>
<feGaussianBlur stdDeviation="35"/>
<feComposite in2="hardAlpha" operator="out"/>
<feColorMatrix type="matrix" values="0 0 0 0 0.329412 0 0 0 0 0.658824 0 0 0 0 0.960784 0 0 0 0.1 0"/>
<feBlend mode="normal" in2="BackgroundImageFix" result="effect1_dropShadow_1346_9759"/>
<feBlend mode="normal" in="SourceGraphic" in2="effect1_dropShadow_1346_9759" result="shape"/>
</filter>
</defs>
</svg>
