<svg width="1920" height="432" viewBox="0 0 1920 432" fill="none" xmlns="http://www.w3.org/2000/svg">
<g clip-path="url(#clip0_948_11762)">
<path d="M1920 80.6299V431.96H530.6C527 432.02 523.39 432.02 519.78 431.96H0V1.17986C5.85 0.599863 11.88 0.359863 17.99 0.359863C37.64 0.359863 58.02 2.82986 75.5 4.81986C135.93 11.6899 194.99 30.9099 247.59 61.4899C285.74 83.6599 320.22 111.36 355.2 138.35C377.77 155.76 400.54 172.88 424.64 188.03C522.84 249.75 639.84 276.47 755.7 281.78C792.11 283.45 828.51 283.09 864.8 280.88C1012.58 271.88 1158.45 232.16 1294.71 173.35C1308.25 167.5 1321.73 161.47 1335.16 155.32C1424.49 114.5 1512.23 69.0799 1607.3 45.1499C1635.03 38.1699 1663.33 33.3599 1691.84 31.0799C1748.1 26.5899 1806.03 31.7399 1859.04 51.9799C1873.82 57.6199 1903.13 67.7399 1920 80.6299V80.6299Z" fill="#F4FAFF" fill-opacity="0.7"/>
<g filter="url(#filter0_d_948_11762)">
<path d="M353 391.04C404.43 417.37 462.03 431.16 519.78 432H0V192.14C16.86 188.87 47.97 200.21 61.8 204.55C105.14 218.13 144.69 242.06 181.19 268.66C238.1 310.13 290.32 358.94 353 391.04V391.04Z" fill="#EEF7FF"/>
</g>
<g filter="url(#filter1_d_948_11762)">
<path d="M1920 174.29V432H530.602C570.712 431.46 610.732 424.66 648.622 411.45C728.462 383.62 795.702 330.36 864.802 280.93C878.112 271.4 891.482 262.02 905.032 252.99C994.232 193.54 1095.86 147.62 1202.95 143C1247.67 141.07 1291.61 146.29 1335.16 155.37C1472.34 183.97 1605.56 250.87 1746.54 253.27C1790.8 254.02 1836.74 247.75 1874.14 224.08C1893.65 211.74 1909.7 194.4 1920 174.29V174.29Z" fill="#EEF7FF"/>
</g>
</g>
<defs>
<filter id="filter0_d_948_11762" x="0" y="91.5562" width="719.781" height="440.444" filterUnits="userSpaceOnUse" color-interpolation-filters="sRGB">
<feFlood flood-opacity="0" result="BackgroundImageFix"/>
<feColorMatrix in="SourceAlpha" type="matrix" values="0 0 0 0 0 0 0 0 0 0 0 0 0 0 0 0 0 0 127 0" result="hardAlpha"/>
<feOffset dx="100"/>
<feGaussianBlur stdDeviation="50"/>
<feComposite in2="hardAlpha" operator="out"/>
<feColorMatrix type="matrix" values="0 0 0 0 0.329412 0 0 0 0 0.658824 0 0 0 0 0.960784 0 0 0 0.15 0"/>
<feBlend mode="normal" in2="BackgroundImageFix" result="effect1_dropShadow_948_11762"/>
<feBlend mode="normal" in="SourceGraphic" in2="effect1_dropShadow_948_11762" result="shape"/>
</filter>
<filter id="filter1_d_948_11762" x="530.602" y="42.6006" width="1589.4" height="489.399" filterUnits="userSpaceOnUse" color-interpolation-filters="sRGB">
<feFlood flood-opacity="0" result="BackgroundImageFix"/>
<feColorMatrix in="SourceAlpha" type="matrix" values="0 0 0 0 0 0 0 0 0 0 0 0 0 0 0 0 0 0 127 0" result="hardAlpha"/>
<feOffset dx="100"/>
<feGaussianBlur stdDeviation="50"/>
<feComposite in2="hardAlpha" operator="out"/>
<feColorMatrix type="matrix" values="0 0 0 0 0.329412 0 0 0 0 0.658824 0 0 0 0 0.960784 0 0 0 0.15 0"/>
<feBlend mode="normal" in2="BackgroundImageFix" result="effect1_dropShadow_948_11762"/>
<feBlend mode="normal" in="SourceGraphic" in2="effect1_dropShadow_948_11762" result="shape"/>
</filter>
<clipPath id="clip0_948_11762">
<rect width="1920" height="432" fill="white"/>
</clipPath>
</defs>
</svg>
