<svg width="1920" height="972" viewBox="0 0 1920 972" fill="none" xmlns="http://www.w3.org/2000/svg">
<rect width="1920" height="972" fill="#EEF7FF"/>
<g clip-path="url(#clip0_552_3543)">
<g filter="url(#filter0_d_552_3543)">
<path d="M1920 620.63V971.96H530.6C527 972.02 523.39 972.02 519.78 971.96H0V541.18C5.85 540.6 11.88 540.36 17.99 540.36C37.64 540.36 58.02 542.83 75.5 544.82C135.93 551.69 194.99 570.91 247.59 601.49C285.74 623.66 320.22 651.36 355.2 678.35C377.77 695.76 400.54 712.88 424.64 728.03C522.84 789.75 639.84 816.47 755.7 821.78C792.11 823.45 828.51 823.09 864.8 820.88C1012.58 811.88 1158.45 772.16 1294.71 713.35C1308.25 707.5 1321.73 701.47 1335.16 695.32C1424.49 654.5 1512.23 609.08 1607.3 585.15C1635.03 578.17 1663.33 573.36 1691.84 571.08C1748.1 566.59 1806.03 571.74 1859.04 591.98C1873.82 597.62 1903.13 607.74 1920 620.63Z" fill="#F4FAFF" fill-opacity="0.7" shape-rendering="crispEdges"/>
</g>
<g filter="url(#filter1_d_552_3543)">
<path d="M353 931.04C404.43 957.37 462.03 971.16 519.78 972H0V732.14C16.86 728.87 47.97 740.21 61.8 744.55C105.14 758.13 144.69 782.06 181.19 808.66C238.1 850.13 290.32 898.94 353 931.04Z" fill="white"/>
</g>
<g filter="url(#filter2_d_552_3543)">
<path d="M1920 714.29V972H530.6C570.71 971.46 610.73 964.66 648.62 951.45C728.46 923.62 795.7 870.36 864.8 820.93C878.11 811.4 891.48 802.02 905.03 792.99C994.23 733.54 1095.86 687.62 1202.95 683C1247.67 681.07 1291.61 686.29 1335.16 695.37C1472.34 723.97 1605.56 790.87 1746.54 793.27C1790.8 794.02 1836.74 787.75 1874.14 764.08C1893.65 751.74 1909.7 734.4 1920 714.29Z" fill="white"/>
</g>
</g>
<defs>
<filter id="filter0_d_552_3543" x="-70" y="470.36" width="2060" height="571.645" filterUnits="userSpaceOnUse" color-interpolation-filters="sRGB">
<feFlood flood-opacity="0" result="BackgroundImageFix"/>
<feColorMatrix in="SourceAlpha" type="matrix" values="0 0 0 0 0 0 0 0 0 0 0 0 0 0 0 0 0 0 127 0" result="hardAlpha"/>
<feOffset/>
<feGaussianBlur stdDeviation="35"/>
<feComposite in2="hardAlpha" operator="out"/>
<feColorMatrix type="matrix" values="0 0 0 0 0.329412 0 0 0 0 0.658824 0 0 0 0 0.960784 0 0 0 0.15 0"/>
<feBlend mode="normal" in2="BackgroundImageFix" result="effect1_dropShadow_552_3543"/>
<feBlend mode="normal" in="SourceGraphic" in2="effect1_dropShadow_552_3543" result="shape"/>
</filter>
<filter id="filter1_d_552_3543" x="0" y="631.556" width="719.779" height="440.444" filterUnits="userSpaceOnUse" color-interpolation-filters="sRGB">
<feFlood flood-opacity="0" result="BackgroundImageFix"/>
<feColorMatrix in="SourceAlpha" type="matrix" values="0 0 0 0 0 0 0 0 0 0 0 0 0 0 0 0 0 0 127 0" result="hardAlpha"/>
<feOffset dx="100"/>
<feGaussianBlur stdDeviation="50"/>
<feComposite in2="hardAlpha" operator="out"/>
<feColorMatrix type="matrix" values="0 0 0 0 0.329412 0 0 0 0 0.658824 0 0 0 0 0.960784 0 0 0 0.15 0"/>
<feBlend mode="normal" in2="BackgroundImageFix" result="effect1_dropShadow_552_3543"/>
<feBlend mode="normal" in="SourceGraphic" in2="effect1_dropShadow_552_3543" result="shape"/>
</filter>
<filter id="filter2_d_552_3543" x="460.6" y="562.601" width="1529.4" height="429.399" filterUnits="userSpaceOnUse" color-interpolation-filters="sRGB">
<feFlood flood-opacity="0" result="BackgroundImageFix"/>
<feColorMatrix in="SourceAlpha" type="matrix" values="0 0 0 0 0 0 0 0 0 0 0 0 0 0 0 0 0 0 127 0" result="hardAlpha"/>
<feOffset dy="-50"/>
<feGaussianBlur stdDeviation="35"/>
<feComposite in2="hardAlpha" operator="out"/>
<feColorMatrix type="matrix" values="0 0 0 0 0.329412 0 0 0 0 0.658824 0 0 0 0 0.960784 0 0 0 0.1 0"/>
<feBlend mode="normal" in2="BackgroundImageFix" result="effect1_dropShadow_552_3543"/>
<feBlend mode="normal" in="SourceGraphic" in2="effect1_dropShadow_552_3543" result="shape"/>
</filter>
<clipPath id="clip0_552_3543">
<rect width="1920" height="432" fill="white" transform="translate(0 540)"/>
</clipPath>
</defs>
</svg>
