<svg width="90" height="90" viewBox="0 0 90 90" fill="none" xmlns="http://www.w3.org/2000/svg">
<g clip-path="url(#clip0_1903_9911)">
<path d="M42.9566 0.000161943C55.7051 0.0499712 65.992 10.3579 65.958 23.0487C65.9239 35.7632 55.5898 46.0501 42.8858 46.0213C30.1137 45.9898 19.8399 35.6478 19.9002 22.8809C19.9578 10.2242 30.3103 -0.0470257 42.9566 0.000161943Z" fill="white" fill-opacity="0.5"/>
<path d="M49.0752 49.9163C39.7451 59.6973 39.4017 75.61 48.7186 85.7947C48.3411 85.813 48.0344 85.8445 47.7277 85.8445C34.3552 85.8445 20.9828 85.8497 7.61029 85.8445C2.97017 85.8445 0.0288061 82.8979 0.0366707 78.2342C0.0419138 75.7175 -0.110135 73.1746 0.212314 70.6946C0.817889 66.0545 3.59934 62.6386 7.12007 59.7917C11.4849 56.2631 16.5524 54.1055 21.8819 52.5326C30.2761 50.0579 38.8748 49.3527 47.5861 49.7643C48.0396 49.7852 48.4906 49.8534 49.0778 49.9137L49.0752 49.9163Z" fill="white" fill-opacity="0.5"/>
<path d="M68.0157 89.9998C55.8858 89.9815 46.055 80.1533 46.0498 68.0392C46.0446 55.9198 56.0064 45.9895 68.11 46.0471C80.2425 46.1048 90.0392 55.9723 89.9946 68.0864C89.9501 80.2529 80.1534 90.0182 68.013 89.9998H68.0157ZM71.1615 73.2456C71.1615 71.5809 71.1746 69.9162 71.1589 68.2542C71.1379 66.3116 69.856 64.9274 68.0838 64.8934C66.2986 64.8593 64.9065 66.288 64.8908 68.2594C64.8646 71.6202 64.862 74.981 64.8908 78.3418C64.9091 80.2398 66.3012 81.6607 68.0393 81.6581C69.8088 81.6555 71.1327 80.2634 71.1563 78.3392C71.1772 76.6431 71.1615 74.9443 71.1615 73.2482V73.2456ZM68.0052 54.4387C65.7035 54.4544 63.8396 56.3471 63.8553 58.6515C63.8684 60.9401 65.7978 62.8459 68.0707 62.8171C70.3567 62.7909 72.2573 60.8588 72.2337 58.5859C72.2075 56.2895 70.3069 54.4229 68.0078 54.436L68.0052 54.4387Z" fill="white" fill-opacity="0.5"/>
</g>
<defs>
<clipPath id="clip0_1903_9911">
<rect width="90" height="90" fill="white"/>
</clipPath>
</defs>
</svg>
