<svg width="72" height="73" viewBox="0 0 72 73" fill="none" xmlns="http://www.w3.org/2000/svg">
<rect y="0.5" width="72" height="72" rx="16" fill="white"/>
<path d="M33.5312 30.5625C33.9625 30.5625 34.3125 30.2125 34.3125 29.7812C34.3125 29.35 33.9625 29 33.5312 29C33.1 29 32.75 29.35 32.75 29.7812C32.75 30.2125 33.1 30.5625 33.5312 30.5625Z" fill="#57A6EE"/>
<path d="M33.5312 33.6875C33.9625 33.6875 34.3125 33.3375 34.3125 32.9062C34.3125 32.475 33.9625 32.125 33.5312 32.125C33.1 32.125 32.75 32.475 32.75 32.9062C32.75 33.3375 33.1 33.6875 33.5312 33.6875Z" fill="#57A6EE"/>
<path d="M53.7711 24.5414L45.9586 16.7289C45.8204 16.5903 45.6196 16.5 45.4062 16.5H25.7188C24.4263 16.5 23.375 17.5513 23.375 18.8438V21.2235C23.1156 21.2 22.8547 21.1875 22.5938 21.1875C17.8553 21.1875 14 25.0428 14 29.7812C14 34.5197 17.8553 38.375 22.5938 38.375C22.8547 38.375 23.1156 38.3625 23.375 38.339V54.1562C23.375 55.4487 24.4263 56.5 25.7188 56.5H51.6562C52.9487 56.5 54 55.4487 54 54.1562V25.0938C54 24.8804 53.9112 24.6815 53.7711 24.5414ZM46.1875 19.1672L51.3328 24.3125H46.1875V19.1672ZM23.375 22.7936C26.674 23.1577 29.2191 25.788 29.5798 29H23.375V22.7936ZM15.5625 29.7812C15.5625 26.1683 18.3018 23.1837 21.8125 22.7936V29.7812C21.8125 30.2128 22.1622 30.5616 22.5938 30.5616H29.5798C29.1874 34.0565 26.2305 36.8125 22.5938 36.8125C18.7168 36.8125 15.5625 33.6582 15.5625 29.7812ZM51.6562 54.9375H25.7188C25.2878 54.9375 24.9375 54.5872 24.9375 54.1562V38.0497C28.5947 37.0145 31.1875 33.6362 31.1875 29.7812C31.1875 25.9263 28.5947 22.548 24.9375 21.5128V18.8438C24.9375 18.4128 25.2878 18.0625 25.7188 18.0625H44.625V25.0938C44.625 25.5253 44.9747 25.875 45.4062 25.875H52.4375V54.1562C52.4375 54.5872 52.0872 54.9375 51.6562 54.9375Z" fill="#57A6EE"/>
<path d="M34 22.75H42.2812C42.7128 22.75 43.0625 22.4003 43.0625 21.9688C43.0625 21.5372 42.7128 21.1875 42.2812 21.1875H34C33.5685 21.1875 33.2188 21.5372 33.2188 21.9688C33.2188 22.4003 33.5685 22.75 34 22.75Z" fill="#57A6EE"/>
<path d="M34 25.875H42.2812C42.7128 25.875 43.0625 25.5253 43.0625 25.0938C43.0625 24.6622 42.7128 24.3125 42.2812 24.3125H34C33.5685 24.3125 33.2188 24.6622 33.2188 25.0938C33.2188 25.5253 33.5685 25.875 34 25.875Z" fill="#57A6EE"/>
<path d="M22.5938 33.6875C20.4398 33.6875 18.6875 31.9352 18.6875 29.7812C18.6875 29.3497 18.3378 29 17.9062 29C17.4747 29 17.125 29.3497 17.125 29.7812C17.125 32.7967 19.5783 35.25 22.5938 35.25C23.0253 35.25 23.375 34.9003 23.375 34.4688C23.375 34.0372 23.0253 33.6875 22.5938 33.6875Z" fill="#57A6EE"/>
<path d="M48.2969 37.2812C47.0045 37.2812 45.9531 38.3326 45.9531 39.625C45.9531 40.1093 46.1008 40.5601 46.3535 40.9339L40.9284 46.7567C40.7136 46.6917 40.4859 46.6562 40.25 46.6562C39.9204 46.6562 39.6015 46.7246 39.3085 46.8531L36.865 43.8239C37.0347 43.4958 37.125 43.1299 37.125 42.75C37.125 41.4576 36.0737 40.4062 34.7812 40.4062C33.4888 40.4062 32.4375 41.4576 32.4375 42.75C32.4375 43.115 32.5211 43.4669 32.678 43.7849L29.8292 46.8726C29.5243 46.731 29.1898 46.6562 28.8438 46.6562C27.5513 46.6562 26.5 47.7076 26.5 49C26.5 50.2924 27.5513 51.3438 28.8438 51.3438C30.1362 51.3438 31.1875 50.2924 31.1875 49C31.1875 48.635 31.1042 48.2831 30.947 47.9651L33.7958 44.8774C34.1007 45.019 34.4352 45.0938 34.7812 45.0938C35.1108 45.0938 35.4297 45.0254 35.7227 44.8969L38.1663 47.9261C37.9966 48.2542 37.9062 48.6201 37.9062 49C37.9062 50.2924 38.9576 51.3438 40.25 51.3438C41.5424 51.3438 42.5938 50.2924 42.5938 49C42.5938 48.5157 42.446 48.0649 42.1934 47.6911L47.6185 41.8683C47.8333 41.9333 48.061 41.9688 48.2969 41.9688C49.5893 41.9688 50.6406 40.9174 50.6406 39.625C50.6406 38.3326 49.5893 37.2812 48.2969 37.2812ZM28.8438 49.7812C28.4128 49.7812 28.0625 49.4309 28.0625 49C28.0625 48.5691 28.4128 48.2188 28.8438 48.2188C29.275 48.2188 29.625 48.5685 29.625 49C29.625 49.4309 29.2747 49.7812 28.8438 49.7812ZM34 42.75C34 42.3191 34.3503 41.9688 34.7812 41.9688C35.2122 41.9688 35.5625 42.3191 35.5625 42.75C35.5625 43.1812 35.2128 43.5312 34.7812 43.5312C34.3497 43.5312 34 43.1812 34 42.75ZM40.25 49.7812C39.8191 49.7812 39.4688 49.4309 39.4688 49C39.4688 48.5688 39.8185 48.2188 40.25 48.2188C40.6809 48.2188 41.0312 48.5691 41.0312 49C41.0312 49.4309 40.6809 49.7812 40.25 49.7812ZM48.2969 40.4062C47.866 40.4062 47.5156 40.0559 47.5156 39.625C47.5156 39.1941 47.866 38.8438 48.2969 38.8438C48.7278 38.8438 49.0781 39.1941 49.0781 39.625C49.0781 40.0559 48.7278 40.4062 48.2969 40.4062Z" fill="#57A6EE"/>
<path d="M35.875 29.7812C35.875 30.2128 36.2247 30.5625 36.6562 30.5625H48.5312C48.9628 30.5625 49.3125 30.2128 49.3125 29.7812C49.3125 29.3497 48.9628 29 48.5312 29H36.6562C36.2247 29 35.875 29.3497 35.875 29.7812Z" fill="#57A6EE"/>
<path d="M48.5312 32.125H36.6562C36.2247 32.125 35.875 32.4747 35.875 32.9062C35.875 33.3378 36.2247 33.6875 36.6562 33.6875H48.5312C48.9628 33.6875 49.3125 33.3378 49.3125 32.9062C49.3125 32.4747 48.9628 32.125 48.5312 32.125Z" fill="#57A6EE"/>
</svg>
