<svg width="72" height="73" viewBox="0 0 72 73" fill="none" xmlns="http://www.w3.org/2000/svg">
<rect y="0.5" width="72" height="72" rx="16" fill="white"/>
<path d="M52.875 52.75H52.25V30.875C52.25 30.7092 52.1842 30.5503 52.0669 30.4331C51.9497 30.3158 51.7908 30.25 51.625 30.25H46.625C46.4592 30.25 46.3003 30.3158 46.1831 30.4331C46.0658 30.5503 46 30.7092 46 30.875V52.75H43.5V39.625C43.5 39.4592 43.4342 39.3003 43.3169 39.1831C43.1997 39.0658 43.0408 39 42.875 39H37.875C37.7092 39 37.5503 39.0658 37.4331 39.1831C37.3158 39.3003 37.25 39.4592 37.25 39.625V52.75H34.75V43.375C34.75 43.2092 34.6842 43.0503 34.5669 42.9331C34.4497 42.8158 34.2908 42.75 34.125 42.75H29.125C28.9592 42.75 28.8003 42.8158 28.6831 42.9331C28.5658 43.0503 28.5 43.2092 28.5 43.375V52.75H26V38.375C26 38.2092 25.9342 38.0503 25.8169 37.9331C25.6997 37.8158 25.5408 37.75 25.375 37.75H20.375C20.2092 37.75 20.0503 37.8158 19.9331 37.9331C19.8158 38.0503 19.75 38.2092 19.75 38.375V52.75H19.125C18.9592 52.75 18.8003 52.8158 18.6831 52.9331C18.5658 53.0503 18.5 53.2092 18.5 53.375C18.5 53.5408 18.5658 53.6997 18.6831 53.8169C18.8003 53.9342 18.9592 54 19.125 54H52.875C53.0408 54 53.1997 53.9342 53.3169 53.8169C53.4342 53.6997 53.5 53.5408 53.5 53.375C53.5 53.2092 53.4342 53.0503 53.3169 52.9331C53.1997 52.8158 53.0408 52.75 52.875 52.75ZM21 52.75V39H24.75V52.75H21ZM29.75 52.75V44H33.5V52.75H29.75ZM38.5 52.75V40.25H42.25V52.75H38.5ZM47.25 52.75V31.5H51V52.75H47.25Z" fill="#57A6EE"/>
<path d="M22.875 31.5C23.1339 31.4977 23.3896 31.4421 23.6262 31.3367C23.8627 31.2313 24.0751 31.0784 24.25 30.8875L29.75 33.2625C29.75 33.2625 29.75 33.3375 29.75 33.375C29.7351 33.8723 29.9183 34.3551 30.2594 34.7173C30.6005 35.0795 31.0715 35.2913 31.5687 35.3062C32.066 35.3211 32.5489 35.1379 32.911 34.7968C33.2732 34.4557 33.4851 33.9848 33.5 33.4875L38.8625 31.9625C39.0951 32.28 39.4217 32.5163 39.796 32.6378C40.1704 32.7594 40.5735 32.7601 40.9482 32.6397C41.323 32.5194 41.6504 32.2843 41.884 31.9675C42.1177 31.6508 42.2457 31.2685 42.25 30.875C42.2474 30.5486 42.1567 30.2291 41.9875 29.95L48.325 22.5625C48.6926 22.7359 49.1066 22.7852 49.5047 22.7029C49.9027 22.6205 50.2632 22.4111 50.5319 22.1061C50.8006 21.8011 50.9629 21.4171 50.9943 21.0118C51.0258 20.6066 50.9247 20.2021 50.7064 19.8593C50.488 19.5165 50.1641 19.2539 49.7835 19.1112C49.403 18.9684 48.9863 18.9532 48.5963 19.0678C48.2064 19.1824 47.8642 19.4206 47.6214 19.7465C47.3785 20.0725 47.2482 20.4685 47.25 20.875C47.2543 21.156 47.3182 21.4329 47.4375 21.6875L41 29.125C40.7837 29.0452 40.5555 29.0029 40.325 29C39.8553 29.0117 39.4071 29.1993 39.0691 29.5257C38.7311 29.8521 38.528 30.2935 38.5 30.7625L33.1375 32.2875C32.9764 32.0599 32.7662 31.8713 32.5225 31.7358C32.2788 31.6003 32.0078 31.5212 31.7295 31.5044C31.4511 31.4876 31.1726 31.5335 30.9143 31.6388C30.6561 31.744 30.4248 31.9059 30.2375 32.1125L24.75 29.7375C24.75 29.7375 24.75 29.6625 24.75 29.625C24.75 29.2541 24.64 28.8916 24.434 28.5833C24.228 28.2749 23.9351 28.0346 23.5925 27.8927C23.2499 27.7508 22.8729 27.7137 22.5092 27.786C22.1455 27.8583 21.8114 28.0369 21.5492 28.2991C21.287 28.5614 21.1084 28.8955 21.036 29.2592C20.9637 29.6229 21.0008 29.9999 21.1427 30.3425C21.2846 30.6851 21.525 30.978 21.8333 31.184C22.1416 31.39 22.5042 31.5 22.875 31.5ZM49.125 20.25C49.2486 20.25 49.3694 20.2866 49.4722 20.3553C49.575 20.424 49.6551 20.5216 49.7024 20.6358C49.7497 20.75 49.7621 20.8757 49.738 20.9969C49.7139 21.1181 49.6543 21.2295 49.5669 21.3169C49.4795 21.4043 49.3682 21.4638 49.2469 21.488C49.1257 21.5121 49 21.4997 48.8858 21.4524C48.7716 21.4051 48.674 21.325 48.6053 21.2222C48.5366 21.1194 48.5 20.9986 48.5 20.875C48.5 20.7092 48.5658 20.5502 48.683 20.433C48.8003 20.3158 48.9592 20.25 49.125 20.25ZM40.375 30.25C40.4986 30.25 40.6194 30.2866 40.7222 30.3553C40.825 30.424 40.9051 30.5216 40.9524 30.6358C40.9997 30.75 41.0121 30.8757 40.988 30.9969C40.9639 31.1181 40.9043 31.2295 40.8169 31.3169C40.7295 31.4043 40.6182 31.4638 40.4969 31.488C40.3757 31.5121 40.25 31.4997 40.1358 31.4524C40.0216 31.4051 39.924 31.325 39.8553 31.2222C39.7866 31.1194 39.75 30.9986 39.75 30.875C39.75 30.7092 39.8158 30.5502 39.9331 30.433C40.0503 30.3158 40.2092 30.25 40.375 30.25ZM31.625 32.75C31.7486 32.75 31.8694 32.7866 31.9722 32.8553C32.075 32.924 32.1551 33.0216 32.2024 33.1358C32.2497 33.25 32.2621 33.3757 32.238 33.4969C32.2139 33.6181 32.1543 33.7295 32.0669 33.8169C31.9795 33.9043 31.8682 33.9638 31.7469 33.988C31.6257 34.0121 31.5 33.9997 31.3858 33.9524C31.2716 33.9051 31.174 33.825 31.1053 33.7222C31.0367 33.6194 31 33.4986 31 33.375C31 33.2092 31.0658 33.0502 31.1831 32.933C31.3003 32.8158 31.4592 32.75 31.625 32.75ZM22.875 29C22.9986 29 23.1195 29.0366 23.2222 29.1053C23.325 29.174 23.4051 29.2716 23.4524 29.3858C23.4997 29.5 23.5121 29.6257 23.488 29.7469C23.4639 29.8681 23.4043 29.9795 23.3169 30.0669C23.2295 30.1543 23.1182 30.2138 22.9969 30.238C22.8757 30.2621 22.75 30.2497 22.6358 30.2024C22.5216 30.1551 22.424 30.075 22.3553 29.9722C22.2867 29.8694 22.25 29.7486 22.25 29.625C22.25 29.4592 22.3158 29.3002 22.4331 29.183C22.5503 29.0658 22.7092 29 22.875 29Z" fill="#57A6EE"/>
</svg>
