<svg width="110" height="110" viewBox="0 0 110 110" fill="none" xmlns="http://www.w3.org/2000/svg">
<g clip-path="url(#clip0_1903_9904)">
<path d="M110 68.541C109.166 70.3518 107.75 70.9458 105.783 70.9343C95.3807 70.8712 84.9781 70.9487 74.5783 70.8942C58.371 70.8109 44.3279 59.903 40.3148 44.3548C35.327 25.03 47.289 5.36938 66.7585 0.895459C86.3225 -3.59855 105.792 9.26936 109.398 29.0849C109.627 30.3447 109.802 31.616 110.003 32.8787V38.248C109.94 38.4862 109.839 38.7186 109.817 38.9597C109.421 43.1667 108.343 47.193 106.411 50.9437C105.224 53.2424 103.797 55.4176 102.432 57.7249C103.097 58.494 103.86 59.3435 104.588 60.2216C106.402 62.4141 108.2 64.618 110.006 66.8163V68.5352L110 68.541ZM77.8146 37.6798C78.2332 37.5191 78.6001 37.3785 78.967 37.2378C85.1386 34.876 88.3548 28.2039 86.3511 21.9134C84.3704 15.6918 77.763 12.0846 71.4166 13.7605C66.1508 15.1523 62.4128 19.8989 62.2638 25.3916C62.2122 27.3229 63.4591 28.7779 65.2765 28.9013C67.0164 29.0218 68.4296 27.7591 68.6647 25.8852C68.7392 25.2825 68.7679 24.6655 68.9284 24.0858C69.7282 21.2046 72.6549 19.3421 75.5272 19.853C78.5198 20.3867 80.6439 22.9867 80.4948 25.9311C80.3372 29.0533 77.9694 31.4324 74.8564 31.5988C72.5976 31.7193 71.3908 32.9705 71.385 35.2204C71.3764 38.1562 71.3764 41.0919 71.385 44.0248C71.3908 46.114 72.695 47.5833 74.5554 47.612C76.453 47.6435 77.8089 46.1513 77.8175 44.0076C77.8261 41.8983 77.8175 39.789 77.8175 37.6798H77.8146ZM77.8089 54.1119C77.7888 52.3729 76.3212 50.9265 74.5841 50.9322C72.847 50.938 71.3879 52.3958 71.3822 54.1349C71.3736 55.9199 72.8814 57.4064 74.6615 57.3691C76.4014 57.3318 77.8318 55.8538 77.8118 54.1119H77.8089Z" fill="white" fill-opacity="0.5"/>
<path d="M2.50251 110C2.26458 109.859 2.02666 109.716 1.78587 109.575C-0.0745 108.485 -0.41275 106.255 1.06638 104.516C3.03568 102.2 5.04511 99.9157 7.03448 97.6199C7.2896 97.3243 7.54186 97.0258 7.75398 96.7762C-1.4877 83.4807 -2.82063 69.7116 5.64995 55.7389C11.7442 45.6862 21.1177 40.4202 32.8991 39.1719C33.9253 49.1069 37.8468 57.5726 44.8382 64.8876C44.2563 64.8876 43.8923 64.8876 43.5282 64.8876C37.3422 64.8876 31.1592 64.8733 24.9732 64.8934C22.5309 64.902 20.9457 67.149 21.8458 69.3041C22.3761 70.5783 23.3823 71.3101 24.7525 71.3158C31.9388 71.3417 39.1252 71.3417 46.3116 71.3158C47.8366 71.3101 48.8255 70.4291 49.4189 68.9053C52.5692 71.2355 55.9059 73.1295 59.5091 74.5242C63.118 75.9189 66.8588 76.8028 70.7889 77.1787C70.6771 80.1805 70.1295 83.0215 69.1177 85.7277C63.8605 99.821 53.7961 107.914 38.8414 109.828C38.5978 109.859 38.3599 109.94 38.1191 110H2.50251ZM35.5392 77.7785C32.1108 77.7785 28.6825 77.7756 25.257 77.7785C23.0813 77.7814 21.6165 79.0699 21.6022 80.9782C21.5907 82.8924 23.0526 84.2182 25.214 84.2211C32.1051 84.2268 38.9962 84.2268 45.8874 84.2211C48.0401 84.2211 49.5078 82.8809 49.4877 80.9668C49.4676 79.0928 48.02 77.7842 45.9304 77.7814C42.4676 77.7728 39.002 77.7814 35.5392 77.7814V77.7785Z" fill="white" fill-opacity="0.5"/>
</g>
<defs>
<clipPath id="clip0_1903_9904">
<rect width="110" height="110" fill="white"/>
</clipPath>
</defs>
</svg>
