<svg width="32" height="33" viewBox="0 0 32 33" fill="none" xmlns="http://www.w3.org/2000/svg">
<path d="M16.8024 1.00006C17.2804 1.23083 17.451 1.60831 17.4372 2.1325C17.411 3.1931 17.4356 4.2537 17.4264 5.31431C17.4218 5.98979 16.8193 6.4177 16.2337 6.16554C15.8541 6.00202 15.7019 5.69026 15.7019 5.28986C15.7019 4.55171 15.7019 3.81357 15.7019 3.07542C15.7019 2.75296 15.7173 2.4305 15.6988 2.10804C15.6666 1.5808 15.8541 1.19874 16.3628 0.998535H16.8024V1.00006Z" fill="#57A6EE"/>
<path d="M16.554 27.6235C15.7579 27.6235 14.9617 27.6312 14.1671 27.622C12.9314 27.6082 12.1613 26.9159 12.2428 25.7025C12.3273 24.4142 11.8032 23.4392 11.0178 22.5085C10.3799 21.752 9.70367 21.0077 9.198 20.1657C6.15014 15.0842 9.18878 8.53722 15.0493 7.48578C19.8371 6.62691 24.4281 9.94168 25.0459 14.7068C25.3794 17.2803 24.6617 19.5391 22.9817 21.5136C22.4546 22.1325 21.9489 22.7698 21.4586 23.4193C21.0175 24.0031 20.7931 24.6633 20.8745 25.4076C20.8884 25.5313 20.8837 25.6567 20.8853 25.782C20.8991 26.9159 20.2766 27.5838 19.1316 27.6159C18.2739 27.6403 17.4148 27.6205 16.5556 27.6205V27.6235H16.554ZM16.5387 25.918C17.2826 25.918 18.0249 25.9073 18.7688 25.9241C19.0609 25.9302 19.1792 25.8645 19.1485 25.5451C19.0409 24.4325 19.3283 23.4117 19.9938 22.5176C20.5656 21.7489 21.1696 21.0031 21.7814 20.265C22.7205 19.131 23.2768 17.8427 23.389 16.3771C23.7195 12.0384 19.8893 8.47456 15.5581 9.14699C12.9928 9.54586 11.1577 10.9901 10.2109 13.4001C9.2687 15.7964 9.64987 18.0582 11.2284 20.103C11.5849 20.5645 11.9784 20.9986 12.3581 21.4433C13.3863 22.643 14.1148 23.9557 13.9488 25.6047C13.9227 25.8569 14.0441 25.9256 14.2778 25.9241C15.0309 25.9165 15.7855 25.921 16.5387 25.921V25.918Z" fill="#57A6EE"/>
<path d="M16.5751 28.4058C17.2345 28.4058 17.8923 28.4013 18.5517 28.4058C19.6875 28.415 20.3669 29.0905 20.3669 30.2168C20.3669 30.6845 20.3838 31.1567 20.3238 31.6167C20.2224 32.3885 19.5507 32.9768 18.7684 32.986C17.3036 33.0028 15.8404 33.0028 14.3757 32.986C13.495 32.9753 12.7972 32.2601 12.7756 31.3829C12.7649 30.9259 12.7649 30.4675 12.7756 30.0105C12.7972 29.1532 13.4504 28.4593 14.3173 28.4227C15.0688 28.3906 15.8235 28.4165 16.5751 28.4165V28.4058ZM18.6193 30.1374H14.5109V31.2621H18.6193V30.1374Z" fill="#57A6EE"/>
<path d="M8.93779 7.78981C8.86708 8.47141 8.15392 8.87334 7.58831 8.54629C7.50838 8.49891 7.43461 8.43931 7.36698 8.37513C6.52624 7.57891 5.68705 6.78269 4.84785 5.98342C4.56658 5.71444 4.45745 5.39504 4.59886 5.02215C4.72489 4.69052 4.97849 4.47503 5.332 4.48573C5.55487 4.49337 5.82538 4.56979 5.98369 4.71344C6.87207 5.51883 7.74047 6.34714 8.59657 7.18615C8.75488 7.34203 8.82558 7.58655 8.93625 7.78981H8.93779Z" fill="#57A6EE"/>
<path d="M24.6781 8.93909C24.3016 8.87643 23.9896 8.67164 23.8758 8.34765C23.7498 7.9931 23.8159 7.66911 24.0925 7.4032C24.6274 6.89123 25.1654 6.38233 25.7018 5.87189C26.0199 5.57083 26.335 5.2667 26.6562 4.97022C27.0574 4.60039 27.5692 4.59886 27.915 4.95953C28.2486 5.30644 28.2409 5.82299 27.8628 6.18824C27.0082 7.01502 26.1475 7.83416 25.2714 8.63955C25.1146 8.78321 24.8779 8.84128 24.6781 8.93909Z" fill="#57A6EE"/>
<path d="M3.5453 13.5502C4.0894 13.5502 4.63349 13.5456 5.17605 13.5502C5.71707 13.5563 6.09671 13.92 6.08902 14.4091C6.08134 14.8905 5.71246 15.2481 5.18834 15.2511C4.09093 15.2573 2.99198 15.2557 1.89457 15.2466C1.36892 15.2435 1.00465 14.8874 1.00004 14.403C0.995431 13.9078 1.36738 13.5533 1.91455 13.5472C2.45865 13.541 3.00274 13.5472 3.5453 13.5472V13.5517V13.5502Z" fill="#57A6EE"/>
<path d="M28.8016 13.5455C29.3457 13.5455 29.8898 13.5409 30.4324 13.5455C30.9796 13.5516 31.35 13.9031 31.3454 14.3998C31.3408 14.8965 30.9734 15.2434 30.4216 15.2464C29.3442 15.2541 28.2668 15.2556 27.1909 15.251C26.6437 15.2495 26.2656 14.898 26.2579 14.409C26.2502 13.9092 26.6376 13.5531 27.2016 13.5486C27.735 13.544 28.2683 13.5486 28.8016 13.5486V13.544V13.5455Z" fill="#57A6EE"/>
</svg>
