<svg width="215" height="350" viewBox="0 0 215 350" fill="none" xmlns="http://www.w3.org/2000/svg">
<g filter="url(#filter0_b_821_53859)">
<ellipse cx="187" cy="220.525" rx="24" ry="23.5" fill="white"/>
</g>
<path d="M184 229.025V212.025L193 220.525L184 229.025Z" fill="url(#paint0_linear_821_53859)"/>
<g clip-path="url(#clip0_821_53859)">
<path d="M24.75 49.582C21.3194 36.7788 28.9174 23.6188 41.7206 20.1881L93.8806 6.21192C106.684 2.78132 119.844 10.3793 123.274 23.1825L137.251 75.3425C140.681 88.1457 133.083 101.306 120.28 104.736L68.1201 118.713C55.3169 122.143 42.1568 114.545 38.7262 101.742L24.75 49.582Z" fill="url(#paint1_linear_821_53859)"/>
<g clip-path="url(#clip1_821_53859)">
<path d="M96.1912 41.7528C93.0886 42.5842 89.8905 40.7378 89.0592 37.6351C88.2278 34.5325 90.0742 31.3344 93.1769 30.5031C96.2796 29.6717 99.4776 31.5181 100.309 34.6208C101.14 37.7235 99.2939 40.9215 96.1912 41.7528ZM93.7797 32.753C91.919 33.2516 90.8106 35.1716 91.3091 37.0323C91.8077 38.893 93.7277 40.0015 95.5884 39.5029C97.4491 39.0043 98.5576 37.0844 98.059 35.2237C97.5604 33.3629 95.6405 32.2545 93.7797 32.753Z" fill="#B4DBFF"/>
<path d="M103.544 42.1942C103.256 42.2713 102.939 42.2382 102.66 42.0791L98.3803 39.6085C97.824 39.2873 97.6329 38.574 97.9541 38.0177C98.2753 37.4614 98.9885 37.2703 99.5448 37.5915L103.824 40.0621C104.38 40.3833 104.571 41.0965 104.25 41.6528C104.091 41.9296 103.832 42.117 103.544 42.1942Z" fill="#B4DBFF"/>
<path d="M83.2943 47.6199L54.0449 55.4572C52.1842 55.9558 50.2642 54.8473 49.7657 52.9866L47.957 46.2367C47.4585 44.376 48.567 42.4561 50.4277 41.9575L79.6771 34.1202C81.5378 33.6216 83.4577 34.7301 83.9563 36.5908L85.7649 43.3406C86.2635 45.2013 85.155 47.1213 83.2943 47.6199ZM51.0305 44.2075C50.4118 44.3733 50.0412 45.0151 50.207 45.6339L52.0156 52.3837C52.1814 53.0025 52.8233 53.3731 53.442 53.2073L82.6914 45.3699C83.3102 45.2041 83.6808 44.5622 83.515 43.9435L81.7064 37.1936C81.5406 36.5749 80.8987 36.2043 80.2799 36.3701L51.0305 44.2075Z" fill="#B4DBFF"/>
<path d="M68.2716 95.0519C64.5502 96.0491 60.7103 93.8321 59.7132 90.1107C58.716 86.3893 60.933 82.5494 64.6544 81.5522C68.3758 80.5551 72.2157 82.772 73.2129 86.4935C74.21 90.2149 71.9931 94.0548 68.2716 95.0519ZM65.2573 83.8022C62.7756 84.4671 61.2981 87.0261 61.9631 89.5078C62.6281 91.9895 65.1871 93.467 67.6688 92.802C70.1505 92.137 71.6279 89.578 70.9629 87.0963C70.298 84.6146 67.739 83.1372 65.2573 83.8022Z" fill="#B4DBFF"/>
<path d="M67.2647 68.7955L56.015 71.8098C55.394 71.9762 54.7549 71.6073 54.5885 70.9863C54.4222 70.3653 54.7911 69.7263 55.4121 69.5599L66.6619 66.5455C67.2828 66.3791 67.9219 66.7481 68.0883 67.3691C68.2547 67.99 67.8857 68.6291 67.2647 68.7955Z" fill="#B4DBFF"/>
<path d="M69.0736 75.5455L57.8238 78.5598C57.2028 78.7262 56.5638 78.3573 56.3974 77.7363C56.231 77.1153 56.5999 76.4763 57.2209 76.3099L68.4707 73.2955C69.0917 73.1291 69.7307 73.4981 69.8971 74.1191C70.0635 74.74 69.6946 75.3791 69.0736 75.5455Z" fill="#B4DBFF"/>
<path d="M65.4561 62.0455L54.2064 65.0599C53.5854 65.2262 52.9463 64.8573 52.78 64.2363C52.6136 63.6153 52.9825 62.9763 53.6035 62.8099L64.8533 59.7955C65.4742 59.6291 66.1133 59.9981 66.2797 60.6191C66.4461 61.2401 66.0771 61.8791 65.4561 62.0455Z" fill="#B4DBFF"/>
<path d="M112.146 83.2962L82.8961 91.1335C81.0354 91.6321 79.1155 90.5236 78.6169 88.6629L70.7796 59.4135C70.281 57.5528 71.3895 55.6328 73.2502 55.1343L102.5 47.2969C104.36 46.7983 106.28 47.9068 106.779 49.7675L114.616 79.0169C115.115 80.8776 114.006 82.7976 112.146 83.2962ZM73.853 57.3842C73.2343 57.55 72.8637 58.1919 73.0295 58.8106L80.8669 88.06C81.0327 88.6788 81.6745 89.0494 82.2933 88.8836L111.543 81.0462C112.161 80.8804 112.532 80.2385 112.366 79.6198L104.529 50.3704C104.363 49.7517 103.721 49.3811 103.102 49.5469L73.853 57.3842Z" fill="#B4DBFF"/>
<path d="M92.0952 66.9652C90.2345 67.4638 88.3145 66.3553 87.8159 64.4946C87.3174 62.6338 88.4258 60.7139 90.2866 60.2153C92.1473 59.7167 94.0672 60.8252 94.5658 62.6859C95.0644 64.5467 93.9559 66.4666 92.0952 66.9652ZM90.8894 62.4653C90.2707 62.6311 89.9001 63.2729 90.0659 63.8917C90.2317 64.5104 90.8736 64.881 91.4923 64.7152C92.111 64.5494 92.4816 63.9076 92.3158 63.2888C92.15 62.6701 91.5082 62.2995 90.8894 62.4653Z" fill="#B4DBFF"/>
<path d="M100.131 74.458C99.5104 74.6244 98.8713 74.2554 98.705 73.6344L98.4035 72.5095C98.0707 71.2675 96.7927 70.5296 95.5507 70.8624L91.0508 72.0681C89.8088 72.4009 89.0709 73.679 89.4037 74.921L89.7051 76.0459C89.8715 76.6669 89.5026 77.306 88.8816 77.4724C88.2606 77.6387 87.6216 77.2698 87.4552 76.6488L87.1537 75.5238C86.4888 73.0421 87.9662 70.4831 90.4479 69.8182L94.9478 68.6124C97.4295 67.9475 99.9885 69.4249 100.653 71.9066L100.955 73.0316C101.121 73.6526 100.752 74.2916 100.131 74.458Z" fill="#B4DBFF"/>
</g>
</g>
<g clip-path="url(#clip2_821_53859)">
<path d="M113 96.4619C113 83.2071 123.745 72.4619 137 72.4619H191C204.255 72.4619 215 83.2071 215 96.4619V150.462C215 163.717 204.255 174.462 191 174.462H137C123.745 174.462 113 163.717 113 150.462V96.4619Z" fill="url(#paint2_linear_821_53859)"/>
<path d="M192.823 147.373H192.713V145.945C192.713 144.745 191.736 143.768 190.536 143.768H187.943V141.799C187.943 140.863 187.207 140.098 186.285 140.047V121.534C187.207 121.482 187.943 120.717 187.943 119.782V117.812H190.459C191.417 117.812 192.197 117.032 192.197 116.074V114.218H193.519C194.297 114.218 194.93 113.585 194.93 112.807V111.202C194.93 110.684 194.647 110.208 194.19 109.961L173.362 98.6978C172.92 98.4583 172.368 98.6232 172.13 99.0652C171.891 99.5071 172.055 100.059 172.497 100.298L193.111 111.446V112.398H134.889V111.453L164.447 95.9445L168.749 98.2709C169.191 98.5102 169.743 98.3454 169.982 97.9035C170.22 97.4617 170.056 96.9097 169.614 96.6709L165.312 94.3444C164.781 94.057 164.144 94.053 163.609 94.3337L133.825 109.957C133.359 110.202 133.07 110.68 133.07 111.207V112.807C133.07 113.585 133.703 114.218 134.481 114.218H135.803V116.074C135.803 117.032 136.583 117.812 137.541 117.812H140.057V119.782C140.057 120.717 140.793 121.482 141.715 121.534V133.586C141.715 134.088 142.123 134.495 142.625 134.495C143.127 134.495 143.534 134.088 143.534 133.586V121.539H146.445V140.042H143.535V137.861C143.535 137.358 143.127 136.951 142.625 136.951C142.123 136.951 141.715 137.358 141.715 137.861V140.047C140.793 140.098 140.057 140.863 140.057 141.799V143.768H137.464C136.264 143.768 135.287 144.745 135.287 145.945V147.373H135.177C133.976 147.373 133 148.35 133 149.55V151.453C133 152.194 133.603 152.798 134.345 152.798H193.655C194.397 152.798 195 152.195 195 151.453V149.55C195 148.35 194.024 147.373 192.823 147.373ZM137.622 115.993V114.218H190.378V115.993H137.622ZM186.124 141.861V143.768H179.896V141.861H186.124ZM181.555 140.042V121.539H184.465V140.042H181.555ZM179.896 119.72V117.812H186.124V119.72H179.896ZM173.611 140.047V121.534C174.534 121.482 175.27 120.717 175.27 119.782V117.812H178.077V119.782C178.077 120.717 178.813 121.482 179.736 121.534V140.047C178.813 140.098 178.077 140.863 178.077 141.799V143.768H175.27V141.799C175.27 140.863 174.534 140.098 173.611 140.047ZM173.45 141.861V143.768H167.223V141.861H173.45ZM168.881 140.042V121.539H171.792V140.042H168.881ZM167.223 119.72V117.812H173.45V119.72H167.223ZM160.938 140.047V121.534C161.861 121.482 162.596 120.717 162.596 119.782V117.812H165.404V119.782C165.404 120.717 166.139 121.482 167.062 121.534V140.047C166.139 140.098 165.404 140.863 165.404 141.799V143.768H162.596V141.799C162.596 140.863 161.861 140.098 160.938 140.047ZM160.028 141.861H160.777V143.768H154.55V141.861H155.298H160.028ZM156.208 140.042V121.539H159.119V140.042H156.208ZM154.55 119.72V117.812H160.777V119.72H154.55ZM148.264 140.047V121.534C149.187 121.482 149.923 120.717 149.923 119.782V117.812H152.73V119.782C152.73 120.717 153.466 121.482 154.389 121.534V140.047C153.466 140.098 152.73 140.863 152.73 141.799V143.768H149.923V141.799C149.923 140.863 149.187 140.098 148.264 140.047ZM141.876 119.72V117.812H148.104V119.72H141.876ZM141.876 141.861H142.625H147.355H148.104V143.768H141.876V141.861ZM137.106 145.945C137.106 145.748 137.267 145.587 137.464 145.587H190.536C190.733 145.587 190.894 145.748 190.894 145.945V147.373H137.106V145.945ZM193.181 150.979H134.819V149.55C134.819 149.353 134.98 149.193 135.177 149.193H192.823C193.02 149.193 193.181 149.353 193.181 149.55V150.979Z" fill="#B4DBFF"/>
</g>
<g clip-path="url(#clip3_821_53859)">
<path d="M121.574 266.927C123.861 258.392 132.635 253.327 141.17 255.614L187.535 268.037C196.07 270.324 201.135 279.097 198.848 287.633L186.425 333.997C184.138 342.533 175.365 347.598 166.829 345.311L120.465 332.888C111.929 330.601 106.864 321.827 109.151 313.292L121.574 266.927Z" fill="url(#paint3_linear_821_53859)"/>
<g clip-path="url(#clip4_821_53859)">
<path d="M178.718 279.133C179.538 279.633 180.347 280.131 180.922 280.944C181.776 282.149 182.187 283.495 181.874 284.923C181.453 286.841 180.973 288.764 180.303 290.607C179.485 292.855 176.882 294.185 174.589 293.75C172.05 293.27 170.241 291.228 170.156 288.734C170.144 288.401 170.11 288.052 170.191 287.74C170.675 285.852 171.068 283.927 171.728 282.1C172.53 279.883 174.644 278.662 176.997 278.773C177.099 278.779 177.2 278.761 177.303 278.754L178.723 279.134L178.718 279.133ZM173.896 285.704C173.683 286.5 173.434 287.29 173.264 288.095C173.032 289.186 173.632 290.179 174.704 290.586C175.671 290.955 176.984 290.625 177.321 289.653C177.958 287.825 178.464 285.935 178.835 284.034C179.032 283.021 178.08 282.082 177.051 281.908C175.915 281.716 174.893 282.263 174.546 283.318C174.289 284.1 174.11 284.908 173.896 285.704Z" fill="#B4DBFF"/>
<path d="M164.925 275.437C165.844 275.983 166.719 276.57 167.301 277.51C168.107 278.815 168.342 280.213 167.994 281.701C167.796 282.547 167.009 283.04 166.21 282.882C165.383 282.719 164.892 282.028 164.976 281.138C165.001 280.877 165.065 280.617 165.061 280.356C165.047 279.285 164.284 278.387 163.251 278.207C162.125 278.009 161.097 278.505 160.765 279.566C160.264 281.157 159.831 282.772 159.46 284.398C159.209 285.492 159.772 286.4 160.808 286.847C161.033 286.944 161.275 287.004 161.485 287.124C162.133 287.498 162.409 288.316 162.138 288.998C161.858 289.704 161.143 290.099 160.401 289.956C158.312 289.557 156.439 287.436 156.356 285.279C156.33 284.555 156.421 283.806 156.582 283.097C156.875 281.795 157.256 280.512 157.604 279.222C158.339 276.511 160.493 274.948 163.297 275.086C163.365 275.091 163.432 275.066 163.499 275.055L164.92 275.436L164.925 275.437Z" fill="#B4DBFF"/>
<path d="M154.379 272.611C155.165 273.175 155.314 273.91 155.062 274.83C154.064 278.477 153.101 282.13 152.112 285.779C152.031 286.081 151.919 286.391 151.747 286.645C151.339 287.244 150.528 287.428 149.87 287.121C149.175 286.795 148.846 286.055 149.071 285.208C149.711 282.776 150.367 280.349 151.017 277.923C151.065 277.743 151.114 277.563 151.205 277.224C150.634 277.563 150.209 277.829 149.773 278.074C148.896 278.566 147.983 278.356 147.539 277.571C147.091 276.777 147.365 275.906 148.249 275.386C149.731 274.515 151.217 273.65 152.709 272.8C153.008 272.629 153.348 272.543 153.668 272.421L154.379 272.611Z" fill="#B4DBFF"/>
<path d="M152.254 300.371C152.054 301.118 151.869 301.868 151.651 302.61C150.969 304.939 148.99 306.421 146.491 306.49C144.337 306.549 142.23 305.062 141.48 302.924C141.18 302.067 141.044 301.162 141.267 300.282C141.741 298.392 142.176 296.481 142.839 294.654C143.663 292.382 146.232 291.093 148.653 291.525C151.056 291.955 152.985 294.074 152.959 296.51C152.945 297.804 152.588 299.096 152.385 300.388L152.255 300.366L152.254 300.371ZM144.951 298.396L144.956 298.397C144.738 299.211 144.487 300.016 144.312 300.839C144.13 301.699 144.558 302.585 145.299 303.048C146.652 303.892 148.254 303.238 148.719 301.621C149.112 300.255 149.465 298.878 149.823 297.502C149.886 297.267 149.928 297.019 149.929 296.776C149.938 295.679 149.167 294.793 148.046 294.594C146.966 294.401 145.945 294.965 145.598 296.012C145.34 296.793 145.161 297.601 144.948 298.398L144.951 298.396Z" fill="#B4DBFF"/>
<path d="M165.778 303.968C165.988 303.187 166.172 302.399 166.411 301.628C167.294 298.778 170.312 297.194 173.136 298.08C175.619 298.857 177.233 301.329 176.755 303.988C176.409 305.915 175.865 307.827 175.195 309.67C174.383 311.906 171.816 313.241 169.546 312.83C166.94 312.36 165.057 310.338 165.072 307.776C165.081 306.5 165.444 305.225 165.648 303.95L165.778 303.971L165.778 303.968ZM168.785 304.761C168.571 305.557 168.346 306.35 168.15 307.151C167.998 307.766 168.149 308.336 168.517 308.841C169.048 309.569 169.779 309.883 170.663 309.761C171.526 309.642 172.182 309.173 172.432 308.32C172.893 306.736 173.297 305.138 173.717 303.543C173.757 303.393 173.76 303.231 173.757 303.075C173.717 301.973 172.942 301.139 171.796 300.963C170.753 300.802 169.756 301.393 169.421 302.427C169.173 303.193 168.996 303.983 168.787 304.764L168.785 304.761Z" fill="#B4DBFF"/>
<path d="M130.076 314.147C130.299 313.315 130.492 312.474 130.749 311.654C131.454 309.403 133.651 307.91 136.069 308.007C138.355 308.098 140.407 309.79 140.947 312.019C141.156 312.886 141.193 313.752 140.96 314.62C140.538 316.198 140.137 317.784 139.68 319.35C139.107 321.31 137.153 322.878 135.18 323.019C132.816 323.188 130.747 322.026 129.821 320.018C129.28 318.845 129.141 317.636 129.464 316.38C129.657 315.632 129.864 314.887 130.064 314.141L130.077 314.144L130.076 314.147ZM133.043 314.907C132.843 315.653 132.628 316.396 132.446 317.147C132.148 318.367 132.8 319.502 133.988 319.866C135.139 320.22 136.385 319.604 136.748 318.407C137.209 316.895 137.616 315.367 137.977 313.832C138.264 312.611 137.516 311.458 136.343 311.165C135.132 310.865 133.972 311.541 133.614 312.775C133.409 313.483 133.23 314.2 133.042 314.912L133.043 314.907Z" fill="#B4DBFF"/>
<path d="M159.615 300.016C159.17 300.293 158.739 300.592 158.282 300.847C157.456 301.305 156.574 301.08 156.134 300.328C155.692 299.572 155.917 298.672 156.723 298.19C158.273 297.265 159.839 296.366 161.406 295.466C162.004 295.124 162.617 295.109 163.178 295.54C163.719 295.955 163.86 296.533 163.729 297.189C163.699 297.344 163.655 297.495 163.614 297.65C162.654 301.232 161.694 304.814 160.734 308.396C160.666 308.651 160.592 308.906 160.481 309.141C160.17 309.799 159.474 310.121 158.777 309.958C158.046 309.786 157.564 309.178 157.593 308.434C157.603 308.191 157.654 307.948 157.718 307.711C158.34 305.368 158.971 303.025 159.598 300.683L159.745 300.137L159.619 300.02L159.615 300.016Z" fill="#B4DBFF"/>
<path d="M135.886 293.666C135.442 293.943 135.008 294.241 134.551 294.496C133.731 294.951 132.843 294.718 132.409 293.963C131.972 293.201 132.201 292.315 133.015 291.832C134.567 290.908 136.129 290.007 137.696 289.108C138.271 288.778 138.871 288.757 139.425 289.162C139.974 289.566 140.132 290.138 140.02 290.796C140.003 290.898 139.973 291 139.949 291.103C138.953 294.82 137.959 298.537 136.961 302.253C136.669 303.344 135.88 303.852 134.948 303.576C134.262 303.373 133.818 302.746 133.871 302.022C133.888 301.778 133.945 301.536 134.008 301.299C134.629 298.974 135.255 296.648 135.877 294.325C135.926 294.142 135.974 293.963 136.023 293.78L135.888 293.667L135.886 293.666Z" fill="#B4DBFF"/>
<path d="M148.201 316.718C147.786 316.976 147.38 317.25 146.953 317.491C146.089 317.985 145.153 317.772 144.716 316.999C144.264 316.201 144.534 315.334 145.422 314.81C146.917 313.929 148.424 313.065 149.924 312.196C150.555 311.83 151.194 311.779 151.787 312.248C152.361 312.701 152.473 313.325 152.293 314.008C151.602 316.607 150.911 319.205 150.202 321.8C149.95 322.72 149.171 323.196 148.333 322.995C147.467 322.787 146.987 321.995 147.216 321.04C147.511 319.811 147.861 318.594 148.189 317.37C148.237 317.191 148.286 317.009 148.334 316.829L148.2 316.723L148.201 316.718Z" fill="#B4DBFF"/>
</g>
</g>
<path d="M0 169.462C0 156.207 10.7452 145.462 24 145.462H113C126.255 145.462 137 156.207 137 169.462V258.462C137 271.717 126.255 282.462 113 282.462H24C10.7452 282.462 0 271.717 0 258.462V169.462Z" fill="url(#paint4_linear_821_53859)"/>
<g clip-path="url(#clip5_821_53859)">
<path d="M109.2 215.247C108.7 216.466 108.383 217.81 107.661 218.881C106.179 221.078 103.924 221.982 101.307 221.99C97.7218 221.999 94.138 221.993 90.5527 221.993H89.5506C89.6536 222.328 89.7211 222.596 89.816 222.855C92.7145 230.754 95.6259 238.647 98.5003 246.555C98.7271 247.177 98.8348 247.914 98.748 248.564C98.6145 249.559 97.7523 250.244 96.7325 250.339C95.7465 250.431 94.9519 250.044 94.4388 249.182C94.2362 248.841 94.093 248.46 93.9563 248.085C90.8567 239.662 87.7556 231.241 84.6834 222.809C84.4534 222.178 84.1703 221.97 83.5011 221.964C82.8368 221.958 82.594 222.196 82.38 222.788C79.3062 231.304 76.2147 239.813 73.0878 248.312C72.861 248.929 72.4251 249.547 71.9217 249.969C71.1946 250.579 70.0639 250.472 69.2982 249.924C68.4859 249.341 68.0597 248.342 68.3862 247.383C69.2467 244.856 70.1684 242.349 71.0788 239.839C73.128 234.19 75.1853 228.543 77.2377 222.896C77.3358 222.625 77.413 222.345 77.5256 221.993H74.2813C74.3569 220.609 74.4164 219.282 74.5129 217.959C74.5306 217.707 74.6754 217.456 74.7928 217.221C76.3739 214.039 77.9647 210.861 79.5459 207.678C80.9292 204.895 80.8085 202.216 78.9411 199.682C76.1214 195.853 69.8355 196.023 67.3423 200.068C66.1971 201.927 65.3011 203.941 64.2926 205.885C64.1575 206.145 64.0272 206.407 63.868 206.723C63.691 206.657 63.5222 206.609 63.3661 206.531C61.7609 205.738 60.1636 204.93 58.5519 204.152C58.1498 203.957 57.9552 203.741 57.9568 203.249C57.9777 197.55 57.9327 191.85 57.9825 186.151C58.0227 181.725 61.2494 178.499 65.6743 178.486C77.606 178.451 89.5362 178.457 101.468 178.485C105.471 178.494 108.376 181.04 109.092 185.01C109.105 185.084 109.163 185.149 109.2 185.218V215.247ZM83.5993 193.599C84.5885 193.599 85.5777 193.599 86.5669 193.599C89.882 193.597 93.1987 193.613 96.5138 193.583C97.8311 193.571 98.7978 192.593 98.875 191.319C98.9506 190.088 98.0386 189.009 96.747 188.822C96.4317 188.777 96.1068 188.783 95.7867 188.783C88.0049 188.782 80.223 188.782 72.4412 188.783C71.8525 188.783 71.2638 188.764 70.6767 188.795C69.6215 188.851 68.8366 189.351 68.4441 190.346C67.8007 191.971 68.9813 193.584 70.8424 193.592C75.0936 193.612 79.3464 193.599 83.5976 193.599H83.5993ZM91.1044 206.869C89.3962 206.869 87.6864 206.861 85.9782 206.876C85.6099 206.879 85.2238 206.901 84.878 207.016C83.7505 207.387 83.1312 208.478 83.321 209.67C83.5124 210.869 84.4662 211.67 85.8351 211.678C89.3062 211.699 92.7773 211.698 96.2468 211.68C97.8006 211.672 98.8863 210.64 98.8815 209.255C98.8766 207.855 97.8054 206.882 96.2291 206.872C94.5209 206.861 92.811 206.869 91.1028 206.869H91.1044ZM91.0578 202.636C92.7966 202.636 94.5353 202.655 96.2741 202.63C97.5947 202.61 98.4665 201.978 98.7721 200.897C99.2402 199.238 98.0885 197.843 96.1824 197.83C92.7853 197.808 89.3882 197.824 85.9911 197.825C85.7771 197.825 85.5632 197.842 85.3509 197.871C84.0352 198.049 83.1617 199.161 83.2969 200.475C83.432 201.775 84.3729 202.604 85.8399 202.628C87.5786 202.659 89.3174 202.635 91.0562 202.636H91.0578Z" fill="#B4DBFF"/>
<path d="M41.2657 204.264C34.7015 203.297 31.5826 197.933 31.8304 193.207C32.1006 188.09 36.0896 183.906 41.3285 183.332C46.2199 182.795 51.071 186.109 52.3804 190.886C53.22 193.946 52.776 196.815 51.071 199.487C49.3821 202.134 46.8938 203.59 43.8634 204.258C47.0241 204.09 49.8293 205.147 52.5605 206.516C57.0031 208.743 61.4522 210.952 65.9801 213.21C66.1265 212.939 66.268 212.695 66.3935 212.442C67.9264 209.385 69.4625 206.328 70.9841 203.266C71.4505 202.328 72.1341 201.736 73.2231 201.72C74.8895 201.695 76.0508 203.273 75.5232 204.856C75.4138 205.184 75.2578 205.498 75.1034 205.807C73.3228 209.367 71.5278 212.922 69.7713 216.495C69.5879 216.867 69.522 217.369 69.5879 217.78C69.9772 220.212 69.2276 222.229 67.3988 223.817C65.5345 225.434 63.3164 225.952 61.0436 225.032C58.4749 223.993 56.03 222.647 53.532 221.434C53.2264 221.286 52.9208 221.14 52.4592 220.918V222.059C52.4592 230.435 52.4592 238.812 52.4592 247.188C52.4592 249.566 51.6469 250.385 49.2905 250.385C44.5808 250.385 39.8728 250.387 35.1631 250.385C33.0303 250.385 32.1537 249.499 32.1521 247.349C32.1521 243.335 32.1392 239.321 32.1649 235.306C32.1681 234.719 32.0137 234.43 31.454 234.172C28.9898 233.041 27.296 231.101 27.1641 228.414C26.9759 224.552 26.8424 220.622 27.3572 216.81C28.2306 210.333 33.6399 205.369 40.0931 204.463C40.4615 204.412 40.8266 204.338 41.2641 204.262L41.2657 204.264Z" fill="#B4DBFF"/>
</g>
<defs>
<filter id="filter0_b_821_53859" x="157" y="191.025" width="60" height="59" filterUnits="userSpaceOnUse" color-interpolation-filters="sRGB">
<feFlood flood-opacity="0" result="BackgroundImageFix"/>
<feGaussianBlur in="BackgroundImageFix" stdDeviation="3"/>
<feComposite in2="SourceAlpha" operator="in" result="effect1_backgroundBlur_821_53859"/>
<feBlend mode="normal" in="SourceGraphic" in2="effect1_backgroundBlur_821_53859" result="shape"/>
</filter>
<linearGradient id="paint0_linear_821_53859" x1="176.5" y1="231.15" x2="190.976" y2="237.26" gradientUnits="userSpaceOnUse">
<stop stop-color="#4CA3F2"/>
<stop offset="1" stop-color="#80C2FF"/>
</linearGradient>
<linearGradient id="paint1_linear_821_53859" x1="18.5381" y1="26.3994" x2="118.204" y2="0.672755" gradientUnits="userSpaceOnUse">
<stop stop-color="#4CA3F2"/>
<stop offset="1" stop-color="#80C2FF"/>
</linearGradient>
<linearGradient id="paint2_linear_821_53859" x1="113" y1="72.4619" x2="215.928" y2="73.4072" gradientUnits="userSpaceOnUse">
<stop stop-color="#4CA3F2"/>
<stop offset="1" stop-color="#80C2FF"/>
</linearGradient>
<linearGradient id="paint3_linear_821_53859" x1="125.716" y1="251.472" x2="203.501" y2="273.082" gradientUnits="userSpaceOnUse">
<stop stop-color="#4CA3F2"/>
<stop offset="1" stop-color="#80C2FF"/>
</linearGradient>
<linearGradient id="paint4_linear_821_53859" x1="0" y1="145.462" x2="138.247" y2="146.732" gradientUnits="userSpaceOnUse">
<stop stop-color="#4CA3F2"/>
<stop offset="1" stop-color="#80C2FF"/>
</linearGradient>
<clipPath id="clip0_821_53859">
<rect width="102" height="102" fill="white" transform="translate(18.5381 26.3994) rotate(-15)"/>
</clipPath>
<clipPath id="clip1_821_53859">
<rect width="55.9038" height="55.9038" fill="white" transform="translate(47.0527 42.8618) rotate(-15)"/>
</clipPath>
<clipPath id="clip2_821_53859">
<rect width="102" height="102" fill="white" transform="translate(113 72.4619)"/>
</clipPath>
<clipPath id="clip3_821_53859">
<rect width="80" height="80" fill="white" transform="translate(125.716 251.472) rotate(15)"/>
</clipPath>
<clipPath id="clip4_821_53859">
<rect width="46" height="54" fill="white" transform="translate(138.772 268.429) rotate(15)"/>
</clipPath>
<clipPath id="clip5_821_53859">
<rect width="82.2" height="71.925" fill="white" transform="translate(27 178.462)"/>
</clipPath>
</defs>
</svg>
