<svg width="241" height="149" viewBox="0 0 241 149" fill="none" xmlns="http://www.w3.org/2000/svg">
<g filter="url(#filter0_b_821_53960)">
<ellipse cx="152.085" cy="19.4046" rx="16.6326" ry="16.2068" transform="rotate(-90 152.085 19.4046)" fill="white"/>
</g>
<path d="M149.967 25.227V13.5029L156.204 19.365L149.967 25.227Z" fill="url(#paint0_linear_821_53960)"/>
<g clip-path="url(#clip0_821_53960)">
<path d="M34.1947 131.848C25.3649 134.226 16.289 128.96 13.9231 120.087L4.2844 83.939C1.91848 75.0661 7.15844 65.9458 15.9882 63.5684L51.9604 53.8825C60.7901 51.505 69.866 56.7706 72.2319 65.6435L81.8707 101.792C84.2366 110.664 78.9966 119.785 70.1669 122.162L34.1947 131.848Z" fill="url(#paint1_linear_821_53960)"/>
<g clip-path="url(#clip1_821_53960)">
<path d="M53.5022 78.2581C51.3527 78.8341 49.1348 77.5634 48.5561 75.4243C47.9773 73.2853 49.2542 71.0782 51.4037 70.5022C53.5533 69.9263 55.7711 71.1969 56.3499 73.336C56.9286 75.4751 55.6517 77.6821 53.5022 78.2581ZM51.8234 72.0534C50.5343 72.3988 49.7677 73.7238 50.1148 75.0067C50.4619 76.2895 51.7934 77.0523 53.0825 76.7069C54.3716 76.3615 55.1382 75.0365 54.7911 73.7536C54.444 72.4708 53.1125 71.708 51.8234 72.0534Z" fill="#B4DBFF"/>
<path d="M58.598 78.5565C58.3985 78.6099 58.1784 78.5874 57.9849 78.4778L55.0172 76.7776C54.6314 76.5566 54.4984 76.0648 54.7205 75.6809C54.9426 75.297 55.4367 75.1646 55.8225 75.3856L58.7902 77.0859C59.176 77.3069 59.3091 77.7986 59.0869 78.1826C58.9765 78.3735 58.7975 78.503 58.598 78.5565Z" fill="#B4DBFF"/>
<path d="M44.5694 82.3153L24.3055 87.745C23.0164 88.0904 21.6849 87.3276 21.3378 86.0447L20.0788 81.3912C19.7317 80.1084 20.4983 78.7834 21.7874 78.4379L42.0513 73.0082C43.3404 72.6628 44.6719 73.4257 45.019 74.7085L46.278 79.362C46.6251 80.6449 45.8585 81.9699 44.5694 82.3153ZM22.2071 79.9891C21.7784 80.104 21.5221 80.547 21.6375 80.9735L22.8966 85.6271C23.012 86.0536 23.4572 86.3087 23.8858 86.1938L44.1497 80.7641C44.5784 80.6493 44.8347 80.2063 44.7193 79.7797L43.4602 75.1262C43.3448 74.6996 42.8996 74.4446 42.471 74.5594L22.2071 79.9891Z" fill="#B4DBFF"/>
<path d="M34.1984 115.039C31.6202 115.73 28.9572 114.205 28.263 111.639C27.5688 109.073 29.102 106.423 31.6802 105.732C34.2584 105.042 36.9214 106.567 37.6156 109.133C38.3097 111.699 36.7765 114.349 34.1984 115.039ZM32.0999 107.284C30.3806 107.744 29.3588 109.51 29.8217 111.221C30.2847 112.932 32.0593 113.949 33.7787 113.488C35.498 113.028 36.5197 111.261 36.0568 109.551C35.5939 107.84 33.8192 106.823 32.0999 107.284Z" fill="#B4DBFF"/>
<path d="M33.4782 96.9327L25.6844 99.021C25.2542 99.1363 24.811 98.8824 24.6952 98.4543C24.5794 98.0262 24.8345 97.5852 25.2647 97.4699L33.0585 95.3815C33.4888 95.2663 33.9319 95.5202 34.0478 95.9483C34.1636 96.3764 33.9085 96.8174 33.4782 96.9327Z" fill="#B4DBFF"/>
<path d="M34.7375 101.586L26.9437 103.674C26.5135 103.79 26.0703 103.536 25.9545 103.108C25.8386 102.679 26.0938 102.238 26.524 102.123L34.3178 100.035C34.748 99.9196 35.1912 100.173 35.3071 100.602C35.4229 101.03 35.1677 101.471 34.7375 101.586Z" fill="#B4DBFF"/>
<path d="M32.2195 92.2789L24.4256 94.3672C23.9954 94.4825 23.5522 94.2286 23.4364 93.8005C23.3206 93.3724 23.5757 92.9313 24.0059 92.8161L31.7998 90.7277C32.23 90.6124 32.6732 90.8664 32.789 91.2945C32.9048 91.7226 32.6497 92.1636 32.2195 92.2789Z" fill="#B4DBFF"/>
<path d="M64.594 106.895L44.3301 112.325C43.041 112.67 41.7095 111.907 41.3624 110.624L35.9064 90.4591C35.5593 89.1763 36.3259 87.8512 37.615 87.5058L57.8789 82.0761C59.168 81.7307 60.4995 82.4936 60.8466 83.7764L66.3026 103.942C66.6497 105.224 65.8831 106.549 64.594 106.895ZM38.0347 89.057C37.606 89.1719 37.3497 89.6148 37.4652 90.0414L42.9212 110.207C43.0366 110.633 43.4817 110.888 43.9104 110.773L64.1743 105.344C64.603 105.229 64.8593 104.786 64.7438 104.359L59.2878 84.194C59.1724 83.7675 58.7273 83.5124 58.2986 83.6273L38.0347 89.057Z" fill="#B4DBFF"/>
<path d="M50.6851 95.6496C49.396 95.995 48.0645 95.2321 47.7174 93.9493C47.3703 92.6665 48.1369 91.3415 49.426 90.9961C50.7151 90.6506 52.0466 91.4135 52.3937 92.6963C52.7408 93.9791 51.9742 95.3042 50.6851 95.6496ZM49.8457 92.5472C49.4171 92.6621 49.1608 93.1051 49.2762 93.5317C49.3916 93.9582 49.8368 94.2133 50.2654 94.0984C50.6941 93.9835 50.9504 93.5406 50.835 93.114C50.7195 92.6874 50.2744 92.4324 49.8457 92.5472Z" fill="#B4DBFF"/>
<path d="M56.2605 100.81C55.8303 100.925 55.3871 100.671 55.2713 100.243L55.0614 99.4676C54.8298 98.6114 53.9434 98.1036 53.083 98.3341L49.9654 99.1694C49.105 99.4 48.5947 100.282 48.8264 101.138L49.0362 101.914C49.1521 102.342 48.8969 102.783 48.4667 102.898C48.0365 103.014 47.5933 102.76 47.4775 102.332L47.2676 101.556C46.8047 99.845 47.8264 98.079 49.5457 97.6183L52.6633 96.7829C54.3826 96.3222 56.1573 97.339 56.6202 99.0499L56.83 99.8255C56.9459 100.254 56.6907 100.695 56.2605 100.81Z" fill="#B4DBFF"/>
</g>
</g>
<g clip-path="url(#clip2_821_53960)">
<path d="M66.5253 70.6885C57.3841 70.6885 49.9736 63.2418 49.9736 54.0559L49.9736 16.6327C49.9736 7.44677 57.3841 0.000114117 66.5253 0.000113717L103.766 0.00011209C112.908 0.00011169 120.318 7.44676 120.318 16.6327L120.318 54.0559C120.318 63.2418 112.908 70.6885 103.766 70.6885L66.5253 70.6885Z" fill="url(#paint2_linear_821_53960)"/>
<g clip-path="url(#clip3_821_53960)">
<path d="M105.121 51.835H105.044V50.85C105.044 50.0222 104.368 49.3488 103.536 49.3488H101.739V47.9905C101.739 47.3453 101.229 46.8178 100.59 46.7821V34.0146C101.229 33.979 101.739 33.4514 101.739 32.8062V31.448H103.482C104.146 31.448 104.687 30.9102 104.687 30.2491V28.9691H105.603C106.142 28.9691 106.581 28.5325 106.581 27.996V26.8896C106.581 26.5318 106.385 26.2039 106.068 26.0336L91.6342 18.2658C91.3277 18.1006 90.9453 18.2143 90.7799 18.5191C90.6143 18.8239 90.7282 19.2045 91.0345 19.3692L105.32 27.0573V27.7144H64.9712V27.0627L85.4557 16.3669L88.4369 17.9714C88.7433 18.1364 89.1256 18.0227 89.2912 17.718C89.4568 17.4133 89.3428 17.0326 89.0366 16.8679L86.0553 15.2634C85.687 15.0652 85.2458 15.0625 84.8749 15.2561L64.2342 26.0308C63.9111 26.1994 63.7104 26.5296 63.7104 26.8925V27.9959C63.7104 28.5325 64.1492 28.969 64.6884 28.969H65.6047V30.2491C65.6047 30.9101 66.1451 31.448 66.8094 31.448H68.5528V32.8062C68.5528 33.4514 69.0625 33.979 69.7021 34.0146V42.3262C69.7021 42.6727 69.9843 42.9535 70.3324 42.9535C70.6805 42.9535 70.9627 42.6726 70.9627 42.3262V34.0181H72.9798V46.7787H70.9628V45.2745C70.9628 44.928 70.6806 44.6472 70.3325 44.6472C69.9844 44.6472 69.7021 44.928 69.7021 45.2745V46.7821C69.0626 46.8178 68.5528 47.3453 68.5528 47.9905V49.3488H66.7558C65.924 49.3488 65.2472 50.0222 65.2472 50.85V51.835H65.1708C64.3388 51.835 63.6621 52.5085 63.6621 53.3363V54.6484C63.6621 55.1598 64.0803 55.576 64.5942 55.576H105.697C106.211 55.576 106.63 55.1599 106.63 54.6484V53.3363C106.63 52.5085 105.953 51.835 105.121 51.835ZM66.8654 30.1934V28.9691H103.426V30.1934H66.8654ZM100.478 48.0332V49.3487H96.1624V48.0332H100.478ZM97.3117 46.7786V34.0181H99.3289V46.7786H97.3117ZM96.1624 32.7635V31.448H100.478V32.7635H96.1624ZM91.8066 46.7821V34.0146C92.4462 33.979 92.9559 33.4514 92.9559 32.8062V31.448H94.9017V32.8062C94.9017 33.4514 95.4114 33.979 96.051 34.0146V46.7821C95.4114 46.8178 94.9017 47.3453 94.9017 47.9905V49.3488H92.9559V47.9905C92.9559 47.3453 92.4462 46.8178 91.8066 46.7821ZM91.6952 48.0332V49.3487H87.3795V48.0332H91.6952ZM88.5288 46.7786V34.0181H90.5459V46.7786H88.5288ZM87.3795 32.7635V31.448H91.6952V32.7635H87.3795ZM83.0236 46.7821V34.0146C83.6632 33.979 84.1729 33.4514 84.1729 32.8062V31.448H86.1187V32.8062C86.1187 33.4514 86.6285 33.979 87.268 34.0146V46.7821C86.6285 46.8178 86.1187 47.3453 86.1187 47.9905V49.3488H84.1729V47.9905C84.1729 47.3453 83.6632 46.8178 83.0236 46.7821ZM82.3932 48.0332H82.9122V49.3487H78.5965V48.0332H79.1154H82.3932ZM79.7458 46.7786V34.0181H81.7629V46.7786H79.7458ZM78.5965 32.7635V31.448H82.9122V32.7635H78.5965ZM74.2407 46.7821V34.0146C74.8802 33.979 75.39 33.4514 75.39 32.8062V31.448H77.3357V32.8062C77.3357 33.4514 77.8455 33.979 78.485 34.0146V46.7821C77.8455 46.8178 77.3357 47.3453 77.3357 47.9905V49.3488H75.39V47.9905C75.39 47.3453 74.8802 46.8178 74.2407 46.7821ZM69.8135 32.7635V31.448H74.1292V32.7635H69.8135ZM69.8135 48.0332H70.3325H73.6103H74.1293V49.3487H69.8135V48.0332ZM66.5079 50.85C66.5079 50.714 66.6191 50.6033 66.7558 50.6033H103.536C103.673 50.6033 103.784 50.714 103.784 50.85V51.835H66.5079V50.85ZM105.369 54.3214H64.9229V53.3363C64.9229 53.2004 65.034 53.0896 65.1708 53.0896H105.121C105.258 53.0896 105.369 53.2003 105.369 53.3363V54.3214Z" fill="#B4DBFF"/>
</g>
</g>
<g clip-path="url(#clip4_821_53960)">
<path d="M184.087 64.7461C178.201 63.1611 174.707 57.0809 176.284 51.1657L184.852 19.034C186.43 13.1188 192.48 9.60839 198.367 11.1934L230.342 19.803C236.228 21.388 239.722 27.4682 238.144 33.3835L229.577 65.5151C227.999 71.4304 221.949 74.9407 216.062 73.3557L184.087 64.7461Z" fill="url(#paint3_linear_821_53960)"/>
<g clip-path="url(#clip5_821_53960)">
<path d="M224.362 27.5855C224.93 27.9313 225.49 28.2752 225.888 28.8359C226.479 29.6679 226.763 30.5967 226.544 31.581C226.251 32.9033 225.916 34.2293 225.451 35.4998C224.882 37.0492 223.077 37.9645 221.488 37.6625C219.729 37.3295 218.477 35.9199 218.42 34.1992C218.412 33.97 218.389 33.7293 218.445 33.5138C218.782 32.2125 219.057 30.8851 219.516 29.6257C220.073 28.0973 221.539 27.2571 223.169 27.336C223.24 27.3402 223.31 27.3275 223.381 27.3227L224.366 27.5864L224.362 27.5855ZM221.015 32.113C220.866 32.662 220.693 33.2062 220.574 33.7613C220.413 34.5136 220.828 35.1987 221.571 35.4809C222.24 35.7359 223.151 35.5092 223.385 34.8393C223.828 33.5792 224.18 32.2764 224.439 30.9652C224.576 30.2673 223.918 29.6184 223.205 29.4975C222.418 29.3641 221.708 29.7407 221.467 30.4679C221.288 31.0069 221.163 31.564 221.015 32.113Z" fill="#B4DBFF"/>
<path d="M214.806 25.0251C215.443 25.4022 216.049 25.8083 216.451 26.4569C217.008 27.3574 217.17 28.3217 216.928 29.3476C216.79 29.9309 216.244 30.27 215.691 30.1605C215.118 30.0476 214.778 29.5708 214.837 28.9572C214.854 28.7772 214.899 28.5974 214.896 28.4175C214.888 27.6788 214.359 27.0592 213.644 26.9339C212.863 26.7968 212.151 27.1375 211.92 27.8692C211.571 28.9663 211.27 30.0797 211.011 31.2008C210.837 31.955 211.226 32.5818 211.944 32.8903C212.099 32.9577 212.267 32.999 212.412 33.0823C212.861 33.3409 213.052 33.9051 212.863 34.3752C212.669 34.862 212.173 35.1333 211.659 35.0343C210.211 34.7572 208.915 33.2932 208.86 31.8056C208.842 31.3061 208.906 30.7898 209.018 30.3012C209.222 29.4035 209.487 28.5185 209.73 27.6293C210.241 25.76 211.735 24.6839 213.678 24.7818C213.725 24.7852 213.772 24.7683 213.819 24.7604L214.803 25.0241L214.806 25.0251Z" fill="#B4DBFF"/>
<path d="M207.5 23.067C208.044 23.4565 208.147 23.9639 207.972 24.598C207.277 27.112 206.606 29.6307 205.918 32.1466C205.862 32.3548 205.784 32.5683 205.664 32.7431C205.381 33.1562 204.819 33.2825 204.363 33.07C203.882 32.8449 203.655 32.3337 203.811 31.7499C204.257 30.0736 204.713 28.4 205.166 26.7273C205.199 26.6034 205.233 26.4795 205.296 26.2454C204.901 26.4791 204.606 26.6621 204.304 26.8304C203.695 27.1693 203.063 27.0239 202.755 26.4819C202.446 25.9339 202.636 25.3333 203.25 24.9754C204.278 24.376 205.308 23.7809 206.343 23.1962C206.55 23.0783 206.786 23.0196 207.008 22.9351L207.5 23.067Z" fill="#B4DBFF"/>
<path d="M206.004 42.2104C205.865 42.725 205.736 43.2423 205.585 43.7536C205.109 45.3594 203.737 46.3797 202.005 46.4249C200.512 46.4642 199.053 45.4366 198.535 43.9615C198.328 43.3707 198.235 42.7459 198.39 42.1395C198.72 40.8364 199.023 39.5186 199.484 38.2596C200.057 36.693 201.838 35.8063 203.516 36.1063C205.181 36.4049 206.516 37.8682 206.496 39.5478C206.485 40.4401 206.236 41.3314 206.095 42.2219L206.005 42.207L206.004 42.2104ZM200.944 40.8418L200.948 40.8427C200.796 41.4038 200.622 41.9588 200.5 42.5259C200.373 43.1193 200.669 43.7302 201.182 44.0505C202.118 44.6337 203.229 44.1839 203.553 43.0691C203.827 42.1272 204.072 41.1779 204.321 40.2295C204.365 40.0678 204.395 39.8967 204.396 39.729C204.403 38.9724 203.869 38.3605 203.093 38.2226C202.345 38.0885 201.636 38.4764 201.395 39.198C201.216 39.737 201.091 40.2941 200.942 40.8431L200.944 40.8418Z" fill="#B4DBFF"/>
<path d="M215.374 44.7024C215.519 44.1637 215.648 43.6205 215.814 43.0891C216.429 41.1239 218.521 40.0345 220.478 40.6474C222.198 41.1858 223.314 42.8914 222.981 44.7252C222.739 46.054 222.361 47.3719 221.895 48.6424C221.33 50.1836 219.55 51.1019 217.977 50.8171C216.172 50.4903 214.868 49.0944 214.881 47.3279C214.889 46.4476 215.141 45.5685 215.283 44.6892L215.373 44.7041L215.374 44.7024ZM217.457 45.2513C217.308 45.8002 217.151 46.3469 217.014 46.8991C216.909 47.323 217.013 47.7163 217.267 48.0651C217.635 48.5678 218.141 48.7847 218.754 48.7016C219.352 48.62 219.807 48.297 219.981 47.7087C220.302 46.6172 220.584 45.5151 220.876 44.4158C220.903 44.3126 220.906 44.2007 220.904 44.093C220.877 43.3328 220.341 42.7572 219.547 42.6349C218.824 42.5225 218.133 42.9297 217.899 43.6423C217.727 44.1702 217.604 44.7148 217.458 45.2534L217.457 45.2513Z" fill="#B4DBFF"/>
<path d="M190.623 51.6918C190.778 51.1187 190.913 50.5384 191.092 49.9735C191.582 48.4215 193.105 47.3939 194.781 47.4627C196.366 47.5273 197.786 48.6961 198.158 50.2336C198.303 50.8315 198.328 51.4288 198.166 52.0277C197.871 53.1153 197.592 54.2088 197.274 55.2882C196.875 56.6395 195.52 57.7196 194.153 57.8147C192.514 57.9293 191.081 57.1264 190.441 55.7405C190.068 54.9316 189.972 54.0976 190.197 53.2314C190.331 52.7155 190.476 52.2023 190.615 51.6877L190.623 51.69L190.623 51.6918ZM192.679 52.2186C192.539 52.7331 192.39 53.2449 192.263 53.7627C192.055 54.6041 192.506 55.3875 193.329 55.6395C194.127 55.8845 194.991 55.4608 195.243 54.6352C195.564 53.5934 195.847 52.5398 196.099 51.4812C196.299 50.6397 195.781 49.844 194.969 49.641C194.13 49.4329 193.325 49.8982 193.076 50.7489C192.933 51.2366 192.809 51.7311 192.678 52.222L192.679 52.2186Z" fill="#B4DBFF"/>
<path d="M211.105 41.9714C210.797 42.162 210.498 42.3678 210.181 42.5432C209.608 42.8586 208.997 42.7022 208.693 42.1832C208.387 41.6621 208.544 41.0415 209.103 40.7094C210.178 40.0727 211.264 39.454 212.351 38.8352C212.765 38.5992 213.191 38.5895 213.579 38.8874C213.953 39.1741 214.05 39.5729 213.959 40.0248C213.938 40.1316 213.908 40.2361 213.879 40.3428C213.211 42.8123 212.543 45.2819 211.874 47.7514C211.827 47.9269 211.776 48.1033 211.698 48.2653C211.482 48.7185 210.999 48.9399 210.517 48.8272C210.01 48.708 209.677 48.2884 209.697 47.7753C209.704 47.6073 209.74 47.4398 209.785 47.2763C210.218 45.6612 210.657 44.0457 211.094 42.4314L211.195 42.0546L211.108 41.974L211.105 41.9714Z" fill="#B4DBFF"/>
<path d="M194.666 37.572C194.358 37.7626 194.057 37.968 193.74 38.1433C193.172 38.4562 192.557 38.295 192.257 37.7735C191.954 37.2477 192.114 36.6371 192.678 36.3047C193.755 35.6684 194.838 35.0487 195.924 34.43C196.323 34.2028 196.739 34.1887 197.123 34.4687C197.503 34.7478 197.612 35.1425 197.534 35.5958C197.522 35.6665 197.501 35.7366 197.484 35.8076C196.791 38.3701 196.099 40.933 195.404 43.495C195.2 44.247 194.654 44.597 194.008 44.4055C193.533 44.2652 193.225 43.8322 193.263 43.3328C193.275 43.1644 193.314 42.9979 193.359 42.8344C193.79 41.2317 194.226 39.6283 194.66 38.0261C194.694 37.9005 194.727 37.7766 194.761 37.6509L194.668 37.5724L194.666 37.572Z" fill="#B4DBFF"/>
<path d="M203.182 53.4806C202.894 53.6582 202.612 53.8466 202.316 54.0128C201.717 54.3524 201.068 54.2045 200.766 53.6713C200.453 53.1206 200.641 52.523 201.257 52.1621C202.294 51.5559 203.339 50.961 204.38 50.3631C204.817 50.1111 205.26 50.0766 205.67 50.4008C206.067 50.7139 206.145 51.1443 206.019 51.6146C205.538 53.407 205.057 55.1977 204.564 56.9869C204.389 57.621 203.848 57.9485 203.267 57.8096C202.668 57.6655 202.336 57.1188 202.495 56.4603C202.701 55.6127 202.944 54.7736 203.173 53.9304C203.206 53.8065 203.24 53.6809 203.274 53.5569L203.181 53.4841L203.182 53.4806Z" fill="#B4DBFF"/>
</g>
</g>
<path d="M116.87 149C107.728 149 100.318 141.553 100.318 132.367L100.318 70.6884C100.318 61.5025 107.728 54.0558 116.87 54.0558L178.248 54.0558C187.39 54.0558 194.8 61.5025 194.8 70.6884L194.8 132.367C194.8 141.553 187.39 149 178.248 149L116.87 149Z" fill="url(#paint4_linear_821_53960)"/>
<g clip-path="url(#clip6_821_53960)">
<path d="M176.361 102.373C176.014 103.214 175.795 104.14 175.294 104.879C174.267 106.394 172.705 107.017 170.891 107.023C168.406 107.03 165.923 107.025 163.438 107.025H162.743C162.815 107.256 162.862 107.441 162.927 107.62C164.936 113.067 166.954 118.511 168.946 123.964C169.103 124.394 169.178 124.902 169.117 125.35C169.025 126.036 168.427 126.508 167.721 126.574C167.037 126.637 166.487 126.371 166.131 125.776C165.991 125.541 165.891 125.278 165.797 125.019C163.649 119.211 161.499 113.403 159.37 107.588C159.211 107.153 159.015 107.01 158.551 107.005C158.091 107.001 157.922 107.165 157.774 107.573C155.644 113.446 153.501 119.315 151.334 125.176C151.177 125.602 150.875 126.028 150.526 126.319C150.022 126.739 149.239 126.666 148.708 126.288C148.145 125.886 147.85 125.197 148.076 124.536C148.672 122.792 149.311 121.064 149.942 119.333C151.362 115.437 152.788 111.542 154.21 107.648C154.278 107.461 154.332 107.268 154.41 107.025H152.161C152.214 106.071 152.255 105.156 152.322 104.243C152.334 104.069 152.435 103.896 152.516 103.734C153.612 101.539 154.714 99.3479 155.81 97.1531C156.769 95.2335 156.685 93.3861 155.391 91.6385C153.437 88.9976 149.08 89.1153 147.353 91.9048C146.559 93.1864 145.938 94.5756 145.239 95.9159C145.145 96.0957 145.055 96.2766 144.945 96.494C144.822 96.4486 144.705 96.4153 144.597 96.362C143.484 95.815 142.378 95.258 141.261 94.7209C140.982 94.5867 140.847 94.438 140.848 94.0984C140.863 90.1683 140.831 86.237 140.866 82.3068C140.894 79.2543 143.13 77.0296 146.197 77.0207C154.466 76.9963 162.733 77.0007 171.002 77.0196C173.777 77.0263 175.79 78.7816 176.286 81.5201C176.295 81.5711 176.335 81.6155 176.361 81.6632V102.373ZM158.619 87.4431C159.305 87.4431 159.99 87.4431 160.676 87.4431C162.973 87.442 165.272 87.4531 167.569 87.432C168.482 87.4242 169.152 86.7496 169.205 85.8708C169.258 85.022 168.626 84.2774 167.731 84.1487C167.512 84.1177 167.287 84.1221 167.065 84.1221C161.672 84.121 156.279 84.121 150.886 84.1221C150.478 84.1221 150.07 84.1088 149.663 84.1299C148.932 84.1687 148.388 84.5138 148.116 85.1995C147.67 86.3202 148.488 87.4331 149.778 87.4387C152.724 87.452 155.672 87.4431 158.618 87.4431H158.619ZM163.82 96.595C162.636 96.595 161.451 96.5895 160.268 96.5995C160.012 96.6017 159.745 96.6172 159.505 96.696C158.724 96.9523 158.295 97.7046 158.426 98.5268C158.559 99.3535 159.22 99.906 160.168 99.9116C162.574 99.926 164.98 99.9249 167.384 99.9127C168.461 99.9072 169.213 99.1959 169.21 98.2405C169.207 97.2752 168.464 96.6039 167.372 96.5972C166.188 96.5895 165.003 96.595 163.819 96.595H163.82ZM163.788 93.6757C164.993 93.6757 166.198 93.689 167.403 93.6712C168.318 93.6579 168.922 93.2219 169.134 92.4762C169.458 91.3322 168.66 90.3702 167.339 90.3613C164.985 90.3458 162.631 90.3569 160.277 90.358C160.128 90.358 159.98 90.3691 159.833 90.3891C158.921 90.5122 158.316 91.279 158.409 92.1855C158.503 93.0821 159.155 93.6535 160.172 93.6701C161.377 93.6912 162.582 93.6746 163.787 93.6757H163.788Z" fill="#B4DBFF"/>
<path d="M129.281 94.7984C124.732 94.1315 122.57 90.4321 122.742 87.1733C122.929 83.6437 125.694 80.7587 129.324 80.3626C132.714 79.992 136.076 82.2778 136.984 85.5721C137.566 87.6826 137.258 89.661 136.076 91.504C134.906 93.3293 133.181 94.3335 131.081 94.7939C133.272 94.6785 135.216 95.4075 137.108 96.3518C140.187 97.8875 143.271 99.411 146.409 100.968C146.51 100.781 146.608 100.613 146.695 100.438C147.757 98.3302 148.822 96.222 149.876 94.1104C150.2 93.4635 150.673 93.0552 151.428 93.0441C152.583 93.0264 153.388 94.1149 153.022 95.2067C152.946 95.4331 152.838 95.6494 152.731 95.8625C151.497 98.318 150.253 100.769 149.036 103.233C148.909 103.49 148.863 103.836 148.909 104.12C149.179 105.797 148.659 107.188 147.392 108.283C146.1 109.398 144.563 109.756 142.987 109.121C141.207 108.404 139.513 107.477 137.782 106.64C137.57 106.538 137.358 106.437 137.038 106.284V107.07C137.038 112.847 137.038 118.625 137.038 124.401C137.038 126.041 136.475 126.606 134.842 126.606C131.578 126.606 128.316 126.607 125.052 126.606C123.574 126.606 122.966 125.995 122.965 124.512C122.965 121.744 122.956 118.975 122.974 116.207C122.976 115.802 122.869 115.602 122.481 115.425C120.773 114.645 119.6 113.306 119.508 111.453C119.378 108.79 119.285 106.08 119.642 103.451C120.247 98.9838 123.996 95.5607 128.468 94.936C128.724 94.9005 128.977 94.8494 129.28 94.7973L129.281 94.7984Z" fill="#B4DBFF"/>
</g>
<defs>
<filter id="filter0_b_821_53960" x="129.878" y="-3.22803" width="44.4136" height="45.2651" filterUnits="userSpaceOnUse" color-interpolation-filters="sRGB">
<feFlood flood-opacity="0" result="BackgroundImageFix"/>
<feGaussianBlur in="BackgroundImageFix" stdDeviation="3"/>
<feComposite in2="SourceAlpha" operator="in" result="effect1_backgroundBlur_821_53960"/>
<feBlend mode="normal" in="SourceGraphic" in2="effect1_backgroundBlur_821_53960" result="shape"/>
</filter>
<linearGradient id="paint0_linear_821_53960" x1="144.769" y1="26.6925" x2="154.786" y2="30.9414" gradientUnits="userSpaceOnUse">
<stop stop-color="#4CA3F2"/>
<stop offset="1" stop-color="#80C2FF"/>
</linearGradient>
<linearGradient id="paint1_linear_821_53960" x1="18.2067" y1="136.153" x2="0.301356" y2="67.1248" gradientUnits="userSpaceOnUse">
<stop stop-color="#4CA3F2"/>
<stop offset="1" stop-color="#80C2FF"/>
</linearGradient>
<linearGradient id="paint2_linear_821_53960" x1="49.9736" y1="70.6885" x2="50.6319" y2="-0.643013" gradientUnits="userSpaceOnUse">
<stop stop-color="#4CA3F2"/>
<stop offset="1" stop-color="#80C2FF"/>
</linearGradient>
<linearGradient id="paint3_linear_821_53960" x1="173.428" y1="61.8761" x2="188.467" y2="8.00692" gradientUnits="userSpaceOnUse">
<stop stop-color="#4CA3F2"/>
<stop offset="1" stop-color="#80C2FF"/>
</linearGradient>
<linearGradient id="paint4_linear_821_53960" x1="100.318" y1="149" x2="101.202" y2="53.192" gradientUnits="userSpaceOnUse">
<stop stop-color="#4CA3F2"/>
<stop offset="1" stop-color="#80C2FF"/>
</linearGradient>
<clipPath id="clip0_821_53960">
<rect width="70.6654" height="70.3675" fill="white" transform="matrix(-0.257644 -0.96624 0.965609 -0.259999 18.2065 136.153)"/>
</clipPath>
<clipPath id="clip1_821_53960">
<rect width="38.73" height="38.5668" fill="white" transform="matrix(0.965926 -0.258819 0.261174 0.965292 19.4492 79.0645)"/>
</clipPath>
<clipPath id="clip2_821_53960">
<rect width="70.6884" height="70.3445" fill="white" transform="translate(49.9736 70.6885) rotate(-90)"/>
</clipPath>
<clipPath id="clip3_821_53960">
<rect width="42.9674" height="42.7584" fill="white" transform="translate(63.6621 13.9653)"/>
</clipPath>
<clipPath id="clip4_821_53960">
<rect width="55.4238" height="55.1902" fill="white" transform="matrix(0.257644 -0.96624 0.965609 0.259999 173.428 61.876)"/>
</clipPath>
<clipPath id="clip5_821_53960">
<rect width="31.8687" height="37.2534" fill="white" transform="matrix(0.965926 0.258819 -0.261174 0.965292 196.688 20.1699)"/>
</clipPath>
<clipPath id="clip6_821_53960">
<rect width="56.9665" height="49.6032" fill="white" transform="translate(119.395 77.0039)"/>
</clipPath>
</defs>
</svg>
