<svg width="48" height="48" viewBox="0 0 48 48" fill="none" xmlns="http://www.w3.org/2000/svg">
<g clip-path="url(#clip0_64_1756)">
<path d="M47.9862 21.0939V45.3751C47.9586 45.4615 47.9248 45.5466 47.906 45.6356C47.5854 47.141 46.5333 47.9989 44.9815 47.9989C30.9867 48.0002 16.9906 48.0014 2.99578 47.9989C1.23358 47.9989 0.0237205 46.8342 0.0212156 45.082C0.00994361 37.1941 0.0149534 29.3062 0.0174583 21.4183C0.0174583 20.6029 0.27922 19.8865 0.871627 19.3079C1.50411 18.6892 2.28188 18.4963 3.14356 18.4976C17.0445 18.5026 30.9466 18.5001 44.8475 18.5026C45.0654 18.5026 45.2846 18.5151 45.5013 18.5427C46.6949 18.6942 47.6392 19.5659 47.891 20.7382C47.9173 20.8584 47.9548 20.9762 47.9874 21.0951L47.9862 21.0939ZM9.50975 32.8293C10.3526 32.8293 11.1968 32.8368 12.0397 32.8281C13.4625 32.813 14.4419 31.8875 14.4757 30.4722C14.507 29.1296 14.5058 27.7857 14.4757 26.4431C14.4456 25.0216 13.4762 24.0835 12.0572 24.0735C10.3702 24.0622 8.68439 24.0609 6.99734 24.0735C5.56454 24.0835 4.59139 25.0666 4.58262 26.4957C4.57511 27.792 4.57636 29.0882 4.58262 30.3845C4.58889 31.8361 5.56705 32.813 7.02615 32.8281C7.85401 32.8368 8.68188 32.8293 9.50975 32.8293ZM4.42983 39.1178V41.8707H11.312V39.1178H4.42983ZM15.1683 41.867H22.0655V39.1279H15.1683V41.867ZM25.8993 41.882H32.7902V39.1316H25.8993V41.882ZM36.6515 41.872H43.5512V39.1254H36.6515V41.872Z" fill="#3F5770"/>
<path d="M30.2666 0C31.1195 0.249237 31.7407 0.821605 32.3469 1.43906C34.089 3.21002 35.8537 4.95843 37.6084 6.71562C37.6297 6.73691 37.6447 6.76571 37.681 6.82082C37.6134 6.90724 37.5458 7.00618 37.4644 7.0926C34.8605 9.8555 32.2592 12.6196 29.6428 15.37C29.4825 15.5378 29.2007 15.6831 28.9753 15.6844C23.7726 15.7019 18.57 15.6982 13.3686 15.6969C13.2508 15.6969 13.1331 15.6781 12.939 15.6606C13.1118 15.4765 13.232 15.3412 13.3585 15.2135C17.965 10.6057 22.5753 6.00297 27.173 1.38771C27.7754 0.784031 28.3891 0.229198 29.2345 0H30.2653L30.2666 0Z" fill="#3F5770"/>
<path d="M39.6711 8.84717C40.4214 9.59864 41.1378 10.315 41.8817 11.0615C41.8341 11.1229 41.769 11.2231 41.6876 11.3082C40.3925 12.6834 39.0975 14.0598 37.795 15.4288C37.6848 15.544 37.5219 15.683 37.3804 15.6843C36.0403 15.7031 34.6989 15.6955 33.2173 15.6955C35.4241 13.3535 37.5457 11.1016 39.6699 8.84717H39.6711Z" fill="#3F5770"/>
<path d="M41.5249 15.5768C42.3164 14.7377 43.1067 13.8973 43.8895 13.0669C44.8314 14.02 45.7594 14.9606 46.561 15.7709H41.5537C41.5437 15.7058 41.5349 15.6407 41.5249 15.5755V15.5768Z" fill="#3F5770"/>
<path d="M11.6491 30.0024H7.42334V26.9038H11.6491V30.0024Z" fill="#3F5770"/>
</g>
<defs>
<clipPath id="clip0_64_1756">
<rect width="48" height="48" fill="white"/>
</clipPath>
</defs>
</svg>
