<svg width="296" height="381" viewBox="0 0 296 381" fill="none" xmlns="http://www.w3.org/2000/svg">
<g clip-path="url(#clip0_543_3271)">
<path d="M91.1109 155.63C46.1009 213.88 80.2809 263.94 80.2809 263.94L118.641 238.22C118.641 238.22 92.9809 215.07 91.1109 155.63Z" fill="#FFC162"/>
<path d="M91.5005 161.64C91.5005 159.68 91.2805 157.69 91.2105 155.63C46.1905 213.88 80.3705 263.94 80.3705 263.94L83.2005 262.04C77.2605 251.75 57.6405 210.06 91.5005 161.64Z" fill="#FFCF96"/>
<path d="M93.6503 181.57C88.8103 193.1 86.4103 205.51 86.6003 218.01C86.7903 230.51 89.5603 242.84 94.7503 254.22L118.64 238.15C118.64 238.15 100.6 221.82 93.6503 181.57Z" fill="#F9A321"/>
<path d="M198.57 155.63C196.71 215.07 171.02 238.19 171.02 238.19L209.41 263.91C209.41 263.91 243.69 213.89 198.57 155.63Z" fill="#FFC162"/>
<path d="M198.57 155.63C198.57 157.33 198.57 158.84 198.35 160.64C233.24 210.18 212.05 252.84 206.65 262.1L209.41 263.93C209.41 263.93 243.69 213.88 198.57 155.62V155.63Z" fill="#FFCF96"/>
<path d="M171.02 238.19L192.01 252.27C201.62 231.21 202.77 207.26 195.23 185.37C187.96 222.95 171.02 238.19 171.02 238.19Z" fill="#F9A321"/>
<path d="M166.16 26.0698C166.71 26.8098 167.19 27.5198 167.71 28.2598C167.19 27.5198 166.71 26.8098 166.16 26.0698Z" fill="#FFFFFD"/>
<path d="M132.5 14.3099C132.98 13.7599 133.43 13.1899 133.91 12.6099C133.3 13.1899 132.98 13.7699 132.5 14.3099Z" fill="#FFFFFD"/>
<path d="M136 10.1L137.38 8.45996L136 10.1Z" fill="#FFFFFD"/>
<path d="M124.971 24.0502L126.931 21.4502L124.971 24.0502Z" fill="#FFFFFD"/>
<path d="M129.221 18.42L130.571 16.75L129.221 18.42Z" fill="#FFFFFD"/>
<path d="M121.98 28.2598L123.49 26.0698L121.98 28.2598Z" fill="#FFFFFD"/>
<path d="M152.301 8.4502L153.691 10.0902L152.301 8.4502Z" fill="#FFFFFD"/>
<path d="M155.811 12.6001C156.291 13.1801 156.741 13.7601 157.221 14.3001C156.711 13.7501 156.261 13.1801 155.811 12.6001Z" fill="#FFFFFD"/>
<path d="M159.02 16.75L160.34 18.42L159.02 16.75Z" fill="#FFFFFD"/>
<path d="M139.73 5.66L140.95 4.25L139.73 5.66Z" fill="#FFFFFD"/>
<path d="M148.67 4.24023L149.86 5.65023L148.67 4.24023Z" fill="#FFFFFD"/>
<path d="M182.789 54.1401C183.269 55.1401 183.719 56.1601 184.169 57.1601C183.719 56.1601 183.269 55.1301 182.789 54.1401Z" fill="#FFFFFD"/>
<path d="M162.75 21.4399L164.71 24.0399L162.75 21.4399Z" fill="#FFFFFD"/>
<path d="M173.59 37.2002C175.5 40.2402 177.27 43.3002 178.89 46.3602C177.24 43.3202 175.48 40.2602 173.59 37.2002Z" fill="#FFFFFD"/>
<path d="M109.02 49.7298C109.51 48.7698 110.02 47.7998 110.53 46.8398C110.02 47.7998 109.51 48.7698 109.02 49.7298Z" fill="#FFFFFD"/>
<path d="M171.369 33.6602L172.919 36.0702L171.369 33.6602Z" fill="#FFFFFD"/>
<path d="M179.15 46.8398C179.67 47.7998 180.15 48.7698 180.63 49.7298C180.15 48.7698 179.67 47.7998 179.15 46.8398Z" fill="#FFFFFD"/>
<path d="M105.52 57.1601C105.97 56.1601 106.42 55.1301 106.9 54.1401C106.42 55.1401 105.97 56.1601 105.52 57.1601Z" fill="#FFFFFD"/>
<path d="M107.221 53.3998L108.601 50.5698L107.221 53.3998Z" fill="#FFFFFD"/>
<path d="M181.051 50.5698C181.531 51.4998 182.011 52.4698 182.471 53.3998C182.011 52.4698 181.531 51.4398 181.051 50.5698Z" fill="#FFFFFD"/>
<path d="M119.279 32.1501L120.819 29.8701L119.279 32.1501Z" fill="#FFFFFD"/>
<path d="M116.77 36.0702L118.32 33.6602L116.77 36.0702Z" fill="#FFFFFD"/>
<path d="M168.859 29.8999L170.409 32.1799L168.859 29.8999Z" fill="#FFFFFD"/>
<path d="M110.789 46.3602C112.419 43.3202 114.189 40.2602 116.099 37.2002C114.209 40.2702 112.439 43.3202 110.789 46.3602Z" fill="#FFFFFD"/>
<path d="M198.579 155.63V148.69C198.579 111.08 195.619 83.5302 184.039 57.1602C171.449 61.8002 158.129 64.1302 144.719 64.0402C131.299 64.1302 117.979 61.8002 105.389 57.1602C93.8194 83.5202 90.8594 111.07 90.8594 148.69V155.63C92.7194 215.07 118.379 238.19 118.379 238.19C118.379 238.19 119.729 238.64 122.109 239.25C136.919 242.69 152.319 242.69 167.129 239.25C169.509 238.64 170.829 238.19 170.829 238.19C170.829 238.19 196.709 215.08 198.579 155.63ZM144.839 148.69C138.109 148.69 131.529 146.69 125.929 142.95C120.329 139.21 115.959 133.89 113.379 127.67C110.809 121.45 110.129 114.6 111.449 108C112.759 101.4 115.999 95.3302 120.769 90.5702C125.529 85.8102 131.599 82.5702 138.199 81.2502C144.809 79.9402 151.649 80.6102 157.879 83.1902C164.099 85.7702 169.419 90.1302 173.159 95.7302C176.899 101.33 178.899 107.91 178.899 114.64C178.889 123.67 175.299 132.32 168.909 138.7C162.529 145.08 153.869 148.67 144.839 148.68V148.69Z" fill="#FFFFFD"/>
<path d="M144.841 83.9102C138.101 83.9102 131.511 85.9002 125.901 89.6402C120.291 93.3802 115.911 98.7002 113.331 104.93C110.741 111.16 110.071 118.01 111.381 124.63C112.701 131.24 115.941 137.32 120.711 142.09C125.481 146.86 131.561 150.1 138.171 151.42C144.791 152.73 151.641 152.06 157.871 149.47C164.101 146.89 169.421 142.52 173.171 136.91C176.911 131.3 178.901 124.71 178.901 117.96C178.891 108.93 175.301 100.28 168.911 93.9002C162.531 87.5202 153.871 83.9302 144.841 83.9202V83.9102ZM144.841 141.36C140.211 141.36 135.691 139.99 131.841 137.42C127.991 134.85 124.991 131.19 123.221 126.92C121.451 122.64 120.981 117.94 121.891 113.4C122.791 108.86 125.021 104.69 128.291 101.42C131.571 98.1502 135.741 95.9202 140.281 95.0102C144.821 94.1102 149.521 94.5701 153.801 96.3401C158.081 98.1101 161.741 101.11 164.311 104.96C166.881 108.81 168.251 113.33 168.251 117.96C168.271 121.04 167.671 124.1 166.501 126.95C165.331 129.8 163.611 132.39 161.431 134.58C159.261 136.76 156.671 138.5 153.821 139.68C150.981 140.86 147.931 141.47 144.841 141.47V141.37V141.36Z" fill="#CCDCEB"/>
<path d="M295.96 381H0C1.78 374.33 7.87 369.41 15.11 369.41C18.68 369.41 21.96 370.62 24.6 372.63C26.64 362.49 35.61 354.85 46.36 354.85C49.62 354.85 52.71 355.56 55.49 356.82C58.89 340.75 71.49 328.09 87.52 324.58C87.5 324.26 87.47 323.93 87.47 323.6C87.47 314.98 94.47 307.98 103.1 307.98C105.39 307.98 107.56 308.49 109.52 309.37L125.43 260.63H165.23L178.97 308.75C180.5 308.26 182.12 307.98 183.81 307.98C188.12 307.98 192.03 309.73 194.86 312.56C197.69 315.39 199.44 319.29 199.44 323.6C219.61 323.6 236.45 337.84 240.47 356.82C243.25 355.56 246.34 354.85 249.6 354.85C260.35 354.85 269.32 362.49 271.36 372.63C274 370.62 277.28 369.41 280.85 369.41C288.09 369.41 294.18 374.33 295.96 381Z" fill="white"/>
<path d="M144.84 80.6001C138.11 80.6001 131.53 82.6001 125.93 86.3401C120.33 90.0801 115.96 95.4001 113.38 101.62C110.81 107.84 110.13 114.69 111.45 121.29C112.76 127.89 116 133.96 120.77 138.72C125.53 143.48 131.6 146.72 138.2 148.04C144.81 149.35 151.65 148.68 157.88 146.1C164.1 143.52 169.42 139.16 173.16 133.56C176.9 127.96 178.9 121.38 178.9 114.65C178.89 105.62 175.3 96.9701 168.91 90.5901C162.53 84.2101 153.87 80.6201 144.84 80.6101V80.6001ZM144.84 138.05C140.21 138.05 135.69 136.68 131.84 134.1C127.99 131.53 124.99 127.87 123.22 123.6C121.45 119.32 120.98 114.62 121.89 110.08C122.79 105.54 125.02 101.37 128.29 98.1001C131.57 94.8301 135.74 92.6001 140.28 91.6901C144.82 90.7901 149.52 91.2501 153.8 93.0201C158.08 94.7901 161.74 97.7901 164.31 101.64C166.88 105.49 168.25 110.01 168.25 114.64C168.25 120.85 165.79 126.8 161.4 131.19C157.01 135.58 151.05 138.05 144.84 138.05Z" fill="#49A6D5"/>
<path d="M144.84 83.1999C153.65 83.1999 162.11 86.6199 168.46 92.7199C174.8 98.8299 178.53 107.16 178.86 115.96V114.64C178.59 105.79 174.88 97.3899 168.52 91.2199C162.16 85.0499 153.65 81.6099 144.8 81.6099C135.95 81.6099 127.43 85.0599 121.07 91.2199C114.71 97.3899 111 105.79 110.73 114.64V115.96C111.07 107.15 114.81 98.8099 121.18 92.6999C127.54 86.5899 136.02 83.1899 144.84 83.1999Z" fill="#85C2D9"/>
<path d="M144.841 140.65C151.051 140.65 157.011 138.18 161.401 133.8C165.791 129.42 168.251 123.46 168.251 117.25V115.96C167.941 121.94 165.341 127.57 161.001 131.69C156.661 135.81 150.901 138.11 144.911 138.11C138.921 138.11 133.161 135.81 128.821 131.69C124.471 127.57 121.881 121.94 121.561 115.96V117.25C121.561 123.43 124.011 129.37 128.371 133.75C132.741 138.14 138.661 140.62 144.841 140.65Z" fill="#85C2D9"/>
<path d="M144.84 88.4102C139.65 88.4102 134.58 89.9502 130.27 92.8302C125.95 95.7102 122.59 99.8102 120.6 104.6C118.62 109.39 118.1 114.67 119.11 119.76C120.12 124.85 122.62 129.52 126.29 133.19C129.96 136.86 134.63 139.36 139.72 140.37C144.81 141.38 150.09 140.86 154.88 138.88C159.68 136.89 163.78 133.53 166.66 129.22C169.54 124.91 171.08 119.83 171.08 114.64C171.08 107.68 168.32 101.01 163.4 96.0901C158.48 91.1701 151.8 88.4102 144.84 88.4102ZM144.84 132.68C141.28 132.68 137.79 131.62 134.82 129.64C131.85 127.66 129.54 124.84 128.18 121.55C126.81 118.25 126.46 114.63 127.15 111.13C127.85 107.63 129.57 104.42 132.09 101.9C134.61 99.3802 137.82 97.6602 141.32 96.9702C144.82 96.2702 148.45 96.6302 151.75 98.0002C155.04 99.3602 157.86 101.68 159.84 104.64C161.82 107.61 162.88 111.09 162.88 114.66C162.88 117.03 162.42 119.37 161.51 121.56C160.6 123.75 159.27 125.74 157.6 127.41C155.92 129.08 153.93 130.41 151.75 131.32C149.56 132.23 147.21 132.69 144.84 132.69V132.68Z" fill="#E19542"/>
<path d="M184.17 57.16C183.72 56.16 183.27 55.13 182.79 54.14C182.79 53.91 182.56 53.66 182.47 53.4C182.01 52.47 181.53 51.5 181.05 50.57C180.93 50.28 180.79 50 180.63 49.73C180.15 48.77 179.67 47.8 179.15 46.84C179.05 46.69 178.97 46.52 178.9 46.36C177.25 43.32 175.48 40.26 173.59 37.2L172.92 36.07L171.37 33.66L170.41 32.18L168.86 29.9L167.71 28.26C167.19 27.52 166.71 26.81 166.16 26.07L164.72 24.05L162.75 21.45C161.98 20.42 161.24 19.43 160.44 18.43L159.02 16.76L157.1 14.32C156.61 13.77 156.16 13.2 155.68 12.62L153.59 10.11L152.21 8.47002L149.76 5.67002L148.57 4.26002L144.84 0.0200195L141.02 4.26002L139.8 5.67002L137.38 8.47002L136 10.11L133.91 12.62C133.43 13.2 132.98 13.78 132.5 14.32L130.57 16.76L129.22 18.43C128.45 19.43 127.67 20.42 126.93 21.45L124.97 24.05L123.49 26.07L121.98 28.26L120.82 29.9L119.28 32.18L118.32 33.66L116.77 36.07L116.1 37.2C114.21 40.26 112.44 43.32 110.79 46.36C110.69 46.51 110.61 46.68 110.54 46.84C110.02 47.8 109.51 48.77 109.02 49.73C109.02 49.99 108.77 50.28 108.61 50.57L107.22 53.4C107.22 53.66 107 53.91 106.9 54.14C106.42 55.14 105.97 56.16 105.52 57.16C118.11 61.8 131.43 64.13 144.84 64.04C158.26 64.13 171.58 61.8 184.17 57.16Z" fill="#FFC162"/>
<path d="M144.839 138.05C157.769 138.05 168.249 127.57 168.249 114.65C168.249 101.73 157.769 91.25 144.839 91.25C131.909 91.25 121.439 101.73 121.439 114.65C121.439 127.57 131.919 138.05 144.839 138.05Z" fill="#304B64"/>
<path d="M144.84 134.64C155.89 134.64 164.84 125.69 164.84 114.64C164.84 103.59 155.89 94.6401 144.84 94.6401C133.79 94.6401 124.84 103.59 124.84 114.64C124.84 125.69 133.8 134.64 144.84 134.64Z" fill="#3C5C7F"/>
<path d="M150.21 108.27C150.92 109.59 151.96 110.7 153.24 111.48C154.25 111.77 155.33 111.66 156.26 111.16C157.18 110.66 157.88 109.82 158.19 108.82C158.45 107.8 158.48 106.74 158.27 105.71C158.07 104.68 157.63 103.71 157 102.87C155.62 100.89 153.69 99.3801 151.44 98.5201C149.19 97.6601 146.74 97.5001 144.39 98.0501C142.98 98.4001 141.43 99.3701 141.53 100.81C141.63 102.26 143.33 103.03 144.75 103.64C146.95 104.66 148.84 106.26 150.21 108.27Z" fill="#3C6F9A"/>
<path d="M161.89 116.15C162.3 115.56 162.48 114.85 162.39 114.14C162.31 113.43 161.97 112.77 161.44 112.3C158.51 109.6 154.14 114.71 156.97 117.22C157.34 117.53 157.78 117.74 158.25 117.86C158.72 117.97 159.21 117.98 159.68 117.88C160.16 117.78 160.6 117.57 160.98 117.27C161.36 116.97 161.67 116.59 161.89 116.16V116.15Z" fill="#3C6F9A"/>
<path d="M179.15 207.94C171.05 210.7 162.21 209.77 153.72 208.58C143.24 207.13 132.5 205.37 123.59 199.55C115.71 194.07 109.38 186.65 105.2 178.01C95.1005 158.72 92.3305 136.92 92.1105 114.9C91.3105 125.32 90.9805 136.47 90.9805 148.69V155.63C92.8505 215.07 118.51 238.19 118.51 238.19C118.51 238.19 119.86 238.64 122.24 239.25C137.05 242.69 152.45 242.69 167.25 239.25C169.63 238.64 170.95 238.19 170.95 238.19C170.95 238.19 183.14 227.23 191.34 200.96C187.69 203.94 183.57 206.29 179.15 207.94Z" fill="#CCDCEB"/>
<path d="M184.17 57.1599L183.49 55.6799C174.83 57.3499 165.94 57.6099 157.19 56.4499C151.83 56.2199 146.53 55.2499 141.44 53.5899C138.89 52.7399 136.54 51.3699 134.54 49.5799C132.55 47.7799 130.94 45.5899 129.83 43.1499C128.43 38.4199 128.26 33.4099 129.31 28.5899C129.84 23.9599 130.75 19.3799 132.05 14.8999L130.57 16.7599L129.22 18.4299C128.45 19.4299 127.67 20.4199 126.93 21.4499L124.97 24.0499L123.49 26.0699L121.98 28.2599L120.82 29.8999L119.28 32.1799L118.32 33.6599L116.77 36.0699L116.1 37.1999C114.21 40.2599 112.44 43.3199 110.79 46.3599C110.69 46.5099 110.61 46.6799 110.54 46.8399C110.02 47.7999 109.51 48.7699 109.02 49.7299C109.02 49.9899 108.77 50.2799 108.61 50.5599L107.22 53.3899C107.22 53.6499 107 53.8999 106.9 54.1299C106.42 55.1299 105.97 56.1499 105.52 57.1499C118.11 61.7899 131.43 64.1199 144.84 64.0299C158.26 64.1199 171.58 61.7899 184.17 57.1499V57.1599Z" fill="#F9A321"/>
<path d="M175.809 40.8898C175.069 39.6398 174.359 38.4098 173.589 37.1898L172.909 36.0598L171.369 33.6498L170.409 32.1698L168.859 29.8898L167.709 28.2498C167.189 27.5098 166.709 26.7998 166.159 26.0598L164.709 24.0398L162.749 21.4398C161.979 20.4098 161.239 19.4198 160.439 18.4198L159.019 16.7498L157.089 14.3098C156.609 13.7598 156.159 13.1898 155.679 12.6098L153.589 10.0998L152.209 8.45977L149.759 5.65977L148.569 4.24977L144.839 0.00976562L142.689 2.38977C153.729 15.2498 164.769 28.0898 175.809 40.8998V40.8898Z" fill="#F9A321"/>
<path d="M122.371 239.25L118.641 261.05C118.641 261.05 131.051 270.69 144.841 270.69C158.631 270.69 171.021 261.05 171.021 261.05L167.321 239.25C152.511 242.69 137.111 242.69 122.301 239.25H122.371Z" fill="#3C5C7F"/>
<path d="M167.449 239.96V239.25C152.639 242.69 137.239 242.69 122.429 239.25L120.439 250.28H120.699C129.459 251.84 138.429 251.84 147.189 250.28C154.779 248.8 161.789 245.22 167.449 239.96Z" fill="#304B64"/>
</g>
<defs>
<clipPath id="clip0_543_3271">
<rect width="295.96" height="381" fill="white"/>
</clipPath>
</defs>
</svg>
