<svg width="106" height="106" viewBox="0 0 106 106" fill="none" xmlns="http://www.w3.org/2000/svg">
<g clip-path="url(#clip0_1903_9881)">
<path d="M0 77.0125C0.699734 76.18 1.35522 75.3061 2.10473 74.5234C7.22136 69.1995 10.9164 62.9822 13.6434 56.1649C16.694 48.5427 18.2843 40.6024 18.6577 32.4105C18.6743 32.0703 18.7158 31.7329 18.7518 31.3291H105.934C105.74 33.7795 105.618 36.1829 105.345 38.5669C104.166 48.8856 101.259 58.6623 96.0516 67.6977C93.5597 72.0205 90.6197 76.003 87.0519 79.5127C86.0285 80.5194 84.9029 80.9674 83.4509 80.9647C56.991 80.937 30.5283 80.9315 4.06841 80.973C2.16834 80.9757 0.804832 80.4115 0 78.6692V77.0125H0Z" fill="white" fill-opacity="0.5"/>
<path d="M18.8374 87.157H20.2203C41.2981 87.157 62.3758 87.1377 83.4536 87.1791C86.5761 87.1847 89.1372 86.1558 91.3581 83.9931C97.3542 78.1575 101.738 71.2433 105.143 63.6626C105.367 63.162 105.58 62.6559 105.909 61.8926C105.956 62.3904 105.994 62.6338 105.994 62.8744C105.997 73.9482 106 85.0219 105.994 96.0929C105.994 98.3165 104.75 99.5749 102.551 99.5749C75.7814 99.5777 49.0117 99.5777 22.2421 99.5749C20.0986 99.5749 18.8457 98.3082 18.8374 96.1593C18.8291 93.2 18.8374 90.238 18.8374 87.1543V87.157Z" fill="white" fill-opacity="0.5"/>
<path d="M105.997 25.0049H18.8374C18.8374 24.6785 18.8374 24.3522 18.8374 24.023C18.8374 21.4371 18.8374 18.8485 18.8374 16.2626C18.8402 13.8122 20.0045 12.634 22.4301 12.6312C27.0185 12.6285 31.6069 12.6312 36.1925 12.6312H37.4702C37.4702 11.6301 37.4619 10.6814 37.4702 9.73004C37.4896 7.78854 38.7618 6.43059 40.554 6.42229C42.349 6.414 43.6462 7.76641 43.6738 9.69962C43.6876 10.6261 43.6738 11.5554 43.6738 12.5566H59.2007C59.2007 11.6384 59.1952 10.7201 59.2007 9.79918C59.2145 7.783 60.4868 6.41123 62.3205 6.42229C64.1514 6.43336 65.3932 7.7996 65.4098 9.83513C65.4181 10.7257 65.4098 11.6162 65.4098 12.5676H81.1441C81.1441 11.5747 81.1331 10.6178 81.1441 9.66366C81.1718 7.79407 82.4413 6.44995 84.192 6.42229C85.9925 6.39464 87.3145 7.74428 87.3477 9.6609C87.3643 10.6178 87.3505 11.5747 87.3505 12.6312H88.5591C93.2166 12.6312 97.8741 12.6257 102.529 12.6312C104.75 12.634 105.975 13.862 105.981 16.0911C105.989 19.0227 105.981 21.9516 105.981 25.0021L105.997 25.0049Z" fill="white" fill-opacity="0.5"/>
</g>
<defs>
<clipPath id="clip0_1903_9881">
<rect width="106" height="106" fill="white"/>
</clipPath>
</defs>
</svg>
