<svg width="16" height="17" viewBox="0 0 16 17" fill="none" xmlns="http://www.w3.org/2000/svg">
<path d="M-0.000165939 12.9063C0.0421042 13.0382 0.0843744 13.1701 0.139169 13.34C1.74739 11.6993 3.33486 10.0798 4.88477 8.49859C3.34073 6.92485 1.74974 5.30336 0.138777 3.66113C0.084374 3.82982 0.0421042 3.96171 -0.000165939 4.09361V12.9059V12.9063Z" fill="#57A6EE"/>
<path d="M15.2188 2.97833C14.9617 2.93998 14.7449 2.88166 14.5273 2.8797C13.3973 2.87031 12.267 2.8754 11.137 2.8754C7.92922 2.8754 4.721 2.87344 1.51317 2.87931C1.28421 2.8797 1.05485 2.93567 0.825892 2.96581L0.818065 3.02138C0.854856 3.06091 0.89008 3.10123 0.928437 3.13919C2.92922 5.13014 4.93 7.12109 6.93118 9.11165C7.45759 9.63531 8.0983 9.74177 8.70769 9.39774C8.83255 9.3273 8.94683 9.22984 9.04898 9.12808C11.0631 7.12813 13.0748 5.12583 15.0866 3.12393C15.119 3.09144 15.1484 3.05622 15.2192 2.97833H15.2188Z" fill="#57A6EE"/>
<path d="M10.3575 9.14541C10.1207 9.38376 9.91682 9.59198 9.71017 9.79667C8.71604 10.7826 7.28708 10.7845 6.29334 9.80058C6.08317 9.59276 5.87612 9.3822 5.64559 9.1505C4.04559 10.7822 2.45772 12.4017 0.868683 14.022C0.989622 14.0482 1.15792 14.087 1.327 14.1206C1.3724 14.1296 1.42054 14.1245 1.46712 14.1245C5.82015 14.1245 10.1728 14.1261 14.5258 14.1206C14.7434 14.1206 14.9611 14.0604 15.1528 14.0322C13.5505 12.3993 11.9618 10.7802 10.3575 9.14502V9.14541Z" fill="#57A6EE"/>
<path d="M15.8952 13.3045C15.93 13.1131 15.9946 12.9213 15.995 12.7299C16.0016 9.9124 16.0016 7.09485 15.9954 4.27731C15.995 4.08475 15.9319 3.89219 15.8979 3.69963L15.8474 3.6875C14.2603 5.30703 12.6736 6.92656 11.1229 8.50891C12.658 10.074 14.249 11.6963 15.8396 13.3186L15.8955 13.3041L15.8952 13.3045Z" fill="#57A6EE"/>
</svg>
