<svg width="100" height="100" viewBox="0 0 100 100" fill="none" xmlns="http://www.w3.org/2000/svg">
<g clip-path="url(#clip0_1_1331)">
<path d="M23.7628 19.3948C27.226 16.4359 31.0394 14.1677 35.2109 12.472C35.5259 12.3456 35.736 11.7652 35.8437 11.3567C37.3653 5.54102 41.0009 1.78128 46.8447 0.383808C54.5602 -1.45978 62.3269 3.48244 64.0908 11.2411C64.274 12.0473 64.5998 12.4639 65.3862 12.7756C69.0595 14.2349 72.4123 16.2613 75.4742 18.766C75.7301 18.9756 75.994 19.1771 76.2794 19.4056C78.924 17.3228 81.8863 16.1968 85.2203 16.1323C92.2275 15.9979 98.3191 20.9213 99.7222 27.8415C101.085 34.5628 97.32 41.5287 90.8837 44.0656C90.057 44.3908 89.9708 44.7402 89.9977 45.5787C90.0947 48.5563 90.0785 51.5394 89.9762 54.5171C89.9492 55.3045 90.0839 55.5894 90.8164 55.8743C97.487 58.4703 101.206 65.6163 99.5929 72.644C98.0068 79.5534 91.4708 84.3639 84.3828 83.8076C81.6843 83.5953 79.2148 82.6977 77.0093 81.1121C76.7696 80.9401 76.5245 80.7708 76.476 80.7386C73.7319 82.472 71.1304 84.1866 68.4562 85.7721C67.2524 86.4843 65.6043 86.6617 64.7021 87.6023C63.8458 88.4919 63.7731 90.0963 63.2318 91.3325C60.7542 96.9949 54.6841 100.561 48.6921 99.9269C42.2666 99.247 37.2306 94.7536 35.8141 88.4892C35.7225 88.0807 35.3617 87.562 34.9981 87.4115C31.0259 85.7721 27.3715 83.6195 24.086 80.8487C23.9863 80.7627 23.8705 80.6982 23.7063 80.5854C21.875 81.9775 19.8714 83.0014 17.6039 83.5039C10.2869 85.1164 2.85958 80.8111 0.643222 73.6383C-1.58391 66.4306 2.13516 58.6208 9.15317 55.8904C9.96647 55.5733 10.0122 55.2266 9.9907 54.4419C9.90722 51.4319 9.92338 48.4139 10.0149 45.404C10.0365 44.6622 9.90991 44.3827 9.21511 44.1167C2.51487 41.5609 -1.23381 34.3639 0.398157 27.2771C1.98165 20.3999 8.59033 15.584 15.6487 16.1618C18.3956 16.3876 20.3131 17.1454 23.7601 19.3948H23.7628ZM64.5056 50.0398C64.5244 42.0581 58.0477 35.5141 50.0925 35.4765C42.0538 35.4416 35.4963 41.9291 35.4775 49.935C35.4586 57.9167 41.9353 64.4634 49.8878 64.4983C57.9184 64.5359 64.484 58.0404 64.5056 50.0371V50.0398ZM32.9999 56.1538C32.736 53.6867 32.2458 51.4588 32.3347 49.2551C32.4236 47.0567 33.0914 44.8826 33.5304 42.566C31.4568 41.1847 29.2081 39.6904 26.9325 38.1747C23.6336 43.082 19.0904 45.369 13.2762 45.1567C12.7861 48.4381 12.7457 51.62 13.3004 54.8396C18.6272 54.6085 22.8741 56.5596 26.1785 60.6929C28.5429 59.118 30.8805 57.562 32.9972 56.1511L32.9999 56.1538ZM66.1833 42.7541C68.055 47.1616 68.2246 51.5125 66.6896 55.9549C69.0945 57.5539 71.4509 59.1234 73.8126 60.6956C77.1493 56.5273 81.4097 54.6085 86.6907 54.8369C87.2266 51.5905 87.2104 48.4032 86.7015 45.154C80.8495 45.369 76.3279 43.039 73.0397 38.1828C70.748 39.7093 68.4993 41.2115 66.1833 42.7541ZM51.6437 70.9804C59.0145 72.386 63.2398 76.7584 64.519 84.0468C68.0119 82.5553 71.1358 80.6445 73.9823 78.1855C72.388 76.014 71.4024 73.6706 71.0712 71.0476C70.7372 68.4247 71.2058 65.9253 72.1699 63.4771C69.8539 61.9345 67.6052 60.4376 65.3269 58.9192C62.0845 64.0495 57.5495 66.9439 51.6464 67.6668V70.9777L51.6437 70.9804ZM26.0115 78.2043C28.893 80.6499 32.0008 82.6063 35.4775 84.0307C36.8051 76.6348 41.1005 72.3322 48.3367 70.9777V67.6641C42.3797 66.9466 37.8527 63.985 34.6507 58.9326C32.3078 60.494 30.0564 61.9963 27.8347 63.4798C29.8248 69.2873 29.3428 73.2029 26.0115 78.2043ZM35.4748 15.9307C31.9738 17.4169 28.8499 19.333 26.0142 21.7786C28.8499 25.7533 29.7413 30.0264 28.4406 34.7052C28.384 34.9068 28.4729 35.283 28.6264 35.3852C30.8589 36.9116 33.113 38.4058 35.3805 39.9243C38.6337 35.4523 42.9479 32.9557 48.307 32.3134V28.9944C41.0305 27.5781 36.7728 23.2836 35.4721 15.928L35.4748 15.9307ZM64.5109 15.9307C63.186 23.3293 58.8933 27.6372 51.6491 28.9998V32.3161C57.089 32.9423 61.3951 35.5115 64.6133 39.9162C66.8431 38.4327 69.0056 37.0191 71.125 35.5437C71.3755 35.369 71.5182 34.8369 71.4832 34.4956C71.3701 33.3991 71.0469 32.3188 70.993 31.225C70.818 27.7474 71.8952 24.6273 73.9823 21.7867C71.125 19.3303 68.0092 17.4115 64.5136 15.9334L64.5109 15.9307ZM23.682 75.7345C26.4208 72.644 27.0645 65.8743 22.4055 61.2895C17.989 56.9412 10.9171 56.9761 6.53556 61.3701C1.91971 66.0006 2.6603 72.7488 5.34255 75.7372C6.72137 74.4311 8.10289 73.1196 9.50327 71.792C7.42695 68.6397 7.5993 65.412 10.0607 63.0659C12.3256 60.9079 15.778 60.6741 18.2906 62.5123C19.559 63.4394 20.3804 64.6676 20.7655 66.1914C21.3176 68.3736 20.6766 70.2817 19.5375 71.7732C20.9755 73.1492 22.3301 74.4445 23.6793 75.7345H23.682ZM94.6378 75.7291C97.2743 72.8213 98.0741 66.1269 93.5202 61.4373C89.2006 56.9896 82.0748 56.9009 77.5802 61.2922C72.9455 65.8205 73.5326 72.5902 76.301 75.7426C77.6744 74.4365 79.0533 73.125 80.4563 71.792C78.3773 68.5564 78.5712 65.3314 81.0838 63.0068C83.4133 60.8514 86.89 60.6902 89.3999 62.6251C90.644 63.5846 91.4196 64.8369 91.767 66.3715C92.2464 68.4972 91.5866 70.3301 90.4986 71.7705C91.9286 73.1358 93.2886 74.4338 94.6405 75.7265L94.6378 75.7291ZM59.1814 20.9079C62.1572 17.3524 62.3269 10.4859 57.5603 6.16451C52.8932 1.93447 45.7621 2.33221 41.5745 7.01375C37.3814 11.7033 38.3294 18.2957 40.8312 20.8944C42.1993 19.5991 43.5646 18.3037 44.9623 16.9788C42.8994 13.469 43.1553 10.2521 45.7944 8.01079C48.2478 5.92533 51.7622 5.92802 54.1994 8.01885C56.8439 10.2844 57.0917 13.5093 55.018 16.9734C56.4184 18.2957 57.7811 19.5829 59.1841 20.9052L59.1814 20.9079ZM23.682 37.0379C26.4451 33.9017 27.0429 27.1427 22.4028 22.5902C17.962 18.2338 10.8956 18.2795 6.53286 22.6708C1.89817 27.3336 2.68184 34.0871 5.47181 37.1804C6.08043 36.4413 6.62981 35.6324 7.32192 34.9713C8.00864 34.3182 8.84078 33.813 9.6056 33.2459C7.42425 29.9484 7.59661 26.7101 10.0607 24.3639C12.3282 22.2086 15.778 21.9775 18.2933 23.813C19.5321 24.7187 20.3508 25.9173 20.7466 27.3954C21.3364 29.6018 20.7116 31.5528 19.5402 33.0713C20.9809 34.4499 22.3355 35.748 23.682 37.0379ZM94.6378 37.0326C97.32 34.0441 98.0606 27.3094 93.4448 22.6655C89.0821 18.2768 82.0102 18.2392 77.5748 22.5929C72.9132 27.1696 73.5622 33.9474 76.301 37.0406C77.6771 35.7345 79.056 34.423 80.4563 33.0928C78.3719 29.8759 78.5685 26.6321 81.0865 24.3048C83.3863 22.179 86.8307 21.9909 89.3245 23.8667C90.5794 24.81 91.3792 26.049 91.7455 27.5808C92.2598 29.7334 91.6162 31.6066 90.4986 33.0713C91.9313 34.4419 93.2886 35.7399 94.6405 37.0326H94.6378ZM59.1841 91.8673C62.5854 88.0215 61.8422 80.9159 57.4795 77.0433C52.7694 72.8643 45.6706 73.3158 41.5045 78.0457C37.3868 82.7165 38.3455 89.2846 40.8339 91.8431C42.2019 90.5477 43.5673 89.2524 44.965 87.9302C42.8967 84.4392 43.1526 81.2115 45.7971 78.9622C48.2128 76.9036 51.6787 76.8821 54.124 78.9111C56.817 81.1444 57.0917 84.3881 55.0234 87.9194C56.4238 89.2497 57.7865 90.5424 59.1841 91.87V91.8673ZM50.0117 26.0275C51.4902 25.6405 53.0171 25.3798 54.4337 24.8369C56.7173 23.9635 56.8439 22.9584 55.045 21.2142C54.7353 20.9132 54.3879 20.6311 54.0108 20.4241C51.369 18.981 48.6544 18.8788 46.0691 20.4241C45.1535 20.9697 44.4964 22.007 43.8312 22.8993C43.4407 23.4206 43.6427 23.9017 44.2917 24.2591C46.0637 25.2293 47.9327 25.7748 50.0117 26.0275ZM14.5042 41.9291L14.5877 42.2032C16.2385 41.7114 17.9351 41.3298 19.5294 40.6956C21.1721 40.0398 21.2745 39.5211 20.1757 38.0941C19.6587 37.4222 18.9719 36.7988 18.2287 36.4064C15.8615 35.1487 13.4055 35.1433 10.979 36.2881C9.79142 36.8471 8.88656 37.7098 8.35334 38.946C8.07058 39.6018 8.1406 40.0237 8.83809 40.4026C10.6128 41.3674 12.4817 41.9076 14.5015 41.9318L14.5042 41.9291ZM85.5381 42.128C86.9573 41.7705 88.4223 41.5367 89.785 41.0288C92.2195 40.1204 92.3622 39.0186 90.4151 37.2314C90.267 37.0944 90.1108 36.9681 89.9492 36.8498C87.477 35.0358 83.5021 34.9713 81.0784 36.8364C80.3405 37.4034 79.8127 38.2742 79.2876 39.0723C78.9509 39.5803 79.1341 40.021 79.7346 40.3596C81.5282 41.3674 83.4321 41.9076 85.5381 42.1307V42.128ZM14.5985 80.8192C15.9881 80.4752 17.4208 80.2521 18.7538 79.763C21.2556 78.8439 21.4091 77.6319 19.3732 75.8447C19.2466 75.7345 19.112 75.6324 18.9773 75.5357C16.5159 73.7512 12.6056 73.6598 10.19 75.49C9.40362 76.0866 8.86771 77.0406 8.29679 77.8818C7.98979 78.336 8.19984 78.7176 8.70882 79.0105C10.5212 80.0559 12.4575 80.6069 14.5985 80.8165V80.8192ZM85.4627 80.6284L85.5488 80.9025C87.1997 80.4107 88.8963 80.0291 90.4905 79.3921C92.1279 78.7391 92.2302 78.2123 91.1369 76.7907C90.6198 76.1215 89.9331 75.498 89.1898 75.103C86.8199 73.8452 84.3666 73.8399 81.9402 74.9847C80.7553 75.5437 79.8477 76.4091 79.3145 77.6426C79.0317 78.301 79.1044 78.7203 79.8019 79.0992C81.5766 80.064 83.4456 80.6015 85.4653 80.6257L85.4627 80.6284ZM50.0521 96.9519C51.4713 96.5945 52.939 96.3688 54.299 95.8555C56.755 94.931 56.8843 93.7727 54.8726 91.9882C54.7487 91.878 54.6141 91.7759 54.4767 91.6765C52.0261 89.8839 48.1239 89.7845 45.6867 91.5985C44.9165 92.171 44.3644 93.0713 43.8097 93.8882C43.4704 94.3908 43.6454 94.8369 44.2486 95.1755C46.0422 96.1833 47.9435 96.7289 50.0494 96.9519H50.0521ZM53.2137 12.9181C53.2245 11.1685 51.7837 9.7012 50.0333 9.6797C48.2774 9.6582 46.8043 11.0799 46.7693 12.8321C46.7343 14.6219 48.2101 16.1269 49.9982 16.1215C51.7487 16.1188 53.2029 14.6676 53.2137 12.9181ZM14.5527 32.2462C16.3005 32.2247 17.7412 30.7574 17.7331 29.0078C17.7251 27.2583 16.2708 25.8071 14.5204 25.8017C12.7268 25.7963 11.2564 27.2932 11.2887 29.0885C11.3211 30.8353 12.8022 32.2677 14.55 32.2462H14.5527ZM85.4788 32.2462C87.2293 32.2408 88.6835 30.7896 88.6916 29.0401C88.6997 27.2906 87.2589 25.8232 85.5111 25.8017C83.7149 25.7802 82.231 27.261 82.2499 29.0562C82.2687 30.8057 83.731 32.2489 85.4788 32.2435V32.2462ZM14.5554 70.9455C16.3031 70.924 17.7439 69.4539 17.7331 67.7044C17.7251 65.9549 16.2681 64.5064 14.5177 64.501C12.7241 64.4956 11.2537 65.9952 11.2887 67.7904C11.3237 69.5373 12.8022 70.967 14.5527 70.9455H14.5554ZM88.6916 67.7635C88.7131 66.014 87.2831 64.5359 85.5354 64.501C83.7822 64.466 82.2957 65.8823 82.2472 67.6292C82.1987 69.4217 83.6637 70.9347 85.4519 70.9428C87.1997 70.9509 88.6674 69.5104 88.6889 67.7609L88.6916 67.7635ZM53.2137 83.8641C53.2245 82.1145 51.7837 80.6472 50.0333 80.6257C48.2774 80.6042 46.8043 82.0258 46.7693 83.7781C46.7343 85.5679 48.2101 87.0729 49.9982 87.0675C51.7487 87.0648 53.2029 85.6136 53.2137 83.8641Z" fill="white"/>
<path d="M49.9879 39.957C50.61 40.5402 51.1998 40.8896 51.496 41.4083C52.1424 42.5397 52.6863 43.7383 53.1738 44.9503C53.4431 45.6168 53.8686 45.8533 54.5176 45.9339C55.681 46.079 56.8417 46.2725 58.0024 46.4392C58.7537 46.5467 59.4862 46.8638 59.5455 47.6378C59.5913 48.2209 59.3273 48.9492 58.9557 49.4142C58.1613 50.4058 57.1595 51.2282 56.3381 52.2011C56.0419 52.5504 55.856 53.1443 55.9018 53.6012C56.0257 54.8993 56.2654 56.1919 56.5131 57.4738C56.6613 58.2424 56.5293 58.8821 55.8884 59.3524C55.2286 59.8388 54.5742 59.6829 53.9117 59.304C52.8345 58.6886 51.7626 58.057 50.6423 57.5249C50.2923 57.3583 49.7294 57.3448 49.382 57.5088C48.2321 58.0543 47.1306 58.702 46.0238 59.3309C45.3532 59.7125 44.5992 59.9006 44.0848 59.2986C43.7078 58.8552 43.4816 58.1242 43.5004 57.533C43.5381 56.4338 43.697 55.3131 44.0067 54.2596C44.3434 53.1148 43.9825 52.365 43.153 51.6313C42.3505 50.9218 41.6261 50.1183 40.9017 49.3282C39.8352 48.1672 40.2742 46.7939 41.8281 46.4875C43.0103 46.2537 44.2114 46.0898 45.4098 45.9447C46.1019 45.8614 46.5463 45.6087 46.8263 44.91C47.3138 43.698 47.8658 42.5047 48.5068 41.3706C48.7868 40.8761 49.3551 40.5429 49.9852 39.957H49.9879ZM45.3452 49.2502C47.4942 50.7256 48.0678 52.5719 47.1522 55.0229C49.0885 53.3405 50.9116 53.4212 52.856 54.9987C51.8327 52.5074 52.6217 50.6988 54.6738 49.1857C52.1154 49.3604 50.672 48.1779 49.9556 45.8157C49.382 48.358 47.7662 49.2529 45.3479 49.2529L45.3452 49.2502Z" fill="white"/>
</g>
<defs>
<clipPath id="clip0_1_1331">
<rect width="100" height="100" fill="white"/>
</clipPath>
</defs>
</svg>
