<svg width="1920" height="626" viewBox="0 0 1920 626" fill="none" xmlns="http://www.w3.org/2000/svg">
<path d="M1505.15 581.959L1388.65 581.589L1431.95 448.939H1467.17L1505.15 581.959Z" fill="white"/>
<path d="M1401.58 356.737C1361.75 408.293 1392 452.593 1392 452.593L1425.94 429.831C1425.94 429.831 1403.23 409.345 1401.58 356.737Z" fill="#FFC162"/>
<path d="M1401.93 362.058C1401.93 360.322 1401.73 358.558 1401.67 356.737C1361.84 408.293 1392.08 452.593 1392.08 452.593L1394.59 450.914C1389.32 441.81 1371.97 404.907 1401.93 362.058Z" fill="#FFCF96"/>
<path d="M1403.83 379.698C1399.55 389.903 1397.42 400.884 1397.59 411.95C1397.76 423.017 1400.21 433.929 1404.8 444L1425.94 429.774C1425.94 429.774 1409.98 415.32 1403.83 379.698Z" fill="#F9A321"/>
<path d="M1429.24 430.742L1425.94 450.032C1425.94 450.032 1436.92 458.568 1449.13 458.568C1461.34 458.568 1472.29 450.032 1472.29 450.032L1469.02 430.742C1455.92 433.785 1442.29 433.785 1429.19 430.742H1429.24Z" fill="#3C5C7F"/>
<path d="M1496.68 356.737C1495.03 409.346 1472.29 429.803 1472.29 429.803L1506.26 452.565C1506.26 452.565 1536.6 408.293 1496.68 356.737Z" fill="#FFC162"/>
<path d="M1496.68 356.737C1496.68 358.245 1496.68 359.583 1496.48 361.176C1527.35 405.021 1508.6 442.777 1503.82 450.971L1506.26 452.593C1506.26 452.593 1536.6 408.293 1496.68 356.737Z" fill="#FFCF96"/>
<path d="M1472.29 429.803L1490.87 442.265C1499.37 423.623 1500.39 402.427 1493.72 383.056C1487.29 416.316 1472.29 429.803 1472.29 429.803Z" fill="#F9A321"/>
<path d="M1467.99 242.075C1468.48 242.73 1468.9 243.356 1469.36 244.01C1468.9 243.356 1468.48 242.73 1467.99 242.075Z" fill="white"/>
<path d="M1438.2 231.661C1438.63 231.178 1439.03 230.665 1439.46 230.153C1438.91 230.665 1438.63 231.178 1438.2 231.661Z" fill="white"/>
<path d="M1441.3 227.934L1442.53 226.483L1441.3 227.934Z" fill="white"/>
<path d="M1431.55 240.282L1433.28 237.978L1431.55 240.282Z" fill="white"/>
<path d="M1435.3 235.303L1436.5 233.824L1435.3 235.303Z" fill="white"/>
<path d="M1428.9 244.01L1430.24 242.075L1428.9 244.01Z" fill="white"/>
<path d="M1455.73 226.483L1456.95 227.934L1455.73 226.483Z" fill="white"/>
<path d="M1458.83 230.153C1459.26 230.665 1459.66 231.178 1460.08 231.661C1459.63 231.178 1459.23 230.665 1458.83 230.153Z" fill="white"/>
<path d="M1461.68 233.824L1462.84 235.303L1461.68 233.824Z" fill="white"/>
<path d="M1444.61 224.008L1445.69 222.756L1444.61 224.008Z" fill="white"/>
<path d="M1452.52 222.756L1453.57 224.008L1452.52 222.756Z" fill="white"/>
<path d="M1482.71 266.914C1483.13 267.796 1483.53 268.706 1483.93 269.588C1483.53 268.706 1483.13 267.796 1482.71 266.914Z" fill="white"/>
<path d="M1464.98 237.978L1466.71 240.283L1464.98 237.978Z" fill="white"/>
<path d="M1474.57 251.919C1476.25 254.613 1477.82 257.316 1479.26 260.028C1477.8 257.335 1476.24 254.632 1474.57 251.919Z" fill="white"/>
<path d="M1417.43 263.016C1417.86 262.162 1418.32 261.309 1418.77 260.455C1418.32 261.309 1417.86 262.162 1417.43 263.016Z" fill="white"/>
<path d="M1472.6 248.79L1473.97 250.923L1472.6 248.79Z" fill="white"/>
<path d="M1479.49 260.455C1479.95 261.308 1480.37 262.162 1480.8 263.015C1480.37 262.162 1479.95 261.308 1479.49 260.455Z" fill="white"/>
<path d="M1414.33 269.588C1414.73 268.706 1415.13 267.796 1415.56 266.914C1415.13 267.796 1414.73 268.706 1414.33 269.588Z" fill="white"/>
<path d="M1415.84 266.259L1417.06 263.755L1415.84 266.259Z" fill="white"/>
<path d="M1481.17 263.756C1481.59 264.581 1482.02 265.435 1482.42 266.26C1482.02 265.435 1481.59 264.524 1481.17 263.756Z" fill="white"/>
<path d="M1426.51 247.452L1427.88 245.432L1426.51 247.452Z" fill="white"/>
<path d="M1424.29 250.923L1425.66 248.79L1424.29 250.923Z" fill="white"/>
<path d="M1470.38 245.461L1471.75 247.481L1470.38 245.461Z" fill="white"/>
<path d="M1419 260.028C1420.44 257.335 1422 254.632 1423.69 251.919C1422.02 254.632 1420.46 257.335 1419 260.028Z" fill="white"/>
<path d="M1496.68 356.737C1496.68 354.717 1496.68 352.697 1496.68 350.591C1496.68 317.302 1494.06 292.919 1483.82 269.588C1472.68 273.697 1460.89 275.759 1449.02 275.677C1437.15 275.759 1425.36 273.697 1414.22 269.588C1403.98 292.919 1401.36 317.302 1401.36 350.591C1401.36 352.697 1401.36 354.717 1401.36 356.737C1403.01 409.345 1425.71 429.803 1425.71 429.803C1425.71 429.803 1426.91 430.201 1429.01 430.741C1442.12 433.785 1455.74 433.785 1468.85 430.741C1470.95 430.201 1472.12 429.803 1472.12 429.803C1472.12 429.803 1495.03 409.345 1496.68 356.737ZM1449.13 350.591C1443.17 350.591 1437.35 348.824 1432.39 345.513C1427.43 342.203 1423.57 337.497 1421.29 331.991C1419.01 326.485 1418.41 320.427 1419.58 314.582C1420.74 308.737 1423.61 303.369 1427.82 299.155C1432.04 294.941 1437.41 292.071 1443.25 290.909C1449.1 289.746 1455.16 290.343 1460.66 292.623C1466.17 294.904 1470.87 298.766 1474.18 303.721C1477.5 308.676 1479.26 314.501 1479.26 320.461C1479.25 328.449 1476.08 336.109 1470.43 341.758C1464.78 347.407 1457.12 350.584 1449.13 350.591V350.591Z" fill="white"/>
<path d="M1449.13 293.26C1443.16 293.255 1437.33 295.02 1432.36 298.331C1427.4 301.643 1423.53 306.353 1421.24 311.865C1418.96 317.377 1418.36 323.444 1419.52 329.297C1420.68 335.15 1423.56 340.526 1427.78 344.746C1431.99 348.965 1437.37 351.838 1443.22 353.001C1449.08 354.164 1455.14 353.564 1460.66 351.278C1466.17 348.992 1470.88 345.122 1474.19 340.158C1477.5 335.194 1479.27 329.359 1479.26 323.391C1479.25 315.403 1476.08 307.743 1470.43 302.094C1464.78 296.445 1457.12 293.268 1449.13 293.26V293.26ZM1449.13 344.105C1445.03 344.105 1441.03 342.89 1437.62 340.614C1434.22 338.338 1431.56 335.103 1429.99 331.318C1428.43 327.533 1428.02 323.368 1428.81 319.35C1429.61 315.332 1431.59 311.642 1434.48 308.745C1437.38 305.848 1441.07 303.875 1445.09 303.076C1449.11 302.277 1453.27 302.687 1457.06 304.255C1460.84 305.823 1464.08 308.477 1466.35 311.884C1468.63 315.29 1469.84 319.295 1469.84 323.391C1469.86 326.119 1469.33 328.821 1468.29 331.344C1467.26 333.867 1465.73 336.161 1463.81 338.093C1461.88 340.026 1459.6 341.559 1457.08 342.605C1454.56 343.651 1451.86 344.19 1449.13 344.19V344.105Z" fill="#CCDCEB"/>
<path d="M1449.13 290.33C1443.17 290.33 1437.34 292.097 1432.39 295.408C1427.43 298.719 1423.57 303.425 1421.29 308.93C1419.01 314.436 1418.41 320.494 1419.58 326.339C1420.74 332.184 1423.61 337.553 1427.82 341.767C1432.04 345.981 1437.41 348.85 1443.25 350.013C1449.1 351.176 1455.16 350.579 1460.66 348.298C1466.17 346.018 1470.87 342.156 1474.18 337.201C1477.49 332.246 1479.26 326.42 1479.26 320.461C1479.25 312.472 1476.08 304.812 1470.43 299.163C1464.78 293.514 1457.12 290.338 1449.13 290.33V290.33ZM1449.13 341.174C1445.03 341.174 1441.03 339.959 1437.62 337.683C1434.22 335.407 1431.56 332.172 1429.99 328.388C1428.43 324.603 1428.01 320.438 1428.81 316.42C1429.61 312.402 1431.59 308.711 1434.48 305.814C1437.38 302.918 1441.07 300.945 1445.09 300.146C1449.11 299.346 1453.27 299.757 1457.06 301.324C1460.84 302.892 1464.08 305.547 1466.35 308.953C1468.63 312.36 1469.84 316.364 1469.84 320.461C1469.84 325.954 1467.66 331.223 1463.78 335.107C1459.89 338.992 1454.62 341.174 1449.13 341.174V341.174Z" fill="#49A6D5"/>
<path d="M1449.13 292.634C1456.92 292.636 1464.41 295.657 1470.03 301.063C1475.64 306.469 1478.94 313.84 1479.23 321.627C1479.23 321.229 1479.23 320.859 1479.23 320.461C1478.99 312.626 1475.71 305.193 1470.08 299.736C1464.46 294.279 1456.93 291.228 1449.09 291.228C1441.25 291.228 1433.72 294.279 1428.09 299.736C1422.46 305.193 1419.18 312.626 1418.94 320.461C1418.94 320.859 1418.94 321.229 1418.94 321.627C1419.24 313.828 1422.56 306.449 1428.19 301.042C1433.82 295.635 1441.32 292.621 1449.13 292.634V292.634Z" fill="#85C2D9"/>
<path d="M1449.13 343.479C1454.62 343.479 1459.89 341.296 1463.78 337.412C1467.66 333.528 1469.84 328.259 1469.84 322.766C1469.84 322.396 1469.84 321.997 1469.84 321.627C1469.57 326.918 1467.27 331.901 1463.42 335.548C1459.58 339.195 1454.48 341.228 1449.19 341.228C1443.89 341.228 1438.79 339.195 1434.95 335.548C1431.1 331.901 1428.81 326.918 1428.53 321.627C1428.53 321.997 1428.53 322.396 1428.53 322.766C1428.53 328.239 1430.7 333.491 1434.56 337.372C1438.42 341.253 1443.66 343.449 1449.13 343.479V343.479Z" fill="#85C2D9"/>
<path d="M1449.13 297.244C1444.54 297.244 1440.05 298.605 1436.23 301.157C1432.41 303.708 1429.44 307.334 1427.68 311.576C1425.92 315.818 1425.46 320.487 1426.36 324.99C1427.25 329.494 1429.47 333.631 1432.71 336.878C1435.96 340.125 1440.1 342.336 1444.6 343.232C1449.1 344.128 1453.77 343.668 1458.02 341.911C1462.26 340.153 1465.88 337.178 1468.43 333.36C1470.99 329.542 1472.35 325.053 1472.35 320.461C1472.35 314.303 1469.9 308.398 1465.55 304.044C1461.19 299.69 1455.29 297.244 1449.13 297.244V297.244ZM1449.13 336.423C1445.97 336.423 1442.89 335.486 1440.26 333.733C1437.64 331.979 1435.59 329.486 1434.38 326.569C1433.17 323.653 1432.86 320.443 1433.47 317.347C1434.09 314.251 1435.61 311.407 1437.84 309.174C1440.08 306.942 1442.92 305.422 1446.02 304.806C1449.11 304.19 1452.32 304.506 1455.24 305.714C1458.16 306.922 1460.65 308.968 1462.4 311.593C1464.16 314.218 1465.09 317.304 1465.09 320.461C1465.09 322.557 1464.68 324.633 1463.88 326.569C1463.08 328.506 1461.9 330.265 1460.42 331.748C1458.93 333.23 1457.18 334.405 1455.24 335.208C1453.3 336.01 1451.23 336.423 1449.13 336.423V336.423Z" fill="#E19542"/>
<path d="M1483.93 269.588C1483.53 268.706 1483.13 267.796 1482.71 266.914C1482.71 266.714 1482.51 266.487 1482.42 266.259C1482.02 265.434 1481.6 264.581 1481.17 263.755C1481.06 263.501 1480.94 263.253 1480.8 263.016C1480.37 262.162 1479.95 261.309 1479.49 260.455C1479.4 260.319 1479.33 260.176 1479.26 260.028C1477.8 257.335 1476.24 254.632 1474.57 251.919L1473.97 250.923L1472.6 248.79L1471.75 247.481L1470.38 245.461L1469.36 244.01C1468.91 243.355 1468.48 242.729 1467.99 242.075L1466.71 240.282L1464.98 237.978C1464.3 237.067 1463.64 236.185 1462.93 235.303L1461.68 233.824L1459.97 231.661C1459.54 231.178 1459.15 230.665 1458.72 230.153L1456.87 227.934L1455.65 226.483L1453.48 224.008L1452.43 222.756L1449.13 219L1445.74 222.756L1444.66 224.008L1442.53 226.483L1441.31 227.934L1439.46 230.153C1439.03 230.665 1438.63 231.178 1438.2 231.661L1436.5 233.824L1435.3 235.303C1434.62 236.185 1433.94 237.067 1433.28 237.978L1431.55 240.282L1430.24 242.075L1428.9 244.01L1427.88 245.461L1426.51 247.481L1425.66 248.79L1424.29 250.923L1423.69 251.919C1422.02 254.632 1420.46 257.335 1419 260.028C1418.91 260.164 1418.84 260.307 1418.77 260.455C1418.32 261.309 1417.86 262.162 1417.43 263.016C1417.43 263.243 1417.21 263.499 1417.06 263.755L1415.84 266.259C1415.84 266.487 1415.64 266.714 1415.56 266.914C1415.13 267.796 1414.73 268.706 1414.33 269.588C1425.47 273.697 1437.26 275.76 1449.13 275.677C1461 275.76 1472.79 273.697 1483.93 269.588V269.588Z" fill="#FFC162"/>
<path d="M1449.13 341.174C1460.57 341.174 1469.84 331.9 1469.84 320.461C1469.84 309.021 1460.57 299.748 1449.13 299.748C1437.69 299.748 1428.42 309.021 1428.42 320.461C1428.42 331.9 1437.69 341.174 1449.13 341.174Z" fill="#304B64"/>
<path d="M1449.13 338.158C1458.9 338.158 1466.83 330.235 1466.83 320.461C1466.83 310.687 1458.9 302.763 1449.13 302.763C1439.36 302.763 1431.43 310.687 1431.43 320.461C1431.43 330.235 1439.36 338.158 1449.13 338.158Z" fill="#3C5C7F"/>
<path d="M1453.88 314.827C1454.51 315.994 1455.43 316.975 1456.56 317.672C1457.45 317.93 1458.41 317.827 1459.23 317.386C1460.05 316.944 1460.66 316.199 1460.94 315.311C1461.17 314.411 1461.2 313.47 1461.01 312.559C1460.83 311.647 1460.45 310.789 1459.89 310.047C1458.67 308.299 1456.95 306.957 1454.97 306.196C1452.98 305.435 1450.8 305.289 1448.73 305.779C1447.48 306.092 1446.11 306.946 1446.2 308.226C1446.28 309.507 1447.79 310.189 1449.04 310.73C1451 311.637 1452.67 313.052 1453.88 314.827V314.827Z" fill="#3C6F9A"/>
<path d="M1464.21 321.798C1464.57 321.279 1464.73 320.644 1464.66 320.015C1464.59 319.386 1464.28 318.805 1463.81 318.384C1461.22 315.994 1457.35 320.518 1459.86 322.737C1460.19 323.008 1460.58 323.201 1460.99 323.302C1461.41 323.402 1461.84 323.407 1462.26 323.317C1462.68 323.227 1463.07 323.043 1463.41 322.78C1463.75 322.517 1464.02 322.182 1464.21 321.798Z" fill="#3C6F9A"/>
<path d="M1479.49 403.029C1472.32 405.476 1464.49 404.651 1456.98 403.598C1447.71 402.318 1438.2 400.753 1430.32 395.603C1423.35 390.752 1417.74 384.187 1414.05 376.54C1405.11 359.469 1402.67 340.178 1402.47 320.688C1401.76 329.907 1401.47 339.78 1401.47 350.592C1401.47 352.697 1401.47 354.717 1401.47 356.737C1403.12 409.346 1425.83 429.803 1425.83 429.803C1425.83 429.803 1427.02 430.201 1429.13 430.742C1442.23 433.785 1455.86 433.785 1468.96 430.742C1471.07 430.201 1472.23 429.803 1472.23 429.803C1472.23 429.803 1483.02 420.101 1490.27 396.855C1487.04 399.49 1483.4 401.576 1479.49 403.029V403.029Z" fill="#CCDCEB"/>
<path d="M1483.93 269.588L1483.33 268.279C1475.66 269.761 1467.8 269.992 1460.06 268.962C1455.32 268.756 1450.63 267.904 1446.11 266.43C1443.86 265.677 1441.78 264.468 1440.01 262.877C1438.25 261.286 1436.83 259.347 1435.84 257.183C1434.61 252.993 1434.45 248.56 1435.39 244.294C1435.85 240.193 1436.66 236.138 1437.81 232.173L1436.5 233.824L1435.3 235.303C1434.62 236.185 1433.94 237.067 1433.28 237.978L1431.55 240.282L1430.24 242.075L1428.9 244.01L1427.88 245.461L1426.51 247.481L1425.66 248.79L1424.29 250.923L1423.69 251.919C1422.02 254.632 1420.46 257.335 1419 260.028C1418.91 260.164 1418.84 260.307 1418.77 260.455C1418.32 261.309 1417.86 262.162 1417.43 263.016C1417.43 263.243 1417.21 263.499 1417.06 263.755L1415.84 266.259C1415.84 266.487 1415.64 266.714 1415.56 266.914C1415.13 267.796 1414.73 268.706 1414.33 269.588C1425.47 273.697 1437.26 275.76 1449.13 275.677C1461 275.76 1472.79 273.697 1483.93 269.588V269.588Z" fill="#F9A321"/>
<path d="M1476.53 255.191C1475.88 254.082 1475.25 253 1474.57 251.919L1473.97 250.923L1472.6 248.79L1471.75 247.481L1470.39 245.461L1469.36 244.01C1468.91 243.355 1468.48 242.729 1468 242.075L1466.72 240.282L1464.98 237.978C1464.3 237.067 1463.64 236.185 1462.93 235.303L1461.68 233.824L1459.97 231.661C1459.54 231.178 1459.15 230.665 1458.72 230.153L1456.87 227.934L1455.65 226.483L1453.48 224.008L1452.43 222.756L1449.13 219L1447.22 221.105C1456.99 232.486 1466.76 243.848 1476.53 255.191Z" fill="#F9A321"/>
<path d="M1469.13 431.368V430.742C1456.03 433.785 1442.4 433.785 1429.3 430.742L1427.54 440.501H1427.76C1435.52 441.881 1443.45 441.881 1451.21 440.501C1457.92 439.19 1464.13 436.026 1469.13 431.368V431.368Z" fill="#304B64"/>
<g clip-path="url(#clip0_932_7815)">
<path d="M959.5 0H960C959.83 0 959.67 0 959.5 0.0460294V0Z" fill="white"/>
<path d="M1853.35 534.86C1835.34 552.15 1824.07 575.16 1821.54 599.84H1817.93C1804.38 599.86 1791.41 605.2 1781.84 614.68C1776.46 607.81 1769.62 602.18 1761.83 598.17C1754.03 594.16 1745.44 591.87 1736.66 591.46C1727.88 591.05 1719.11 592.52 1710.96 595.78C1702.81 599.04 1695.47 604.01 1689.45 610.34C1685.46 606.03 1680.6 602.59 1675.18 600.24C1669.77 597.89 1663.92 596.68 1658.01 596.68H1656.75C1653.14 587.62 1647.47 579.51 1640.17 572.98C1632.87 566.44 1624.14 561.66 1614.67 559C1605.2 556.34 1595.23 555.87 1585.54 557.64C1575.86 559.41 1566.71 563.36 1558.83 569.19C1553.89 556.93 1545.62 546.26 1534.95 538.35C1524.26 530.44 1511.59 525.58 1498.3 524.33C1485 523.08 1471.63 525.47 1459.62 531.24C1447.62 537.02 1437.47 545.95 1430.26 557.06C1425.22 551.01 1418.73 546.29 1411.39 543.32C1404.04 540.35 1396.06 539.23 1388.17 540.05C1380.29 540.87 1372.72 543.62 1366.17 548.04C1359.61 552.46 1354.26 558.42 1350.61 565.38C1347.46 564.5 1344.21 564.06 1340.93 564.06C1335.33 564.06 1329.8 565.35 1324.79 567.83C1319.78 570.31 1315.42 573.9 1312.05 578.33C1304.15 569.42 1294.16 562.55 1282.95 558.33C1271.75 554.1 1259.68 552.64 1247.77 554.08C1235.86 555.51 1224.5 559.8 1214.65 566.56C1204.8 573.32 1196.78 582.36 1191.28 592.89C1183.68 585.37 1173.59 580.81 1162.86 580.03C1152.13 579.25 1141.48 582.31 1132.84 588.65C1132.55 578.86 1129.74 569.3 1124.7 560.87C1119.65 552.44 1112.51 545.41 1103.98 540.44C1095.44 535.47 1085.75 532.72 1075.85 532.45C1065.93 532.18 1056.12 534.4 1047.32 538.89C1044.81 530.19 1040.38 522.15 1034.33 515.35C1028.3 508.55 1020.81 503.15 1012.42 499.55C997.4 493.07 975.83 490 959.5 490C943.3 490.13 922.3 493.19 907.58 499.51C899.19 503.12 891.7 508.51 885.67 515.32C879.63 522.12 875.19 530.17 872.68 538.86C863.88 534.37 854.06 532.15 844.15 532.42C834.24 532.69 824.56 535.44 816.02 540.41C807.49 545.38 800.35 552.41 795.3 560.83C790.26 569.26 787.45 578.82 787.16 588.61C778.53 582.27 767.87 579.21 757.14 579.99C746.41 580.77 736.32 585.34 728.72 592.86C723.22 582.34 715.19 573.3 705.35 566.53C695.5 559.76 684.14 555.48 672.23 554.05C660.32 552.62 648.25 554.08 637.05 558.3C625.84 562.53 615.86 569.4 607.95 578.31C604.59 573.88 600.23 570.28 595.21 567.81C590.2 565.34 584.67 564.04 579.07 564.04C575.8 564.04 572.55 564.49 569.39 565.37C565.74 558.41 560.4 552.45 553.83 548.03C547.28 543.61 539.71 540.87 531.82 540.04C523.94 539.22 515.96 540.35 508.62 543.31C501.27 546.28 494.78 551 489.74 557.05C482.55 545.94 472.38 537.01 460.38 531.23C448.37 525.45 435 523.06 421.7 524.32C408.41 525.58 395.74 530.42 385.05 538.34C374.37 546.25 366.11 556.93 361.17 569.18C353.29 563.35 344.14 559.41 334.46 557.64C324.77 555.87 314.81 556.33 305.33 559C295.86 561.66 287.13 566.45 279.83 572.99C272.54 579.53 266.86 587.64 263.25 596.7H261.99C256.08 596.7 250.23 597.91 244.82 600.26C239.41 602.6 234.54 606.05 230.55 610.36C224.53 604.03 217.19 599.05 209.04 595.8C200.89 592.55 192.12 591.07 183.34 591.48C174.56 591.9 165.97 594.19 158.17 598.2C150.38 602.22 143.54 607.84 138.16 614.72C128.6 605.24 115.62 599.9 102.07 599.88H98.46C95.93 575.19 84.66 552.18 66.65 534.9C48.65 517.58 25.04 507.11 0 505.33V626H1920V505.33C1894.96 507.12 1871.35 517.57 1853.35 534.86Z" fill="white"/>
</g>
<defs>
<clipPath id="clip0_932_7815">
<rect width="1920" height="626" fill="white"/>
</clipPath>
</defs>
</svg>
