<svg width="375" height="74" viewBox="0 0 375 74" fill="none" xmlns="http://www.w3.org/2000/svg">
<path d="M515 0C506.246 7.37e-06 494.681 1.66975 486.627 5.17514C482.125 7.135 478.111 10.0715 474.876 13.7733C471.64 17.475 469.263 21.8501 467.916 26.5835C463.194 24.1373 457.93 22.9314 452.616 23.0786C447.303 23.2258 442.113 24.7212 437.533 27.4251C432.952 30.129 429.129 33.9532 426.422 38.5404C423.715 43.1276 422.211 48.3281 422.052 53.6561C417.422 50.2074 411.709 48.5431 405.958 48.9671C400.206 49.3911 394.798 51.875 390.72 55.9656C387.768 50.2385 383.465 45.3213 378.186 41.6412C372.907 37.9612 366.812 35.6296 360.43 34.8493C354.049 34.0689 347.573 34.8633 341.567 37.1634C335.561 39.4636 330.206 43.1998 325.968 48.0475C324.165 45.6373 321.828 43.681 319.141 42.3336C316.454 40.9862 313.491 40.2848 310.486 40.2848C308.733 40.284 306.988 40.5256 305.3 41.0028C303.34 37.2154 300.474 33.9744 296.959 31.5699C293.444 29.1654 289.389 27.6723 285.157 27.2243C280.926 26.7763 276.649 27.3873 272.711 29.0028C268.773 30.6182 265.295 33.1876 262.59 36.481C258.731 30.4355 253.284 25.5743 246.849 22.432C240.414 19.2897 233.239 17.988 226.114 18.67C218.989 19.352 212.189 21.9914 206.463 26.2979C200.737 30.6043 196.306 36.411 193.657 43.0794C189.428 39.9081 184.526 37.7581 179.332 36.7966C174.139 35.8352 168.795 36.0881 163.715 37.5358C158.635 38.9835 153.957 41.587 150.044 45.1436C146.131 48.7003 143.089 53.1142 141.155 58.0421H140.477C137.307 58.0399 134.171 58.6996 131.269 59.9793C128.367 61.259 125.763 63.1306 123.622 65.475C120.393 62.0296 116.458 59.3273 112.088 57.5543C107.717 55.7812 103.016 54.9796 98.3066 55.2047C93.5975 55.4297 88.993 56.6761 84.8106 58.8579C80.6282 61.0397 76.9672 64.105 74.0801 67.8426C68.9511 62.6861 61.9906 59.7823 54.7279 59.7693C54.0506 59.7693 53.3926 59.7693 52.7927 59.7693C51.4341 46.3378 45.3953 33.8171 35.739 24.4103C26.0826 15.0035 13.4274 9.31332 0 8.34094L0 74C127.718 74 494.883 74 515 74V0Z" fill="#FFFFFD"/>
</svg>
