<svg width="72" height="72" viewBox="0 0 72 72" fill="none" xmlns="http://www.w3.org/2000/svg">
<rect width="72" height="72" rx="16" fill="url(#paint0_linear_555_14942)"/>
<path d="M54.5955 51.4265H54.5244V50.505C54.5244 49.7306 53.8944 49.1006 53.1199 49.1006H51.4471V47.83C51.4471 47.2264 50.9726 46.7329 50.3772 46.6995V34.7557C50.9726 34.7223 51.4471 34.2288 51.4471 33.6252V32.3546H53.0701C53.6884 32.3546 54.1916 31.8516 54.1916 31.2331V30.0356H55.0446C55.5466 30.0356 55.955 29.6272 55.955 29.1253V28.0903C55.955 27.7556 55.7722 27.4488 55.4777 27.2895L42.0402 20.0228C41.7549 19.8683 41.399 19.9747 41.2449 20.2598C41.0908 20.5449 41.1969 20.901 41.482 21.0551L54.7813 28.2472V28.8619H17.2187V28.2523L36.2884 18.2465L39.0638 19.7474C39.349 19.9018 39.7049 19.7955 39.8591 19.5104C40.0132 19.2253 39.9071 18.8692 39.622 18.7151L36.8466 17.2141C36.5038 17.0287 36.093 17.0262 35.7478 17.2073L16.5326 27.2869C16.2318 27.4446 16.045 27.7535 16.045 28.093V29.1252C16.045 29.6272 16.4534 30.0355 16.9554 30.0355H17.8084V31.2331C17.8084 31.8515 18.3115 32.3546 18.9299 32.3546H20.5529V33.6252C20.5529 34.2288 21.0274 34.7223 21.6228 34.7557V42.5311C21.6228 42.8552 21.8855 43.1179 22.2096 43.1179C22.5337 43.1179 22.7964 42.8552 22.7964 42.5311V34.759H24.6742V46.6963H22.7965V45.2891C22.7965 44.965 22.5338 44.7023 22.2097 44.7023C21.8856 44.7023 21.6229 44.965 21.6229 45.2891V46.6995C21.0275 46.7329 20.553 47.2264 20.553 47.83V49.1006H18.8801C18.1057 49.1006 17.4756 49.7306 17.4756 50.505V51.4265H17.4045C16.63 51.4265 16 52.0565 16 52.8309V54.0584C16 54.5368 16.3893 54.9262 16.8677 54.9262H55.1323C55.6107 54.9262 56 54.5369 56 54.0584V52.8309C56 52.0565 55.37 51.4265 54.5955 51.4265ZM18.9821 31.181V30.0356H53.0179V31.181H18.9821ZM50.2734 47.8699V49.1005H46.2558V47.8699H50.2734ZM47.3257 46.6962V34.7589H49.2035V46.6962H47.3257ZM46.2558 33.5853V32.3547H50.2734V33.5853H46.2558ZM42.2008 46.6995V34.7557C42.7962 34.7223 43.2707 34.2288 43.2707 33.6252V32.3546H45.0821V33.6252C45.0821 34.2288 45.5566 34.7223 46.152 34.7557V46.6995C45.5566 46.7329 45.0821 47.2264 45.0821 47.83V49.1006H43.2707V47.83C43.2707 47.2264 42.7962 46.7329 42.2008 46.6995ZM42.097 47.8699V49.1005H38.0794V47.8699H42.097ZM39.1493 46.6962V34.7589H41.0271V46.6962H39.1493ZM38.0794 33.5853V32.3547H42.097V33.5853H38.0794ZM34.0244 46.6995V34.7557C34.6198 34.7223 35.0943 34.2288 35.0943 33.6252V32.3546H36.9057V33.6252C36.9057 34.2288 37.3802 34.7223 37.9756 34.7557V46.6995C37.3802 46.7329 36.9057 47.2264 36.9057 47.83V49.1006H35.0943V47.83C35.0943 47.2264 34.6198 46.7329 34.0244 46.6995ZM33.4375 47.8699H33.9206V49.1005H29.903V47.8699H30.3861H33.4375ZM30.9729 46.6962V34.7589H32.8507V46.6962H30.9729ZM29.903 33.5853V32.3547H33.9206V33.5853H29.903ZM25.848 46.6995V34.7557C26.4434 34.7223 26.9179 34.2288 26.9179 33.6252V32.3546H28.7293V33.6252C28.7293 34.2288 29.2038 34.7223 29.7992 34.7557V46.6995C29.2038 46.7329 28.7293 47.2264 28.7293 47.83V49.1006H26.9179V47.83C26.9179 47.2264 26.4434 46.7329 25.848 46.6995ZM21.7266 33.5853V32.3547H25.7442V33.5853H21.7266ZM21.7266 47.8699H22.2097H25.2612H25.7443V49.1005H21.7266V47.8699ZM18.6493 50.505C18.6493 50.3778 18.7528 50.2742 18.8801 50.2742H53.1199C53.2472 50.2742 53.3507 50.3777 53.3507 50.505V51.4265H18.6493V50.505ZM54.8263 53.7525H17.1737V52.8309C17.1737 52.7037 17.2772 52.6002 17.4045 52.6002H54.5955C54.7228 52.6002 54.8263 52.7037 54.8263 52.8309V53.7525Z" fill="white"/>
<defs>
<linearGradient id="paint0_linear_555_14942" x1="72" y1="-8.49567e-05" x2="-2.8109" y2="3.04974" gradientUnits="userSpaceOnUse">
<stop stop-color="#4CA3F2"/>
<stop offset="1" stop-color="#80C2FF"/>
</linearGradient>
</defs>
</svg>
