<svg width="72" height="72" viewBox="0 0 72 72" fill="none" xmlns="http://www.w3.org/2000/svg">
<rect width="72" height="72" rx="16" fill="url(#paint0_linear_555_14948)"/>
<g clip-path="url(#clip0_555_14948)">
<path d="M26.6481 40.5574L26.6478 40.5584C26.6352 40.5992 26.6197 40.6391 26.6014 40.6776L26.5562 40.6562L26.6015 40.6775C26.5751 40.7335 26.2777 41.3217 25.7508 41.9508C25.2317 42.5706 24.4849 43.2361 23.55 43.4645V53.6185L27.3445 54.6999H37.875C38.1933 54.6999 38.4985 54.5735 38.7235 54.3485C38.9486 54.1234 39.075 53.8182 39.075 53.4999C39.075 53.1817 38.9486 52.8765 38.7235 52.6514C38.4985 52.4264 38.1933 52.2999 37.875 52.2999H35.375C35.196 52.2999 35.0243 52.2288 34.8977 52.1022C34.7711 51.9757 34.7 51.804 34.7 51.6249C34.7 51.4459 34.7711 51.2742 34.8977 51.1476C35.0243 51.0211 35.196 50.9499 35.375 50.9499H38.5C38.8183 50.9499 39.1235 50.8235 39.3485 50.5985C39.5736 50.3734 39.7 50.0682 39.7 49.7499C39.7 49.4317 39.5736 49.1265 39.3485 48.9014C39.1235 48.6764 38.8183 48.5499 38.5 48.5499H36C35.821 48.5499 35.6493 48.4788 35.5227 48.3522C35.3961 48.2257 35.325 48.054 35.325 47.8749C35.325 47.6959 35.3961 47.5242 35.5227 47.3976C35.6493 47.2711 35.821 47.1999 36 47.1999H39.125C39.4433 47.1999 39.7485 47.0735 39.9735 46.8485C40.1986 46.6234 40.325 46.3182 40.325 45.9999C40.325 45.6817 40.1986 45.3765 39.9735 45.1514C39.7485 44.9264 39.4433 44.7999 39.125 44.7999H36.625C36.446 44.7999 36.2743 44.7288 36.1477 44.6022C36.0211 44.4756 35.95 44.304 35.95 44.1249C35.95 43.9459 36.0211 43.7742 36.1477 43.6476C36.2743 43.5211 36.446 43.4499 36.625 43.4499H39.75C40.0683 43.4499 40.3735 43.3235 40.5985 43.0985C40.8236 42.8734 40.95 42.5682 40.95 42.2499C40.95 41.9317 40.8236 41.6265 40.5985 41.4014C40.3735 41.1764 40.0683 41.0499 39.75 41.0499H31.0002H31V40.9999L26.6481 40.5574ZM26.6481 40.5574L28.9913 32.3656M26.6481 40.5574L28.9913 32.3656M28.9913 32.3656C29.3462 32.4511 29.8191 32.642 30.2108 33.0682C30.6186 33.5117 30.9432 34.2152 30.95 35.3344L28.9913 32.3656ZM42.3 42.2505V42.2499C42.3 41.5736 42.0313 40.925 41.5531 40.4468C41.0749 39.9686 40.4263 39.6999 39.75 39.6999H31.763L32.2996 35.4562L32.2996 35.4561C32.3031 35.4281 32.3032 35.3999 32.3 35.372C32.2993 33.6293 31.6818 32.522 30.8949 31.851C30.1099 31.1814 29.1608 30.9502 28.5009 30.9499C28.3497 30.9446 28.2011 30.9901 28.0789 31.0793C27.9565 31.1687 27.8677 31.2967 27.8269 31.4426C27.8269 31.4427 27.8269 31.4427 27.8268 31.4427L25.3283 40.119C24.9258 40.9107 24.3095 41.5729 23.55 42.0311V41.6249C23.55 41.4459 23.4789 41.2742 23.3523 41.1476C23.2257 41.0211 23.054 40.9499 22.875 40.9499H16.625C16.446 40.9499 16.2743 41.0211 16.1477 41.1476C16.0211 41.2742 15.95 41.4459 15.95 41.6249V55.3749C15.95 55.554 16.0211 55.7257 16.1477 55.8522C16.2743 55.9788 16.446 56.0499 16.625 56.0499H22.875C23.054 56.0499 23.2257 55.9788 23.3523 55.8522C23.4789 55.7257 23.55 55.554 23.55 55.3749V55.0228L27.0673 56.0479L27.0672 56.0483L27.0728 56.0492C27.1328 56.0595 27.1941 56.0597 27.2541 56.0499L37.875 56.0499L37.8757 56.0499C38.3587 56.0431 38.8298 55.8993 39.2341 55.6352C39.6385 55.3711 39.9596 54.9975 40.16 54.558C40.3603 54.1186 40.4318 53.6312 40.366 53.1527C40.3028 52.6934 40.1156 52.2603 39.8251 51.8999C40.1198 51.7132 40.3733 51.468 40.5696 51.1792C40.7768 50.8744 40.9155 50.5283 40.9761 50.1647C41.0367 49.8012 41.0178 49.4288 40.9206 49.0733C40.8285 48.7363 40.6682 48.4221 40.4499 48.1499C40.7447 47.9633 40.9982 47.718 41.1946 47.4292C41.4018 47.1244 41.5405 46.7783 41.6011 46.4147C41.6617 46.0512 41.6428 45.6788 41.5456 45.3233C41.4536 44.9867 41.2936 44.6727 41.0756 44.4007C41.4366 44.1811 41.7377 43.8749 41.9514 43.5096C42.1749 43.1273 42.2951 42.6933 42.3 42.2505ZM22.2 54.6999H17.3V42.2999H22.2V54.6999Z" fill="white" stroke="white" stroke-width="0.1"/>
<path d="M24.125 25.425H24.7V26C24.7 26.179 24.7711 26.3507 24.8977 26.4773C25.0243 26.6039 25.196 26.675 25.375 26.675C25.554 26.675 25.7257 26.6039 25.8523 26.4773C25.9789 26.3507 26.05 26.179 26.05 26V25.425H26.625C26.804 25.425 26.9757 25.3539 27.1023 25.2273C27.2289 25.1007 27.3 24.929 27.3 24.75C27.3 24.571 27.2289 24.3993 27.1023 24.2727C26.9757 24.1461 26.804 24.075 26.625 24.075H26.05V23.5C26.05 23.321 25.9789 23.1493 25.8523 23.0227C25.7257 22.8961 25.554 22.825 25.375 22.825C25.196 22.825 25.0243 22.8961 24.8977 23.0227C24.7711 23.1493 24.7 23.321 24.7 23.5V24.075H24.125C23.946 24.075 23.7743 24.1461 23.6477 24.2727C23.5211 24.3993 23.45 24.571 23.45 24.75C23.45 24.929 23.5211 25.1007 23.6477 25.2273C23.7743 25.3539 23.946 25.425 24.125 25.425Z" fill="white" stroke="white" stroke-width="0.1"/>
<path d="M49.75 47.2H49.175V46.625C49.175 46.446 49.1039 46.2743 48.9773 46.1477C48.8507 46.0211 48.679 45.95 48.5 45.95C48.321 45.95 48.1493 46.0211 48.0227 46.1477C47.8961 46.2743 47.825 46.446 47.825 46.625V47.2H47.25C47.071 47.2 46.8993 47.2711 46.7727 47.3977C46.6461 47.5243 46.575 47.696 46.575 47.875C46.575 48.054 46.6461 48.2257 46.7727 48.3523C46.8993 48.4789 47.071 48.55 47.25 48.55H47.825V49.125C47.825 49.304 47.8961 49.4757 48.0227 49.6023C48.1493 49.7289 48.321 49.8 48.5 49.8C48.679 49.8 48.8507 49.7289 48.9773 49.6023C49.1039 49.4757 49.175 49.304 49.175 49.125V48.55H49.75C49.929 48.55 50.1007 48.4789 50.2273 48.3523C50.3539 48.2257 50.425 48.054 50.425 47.875C50.425 47.696 50.3539 47.5243 50.2273 47.3977C50.1007 47.2711 49.929 47.2 49.75 47.2Z" fill="white" stroke="white" stroke-width="0.1"/>
<path d="M29.8 29.7498C29.8007 27.3891 30.4726 25.0773 31.7373 23.084C33.002 21.0906 34.8073 19.4979 36.9427 18.4916C39.0782 17.4853 41.4557 17.1068 43.7981 17.4003C46.1404 17.6939 48.3511 18.6473 50.1722 20.1495C51.9933 21.6516 53.3497 23.6406 54.0834 25.8843C54.8171 28.1281 54.8977 30.5342 54.3159 32.8221C53.7341 35.11 52.5139 37.1853 50.7974 38.806C49.0816 40.4261 46.9406 41.5253 44.6241 41.9753C44.446 41.9928 44.2821 42.08 44.1681 42.218C44.0536 42.3566 43.9988 42.5349 44.0158 42.7139C44.0328 42.8929 44.1202 43.0577 44.2588 43.1723C44.3967 43.2863 44.5742 43.3411 44.7523 43.3248H44.8687V43.3256L44.8777 43.324C48.2782 42.7022 51.3215 40.8269 53.4057 38.0689C55.4898 35.3109 56.4629 31.8712 56.1325 28.4301C55.8021 24.9891 54.1923 21.7973 51.6215 19.4863C49.0508 17.1753 45.7063 15.9132 42.2497 15.9498C38.5898 15.9499 35.0799 17.4038 32.4919 19.9917C29.9039 22.5797 28.45 26.0898 28.45 29.7498C28.45 29.9288 28.5211 30.1005 28.6477 30.2271C28.7743 30.3537 28.946 30.4248 29.125 30.4248C29.304 30.4248 29.4757 30.3537 29.6023 30.2271C29.7289 30.1005 29.8 29.9288 29.8 29.7498ZM29.8 29.7498L29.75 29.7498M29.8 29.7498L29.75 29.7498M29.75 29.7498C29.75 29.9156 29.6842 30.0745 29.5669 30.1917C29.4497 30.3089 29.2908 30.3748 29.125 30.3748C28.9592 30.3748 28.8003 30.3089 28.6831 30.1917C28.5658 30.0745 28.5 29.9156 28.5 29.7498C28.5 26.1031 29.9487 22.6057 32.5273 20.0271C35.1059 17.4485 38.6033 15.9998 42.25 15.9998L44.75 43.2748C44.5842 43.2905 44.419 43.2398 44.2907 43.1337C44.1623 43.0276 44.0814 42.8749 44.0656 42.7092C44.0499 42.5434 44.1006 42.3782 44.2067 42.2498C44.3128 42.1215 44.4655 42.0405 44.6312 42.0248C46.958 41.5733 49.1084 40.4695 50.8318 38.8423C52.5551 37.2151 53.7802 35.1315 54.3644 32.8344C54.9485 30.5374 54.8676 28.1216 54.1309 25.8688C53.3943 23.616 52.0324 21.6191 50.204 20.1109C48.3756 18.6027 46.1561 17.6454 43.8043 17.3507C41.4525 17.056 39.0654 17.436 36.9214 18.4463C34.7774 19.4567 32.9648 21.0558 31.6951 23.0572C30.4253 25.0585 29.7507 27.3796 29.75 29.7498Z" fill="white" stroke="white" stroke-width="0.1"/>
<path d="M47.925 32.25V32.25C47.925 30.9107 47.3929 29.6262 46.4459 28.6791C45.4988 27.7321 44.2143 27.2 42.875 27.2H41.625C41.3067 27.2 41.0015 27.0736 40.7765 26.8485C40.5514 26.6235 40.425 26.3183 40.425 26C40.425 25.6817 40.5514 25.3765 40.7765 25.1515C41.0015 24.9264 41.3067 24.8 41.625 24.8H46C46.5105 24.8 47.0002 24.5972 47.3612 24.2362C47.7222 23.8752 47.925 23.3855 47.925 22.875C47.925 22.3645 47.7222 21.8748 47.3612 21.5138C47.0002 21.1528 46.5105 20.95 46 20.95H44.175V19.125C44.175 18.946 44.1039 18.7743 43.9773 18.6477C43.8507 18.5211 43.679 18.45 43.5 18.45H41C40.821 18.45 40.6493 18.5211 40.5227 18.6477C40.3961 18.7743 40.325 18.946 40.325 19.125V21.124C39.1539 21.4397 38.1351 22.1664 37.4554 23.172C36.7685 24.1882 36.4749 25.4198 36.6296 26.6366C36.7842 27.8534 37.3764 28.9724 38.2956 29.7845C39.2148 30.5967 40.3982 31.0465 41.6249 31.05H41.625H42.875C43.1933 31.05 43.4985 31.1764 43.7235 31.4015C43.9486 31.6265 44.075 31.9317 44.075 32.25C44.075 32.5683 43.9486 32.8735 43.7235 33.0985C43.4985 33.3236 43.1933 33.45 42.875 33.45H38.5C37.9895 33.45 37.4998 33.6528 37.1388 34.0138C36.7778 34.3748 36.575 34.8645 36.575 35.375C36.575 35.8855 36.7778 36.3752 37.1388 36.7362C37.4998 37.0972 37.9895 37.3 38.5 37.3H40.325V39.125C40.325 39.304 40.3961 39.4757 40.5227 39.6023C40.6493 39.7289 40.821 39.8 41 39.8H43.5C43.679 39.8 43.8507 39.7289 43.9773 39.6023C44.1039 39.4757 44.175 39.304 44.175 39.125V37.1261C45.243 36.8416 46.1886 36.2143 46.8662 35.3402C47.5517 34.4559 47.9242 33.369 47.925 32.25ZM43.4051 35.9068C43.2431 35.9298 43.0949 36.0109 42.9882 36.135L41.0875 22.2937C41.2377 22.2725 41.375 22.1974 41.4739 22.0824C41.5728 21.9674 41.6265 21.8204 41.625 21.6687H41.675V21.6685V19.8H42.825V21.625C42.825 21.804 42.8961 21.9757 43.0227 22.1023C43.1493 22.2289 43.321 22.3 43.5 22.3H46C46.1525 22.3 46.2988 22.3606 46.4066 22.4684C46.5144 22.5762 46.575 22.7225 46.575 22.875C46.575 23.0275 46.5144 23.1738 46.4066 23.2816C46.2988 23.3894 46.1525 23.45 46 23.45H41.625C40.9487 23.45 40.3001 23.7187 39.8219 24.1969C39.3437 24.6751 39.075 25.3237 39.075 26C39.075 26.6763 39.3437 27.3249 39.8219 27.8031C40.3001 28.2813 40.9487 28.55 41.625 28.55H42.8748C43.8043 28.5582 44.6968 28.9159 45.3746 29.5522C46.0524 30.1884 46.4659 31.0566 46.5327 31.9838C46.5995 32.9111 46.3149 33.8295 45.7353 34.5565C45.1558 35.2833 44.3239 35.7654 43.4051 35.9068ZM38.7647 23.6935C39.3442 22.9667 40.1761 22.4846 41.0948 22.3432L42.875 36.5812H42.825V36.5815V38.45H41.675V36.625C41.675 36.446 41.6039 36.2743 41.4773 36.1477C41.3507 36.0211 41.179 35.95 41 35.95H38.5C38.3475 35.95 38.2012 35.8894 38.0934 35.7816C37.9856 35.6738 37.925 35.5275 37.925 35.375C37.925 35.2225 37.9856 35.0762 38.0934 34.9684C38.2012 34.8606 38.3475 34.8 38.5 34.8H42.875C43.5513 34.8 44.1999 34.5313 44.6781 34.0531C45.1563 33.5749 45.425 32.9263 45.425 32.25C45.425 31.5737 45.1563 30.9251 44.6781 30.4469C44.1999 29.9687 43.5513 29.7 42.875 29.7H41.6252C40.6957 29.6918 39.8032 29.3341 39.1254 28.6978C38.4476 28.0616 38.0341 27.1934 37.9673 26.2662C37.9005 25.3389 38.1851 24.4205 38.7647 23.6935Z" fill="white" stroke="white" stroke-width="0.1"/>
</g>
<defs>
<linearGradient id="paint0_linear_555_14948" x1="72" y1="-8.49567e-05" x2="-2.8109" y2="3.04974" gradientUnits="userSpaceOnUse">
<stop stop-color="#4CA3F2"/>
<stop offset="1" stop-color="#80C2FF"/>
</linearGradient>
<clipPath id="clip0_555_14948">
<rect width="40" height="40" fill="white" transform="translate(16 16)"/>
</clipPath>
</defs>
</svg>
