<svg width="72" height="73" viewBox="0 0 72 73" fill="none" xmlns="http://www.w3.org/2000/svg">
<rect y="0.5" width="72" height="72" rx="16" fill="white"/>
<g clip-path="url(#clip0_555_15418)">
<path d="M49.9993 29.1667V25.8333C49.9993 24.7288 49.1039 23.8333 47.9993 23.8333H47.3327V17.8333C47.3327 17.097 46.7357 16.5 45.9993 16.5H25.9993C25.263 16.5 24.666 17.097 24.666 17.8333V23.8333H23.9993C22.8948 23.8333 21.9993 24.7288 21.9993 25.8333V29.1667C20.1593 29.1689 18.6682 30.66 18.666 32.5V47.1667C18.666 48.2712 19.5614 49.1667 20.666 49.1667H23.388L22.352 54.088C22.2278 54.6778 22.3763 55.2922 22.7561 55.7602C23.1359 56.2283 23.7066 56.5001 24.3093 56.5H47.6893C48.2921 56.5001 48.8628 56.2283 49.2426 55.7602C49.6224 55.2922 49.7708 54.6778 49.6467 54.088L48.6107 49.1667H51.3327C52.4372 49.1667 53.3327 48.2712 53.3327 47.1667V32.5C53.3305 30.66 51.8394 29.1689 49.9993 29.1667ZM47.9993 25.1667C48.3675 25.1667 48.666 25.4651 48.666 25.8333V29.1667H47.3327V25.1667H47.9993ZM25.9993 17.8333H45.9993V29.1667H25.9993V17.8333ZM23.3327 25.8333C23.3327 25.4651 23.6312 25.1667 23.9993 25.1667H24.666V29.1667H23.3327V25.8333ZM48.2073 54.92C48.0807 55.0761 47.8904 55.1667 47.6893 55.1666H24.3093C24.1084 55.1667 23.9181 55.0762 23.7915 54.9202C23.6648 54.7641 23.6153 54.5593 23.6567 54.3627L25.874 43.8333H46.1247L48.342 54.3627C48.3834 54.5592 48.3339 54.764 48.2073 54.92ZM48.3327 47.8333L47.484 43.8033C47.7832 43.7371 47.9969 43.473 47.9993 43.1667C47.9993 42.7985 47.7009 42.5 47.3327 42.5H24.666C24.2978 42.5 23.9993 42.7985 23.9993 43.1667C24.002 43.4738 24.2171 43.7382 24.5173 43.8033L23.666 47.8333H22.666V40.5C22.666 40.1318 22.9645 39.8333 23.3327 39.8333H48.666C49.0342 39.8333 49.3327 40.1318 49.3327 40.5V47.8333H48.3327ZM51.9993 47.1667C51.9993 47.5348 51.7009 47.8333 51.3327 47.8333H50.666V40.5C50.666 39.3954 49.7706 38.5 48.666 38.5H23.3327C22.2281 38.5 21.3327 39.3954 21.3327 40.5V47.8333H20.666C20.2978 47.8333 19.9993 47.5348 19.9993 47.1667V32.5C19.9993 31.3954 20.8948 30.5 21.9993 30.5H49.9993C51.1039 30.5 51.9993 31.3954 51.9993 32.5V47.1667Z" fill="#57A6EE"/>
<path d="M23.332 33.1667H21.9987C21.6305 33.1667 21.332 33.4651 21.332 33.8333C21.332 34.2015 21.6305 34.5 21.9987 34.5H23.332C23.7002 34.5 23.9987 34.2015 23.9987 33.8333C23.9987 33.4651 23.7002 33.1667 23.332 33.1667Z" fill="#57A6EE"/>
<path d="M27.332 33.1667H25.9987C25.6305 33.1667 25.332 33.4651 25.332 33.8333C25.332 34.2015 25.6305 34.5 25.9987 34.5H27.332C27.7002 34.5 27.9987 34.2015 27.9987 33.8333C27.9987 33.4651 27.7002 33.1667 27.332 33.1667Z" fill="#57A6EE"/>
<path d="M50 33.1667H30.6667C30.2985 33.1667 30 33.4651 30 33.8333C30 34.2015 30.2985 34.5 30.6667 34.5H50C50.3682 34.5 50.6667 34.2015 50.6667 33.8333C50.6667 33.4651 50.3682 33.1667 50 33.1667Z" fill="#57A6EE"/>
<path d="M30.6658 45.8333C28.8593 45.8318 27.2761 47.0413 26.8024 48.7845C26.3288 50.5278 27.0823 52.3721 28.6411 53.285C30.2 54.1979 32.1772 53.9527 33.4658 52.6867C33.4758 52.6773 33.4884 52.6747 33.4984 52.6647C33.5084 52.6547 33.5111 52.642 33.5204 52.632C34.6467 51.4819 34.9738 49.7689 34.3506 48.2847C33.7275 46.8006 32.2754 45.8346 30.6658 45.8333ZM33.3324 49.8333C33.3301 50.3079 33.1995 50.7729 32.9544 51.1793L31.3324 49.5573V47.2613C32.5062 47.5644 33.3279 48.621 33.3324 49.8333ZM27.9991 49.8333C28.0036 48.621 28.8253 47.5644 29.9991 47.2613V49.8333C29.9991 50.0101 30.0694 50.1797 30.1944 50.3047L32.0118 52.122C31.6054 52.3671 31.1403 52.4977 30.6658 52.5C29.193 52.5 27.9991 51.3061 27.9991 49.8333Z" fill="#57A6EE"/>
<path d="M38 51.8333H36.6667C36.2985 51.8333 36 52.1318 36 52.5C36 52.8682 36.2985 53.1667 36.6667 53.1667H38C38.3682 53.1667 38.6667 52.8682 38.6667 52.5C38.6667 52.1318 38.3682 51.8333 38 51.8333Z" fill="#57A6EE"/>
<path d="M45.3333 51.8333H40.6667C40.2985 51.8333 40 52.1318 40 52.5C40 52.8682 40.2985 53.1667 40.6667 53.1667H45.3333C45.7015 53.1667 46 52.8682 46 52.5C46 52.1318 45.7015 51.8333 45.3333 51.8333Z" fill="#57A6EE"/>
<path d="M36.6667 50.5H42.6667C43.0349 50.5 43.3333 50.2015 43.3333 49.8333C43.3333 49.4651 43.0349 49.1667 42.6667 49.1667H36.6667C36.2985 49.1667 36 49.4651 36 49.8333C36 50.2015 36.2985 50.5 36.6667 50.5Z" fill="#57A6EE"/>
<path d="M36.6667 47.8333H38.6667C39.0349 47.8333 39.3333 47.5349 39.3333 47.1667C39.3333 46.7985 39.0349 46.5 38.6667 46.5H36.6667C36.2985 46.5 36 46.7985 36 47.1667C36 47.5349 36.2985 47.8333 36.6667 47.8333Z" fill="#57A6EE"/>
<path d="M41.3327 47.8333H43.9993C44.3675 47.8333 44.666 47.5349 44.666 47.1667C44.666 46.7985 44.3675 46.5 43.9993 46.5H41.3327C40.9645 46.5 40.666 46.7985 40.666 47.1667C40.666 47.5349 40.9645 47.8333 41.3327 47.8333Z" fill="#57A6EE"/>
</g>
<defs>
<clipPath id="clip0_555_15418">
<rect width="40" height="40" fill="white" transform="translate(16 16.5)"/>
</clipPath>
</defs>
</svg>
