<svg width="72" height="73" viewBox="0 0 72 73" fill="none" xmlns="http://www.w3.org/2000/svg">
<rect y="0.5" width="71.9805" height="72" rx="16" fill="white"/>
<path d="M31.3327 40.5C27.6507 40.5 24.666 43.4847 24.666 47.1667C24.666 50.8486 27.6507 53.8333 31.3327 53.8333C35.0146 53.8333 37.9993 50.8486 37.9993 47.1667C37.9954 43.4863 35.013 40.5039 31.3327 40.5ZM31.3327 52.5C28.387 52.5 25.9993 50.1123 25.9993 47.1667C25.9993 44.221 28.387 41.8333 31.3327 41.8333C34.2783 41.8333 36.666 44.221 36.666 47.1667C36.6628 50.1107 34.2767 52.4967 31.3327 52.5Z" fill="#57A6EE"/>
<path d="M31.3327 45.1665C32.1468 45.1665 32.666 45.561 32.666 45.8332H33.9993C33.9993 44.8859 33.1602 44.1187 31.9993 43.8999V43.1665H30.666V43.8999C29.5052 44.117 28.666 44.8846 28.666 45.8332C28.666 46.9552 29.8372 47.8332 31.3327 47.8332C32.1468 47.8332 32.666 48.2277 32.666 48.4998C32.666 48.772 32.1468 49.1665 31.3327 49.1665C30.5186 49.1665 29.9993 48.772 29.9993 48.4998H28.666C28.666 49.4471 29.5052 50.2144 30.666 50.4331V51.1665H31.9993V50.4331C33.1602 50.216 33.9993 49.4484 33.9993 48.4998C33.9993 47.3778 32.8281 46.4998 31.3327 46.4998C30.5186 46.4998 29.9993 46.1053 29.9993 45.8332C29.9993 45.561 30.5186 45.1665 31.3327 45.1665Z" fill="#57A6EE"/>
<path d="M50 55.1667H22V39.1667H32.6667C33.7712 39.1667 34.6667 38.2712 34.6667 37.1667V20.5H42V28.5H50V37.8333H51.3333V27.5573L42.9427 19.1667H34.6667V18.5C34.6667 17.3955 33.7712 16.5 32.6667 16.5H18C16.8955 16.5 16 17.3955 16 18.5V37.1667C16 38.2712 16.8955 39.1667 18 39.1667H20.6667V56.5H51.3333V47.1667H50V55.1667ZM43.3333 21.4427L49.0573 27.1667H43.3333V21.4427ZM17.3333 37.1667V18.5C17.3333 18.1318 17.6318 17.8333 18 17.8333H32.6667C33.0348 17.8333 33.3333 18.1318 33.3333 18.5V37.1667C33.3333 37.5348 33.0348 37.8333 32.6667 37.8333H18C17.6318 37.8333 17.3333 37.5348 17.3333 37.1667Z" fill="#57A6EE"/>
<path d="M37.334 33.1665H38.6673V34.4998H37.334V33.1665Z" fill="#57A6EE"/>
<path d="M40 33.1665H48V34.4998H40V33.1665Z" fill="#57A6EE"/>
<path d="M37.334 30.5H38.6673V31.8333H37.334V30.5Z" fill="#57A6EE"/>
<path d="M40 30.5H48V31.8333H40V30.5Z" fill="#57A6EE"/>
<path d="M37.334 35.8335H38.6673V37.1668H37.334V35.8335Z" fill="#57A6EE"/>
<path d="M40 35.8335H48V37.1668H40V35.8335Z" fill="#57A6EE"/>
<path d="M37.334 38.5H38.6673V39.8333H37.334V38.5Z" fill="#57A6EE"/>
<path d="M40 38.5H48V39.8333H40V38.5Z" fill="#57A6EE"/>
<path d="M32.6667 18.5H18V23.1667H32.6667V18.5ZM31.3333 21.8333H19.3333V19.8333H31.3333V21.8333Z" fill="#57A6EE"/>
<path d="M21.3327 23.8335H19.9993C19.263 23.8335 18.666 24.4305 18.666 25.1668V26.5002C18.666 27.2365 19.263 27.8335 19.9993 27.8335H21.3327C22.069 27.8335 22.666 27.2365 22.666 26.5002V25.1668C22.666 24.4305 22.069 23.8335 21.3327 23.8335ZM19.9993 26.5002V25.1668H21.3327V26.5002H19.9993Z" fill="#57A6EE"/>
<path d="M26.0007 23.8335H24.6673C23.931 23.8335 23.334 24.4305 23.334 25.1668V26.5002C23.334 27.2365 23.931 27.8335 24.6673 27.8335H26.0007C26.737 27.8335 27.334 27.2365 27.334 26.5002V25.1668C27.334 24.4305 26.737 23.8335 26.0007 23.8335ZM24.6673 26.5002V25.1668H26.0007V26.5002H24.6673Z" fill="#57A6EE"/>
<path d="M30.6667 23.8335H29.3333C28.597 23.8335 28 24.4305 28 25.1668V26.5002C28 27.2365 28.597 27.8335 29.3333 27.8335H30.6667C31.403 27.8335 32 27.2365 32 26.5002V25.1668C32 24.4305 31.403 23.8335 30.6667 23.8335ZM29.3333 26.5002V25.1668H30.6667V26.5002H29.3333Z" fill="#57A6EE"/>
<path d="M21.3327 28.5H19.9993C19.263 28.5 18.666 29.097 18.666 29.8333V31.1667C18.666 31.903 19.263 32.5 19.9993 32.5H21.3327C22.069 32.5 22.666 31.903 22.666 31.1667V29.8333C22.666 29.097 22.069 28.5 21.3327 28.5ZM19.9993 31.1667V29.8333H21.3327V31.1667H19.9993Z" fill="#57A6EE"/>
<path d="M26.0007 28.5H24.6673C23.931 28.5 23.334 29.097 23.334 29.8333V31.1667C23.334 31.903 23.931 32.5 24.6673 32.5H26.0007C26.737 32.5 27.334 31.903 27.334 31.1667V29.8333C27.334 29.097 26.737 28.5 26.0007 28.5ZM24.6673 31.1667V29.8333H26.0007V31.1667H24.6673Z" fill="#57A6EE"/>
<path d="M30.6667 28.5H29.3333C28.597 28.5 28 29.097 28 29.8333V31.1667C28 31.903 28.597 32.5 29.3333 32.5H30.6667C31.403 32.5 32 31.903 32 31.1667V29.8333C32 29.097 31.403 28.5 30.6667 28.5ZM29.3333 31.1667V29.8333H30.6667V31.1667H29.3333Z" fill="#57A6EE"/>
<path d="M21.3327 33.1665H19.9993C19.263 33.1665 18.666 33.7635 18.666 34.4998V35.8332C18.666 36.5695 19.263 37.1665 19.9993 37.1665H21.3327C22.069 37.1665 22.666 36.5695 22.666 35.8332V34.4998C22.666 33.7635 22.069 33.1665 21.3327 33.1665ZM19.9993 35.8332V34.4998H21.3327V35.8332H19.9993Z" fill="#57A6EE"/>
<path d="M26.0007 33.1665H24.6673C23.931 33.1665 23.334 33.7635 23.334 34.4998V35.8332C23.334 36.5695 23.931 37.1665 24.6673 37.1665H26.0007C26.737 37.1665 27.334 36.5695 27.334 35.8332V34.4998C27.334 33.7635 26.737 33.1665 26.0007 33.1665ZM24.6673 35.8332V34.4998H26.0007V35.8332H24.6673Z" fill="#57A6EE"/>
<path d="M30.6667 33.1665H29.3333C28.597 33.1665 28 33.7635 28 34.4998V35.8332C28 36.5695 28.597 37.1665 29.3333 37.1665H30.6667C31.403 37.1665 32 36.5695 32 35.8332V34.4998C32 33.7635 31.403 33.1665 30.6667 33.1665ZM29.3333 35.8332V34.4998H30.6667V35.8332H29.3333Z" fill="#57A6EE"/>
<path d="M55.394 37.7722C54.6027 37.0167 53.3576 37.0167 52.5662 37.7722L41.1375 49.2006C41.0822 49.2566 41.0369 49.3217 41.0041 49.3933L39.3947 52.8881C39.2785 53.1414 39.3322 53.4405 39.5295 53.6375C39.7264 53.8347 40.0256 53.8884 40.2788 53.7722L43.7736 52.1628C43.8452 52.13 43.9103 52.085 43.9663 52.0294L55.394 40.6007C56.1753 39.8197 56.1753 38.5531 55.394 37.7722ZM43.1069 51.0014L41.3602 51.8061L42.1649 50.0593L50.686 41.5375L51.6287 42.4802L43.1069 51.0014ZM52.5734 41.5346L51.6307 40.5922L52.0975 40.1254L53.0402 41.0681L52.5734 41.5346ZM54.4536 39.6547L53.9823 40.1261L53.0395 39.1833L53.5116 38.712C53.7749 38.46 54.1899 38.46 54.4536 38.712C54.7137 38.9724 54.7137 39.3943 54.4536 39.6547Z" fill="#57A6EE"/>
</svg>
