<svg width="50" height="51" viewBox="0 0 50 51" fill="none" xmlns="http://www.w3.org/2000/svg">
<g clip-path="url(#clip0_1_1772)">
<path d="M26.0356 51V50.2691C26.0356 41.6436 26.0408 33.018 26.0234 24.3908C26.0234 23.8914 26.1591 23.6495 26.6373 23.4436C30.032 21.9834 33.411 20.4855 36.7952 19.003C36.99 18.9172 37.1917 18.8434 37.4543 18.7388C37.4683 18.9824 37.4891 19.1832 37.4891 19.3822C37.4891 28.0506 37.4874 36.7191 37.4996 45.3892C37.4996 45.8285 37.39 46.0584 36.9552 46.2454C33.5223 47.7262 30.1033 49.2379 26.6791 50.7392C26.5052 50.8165 26.326 50.8817 26.0356 50.9983V51Z" fill="black"/>
<path d="M26.0356 51V50.2691C26.0356 41.6436 26.0408 33.018 26.0234 24.3908C26.0234 23.8914 26.1591 23.6495 26.6373 23.4436C30.032 21.9834 33.411 20.4855 36.7952 19.003C36.99 18.9172 37.1917 18.8434 37.4543 18.7388C37.4683 18.9824 37.4891 19.1832 37.4891 19.3822C37.4891 28.0506 37.4874 36.7191 37.4996 45.3892C37.4996 45.8285 37.39 46.0584 36.9552 46.2454C33.5223 47.7262 30.1033 49.2379 26.6791 50.7392C26.5052 50.8165 26.326 50.8817 26.0356 50.9983V51Z" fill="url(#paint0_linear_1_1772)"/>
<path d="M23.9153 50.9966C23.564 50.8439 23.2736 50.7186 22.9831 50.5917C19.6615 49.1332 16.3416 47.6696 13.0113 46.2266C12.6513 46.0704 12.4844 45.9143 12.4844 45.4922C12.4983 36.7002 12.4948 27.9099 12.4965 19.118C12.4965 19.0116 12.5087 18.9052 12.5174 18.7422C12.7191 18.8177 12.8983 18.8743 13.0687 18.9498C16.5312 20.4632 19.9919 21.9834 23.4579 23.4916C23.7814 23.6323 23.964 23.7748 23.964 24.1848C23.9483 33.0197 23.9518 41.8529 23.9501 50.6877C23.9501 50.7512 23.9362 50.8147 23.9153 51V50.9966Z" fill="black"/>
<path d="M23.9153 50.9966C23.564 50.8439 23.2736 50.7186 22.9831 50.5917C19.6615 49.1332 16.3416 47.6696 13.0113 46.2266C12.6513 46.0704 12.4844 45.9143 12.4844 45.4922C12.4983 36.7002 12.4948 27.9099 12.4965 19.118C12.4965 19.0116 12.5087 18.9052 12.5174 18.7422C12.7191 18.8177 12.8983 18.8743 13.0687 18.9498C16.5312 20.4632 19.9919 21.9834 23.4579 23.4916C23.7814 23.6323 23.964 23.7748 23.964 24.1848C23.9483 33.0197 23.9518 41.8529 23.9501 50.6877C23.9501 50.7512 23.9362 50.8147 23.9153 51V50.9966Z" fill="url(#paint1_linear_1_1772)"/>
<path d="M39.5729 45.0701V44.3202C39.5729 35.6998 39.5764 27.0794 39.5625 18.4608C39.5625 17.9683 39.6842 17.7178 40.1694 17.5119C43.2285 16.2062 46.2684 14.8575 49.3152 13.5243C49.51 13.4402 49.7082 13.3647 49.9882 13.2498V13.9327C49.9882 22.4244 49.9813 30.9161 50.0004 39.4078C50.0021 40.2039 49.7221 40.6586 48.9761 40.9778C46.0353 42.2303 43.1154 43.5309 40.1886 44.8144C40.0147 44.8899 39.839 44.9602 39.5747 45.0718L39.5729 45.0701Z" fill="black"/>
<path d="M39.5729 45.0701V44.3202C39.5729 35.6998 39.5764 27.0794 39.5625 18.4608C39.5625 17.9683 39.6842 17.7178 40.1694 17.5119C43.2285 16.2062 46.2684 14.8575 49.3152 13.5243C49.51 13.4402 49.7082 13.3647 49.9882 13.2498V13.9327C49.9882 22.4244 49.9813 30.9161 50.0004 39.4078C50.0021 40.2039 49.7221 40.6586 48.9761 40.9778C46.0353 42.2303 43.1154 43.5309 40.1886 44.8144C40.0147 44.8899 39.839 44.9602 39.5747 45.0718L39.5729 45.0701Z" fill="url(#paint2_linear_1_1772)"/>
<path d="M10.3909 45.0666C7.73886 43.9066 5.17026 42.7828 2.60165 41.6572C1.96863 41.3792 1.33908 41.0944 0.704323 40.8198C0.236514 40.6191 0 40.2759 0 39.7732C0.00347814 30.9829 0.00869535 22.1927 0.0121735 13.4007C0.0121735 13.3801 0.0278251 13.3612 0.0643456 13.2686C0.253904 13.3423 0.446941 13.411 0.633021 13.4933C3.71813 14.8454 6.8015 16.2026 9.89183 17.5444C10.2449 17.6971 10.4257 17.8584 10.424 18.284C10.4101 27.0742 10.4136 35.8662 10.4118 44.6565C10.4118 44.7628 10.4014 44.8692 10.3892 45.0666H10.3909Z" fill="black"/>
<path d="M10.3909 45.0666C7.73886 43.9066 5.17026 42.7828 2.60165 41.6572C1.96863 41.3792 1.33908 41.0944 0.704323 40.8198C0.236514 40.6191 0 40.2759 0 39.7732C0.00347814 30.9829 0.00869535 22.1927 0.0121735 13.4007C0.0121735 13.3801 0.0278251 13.3612 0.0643456 13.2686C0.253904 13.3423 0.446941 13.411 0.633021 13.4933C3.71813 14.8454 6.8015 16.2026 9.89183 17.5444C10.2449 17.6971 10.4257 17.8584 10.424 18.284C10.4101 27.0742 10.4136 35.8662 10.4118 44.6565C10.4118 44.7628 10.4014 44.8692 10.3892 45.0666H10.3909Z" fill="url(#paint3_linear_1_1772)"/>
<path d="M13.1287 16.6831C13.7461 16.4137 14.3147 16.1615 14.8852 15.9161C16.1755 15.3619 17.4868 14.8489 18.7528 14.2449C19.5859 13.8485 20.4102 13.7078 21.3162 13.8417C24.064 14.2483 26.8082 14.0819 29.5525 13.7868C29.7803 13.7627 30.0411 13.761 30.2464 13.8451C32.3785 14.7391 34.5019 15.6536 36.627 16.5664C36.6827 16.5905 36.7261 16.6454 36.827 16.7294C35.3418 17.3832 33.8897 18.0249 32.4376 18.6632C30.102 19.6876 27.7699 20.7171 25.4257 21.7225C25.2013 21.8186 24.8639 21.8478 24.6483 21.7534C20.9006 20.132 17.1616 18.4865 13.4226 16.8444C13.3443 16.8101 13.2713 16.762 13.127 16.6831H13.1287Z" fill="black"/>
<path d="M13.1287 16.6831C13.7461 16.4137 14.3147 16.1615 14.8852 15.9161C16.1755 15.3619 17.4868 14.8489 18.7528 14.2449C19.5859 13.8485 20.4102 13.7078 21.3162 13.8417C24.064 14.2483 26.8082 14.0819 29.5525 13.7868C29.7803 13.7627 30.0411 13.761 30.2464 13.8451C32.3785 14.7391 34.5019 15.6536 36.627 16.5664C36.6827 16.5905 36.7261 16.6454 36.827 16.7294C35.3418 17.3832 33.8897 18.0249 32.4376 18.6632C30.102 19.6876 27.7699 20.7171 25.4257 21.7225C25.2013 21.8186 24.8639 21.8478 24.6483 21.7534C20.9006 20.132 17.1616 18.4865 13.4226 16.8444C13.3443 16.8101 13.2713 16.762 13.127 16.6831H13.1287Z" fill="url(#paint4_linear_1_1772)"/>
<path d="M7.21449 8.64968C6.35366 7.23755 5.97628 5.75163 6.46322 4.11814C7.22841 1.54438 9.98135 -0.209213 12.8804 0.0207097C15.5412 0.231758 17.6524 1.54438 19.6819 3.23448C18.9776 3.5502 18.3376 3.83846 17.5915 4.17305C20.1497 6.33844 22.1861 8.83499 23.6018 12.0162C18.4976 11.4602 13.423 11.4002 9.19182 7.85868C12.0369 6.60611 14.7342 5.41704 17.5498 4.17648C15.6472 2.79866 13.7656 1.72111 11.39 2.18439C9.21442 2.6082 7.11015 4.99837 9.23703 7.85868C8.54141 8.12635 7.86665 8.38544 7.19363 8.64454L7.21449 8.6514V8.64968Z" fill="black"/>
<path d="M7.21449 8.64968C6.35366 7.23755 5.97628 5.75163 6.46322 4.11814C7.22841 1.54438 9.98135 -0.209213 12.8804 0.0207097C15.5412 0.231758 17.6524 1.54438 19.6819 3.23448C18.9776 3.5502 18.3376 3.83846 17.5915 4.17305C20.1497 6.33844 22.1861 8.83499 23.6018 12.0162C18.4976 11.4602 13.423 11.4002 9.19182 7.85868C12.0369 6.60611 14.7342 5.41704 17.5498 4.17648C15.6472 2.79866 13.7656 1.72111 11.39 2.18439C9.21442 2.6082 7.11015 4.99837 9.23703 7.85868C8.54141 8.12635 7.86665 8.38544 7.19363 8.64454L7.21449 8.6514V8.64968Z" fill="url(#paint5_linear_1_1772)"/>
<path d="M42.7889 8.64965C42.1298 8.39399 41.469 8.13661 40.7577 7.86036C40.8603 7.68706 40.9264 7.5618 41.0064 7.44684C42.0898 5.89057 41.7768 4.0306 40.2325 2.91702C39.0725 2.0814 37.7682 1.90124 36.3944 2.18264C34.9422 2.47948 33.7006 3.20528 32.4449 4.17473C35.2327 5.40156 37.9421 6.59407 40.7107 7.81232C39.836 8.76804 38.8152 9.35658 37.7265 9.84559C35.3492 10.9128 32.8084 11.3349 30.2433 11.6335C29.0225 11.7759 27.7947 11.8703 26.4121 12.0007C27.7964 8.86756 29.7807 6.36071 32.3997 4.17816C31.6884 3.8573 31.0363 3.56389 30.3128 3.23788C32.6832 1.27324 35.1509 -0.267586 38.3421 0.0772984C43.055 0.58862 45.1019 5.23512 42.8046 8.5364C42.782 8.569 42.7785 8.61533 42.7663 8.65651L42.7872 8.64965H42.7889Z" fill="black"/>
<path d="M42.7889 8.64965C42.1298 8.39399 41.469 8.13661 40.7577 7.86036C40.8603 7.68706 40.9264 7.5618 41.0064 7.44684C42.0898 5.89057 41.7768 4.0306 40.2325 2.91702C39.0725 2.0814 37.7682 1.90124 36.3944 2.18264C34.9422 2.47948 33.7006 3.20528 32.4449 4.17473C35.2327 5.40156 37.9421 6.59407 40.7107 7.81232C39.836 8.76804 38.8152 9.35658 37.7265 9.84559C35.3492 10.9128 32.8084 11.3349 30.2433 11.6335C29.0225 11.7759 27.7947 11.8703 26.4121 12.0007C27.7964 8.86756 29.7807 6.36071 32.3997 4.17816C31.6884 3.8573 31.0363 3.56389 30.3128 3.23788C32.6832 1.27324 35.1509 -0.267586 38.3421 0.0772984C43.055 0.58862 45.1019 5.23512 42.8046 8.5364C42.782 8.569 42.7785 8.61533 42.7663 8.65651L42.7872 8.64965H42.7889Z" fill="url(#paint6_linear_1_1772)"/>
<path d="M19.7051 3.24457C21.3659 2.51534 22.9224 1.81699 24.4945 1.15296C24.7327 1.05172 25.0771 1.00196 25.3014 1.09462C26.9518 1.77409 28.5848 2.49475 30.3169 3.24285C28.1326 5.23838 26.3935 7.4501 25.0075 10.0633C23.6284 7.45182 21.9154 5.21779 19.7051 3.24629V3.24457Z" fill="black"/>
<path d="M19.7051 3.24457C21.3659 2.51534 22.9224 1.81699 24.4945 1.15296C24.7327 1.05172 25.0771 1.00196 25.3014 1.09462C26.9518 1.77409 28.5848 2.49475 30.3169 3.24285C28.1326 5.23838 26.3935 7.4501 25.0075 10.0633C23.6284 7.45182 21.9154 5.21779 19.7051 3.24629V3.24457Z" fill="url(#paint7_linear_1_1772)"/>
<path d="M7.19186 8.64453C9.2944 11.1394 12.1604 12.2495 15.2455 12.9616C15.4455 13.0079 15.6437 13.0714 16.0263 13.1795C15.4855 13.4146 15.1012 13.5793 14.7203 13.7492C13.4003 14.336 12.0839 14.9279 10.7622 15.5096C10.663 15.5542 10.5117 15.5628 10.4144 15.5216C7.33273 14.1798 4.25631 12.8312 1.05469 11.4276C2.32595 10.8665 3.48765 10.3604 4.64413 9.84219C5.50671 9.45441 6.36233 9.05119 7.21795 8.65311C7.21447 8.65311 7.1936 8.64625 7.1936 8.64625L7.19186 8.64453Z" fill="black"/>
<path d="M7.19186 8.64453C9.2944 11.1394 12.1604 12.2495 15.2455 12.9616C15.4455 13.0079 15.6437 13.0714 16.0263 13.1795C15.4855 13.4146 15.1012 13.5793 14.7203 13.7492C13.4003 14.336 12.0839 14.9279 10.7622 15.5096C10.663 15.5542 10.5117 15.5628 10.4144 15.5216C7.33273 14.1798 4.25631 12.8312 1.05469 11.4276C2.32595 10.8665 3.48765 10.3604 4.64413 9.84219C5.50671 9.45441 6.36233 9.05119 7.21795 8.65311C7.21447 8.65311 7.1936 8.64625 7.1936 8.64625L7.19186 8.64453Z" fill="url(#paint8_linear_1_1772)"/>
<path d="M42.7667 8.65652C44.5771 9.46982 46.3874 10.2814 48.1978 11.0964C48.4082 11.1908 48.6152 11.292 48.9178 11.4327C46.2622 12.6012 43.6832 13.6616 41.1789 14.8696C40.0068 15.4341 39.0312 15.5679 37.8521 14.8885C36.7199 14.2364 35.4487 13.8161 34.24 13.2927C34.207 13.279 34.1878 13.2327 34.1113 13.1366C37.4051 12.3645 40.5441 11.3401 42.7841 8.65137C42.7875 8.65137 42.7649 8.65823 42.7649 8.65823L42.7667 8.65652Z" fill="black"/>
<path d="M42.7667 8.65652C44.5771 9.46982 46.3874 10.2814 48.1978 11.0964C48.4082 11.1908 48.6152 11.292 48.9178 11.4327C46.2622 12.6012 43.6832 13.6616 41.1789 14.8696C40.0068 15.4341 39.0312 15.5679 37.8521 14.8885C36.7199 14.2364 35.4487 13.8161 34.24 13.2927C34.207 13.279 34.1878 13.2327 34.1113 13.1366C37.4051 12.3645 40.5441 11.3401 42.7841 8.65137C42.7875 8.65137 42.7649 8.65823 42.7649 8.65823L42.7667 8.65652Z" fill="url(#paint9_linear_1_1772)"/>
</g>
<defs>
<linearGradient id="paint0_linear_1_1772" x1="37.4996" y1="18.7387" x2="25.5581" y2="18.9119" gradientUnits="userSpaceOnUse">
<stop stop-color="#4CA3F2"/>
<stop offset="1" stop-color="#80C2FF"/>
</linearGradient>
<linearGradient id="paint1_linear_1_1772" x1="23.964" y1="18.7421" x2="12.0189" y2="18.9154" gradientUnits="userSpaceOnUse">
<stop stop-color="#4CA3F2"/>
<stop offset="1" stop-color="#80C2FF"/>
</linearGradient>
<linearGradient id="paint2_linear_1_1772" x1="50.0004" y1="13.2497" x2="39.1389" y2="13.395" gradientUnits="userSpaceOnUse">
<stop stop-color="#4CA3F2"/>
<stop offset="1" stop-color="#80C2FF"/>
</linearGradient>
<linearGradient id="paint3_linear_1_1772" x1="10.424" y1="13.2685" x2="-0.42302" y2="13.4135" gradientUnits="userSpaceOnUse">
<stop stop-color="#4CA3F2"/>
<stop offset="1" stop-color="#80C2FF"/>
</linearGradient>
<linearGradient id="paint4_linear_1_1772" x1="36.827" y1="13.7725" x2="12.512" y2="16.6949" gradientUnits="userSpaceOnUse">
<stop stop-color="#4CA3F2"/>
<stop offset="1" stop-color="#80C2FF"/>
</linearGradient>
<linearGradient id="paint5_linear_1_1772" x1="23.6018" y1="0.000474103" x2="5.60298" y2="1.06021" gradientUnits="userSpaceOnUse">
<stop stop-color="#4CA3F2"/>
<stop offset="1" stop-color="#80C2FF"/>
</linearGradient>
<linearGradient id="paint6_linear_1_1772" x1="43.7494" y1="0.0287945" x2="25.768" y2="1.09038" gradientUnits="userSpaceOnUse">
<stop stop-color="#4CA3F2"/>
<stop offset="1" stop-color="#80C2FF"/>
</linearGradient>
<linearGradient id="paint7_linear_1_1772" x1="30.3169" y1="1.04564" x2="19.2978" y2="1.57427" gradientUnits="userSpaceOnUse">
<stop stop-color="#4CA3F2"/>
<stop offset="1" stop-color="#80C2FF"/>
</linearGradient>
<linearGradient id="paint8_linear_1_1772" x1="16.0263" y1="8.64452" x2="0.565182" y2="10.0114" gradientUnits="userSpaceOnUse">
<stop stop-color="#4CA3F2"/>
<stop offset="1" stop-color="#80C2FF"/>
</linearGradient>
<linearGradient id="paint9_linear_1_1772" x1="48.9178" y1="8.65136" x2="33.6319" y2="10.0293" gradientUnits="userSpaceOnUse">
<stop stop-color="#4CA3F2"/>
<stop offset="1" stop-color="#80C2FF"/>
</linearGradient>
<clipPath id="clip0_1_1772">
<rect width="50" height="51" fill="white"/>
</clipPath>
</defs>
</svg>
