<svg fill="none" height="41" viewBox="0 0 40 41" width="40" xmlns="http://www.w3.org/2000/svg"><g fill="#57a6ee"><path d="m15.3327 24.5c-3.682 0-6.66668 2.9847-6.66668 6.6667 0 3.6819 2.98468 6.6666 6.66668 6.6666 3.6819 0 6.6666-2.9847 6.6666-6.6666-.0039-3.6804-2.9863-6.6628-6.6666-6.6667zm0 12c-2.9457 0-5.33335-2.3877-5.33335-5.3333 0-2.9457 2.38765-5.3334 5.33335-5.3334 2.9456 0 5.3333 2.3877 5.3333 5.3334-.0032 2.944-2.3893 5.33-5.3333 5.3333z"/><path d="m15.3327 29.1665c.8141 0 1.3333.3945 1.3333.6667h1.3333c0-.9473-.8391-1.7145-2-1.9333v-.7334h-1.3333v.7334c-1.1608.2171-2 .9847-2 1.9333 0 1.122 1.1712 2 2.6667 2 .8141 0 1.3333.3945 1.3333.6666 0 .2722-.5192.6667-1.3333.6667s-1.3334-.3945-1.3334-.6667h-1.3333c0 .9473.8392 1.7146 2 1.9333v.7334h1.3333v-.7334c1.1609-.2171 2-.9847 2-1.9333 0-1.122-1.1712-2-2.6666-2-.8141 0-1.3334-.3945-1.3334-.6666 0-.2722.5193-.6667 1.3334-.6667z"/><path d="m34 39.1667h-28v-16h10.6667c1.1045 0 2-.8955 2-2v-16.6667h7.3333v8h8v9.3333h1.3333v-10.276l-8.3906-8.39063h-8.276v-.66667c0-1.10449-.8955-2-2-2h-14.6667c-1.104492 0-2 .89551-2 2v18.6667c0 1.1045.895508 2 2 2h2.66667v17.3333h30.66663v-9.3333h-1.3333zm-6.6667-33.72399 5.724 5.72399h-5.724zm-25.99997 15.72399v-18.6667c0-.36816.29851-.66667.66667-.66667h14.6667c.3681 0 .6666.29851.6666.66667v18.6667c0 .3681-.2985.6666-.6666.6666h-14.6667c-.36816 0-.66667-.2985-.66667-.6666z"/><path d="m21.334 17.1665h1.3333v1.3333h-1.3333z"/><path d="m24 17.1665h8v1.3333h-8z"/><path d="m21.334 14.5h1.3333v1.3333h-1.3333z"/><path d="m24 14.5h8v1.3333h-8z"/><path d="m21.334 19.8335h1.3333v1.3333h-1.3333z"/><path d="m24 19.8335h8v1.3333h-8z"/><path d="m21.334 22.5h1.3333v1.3333h-1.3333z"/><path d="m24 22.5h8v1.3333h-8z"/><path d="m16.6667 2.5h-14.6667v4.66667h14.6667zm-1.3334 3.33333h-11.99997v-2h11.99997z"/><path d="m5.33268 7.8335h-1.33333c-.73633 0-1.33333.597-1.33333 1.33333v1.33337c0 .7363.597 1.3333 1.33333 1.3333h1.33333c.73633 0 1.33334-.597 1.33334-1.3333v-1.33337c0-.73633-.59701-1.33333-1.33334-1.33333zm-1.33333 2.6667v-1.33337h1.33333v1.33337z"/><path d="m10.0007 7.8335h-1.33338c-.73633 0-1.33334.597-1.33334 1.33333v1.33337c0 .7363.59701 1.3333 1.33334 1.3333h1.33338c.7363 0 1.3333-.597 1.3333-1.3333v-1.33337c0-.73633-.597-1.33333-1.3333-1.33333zm-1.33338 2.6667v-1.33337h1.33338v1.33337z"/><path d="m14.6667 7.8335h-1.3334c-.7363 0-1.3333.597-1.3333 1.33333v1.33337c0 .7363.597 1.3333 1.3333 1.3333h1.3334c.7363 0 1.3333-.597 1.3333-1.3333v-1.33337c0-.73633-.597-1.33333-1.3333-1.33333zm-1.3334 2.6667v-1.33337h1.3334v1.33337z"/><path d="m5.33268 12.5h-1.33333c-.73633 0-1.33333.597-1.33333 1.3333v1.3334c0 .7363.597 1.3333 1.33333 1.3333h1.33333c.73633 0 1.33334-.597 1.33334-1.3333v-1.3334c0-.7363-.59701-1.3333-1.33334-1.3333zm-1.33333 2.6667v-1.3334h1.33333v1.3334z"/><path d="m10.0007 12.5h-1.33338c-.73633 0-1.33334.597-1.33334 1.3333v1.3334c0 .7363.59701 1.3333 1.33334 1.3333h1.33338c.7363 0 1.3333-.597 1.3333-1.3333v-1.3334c0-.7363-.597-1.3333-1.3333-1.3333zm-1.33338 2.6667v-1.3334h1.33338v1.3334z"/><path d="m14.6667 12.5h-1.3334c-.7363 0-1.3333.597-1.3333 1.3333v1.3334c0 .7363.597 1.3333 1.3333 1.3333h1.3334c.7363 0 1.3333-.597 1.3333-1.3333v-1.3334c0-.7363-.597-1.3333-1.3333-1.3333zm-1.3334 2.6667v-1.3334h1.3334v1.3334z"/><path d="m5.33268 17.1665h-1.33333c-.73633 0-1.33333.597-1.33333 1.3333v1.3334c0 .7363.597 1.3333 1.33333 1.3333h1.33333c.73633 0 1.33334-.597 1.33334-1.3333v-1.3334c0-.7363-.59701-1.3333-1.33334-1.3333zm-1.33333 2.6667v-1.3334h1.33333v1.3334z"/><path d="m10.0007 17.1665h-1.33338c-.73633 0-1.33334.597-1.33334 1.3333v1.3334c0 .7363.59701 1.3333 1.33334 1.3333h1.33338c.7363 0 1.3333-.597 1.3333-1.3333v-1.3334c0-.7363-.597-1.3333-1.3333-1.3333zm-1.33338 2.6667v-1.3334h1.33338v1.3334z"/><path d="m14.6667 17.1665h-1.3334c-.7363 0-1.3333.597-1.3333 1.3333v1.3334c0 .7363.597 1.3333 1.3333 1.3333h1.3334c.7363 0 1.3333-.597 1.3333-1.3333v-1.3334c0-.7363-.597-1.3333-1.3333-1.3333zm-1.3334 2.6667v-1.3334h1.3334v1.3334z"/><path d="m39.394 21.7722c-.7913-.7555-2.0364-.7555-2.8278 0l-11.4287 11.4284c-.0553.056-.1006.1211-.1334.1927l-1.6094 3.4948c-.1162.2533-.0625.5524.1348.7494.1969.1972.4961.2509.7493.1347l3.4948-1.6094c.0716-.0328.1367-.0778.1927-.1334l11.4277-11.4287c.7813-.781.7813-2.0476 0-2.8285zm-12.2871 13.2292-1.7467.8047.8047-1.7468 8.5211-8.5218.9427.9427zm9.4665-9.4668-.9427-.9424.4668-.4668.9427.9427zm1.8802-1.8799-.4713.4714-.9428-.9428.4721-.4713c.2633-.252.6783-.252.942 0 .2601.2604.2601.6823 0 .9427z"/></g></svg>