<svg fill="none" height="41" viewBox="0 0 40 41" width="40" xmlns="http://www.w3.org/2000/svg" xmlns:xlink="http://www.w3.org/1999/xlink"><clipPath id="a"><path d="m0 .5h40v40h-40z"/></clipPath><g clip-path="url(#a)" fill="#57a6ee"><path d="m33.9993 13.1667v-3.33337c0-1.10457-.8954-2-2-2h-.6666v-6c0-.73638-.597-1.33333-1.3334-1.33333h-19.99995c-.73638 0-1.33333.59695-1.33333 1.33333v6h-.66667c-1.10457 0-2 .89543-2 2v3.33337c-1.84004.0022-3.33113 1.4933-3.33333 3.3333v14.6667c0 1.1045.89543 2 2 2h2.722l-1.036 4.9213c-.12417.5898.0243 1.2042.40411 1.6722.37981.4681.95046.7399 1.55322.7398h23.37995c.6028.0001 1.1735-.2717 1.5533-.7398.3798-.468.5282-1.0824.4041-1.6722l-1.036-4.9213h2.722c1.1045 0 2-.8955 2-2v-14.6667c-.0022-1.84-1.4933-3.3311-3.3334-3.3333zm-2-4.00004c.3682 0 .6667.29848.6667.66667v3.33337h-1.3333v-4.00004zm-21.99995-7.33333h19.99995v11.33337h-19.99995zm-2.66667 8c0-.36819.29848-.66667.66667-.66667h.66667v4.00004h-1.33334zm24.87462 29.08667c-.1266.1561-.3169.2467-.518.2466h-23.37995c-.20096.0001-.39124-.0904-.51789-.2464-.12666-.1561-.17618-.3609-.13478-.5575l2.21734-10.5294h20.25068l2.2173 10.5294c.0414.1965-.0081.4013-.1347.5573zm.1254-7.0867-.8487-4.03c.2992-.0662.5129-.3303.5153-.6366 0-.3682-.2984-.6667-.6666-.6667h-22.66668c-.36819 0-.66667.2985-.66667.6667.00268.3071.21777.5715.518.6366l-.85133 4.03h-1v-7.3333c0-.3682.29847-.6667.66666-.6667h25.33332c.3682 0 .6667.2985.6667.6667v7.3333zm3.6666-.6666c0 .3681-.2984.6666-.6666.6666h-.6667v-7.3333c0-1.1046-.8954-2-2-2h-25.33332c-1.10457 0-2 .8954-2 2v7.3333h-.66666c-.36819 0-.66667-.2985-.66667-.6666v-14.6667c0-1.1046.89543-2 2-2h27.99995c1.1046 0 2 .8954 2 2z"/><path d="m7.33203 17.1666h-1.33333c-.36819 0-.66667.2985-.66667.6667s.29848.6667.66667.6667h1.33333c.36819 0 .66667-.2985.66667-.6667s-.29848-.6667-.66667-.6667z"/><path d="m11.332 17.1666h-1.3333c-.36819 0-.66667.2985-.66667.6667s.29848.6667.66667.6667h1.3333c.3682 0 .6667-.2985.6667-.6667s-.2985-.6667-.6667-.6667z"/><path d="m34 17.1666h-19.3333c-.3682 0-.6667.2985-.6667.6667s.2985.6667.6667.6667h19.3333c.3682 0 .6667-.2985.6667-.6667s-.2985-.6667-.6667-.6667z"/><path d="m14.6658 29.8334c-1.8065-.0015-3.3897 1.2079-3.8634 2.9512-.4736 1.7432.2799 3.5876 1.8387 4.5005 1.5589.9128 3.5361.6676 4.8247-.5984.01-.0093.0226-.012.0326-.022s.0127-.0227.022-.0327c1.1263-1.15 1.4534-2.8631.8302-4.3472-.6231-1.4841-2.0752-2.4501-3.6848-2.4514zm2.6666 4c-.0023.4745-.1329.9396-.378 1.346l-1.622-1.622v-2.296c1.1738.303 1.9955 1.3597 2 2.572zm-5.3333 0c.0045-1.2123.8262-2.269 2-2.572v2.572c0 .1768.0703.3463.1953.4713l1.8174 1.8173c-.4064.2451-.8715.3757-1.346.378-1.4728 0-2.6667-1.1939-2.6667-2.6666z"/><path d="m22 35.8334h-1.3333c-.3682 0-.6667.2985-.6667.6666 0 .3682.2985.6667.6667.6667h1.3333c.3682 0 .6667-.2985.6667-.6667 0-.3681-.2985-.6666-.6667-.6666z"/><path d="m29.3333 35.8334h-4.6666c-.3682 0-.6667.2985-.6667.6666 0 .3682.2985.6667.6667.6667h4.6666c.3682 0 .6667-.2985.6667-.6667 0-.3681-.2985-.6666-.6667-.6666z"/><path d="m20.6667 34.5h6c.3682 0 .6666-.2985.6666-.6667s-.2984-.6667-.6666-.6667h-6c-.3682 0-.6667.2985-.6667.6667s.2985.6667.6667.6667z"/><path d="m20.6667 31.8333h2c.3682 0 .6666-.2984.6666-.6666s-.2984-.6667-.6666-.6667h-2c-.3682 0-.6667.2985-.6667.6667s.2985.6666.6667.6666z"/><path d="m25.3327 31.8333h2.6666c.3682 0 .6667-.2984.6667-.6666s-.2985-.6667-.6667-.6667h-2.6666c-.3682 0-.6667.2985-.6667.6667s.2985.6666.6667.6666z"/></g></svg>