<svg fill="none" height="41" viewBox="0 0 42 41" width="42" xmlns="http://www.w3.org/2000/svg"><g fill="#57a6ee"><path d="m19.5312 14.5625c.4313 0 .7813-.35.7813-.7813 0-.4312-.35-.7812-.7813-.7812-.4312 0-.7812.35-.7812.7812 0 .4313.35.7813.7812.7813z"/><path d="m19.5312 17.6875c.4313 0 .7813-.35.7813-.7813 0-.4312-.35-.7812-.7813-.7812-.4312 0-.7812.35-.7812.7812 0 .4313.35.7813.7812.7813z"/><path d="m39.7711 8.54138-7.8125-7.812498c-.1382-.13855-.339-.228882-.5524-.228882h-19.6874c-1.2925 0-2.3438 1.05133-2.3438 2.34375v2.37976c-.2594-.0235-.52032-.03601-.78125-.03601-4.73846 0-8.59375 3.85529-8.59375 8.5937 0 4.7385 3.85529 8.5938 8.59375 8.5938.26093 0 .52185-.0125.78125-.036v15.8172c0 1.2925 1.0513 2.3438 2.3438 2.3438h25.9374c1.2925 0 2.3438-1.0513 2.3438-2.3438v-29.06245c0-.21332-.0888-.41229-.2289-.55237zm-7.5836-5.37414 5.1453 5.14526h-5.1453zm-22.8125 3.6264c3.299.36407 5.8441 2.99438 6.2048 6.20636h-6.2048zm-7.8125 6.98756c0-3.6129 2.73926-6.59755 6.25-6.98756v6.98756c0 .4316.34973.7804.78125.7804h6.98605c-.3924 3.4949-3.3493 6.2509-6.98605 6.2509-3.87695 0-7.03125-3.1543-7.03125-7.0313zm36.0937 25.1563h-25.9374c-.431 0-.7813-.3503-.7813-.7813v-16.1065c3.6572-1.0352 6.25-4.4135 6.25-8.2685 0-3.85493-2.5928-7.23323-6.25-8.26838v-2.66907c0-.43091.3503-.78125.7813-.78125h18.9062v7.03125c0 .43152.3497.78125.7812.78125h7.0313v28.2812c0 .431-.3503.7813-.7813.7813z"/><path d="m20 6.75h8.2812c.4316 0 .7813-.34973.7813-.78125s-.3497-.78125-.7813-.78125h-8.2812c-.4315 0-.7812.34973-.7812.78125s.3497.78125.7812.78125z"/><path d="m20 9.875h8.2812c.4316 0 .7813-.34973.7813-.78125s-.3497-.78125-.7813-.78125h-8.2812c-.4315 0-.7812.34973-.7812.78125s.3497.78125.7812.78125z"/><path d="m8.59375 17.6875c-2.15393 0-3.90625-1.7523-3.90625-3.9063 0-.4315-.34973-.7812-.78125-.7812s-.78125.3497-.78125.7812c0 3.0155 2.45331 5.4688 5.46875 5.4688.43152 0 .78125-.3497.78125-.7812 0-.4316-.34973-.7813-.78125-.7813z"/><path d="m34.2969 21.2812c-1.2924 0-2.3438 1.0514-2.3438 2.3438 0 .4843.1477.9351.4004 1.3089l-5.4251 5.8228c-.2148-.065-.4425-.1005-.6784-.1005-.3296 0-.6485.0684-.9415.1969l-2.4435-3.0292c.1697-.3281.26-.694.26-1.0739 0-1.2924-1.0513-2.3438-2.3438-2.3438-1.2924 0-2.3437 1.0514-2.3437 2.3438 0 .365.0836.7169.2405 1.0349l-2.8488 3.0877c-.3049-.1416-.6394-.2164-.9854-.2164-1.2925 0-2.3438 1.0514-2.3438 2.3438s1.0513 2.3438 2.3438 2.3438c1.2924 0 2.3437-1.0514 2.3437-2.3438 0-.365-.0833-.7169-.2405-1.0349l2.8488-3.0877c.3049.1416.6394.2164.9854.2164.3296 0 .6485-.0684.9415-.1969l2.4436 3.0292c-.1697.3281-.2601.694-.2601 1.0739 0 1.2924 1.0514 2.3438 2.3438 2.3438s2.3438-1.0514 2.3438-2.3438c0-.4843-.1478-.9351-.4004-1.3089l5.4251-5.8228c.2148.065.4425.1005.6784.1005 1.2924 0 2.3437-1.0514 2.3437-2.3438s-1.0513-2.3438-2.3437-2.3438zm-19.4531 12.5c-.431 0-.7813-.3503-.7813-.7812s.3503-.7812.7813-.7812c.4312 0 .7812.3497.7812.7812 0 .4309-.3503.7812-.7812.7812zm5.1562-7.0312c0-.4309.3503-.7812.7812-.7812.431 0 .7813.3503.7813.7812 0 .4312-.3497.7812-.7813.7812-.4315 0-.7812-.35-.7812-.7812zm6.25 7.0312c-.4309 0-.7812-.3503-.7812-.7812 0-.4312.3497-.7812.7812-.7812.4309 0 .7812.3503.7812.7812s-.3503.7812-.7812.7812zm8.0469-9.375c-.4309 0-.7813-.3503-.7813-.7812s.3504-.7812.7813-.7812.7812.3503.7812.7812-.3503.7812-.7812.7812z"/><path d="m21.875 13.7812c0 .4316.3497.7813.7812.7813h11.875c.4316 0 .7813-.3497.7813-.7813 0-.4315-.3497-.7812-.7813-.7812h-11.875c-.4315 0-.7812.3497-.7812.7812z"/><path d="m34.5312 16.125h-11.875c-.4315 0-.7812.3497-.7812.7812 0 .4316.3497.7813.7812.7813h11.875c.4316 0 .7813-.3497.7813-.7813 0-.4315-.3497-.7812-.7813-.7812z"/></g></svg>