<svg fill="none" height="41" viewBox="0 0 40 41" width="40" xmlns="http://www.w3.org/2000/svg"><g fill="#57a6ee"><path d="m36.875 36.75h-.625v-21.875c0-.1658-.0658-.3247-.1831-.4419-.1172-.1173-.2761-.1831-.4419-.1831h-5c-.1658 0-.3247.0658-.4419.1831-.1173.1172-.1831.2761-.1831.4419v21.875h-2.5v-13.125c0-.1658-.0658-.3247-.1831-.4419-.1172-.1173-.2761-.1831-.4419-.1831h-5c-.1658 0-.3247.0658-.4419.1831-.1173.1172-.1831.2761-.1831.4419v13.125h-2.5v-9.375c0-.1658-.0658-.3247-.1831-.4419-.1172-.1173-.2761-.1831-.4419-.1831h-5c-.1658 0-.3247.0658-.4419.1831-.1173.1172-.1831.2761-.1831.4419v9.375h-2.5v-14.375c0-.1658-.06585-.3247-.18306-.4419-.11721-.1173-.27618-.1831-.44194-.1831h-5c-.16576 0-.32473.0658-.44194.1831-.11721.1172-.18306.2761-.18306.4419v14.375h-.625c-.16576 0-.32473.0658-.44194.1831-.11721.1172-.18306.2761-.18306.4419s.06585.3247.18306.4419c.11721.1173.27618.1831.44194.1831h33.75c.1658 0 .3247-.0658.4419-.1831.1173-.1172.1831-.2761.1831-.4419s-.0658-.3247-.1831-.4419c-.1172-.1173-.2761-.1831-.4419-.1831zm-31.875 0v-13.75h3.75v13.75zm8.75 0v-8.75h3.75v8.75zm8.75 0v-12.5h3.75v12.5zm8.75 0v-21.25h3.75v21.25z"/><path d="m6.875 15.5c.25895-.0023.51465-.0579.7512-.1633s.44888-.2583.6238-.4492l5.5 2.375v.1125c-.0149.4973.1683.9801.5094 1.3423s.8121.574 1.3093.5889c.4973.0149.9802-.1683 1.3423-.5094.3622-.3411.5741-.812.589-1.3093l5.3625-1.525c.2326.3175.5592.5538.9335.6753.3744.1216.7775.1223 1.1522.0019.3748-.1203.7022-.3554.9358-.6722.2337-.3167.3617-.699.366-1.0925-.0026-.3264-.0933-.6459-.2625-.925l6.3375-7.38753c.3676.17342.7816.22269 1.1797.14038.398-.0823.7585-.29173 1.0272-.59672s.431-.68904.4624-1.09428c.0315-.40524-.0696-.80974-.2879-1.15255-.2184-.34281-.5423-.60538-.9229-.74814-.3805-.14276-.7972-.15799-1.1872-.0434-.3899.1146-.7321.35282-.9749.67877-.2429.32595-.3732.72199-.3714 1.12844.0043.28105.0682.55798.1875.8125l-6.4375 7.43753c-.2163-.0798-.4445-.1221-.675-.125-.4697.0117-.9179.1993-1.2559.5257s-.5411.7678-.5691 1.2368l-5.3625 1.525c-.1611-.2276-.3713-.4162-.615-.5517s-.5147-.2146-.793-.2314c-.2784-.0168-.5569.0291-.8152.1344-.2582.1052-.4895.2671-.6768.4737l-5.4875-2.375s0-.075 0-.1125c0-.3709-.10997-.7334-.31599-1.0417-.20603-.3084-.49887-.5487-.84148-.6906s-.71961-.179-1.08332-.1067c-.36372.0723-.69781.2509-.96003.5131-.26223.2623-.4408.5964-.51315.9601s-.03522.7407.1067 1.0833c.14191.3426.38223.6355.69058.8415.30834.206.67085.316 1.04169.316zm26.25-11.25003c.1236 0 .2444.03666.3472.10534.1028.06867.1829.16628.2302.28049.0473.1142.0597.23987.0356.36111-.0241.12123-.0837.2326-.1711.32001-.0874.0874-.1987.14693-.32.17105-.1212.02411-.2469.01173-.3611-.03557-.1142-.04731-.2118-.12741-.2805-.23019-.0687-.10279-.1053-.22362-.1053-.34724 0-.16576.0658-.32473.183-.44194.1173-.11721.2762-.18306.442-.18306zm-8.75 10.00003c.1236 0 .2444.0366.3472.1053s.1829.1663.2302.2805.0597.2399.0356.3611-.0837.2326-.1711.32-.1987.1469-.32.1711c-.1212.0241-.2469.0117-.3611-.0356s-.2118-.1274-.2805-.2302-.1053-.2236-.1053-.3472c0-.1658.0658-.3248.1831-.442.1172-.1172.2761-.183.4419-.183zm-8.75 2.5c.1236 0 .2444.0366.3472.1053s.1829.1663.2302.2805.0597.2399.0356.3611-.0837.2326-.1711.32-.1987.1469-.32.1711c-.1212.0241-.2469.0117-.3611-.0356s-.2118-.1274-.2805-.2302c-.0686-.1028-.1053-.2236-.1053-.3472 0-.1658.0658-.3248.1831-.442.1172-.1172.2761-.183.4419-.183zm-8.75-3.75c.12361 0 .24445.0366.34723.1053s.18289.1663.23019.2805c.04731.1142.05969.2399.03557.3611-.02411.1212-.08364.2326-.17105.32s-.19877.1469-.32001.1711c-.12124.0241-.2469.0117-.36111-.0356-.1142-.0473-.21181-.1274-.28049-.2302-.06867-.1028-.10533-.2236-.10533-.3472 0-.1658.06585-.3248.18306-.442s.27618-.183.44194-.183z"/></g></svg>