<svg fill="none" height="363" viewBox="0 0 137 363" width="137" xmlns="http://www.w3.org/2000/svg"><path d="m124.148 362.959-116.49761-.37 43.29581-132.65h35.2252z" fill="#fff"/><path d="m20.5846 137.737c-39.8346 51.556-9.5888 95.856-9.5888 95.856l33.9448-22.762s-22.7057-20.486-24.356-73.094z" fill="#ffc162"/><path d="m20.9266 143.058c0-1.736-.1992-3.5-.2561-5.321-39.8346 51.556-9.5888 95.856-9.5888 95.856l2.5039-1.679c-5.26381-9.104-22.62032-46.007 7.341-88.856z" fill="#ffcf96"/><path d="m22.8324 160.698c-4.2841 10.205-6.4097 21.186-6.2432 32.252.1664 11.067 2.6215 21.979 7.2106 32.05l21.1408-14.226s-15.9623-14.454-22.1082-50.076z" fill="#f9a321"/><path d="m48.242 211.742-3.3006 19.29s10.983 8.536 23.1894 8.536c12.2065 0 23.161-8.536 23.161-8.536l-3.2721-19.29c-13.1038 3.043-26.7308 3.043-39.8346 0z" fill="#3c5c7f"/><path d="m115.676 137.737c-1.651 52.609-24.385 73.066-24.385 73.066l33.973 22.762s30.332-44.272-9.588-95.828z" fill="#ffc162"/><path d="m115.676 137.737c0 1.508 0 2.846-.199 4.439 30.871 43.845 12.121 81.601 7.341 89.795l2.447 1.622s30.331-44.3-9.589-95.856z" fill="#ffcf96"/><path d="m91.291 210.803 18.58 12.462c8.503-18.642 9.522-39.838 2.845-59.209-6.43 33.26-21.425 46.747-21.425 46.747z" fill="#f9a321"/><g fill="#fff"><path d="m86.9941 23.0752c.4837.6544.9105 1.2803 1.3658 1.9348-.4553-.6545-.8821-1.2804-1.3658-1.9348z"/><path d="m57.2031 12.6613c.4268-.4837.8252-.9958 1.252-1.508-.5406.5122-.8252 1.0243-1.252 1.508z"/><path d="m60.3047 8.93404 1.2235-1.45107z"/><path d="m50.5469 21.2824 1.7356-2.3047z"/><path d="m54.3008 16.303 1.195-1.4795z"/><path d="m47.9004 25.01 1.3373-1.9348z"/><path d="m74.7305 7.483 1.2234 1.45107z"/><path d="m77.832 11.1533c.4268.5122.8252 1.0243 1.252 1.508-.4553-.4837-.8536-.9958-1.252-1.508z"/><path d="m80.6777 14.8237 1.1667 1.4795z"/><path d="m63.6055 5.00764 1.0812-1.2519z"/><path d="m71.5156 3.75562 1.0528 1.25189z"/><path d="m101.705 47.9136c.427.882.825 1.7925 1.224 2.6745-.399-.882-.797-1.7925-1.224-2.6745z"/><path d="m83.9785 18.978 1.7357 2.3047z"/><path d="m93.5664 32.9193c1.6882 2.6935 3.2531 5.3965 4.6948 8.1089-1.4606-2.6935-3.0255-5.3964-4.6948-8.1089z"/><path d="m36.4336 44.0158c.4268-.8536.8821-1.7072 1.3373-2.5607-.4552.8535-.9105 1.7071-1.3373 2.5607z"/><path d="m91.6035 29.7896 1.3658 2.1339z"/><path d="m98.4902 41.4546c.4553.8536.8821 1.7071 1.3089 2.5607-.4268-.8536-.8536-1.7071-1.3089-2.5607z"/><path d="m33.332 50.5881c.3984-.8821.7967-1.7925 1.2235-2.6746-.4268.8821-.8251 1.7925-1.2235 2.6746z"/><path d="m34.8398 47.2592 1.2235-2.5038z"/><path d="m100.168 44.7559c.427.8251.854 1.6786 1.252 2.5038-.398-.8252-.825-1.7356-1.252-2.5038z"/><path d="m45.5098 28.4522 1.3657-2.0201z"/><path d="m43.291 31.9234 1.3658-2.1339z"/><path d="m89.3848 26.4607 1.3657 2.0201z"/><path d="m37.998 41.0281c1.4417-2.6935 3.0066-5.3964 4.6948-8.1089-1.6692 2.7125-3.2342 5.4154-4.6948 8.1089z"/><path d="m115.676 137.737c0-2.02 0-4.04 0-6.146 0-33.2887-2.618-57.6723-12.861-81.0031-11.138 4.1087-22.9268 6.1714-34.7983 6.0888-11.8715.0826-23.6603-1.9801-34.7984-6.0888-10.2432 23.3308-12.8609 47.7144-12.8609 81.0031v6.146c1.6503 52.608 24.356 73.066 24.356 73.066s1.1951.398 3.3006.938c13.1038 3.044 26.7308 3.044 39.8346 0 2.1056-.54 3.2721-.938 3.2721-.938s22.9053-20.458 24.5553-73.066zm-47.5455-6.146c-5.9596 0-11.7853-1.767-16.7405-5.078-4.9552-3.31-8.8172-8.016-11.0979-13.522-2.2806-5.506-2.8773-11.564-1.7146-17.4087 1.1626-5.8449 4.0324-11.2137 8.2464-15.4276 4.2141-4.2139 9.5831-7.0836 15.4281-8.2462s11.9036-.5659 17.4095 1.7147c5.5059 2.2805 10.2119 6.1425 13.5229 11.0975 3.3109 4.955 5.0781 10.7805 5.0781 16.7403-.0075 7.988-3.1846 15.648-8.8338 21.297s-13.309 8.826-21.2982 8.833z"/></g><path d="m68.1304 74.2605c-5.9677-.0056-11.8028 1.7591-16.767 5.0709-4.9643 3.3118-8.8344 8.0218-11.1207 13.5338-2.2863 5.5121-2.886 11.5788-1.7231 17.4318 1.1628 5.853 4.0359 11.229 8.2556 15.449 4.2198 4.219 9.5965 7.092 15.4497 8.255s11.9198.563 17.4321-1.723 10.2224-6.156 13.5343-11.12 5.0767-10.799 5.0711-16.767c-.0075-7.9885-3.1846-15.648-8.8338-21.2971-5.6492-5.649-13.309-8.8259-21.2982-8.8334zm0 50.8445c-4.0969 0-8.1017-1.215-11.5081-3.491s-6.0614-5.511-7.6292-9.296-1.978-7.95-1.1787-11.968c.7992-4.0175 2.772-7.7083 5.6689-10.6051s6.5878-4.8695 10.6059-5.6687c4.0182-.7993 8.1831-.3891 11.9681 1.1787 3.7849 1.5677 7.02 4.2226 9.2961 7.6289 2.2761 3.4062 3.4909 7.4112 3.4909 11.5072.0113 2.728-.5162 5.43-1.5521 7.953-1.036 2.523-2.56 4.817-4.4846 6.749-1.9246 1.933-4.2118 3.466-6.7305 4.512-2.5188 1.046-5.2194 1.585-7.9467 1.585z" fill="#ccdceb"/><path d="m68.1301 71.33c-5.9596 0-11.7853 1.7672-16.7405 5.078s-8.8173 8.0166-11.0979 13.5223-2.8773 11.5637-1.7147 17.4087c1.1627 5.845 4.0325 11.214 8.2465 15.428 4.2141 4.214 9.583 7.083 15.4281 8.246 5.845 1.163 11.9036.566 17.4095-1.715 5.5059-2.28 10.2119-6.142 13.5228-11.097 3.311-4.955 5.0782-10.781 5.0782-16.74-.0076-7.989-3.1846-15.6485-8.8338-21.2975s-13.309-8.8259-21.2982-8.8335zm0 50.844c-4.0969 0-8.1017-1.215-11.5081-3.491s-6.0614-5.511-7.6292-9.295c-1.5678-3.785-1.9779-7.95-1.1787-11.968.7993-4.018 2.7721-7.7087 5.669-10.6055s6.5877-4.8696 10.6059-5.6688c4.0181-.7992 8.183-.389 11.968 1.1787 3.7849 1.5677 7.02 4.2226 9.2961 7.6289s3.4909 7.411 3.4909 11.5077c0 5.493-2.1823 10.762-6.0669 14.646-3.8847 3.885-9.1533 6.067-14.647 6.067z" fill="#49a6d5"/><path d="m68.1304 73.6345c7.7932.0018 15.2827 3.0228 20.8958 8.4289 5.6132 5.406 8.9134 12.7765 9.2078 20.5636 0-.398 0-.768 0-1.166-.2408-7.8349-3.5224-15.2681-9.1496-20.7249-5.6273-5.4568-13.158-8.5085-20.9967-8.5085s-15.3694 3.0517-20.9967 8.5085c-5.6272 5.4568-8.9089 12.89-9.1496 20.7249v1.166c.3019-7.7995 3.6162-15.1784 9.2462-20.5853 5.6299-5.4068 13.1369-8.4205 20.9428-8.4072z" fill="#85c2d9"/><path d="m68.1295 124.479c5.4937 0 10.7624-2.183 14.647-6.067s6.067-9.153 6.067-14.646c0-.37 0-.769 0-1.139-.2778 5.291-2.5753 10.274-6.4188 13.921s-8.9399 5.68-14.2383 5.68-10.3948-2.033-14.2383-5.68-6.141-8.63-6.4188-13.921v1.139c-.0001 5.473 2.1666 10.725 6.0267 14.606 3.86 3.881 9.0995 6.077 14.5735 6.107z" fill="#85c2d9"/><path d="m68.13 78.2438c-4.5921 0-9.081 1.3617-12.8992 3.9128-3.8181 2.5511-6.794 6.1771-8.5513 10.4195s-2.2171 8.9109-1.3213 13.4139c.8959 4.504 3.1072 8.641 6.3543 11.888s7.3841 5.458 11.8879 6.354 9.1722.436 13.4147-1.321c4.2425-1.758 7.8686-4.733 10.4199-8.551 2.5512-3.818 3.9129-8.307 3.9129-12.899 0-6.1577-2.4462-12.063-6.8004-16.4171-4.3542-4.354-10.2597-6.8001-16.4175-6.8001zm0 39.1792c-3.1571 0-6.2432-.937-8.8682-2.69-2.625-1.754-4.6709-4.247-5.8791-7.164-1.2081-2.916-1.5242-6.126-.9083-9.2221.6159-3.0963 2.1362-5.9404 4.3686-8.1727 2.2323-2.2322 5.0765-3.7525 8.1729-4.3683 3.0964-.6159 6.3059-.2998 9.2226.9083s5.4097 3.2539 7.1637 5.8788c1.7539 2.6249 2.6901 5.7109 2.6901 8.868 0 2.096-.4129 4.172-1.2151 6.108-.8021 1.937-1.9779 3.696-3.4601 5.179-1.4823 1.482-3.242 2.657-5.1786 3.46-1.9366.802-4.0123 1.215-6.1085 1.215z" fill="#e19542"/><path d="m102.929 50.5881c-.399-.882-.797-1.7925-1.224-2.6745 0-.1992-.199-.4268-.284-.6544-.399-.8251-.825-1.6787-1.252-2.5038-.106-.2548-.2299-.502-.3701-.7398-.4268-.8535-.8536-1.7071-1.3089-2.5607-.0868-.1361-.163-.2788-.2276-.4267-1.4606-2.6935-3.0255-5.3965-4.6948-8.1089l-.5975-.9959-1.3658-2.1339-.8536-1.3088-1.3657-2.0201-1.0243-1.4511c-.4553-.6544-.8821-1.2803-1.3658-1.9347l-1.2804-1.7925-1.7356-2.3046c-.6829-.9105-1.3373-1.7925-2.0487-2.6746l-1.2519-1.4795-1.7072-2.1623c-.4268-.4837-.8251-.9959-1.2519-1.508l-1.8495-2.21929-1.2235-1.45107-2.1625-2.47534-1.0527-1.2519-3.3006-3.7557-3.386 3.7557-1.0812 1.2519-2.134 2.47534-1.2235 1.45107-1.8494 2.21929c-.4268.5121-.8252 1.0243-1.252 1.508l-1.7072 2.1623-1.195 1.4795c-.6829.8821-1.3658 1.7641-2.0202 2.6746l-1.7356 2.3046-1.3089 1.7925-1.3373 1.9347-1.0243 1.4511-1.3658 2.0201-.8536 1.3088-1.3657 2.1339-.5976.9959c-1.6692 2.7124-3.2341 5.4154-4.6947 8.1089-.0869.1361-.163.2788-.2277.4267-.4552.8536-.9105 1.7072-1.3373 2.5607 0 .2277-.2276.4837-.3698.7398l-1.2235 2.5038c0 .2276-.1992.4552-.2846.6544-.4268.882-.8251 1.7925-1.2235 2.6745 11.1381 4.1087 22.9269 6.1714 34.7984 6.0888 11.8715.0826 23.6603-1.9801 34.7986-6.0888z" fill="#ffc162"/><path d="m68.13 122.174c11.4401 0 20.7141-9.274 20.7141-20.713 0-11.4398-9.274-20.7134-20.7141-20.7134-11.44 0-20.714 9.2736-20.714 20.7134 0 11.439 9.274 20.713 20.714 20.713z" fill="#304b64"/><path d="m68.1296 119.158c9.7743 0 17.698-7.923 17.698-17.697 0-9.7742-7.9237-17.6976-17.698-17.6976s-17.698 7.9234-17.698 17.6976c0 9.774 7.9237 17.697 17.698 17.697z" fill="#3c5c7f"/><path d="m72.8815 95.8272c.6262 1.1668 1.5487 2.1481 2.6746 2.8452.8942.2578 1.8538.155 2.6729-.2865.8192-.4415 1.4328-1.1865 1.709-2.0751.232-.9.2579-1.8408.0756-2.7522s-.568-1.7699-1.1284-2.5114c-1.2162-1.7484-2.9304-3.0904-4.9196-3.8515-1.9892-.7612-4.1614-.9062-6.2341-.4164-1.252.313-2.6177 1.1666-2.5324 2.4469.0854 1.2804 1.5934 1.9633 2.8454 2.5038 1.951.9066 3.6219 2.3219 4.837 4.0972z" fill="#3c6f9a"/><path d="m83.2097 102.798c.3627-.519.5226-1.154.4491-1.783-.0734-.629-.3749-1.2095-.8475-1.6314-2.5892-2.3899-6.4589 2.1344-3.955 4.3534.3311.271.7192.464 1.1352.565.4161.1.8495.105 1.2679.015.4185-.09.8111-.274 1.1488-.537s.6116-.598.8015-.982z" fill="#3c6f9a"/><path d="m98.4897 184.029c-7.1703 2.447-14.9949 1.622-22.5066.569-9.2758-1.28-18.7792-2.845-26.6608-7.995-6.9722-4.851-12.5774-11.416-16.2752-19.063-8.9344-17.071-11.3813-36.362-11.5805-55.852-.7113 9.219-.9959 19.092-.9959 29.904v6.145c1.6503 52.609 24.356 73.066 24.356 73.066s1.1951.398 3.3006.939c13.1038 3.043 26.7308 3.043 39.8346 0 2.1056-.541 3.2722-.939 3.2722-.939s10.7839-9.702 18.0389-32.948c-3.231 2.635-6.875 4.721-10.7833 6.174z" fill="#ccdceb"/><path d="m102.929 50.5881-.598-1.3088c-7.6703 1.4821-15.5303 1.7127-23.2746.6829-4.7408-.2066-9.4314-1.0585-13.9421-2.5323-2.2557-.7526-4.3321-1.9621-6.0994-3.5532-1.7673-1.591-3.1876-3.5292-4.1722-5.6937-1.2341-4.1896-1.3907-8.6228-.4553-12.8889.4627-4.1012 1.2718-8.1559 2.4186-12.1207l-1.3089 1.6503-1.195 1.4795c-.6829.882-1.3658 1.764-2.0202 2.6745l-1.7356 2.3046-1.3089 1.7925-1.3373 1.9348-1.0243 1.451-1.3658 2.0201-.8536 1.3088-1.3657 2.134-.5976.9958c-1.6692 2.7124-3.2341 5.4154-4.6947 8.1089-.0869.1361-.163.2788-.2277.4268-.4552.8535-.9105 1.7071-1.3373 2.5607 0 .2276-.2276.4837-.3698.7397l-1.2235 2.5038c0 .2277-.1992.4553-.2846.6544-.4268.8821-.8251 1.7925-1.2235 2.6745 11.1381 4.1087 22.9269 6.1714 34.7984 6.0888 11.8715.0826 23.6603-1.9801 34.7986-6.0888z" fill="#f9a321"/><path d="m95.5315 36.1913c-.6544-1.1096-1.2804-2.1908-1.9633-3.272l-.5975-.9958-1.3658-2.134-.8536-1.3088-1.3657-2.0201-1.0244-1.451c-.4552-.6544-.882-1.2804-1.3657-1.9348l-1.2804-1.7925-1.7356-2.3046c-.6829-.9105-1.3373-1.7925-2.0487-2.6745l-1.2519-1.4795-1.7072-2.1624c-.4268-.4837-.8251-.9958-1.2519-1.508l-1.8495-2.21926-1.2235-1.45107-2.1625-2.47534-1.0527-1.2519-3.3006-3.75569948-1.9064 2.10546948c9.769 11.3809 19.5379 22.7428 29.3069 34.0858z" fill="#f9a321"/><path d="m88.1339 212.368v-.626c-13.1038 3.043-26.7309 3.043-39.8347 0l-1.764 9.759h.2276c7.7542 1.38 15.6913 1.38 23.4455 0 6.7107-1.311 12.9203-4.475 17.9256-9.133z" fill="#304b64"/></svg>